<svg width="25" height="24" viewBox="0 0 25 24" fill="none" xmlns="http://www.w3.org/2000/svg">
    <path d="M6.00019 5.89636C6.00019 4.85382 6.42161 3.85398 7.17176 3.11679C7.92191 2.3796 8.93932 1.96545 10.0002 1.96545H14.0002C15.0611 1.96545 16.0785 2.3796 16.8286 3.11679C17.5788 3.85398 18.0002 4.85382 18.0002 5.89636V7.86181H23.1332L21.8202 18.1765C21.6993 19.1274 21.2291 20.0021 20.498 20.6362C19.7669 21.2703 18.8253 21.6202 17.8502 21.62H6.14919C5.17424 21.6199 4.23288 21.27 3.50201 20.6359C2.77113 20.0018 2.30108 19.1272 2.18019 18.1765L0.867188 7.86181H6.00019V5.89636ZM12.0002 7.86181C12.2654 7.86181 12.5198 7.96534 12.7073 8.14964C12.8948 8.33394 13.0002 8.5839 13.0002 8.84453C13.0002 9.10517 12.8948 9.35513 12.7073 9.53942C12.5198 9.72372 12.2654 9.82726 12.0002 9.82726H3.13319L4.16319 17.9328C4.22367 18.4084 4.45891 18.8459 4.82466 19.163C5.19041 19.48 5.66146 19.6549 6.14919 19.6545H17.8532C18.3406 19.6544 18.8111 19.4793 19.1765 19.1623C19.5418 18.8453 19.7768 18.408 19.8372 17.9328L20.8672 9.82726H16.0002V5.89636C16.0002 5.37509 15.7895 4.87517 15.4144 4.50657C15.0393 4.13798 14.5306 3.93091 14.0002 3.93091H10.0002C9.46976 3.93091 8.96105 4.13798 8.58597 4.50657C8.2109 4.87517 8.00019 5.37509 8.00019 5.89636V7.86181H12.0002Z"/>
</svg>
