<svg width="1346" height="1351" viewBox="0 0 1346 1351" fill="none" xmlns="http://www.w3.org/2000/svg">
<path fill-rule="evenodd" clip-rule="evenodd" d="M931.732 286.956C928.968 285.36 926.168 283.936 923.378 282.417C1132.73 409.133 1197.95 727.766 1075.3 940.245C951.042 1155.46 675.437 1228.98 459.75 1104.44C326.504 1027.51 224.164 869.207 212.355 726.885C218.634 879.435 311.815 1032.23 454.028 1114.33C674.617 1241.71 956.465 1166.52 1083.54 946.416C1210.64 726.288 1152.32 414.31 931.732 286.956ZM368.962 1070.69C371.665 1072.84 374.443 1074.81 377.18 1076.86C173.432 908.09 128.743 586.18 293.849 378.531C461.086 168.207 767.598 133.453 978.483 300.903C1108.75 404.364 1184.14 581.632 1174.08 735.674C1191.68 571.57 1127.38 402.15 988.319 291.74C772.646 120.482 459.157 156.029 288.136 371.113C117.097 586.242 153.309 899.445 368.962 1070.69Z" fill="#DC0000"/>
</svg>
