<svg width="54" height="61" viewBox="0 0 54 61" fill="none" xmlns="http://www.w3.org/2000/svg">
<path d="M19.72 15.6054H19.9725C20.0947 15.6054 20.1191 15.3682 19.9725 15.3591C14.6373 14.6383 8.00692 17.6491 3.89349 22.5578C2.31459 24.2085 1.16589 26.3089 0.570187 28.6343C0.496879 28.8989 0.439852 29.1544 0.382834 29.4189C0.336217 29.6083 0.298145 29.8001 0.268787 29.9937C0.0927351 30.862 0.0026033 31.7493 0 32.6397C0 32.6711 0.0111642 32.7013 0.0310225 32.7235C0.0508807 32.7458 0.0778102 32.7583 0.105894 32.7583C0.133978 32.7583 0.160907 32.7458 0.180766 32.7235C0.200624 32.7013 0.211788 32.6711 0.211788 32.6397C0.211788 32.6397 0.211788 32.5758 0.211788 32.5393C0.207919 32.6061 0.207919 32.6732 0.211788 32.74C0.211788 32.813 0.317657 32.813 0.317657 32.74C0.284922 32.2297 0.284922 31.7175 0.317657 31.2072C0.73082 27.8961 2.13514 24.8402 4.30076 22.5395C5.87557 20.9587 7.62809 19.6152 9.51381 18.5433C9.83962 18.3517 10.1817 18.1601 10.5239 17.9776C13.2488 16.6504 16.1597 15.8662 19.1254 15.6601C19.272 15.6601 19.4186 15.6601 19.5571 15.6601C21.2036 15.9146 22.7331 16.7567 23.9187 18.0617C25.1042 19.3666 25.8827 21.0649 26.1385 22.9045C27.1323 30.1488 21.2025 35.1761 15.965 37.749C11.0777 40.1668 1.46617 42.311 0.301375 33.6615C0.301375 33.552 0.122192 33.5612 0.138483 33.6615C0.307692 34.9457 0.748977 36.1658 1.42544 37.2198C1.34399 37.1195 1.25439 37.0556 1.17294 36.9552C1.09148 36.8549 0.985591 36.9553 1.04261 37.083C5.35152 43.6522 12.7638 43.2325 18.6937 39.7471C23.9882 36.6268 29.1523 29.4007 26.6028 22.4118C25.8127 18.0323 23.0352 16.0433 19.72 15.6054ZM23.7927 33.3969C23.7927 33.2783 23.7194 33.178 23.6868 33.0685C23.923 32.7765 24.1592 32.4846 24.371 32.1561C24.371 32.2565 24.4362 32.3477 24.4606 32.4389C24.485 32.5302 24.5339 32.6853 24.5583 32.813C24.3629 33.1779 24.1755 33.5612 23.9474 33.9079C23.9149 33.771 23.8497 33.5885 23.8497 33.4152L23.7927 33.3969ZM24.6072 32.2017C24.6072 32.1105 24.5339 32.0283 24.5013 31.9371C24.5266 31.8907 24.5567 31.8479 24.5909 31.8094C24.6642 31.9554 24.6642 32.0831 24.6642 32.2199L24.6072 32.2017ZM25.4299 30.7419C25.4338 30.6537 25.4338 30.5654 25.4299 30.4773C25.6116 30.1311 25.7774 29.7748 25.9268 29.4098C25.8054 29.8799 25.6557 30.3402 25.4788 30.7875L25.4299 30.7419ZM22.6279 34.6469C22.6708 34.8822 22.7364 35.1117 22.8234 35.3312C22.6849 35.4954 22.5709 35.6779 22.4243 35.8421C22.4243 35.614 22.3509 35.3768 22.3184 35.1487C22.2858 34.9206 22.2776 34.7564 22.2613 34.5648L22.5709 34.2546C22.5998 34.3944 22.638 34.5316 22.6849 34.6652L22.6279 34.6469ZM21.6667 35.5593C21.7359 35.8403 21.7849 36.1271 21.8134 36.4169L21.1943 37.0009C21.1062 36.5953 20.9515 36.2117 20.7382 35.8695C21.007 35.6505 21.2757 35.4316 21.5527 35.2035C21.6166 35.3303 21.6738 35.4613 21.7238 35.5958L21.6667 35.5593ZM21.9763 35.4498C21.9237 35.2881 21.8525 35.1347 21.7645 34.9936L22.017 34.7655C22.0172 35.1933 22.089 35.6173 22.2288 36.0155C22.2288 36.0155 22.1473 36.0885 22.1147 36.1341C22.1071 35.9156 22.0798 35.6986 22.0333 35.4863L21.9763 35.4498ZM6.32083 40.6687V40.8146C6.15772 40.7604 5.9973 40.6964 5.84025 40.6231V40.4314C5.95429 40.4314 6.08459 40.4314 6.19863 40.4862C6.31266 40.5409 6.36154 40.6322 6.37783 40.7052L6.32083 40.6687ZM6.50003 40.5227L6.88286 40.5774C6.88286 40.623 6.88286 40.6413 6.88286 40.6778C6.8788 40.7538 6.8788 40.8299 6.88286 40.9059V41.0245C6.76068 41.0245 6.64665 40.9241 6.52446 40.8785C6.5591 40.7768 6.57029 40.667 6.55703 40.5592L6.50003 40.5227ZM8.19426 41.2982C8.19426 41.2982 8.19426 41.2982 8.19426 41.2526C8.19426 41.207 8.19426 41.3073 8.19426 41.3256C8.19426 41.3256 8.25128 41.3438 8.25128 41.3347L8.19426 41.2982ZM8.42233 41.2982C8.49564 41.2982 8.51194 41.2982 8.56081 41.2343C8.56081 41.3347 8.65855 41.3438 8.73186 41.3256V41.3986L8.42233 41.3529C8.44098 41.3456 8.46003 41.3395 8.47935 41.3347L8.42233 41.2982ZM9.49753 41.2982C9.47221 41.0879 9.41433 40.8841 9.32648 40.696C9.55455 40.696 9.77447 40.696 10.0025 40.696C10.0479 41.0059 10.1161 41.3111 10.2062 41.6084C10.0025 41.6084 9.7989 41.6084 9.59527 41.6084C9.58765 41.5072 9.57405 41.4066 9.55455 41.3073L9.49753 41.2982ZM10.198 40.6504C10.4342 40.6504 10.6623 40.5683 10.8904 40.5318C10.9637 40.7234 11.0289 40.9241 11.1022 41.1157C11.1755 41.3073 11.2244 41.3803 11.2814 41.5172C10.9881 41.5172 10.6868 41.5172 10.3935 41.5172C10.3688 41.2275 10.3225 40.9406 10.255 40.6595L10.198 40.6504ZM11.3302 40.9515L11.1266 40.4862L11.8841 40.3311C11.9715 40.5602 12.0721 40.7827 12.1855 40.9971C12.2425 41.1066 12.3158 41.2435 12.3973 41.3712C12.104 41.4259 11.8108 41.4807 11.5176 41.5081C11.5094 41.3347 11.4687 41.1522 11.3873 40.9606L11.3302 40.9515ZM12.4624 40.7873C12.3565 40.623 12.2588 40.4497 12.1611 40.2763L12.9023 40.0756C12.9529 40.4743 13.0778 40.8566 13.2688 41.1978L12.8046 41.2891L12.4624 40.7873ZM13.163 40.6869C13.0942 40.4766 13.0424 40.2598 13.0082 40.0391C13.3259 39.9479 13.6272 39.8384 13.9286 39.7198C13.9938 39.9296 14.0508 40.1395 14.1241 40.3493C14.1839 40.5515 14.266 40.7446 14.3685 40.9241C14.0345 41.0245 13.7087 41.0975 13.3747 41.1705C13.3584 41.0245 13.2607 40.8694 13.2607 40.696L13.163 40.6869ZM5.68549 40.4041C5.68122 40.4617 5.68122 40.5197 5.68549 40.5774C5.27822 40.3858 4.87094 40.176 4.47996 39.9388C4.88961 40.1321 5.31163 40.2907 5.74249 40.4132L5.68549 40.4041ZM18.6366 38.9807C17.3193 39.7845 15.9259 40.421 14.4825 40.8785C14.4295 40.6345 14.3502 40.3985 14.2463 40.176L14.0426 39.6833C14.2544 39.6012 14.4825 39.5464 14.678 39.4643C16.7683 38.5877 18.7544 37.4263 20.5915 36.0063C20.7084 36.2407 20.8091 36.4848 20.8929 36.7363C20.9418 36.8823 20.9825 37.0374 21.0233 37.1925C20.289 37.8575 19.5101 38.4584 18.6937 38.9899L18.6366 38.9807ZM23.0515 35.0575C23.0026 34.8841 22.9456 34.7108 22.9049 34.5466C22.8641 34.3823 22.8315 34.1998 22.799 34.0265C23.0189 33.7984 23.2388 33.5612 23.4506 33.3148C23.4506 33.3148 23.4506 33.3878 23.4506 33.4243C23.5112 33.6964 23.5929 33.962 23.6949 34.2181C23.5646 34.5192 23.3284 34.7655 23.1085 35.0666L23.0515 35.0575Z" fill="#DC0000"/>
<path d="M20.8754 20.0855C17.5439 19.976 14.3591 22.8774 11.7363 24.8026C9.11346 26.7277 6.53952 28.8079 3.99816 30.9064C3.50943 31.2258 3.02885 31.5451 2.56456 31.8736C2.545 31.8865 2.52806 31.9039 2.51485 31.9246C2.50163 31.9453 2.49245 31.9688 2.48785 31.9938C2.48325 32.0187 2.48333 32.0444 2.48812 32.0692C2.49292 32.0941 2.50232 32.1176 2.51569 32.1382C2.13286 32.4575 1.74188 32.7677 1.36719 33.0505C1.36719 33.0505 1.36719 33.1144 1.36719 33.0505L2.47497 32.275C2.36236 32.5459 2.26974 32.8266 2.19803 33.1144C2.19803 33.1144 2.19803 33.1144 2.19803 33.16C2.19803 33.2056 2.19803 33.16 2.19803 33.16C2.18434 33.4972 2.21173 33.8348 2.27947 34.1637C2.27947 34.1637 2.33649 34.1637 2.36093 34.1637C2.41794 34.3005 2.5727 34.1637 2.55641 34.0633C2.54012 33.9629 2.55641 34.0633 2.55641 34.0633C2.55641 34.0633 2.7519 34.1819 2.79263 34.0633C2.90667 33.6619 3.0207 33.2604 3.12659 32.8589L3.21621 32.8042C3.16733 32.9958 3.10216 33.1874 3.05329 33.379C2.9404 33.7846 2.85597 34.1995 2.80078 34.6198C2.65974 34.5599 2.52349 34.4867 2.39351 34.4009C2.39351 34.4009 2.33648 34.4009 2.35277 34.4009C2.59857 34.7817 2.95825 35.051 3.36635 35.1598C3.77445 35.2687 4.20385 35.2098 4.57647 34.9939C4.59052 34.9855 4.60097 34.9711 4.60556 34.954C4.61014 34.9369 4.60847 34.9184 4.60091 34.9027C4.59335 34.887 4.58051 34.8752 4.56524 34.8701C4.54996 34.865 4.53349 34.8668 4.51945 34.8753C3.96919 35.012 3.39366 34.9314 2.89037 34.6472C3.01539 34.2726 3.11613 33.8884 3.19177 33.4976C3.24879 33.233 3.29765 32.9502 3.35466 32.6765L3.68048 32.4666C3.48579 33.1332 3.34138 33.8168 3.24877 34.5104C3.24877 34.5742 3.33023 34.629 3.35466 34.556C3.56319 33.8491 3.71317 33.1222 3.80268 32.3845C3.97373 32.2842 4.13663 32.1747 4.29953 32.0652C3.98876 32.9258 3.7912 33.8324 3.71306 34.7567C3.71306 34.8023 3.78638 34.8206 3.79452 34.7567C4.06532 33.8404 4.28032 32.9046 4.43802 31.9557L4.92672 31.6455C4.61166 32.6393 4.37455 33.662 4.21807 34.702C4.21807 34.7567 4.29952 34.8023 4.31581 34.702C4.65675 33.6663 4.91038 32.5972 5.07335 31.5086C10.2864 28.1054 15.304 24.2095 20.5496 20.8793C20.7206 20.7698 20.5496 20.4778 20.3785 20.5873C18.4562 21.8464 16.4769 23.0873 14.5057 24.3555C14.5057 24.2278 14.5057 24.1548 14.3428 24.1548C14.6116 23.9175 14.8967 23.7077 15.1573 23.4705C15.2306 23.4066 15.1573 23.2789 15.084 23.3336C14.2695 23.8902 13.4549 24.5106 12.6404 25.1128L11.8259 25.6146C12.8522 24.8847 13.8785 24.1548 14.8967 23.4066C16.819 21.9924 18.3829 20.2954 20.8428 20.2863C20.8428 20.2863 20.7858 20.3501 20.8428 20.3775C21.2012 20.6147 21.527 20.8154 21.6574 21.2899C21.7238 21.5013 21.7444 21.7274 21.7175 21.9495C21.6906 22.1715 21.6169 22.3833 21.5026 22.5672C21.5026 22.6311 21.5596 22.6949 21.6003 22.6402C22.1868 21.9833 21.8773 20.2133 20.8998 20.2498C20.9101 20.2226 20.9133 20.1927 20.9089 20.1637C20.9046 20.1346 20.893 20.1075 20.8754 20.0855ZM2.77635 32.6491C2.80845 32.658 2.84199 32.658 2.87409 32.6491C2.83235 32.7101 2.79424 32.7741 2.76004 32.8407C2.76004 32.786 2.76004 32.7312 2.76004 32.6765C2.76004 32.6765 2.77635 32.6673 2.77635 32.6491ZM8.14416 28.5342C7.93238 28.7167 7.73688 28.9266 7.5251 29.1182C7.46808 29.1182 7.41923 29.0178 7.33777 29.0634L7.15042 29.1912C7.15042 29.1912 7.15042 29.1364 7.15042 29.1182L8.11157 28.443C8.09528 28.4977 8.11158 28.5069 8.14416 28.5342ZM3.18362 32.5578L3.37095 32.4393L3.18362 32.5578Z" fill="#DC0000"/>
<path d="M4.88531 35.7784C4.78757 35.8331 4.83644 36.0065 4.93418 35.9609C8.69735 34.0631 12.4116 31.9829 15.9956 29.7019C18.2519 28.2695 20.4837 26.5542 21.5508 23.8535L21.6567 23.7349C21.6567 23.6893 21.6567 23.6528 21.6567 23.6072C21.7227 23.4833 21.7826 23.3554 21.8359 23.224C21.8359 23.1601 21.8359 23.1145 21.7707 23.0962V23.0415L21.6892 23.1419C21.6892 23.1419 21.6485 23.1419 21.6404 23.1419C21.6322 23.1419 21.5752 23.2514 21.5508 23.3061L21.453 23.443C18.8302 25.2677 16.411 27.4848 13.8045 29.3735C10.9391 31.3913 7.95669 33.1927 4.87716 34.7657C4.82829 34.7657 4.87716 34.8934 4.87716 34.866C9.95148 32.9916 14.7112 30.1825 18.9605 26.5542C18.9605 26.5542 19.0501 26.6181 19.099 26.5542C19.386 26.3881 19.6587 26.1926 19.9135 25.9703C18.4005 27.6517 16.6605 29.0557 14.7575 30.1308C11.4994 32.1563 8.20048 33.9901 4.88531 35.7784Z" fill="#DC0000"/>
<path d="M0.691406 32.0291C2.45081 21.7465 11.7447 16.4729 20.4766 16.5185C20.6395 16.5185 20.6232 16.2448 20.4766 16.2357C12.4452 16.0349 1.1394 21.6552 0.691406 32.0291Z" fill="#DC0000"/>
<path d="M0.8943 33.2879C0.8943 33.224 0.804688 33.2331 0.804688 33.2879C0.804688 37.0469 3.94066 38.7622 6.8893 39.0268C10.7257 39.2935 14.5452 38.2637 17.853 36.0706C20.9075 34.1729 24.5974 31.4539 25.6889 27.5216C26.1777 25.7751 26.1544 23.8992 25.6223 22.1686C25.0902 20.4381 24.0774 18.9439 22.7321 17.905C22.6588 17.8411 22.561 17.9506 22.6344 18.0236C25.2246 20.4688 26.5849 24.1457 25.2735 27.8318C24.0924 31.1437 20.989 33.4521 18.3254 35.213C15.8223 36.9511 13.033 38.1084 10.123 38.6162C9.32925 38.7326 8.52849 38.7784 7.72827 38.753V38.6892C6.97889 38.5614 6.00146 38.5432 5.09732 38.3516C4.51245 38.1896 3.94853 37.9444 3.41938 37.6217C3.10901 37.3933 2.8565 37.079 2.68627 36.7093C2.70834 36.8962 2.76375 37.0761 2.84919 37.2385C2.26851 36.7991 1.78875 36.2122 1.44903 35.5256C1.1093 34.8391 0.919235 34.0723 0.8943 33.2879Z" fill="#DC0000"/>
<path d="M20.5905 26.4629C20.5498 26.5085 20.5905 26.5815 20.6557 26.545C21.5045 25.6826 22.0768 24.5318 22.2848 23.2695C22.2848 23.2695 22.2848 23.2695 22.2441 23.2695C21.9047 24.455 21.3406 25.5443 20.5905 26.4629Z" fill="#DC0000"/>
<path d="M21.1602 26.8281C21.1602 26.8738 21.1602 26.9012 21.2253 26.8738C21.8867 26.1093 22.312 25.1277 22.439 24.0728C22.1471 25.062 21.7153 25.9922 21.1602 26.8281Z" fill="#DC0000"/>
<path d="M21.7383 26.7737C21.7383 26.8375 21.7872 26.9014 21.8361 26.8467C22.4769 26.0805 22.8747 25.0994 22.9682 24.0548C22.9682 24.0548 22.9194 23.9909 22.9031 24.0548C22.7483 24.5292 22.6017 24.9671 22.4062 25.4689C22.2107 25.9708 21.9582 26.3266 21.7383 26.7737Z" fill="#DC0000"/>
<path d="M22.2198 26.9012C22.2176 26.9138 22.2188 26.9269 22.2234 26.9387C22.2279 26.9505 22.2355 26.9605 22.2452 26.9674C22.2549 26.9743 22.2661 26.9777 22.2776 26.9773C22.2891 26.9769 22.3001 26.9726 22.3094 26.9651C22.8492 26.1601 23.2649 25.2596 23.5394 24.3008C23.5394 24.3008 23.5394 24.237 23.4905 24.3008C23.1321 25.1676 22.6271 25.9979 22.2198 26.9012Z" fill="#DC0000"/>
<path d="M22.832 27.1017C22.832 27.1565 22.8809 27.2203 22.9216 27.1656C23.5215 26.3752 23.9085 25.4101 24.0375 24.3828H23.9968C23.6912 25.3307 23.301 26.2416 22.832 27.1017Z" fill="#DC0000"/>
<path d="M23.678 27.1473C24.0101 26.7543 24.2696 26.2916 24.4416 25.7859C24.6135 25.2801 24.6945 24.7413 24.6799 24.2003C24.6799 24.1456 24.6065 24.1547 24.5984 24.2003C24.5348 25.2439 24.1817 26.2392 23.5884 27.047C23.5395 27.1291 23.6291 27.2112 23.678 27.1473Z" fill="#DC0000"/>
<path d="M15.9728 36.2255C15.9158 36.2255 15.9728 36.3533 16.0299 36.3168C18.3839 34.9482 21.4221 33.4701 22.9942 30.961C24.4685 28.6253 26.065 25.5506 24.9165 22.6948C25.6414 25.9429 23.9227 30.1308 21.6583 32.2566C19.9478 33.8533 17.8137 34.8661 15.9728 36.2255Z" fill="#DC0000"/>
<path d="M35.1147 30.5051C34.96 30.5872 35.0496 30.8974 35.2125 30.8335C37.2396 30.073 39.4252 30.0209 41.4794 30.6841C43.5335 31.3473 45.359 32.6945 46.7137 34.5469C49.4017 38.1417 49.7927 42.3843 50.2163 46.7638C50.0656 48.8891 49.4923 50.9498 48.5383 52.7946C47.8215 54.0081 46.6486 55.1851 45.215 55.0482C43.7814 54.9114 43.1623 53.634 42.6736 52.3932C42.5107 51.8914 42.3397 51.3896 42.1849 50.8786C42.1849 50.5411 42.1198 50.1944 42.0872 49.8568C42.0872 49.8568 42.1442 49.802 42.0872 49.7564L42.0383 49.6104C41.6998 46.3146 41.1555 43.0493 40.4092 39.8388C40.0101 38.014 39.7739 34.775 38.0878 33.8535C38.2454 33.8199 38.4077 33.8245 38.5637 33.867C38.7196 33.9095 38.8657 33.9889 38.9919 34.0999C39.1545 34.2839 39.3069 34.4789 39.4481 34.6838C39.7739 35.1126 40.0834 35.5506 40.4418 35.9429C40.4418 35.9429 40.5396 35.9429 40.5151 35.8973C40.1649 35.2951 38.5276 32.4667 37.6561 33.6254C37.5819 33.6095 37.5051 33.6237 37.4394 33.6655C37.3737 33.7073 37.3235 33.774 37.2977 33.8535C35.8397 38.1417 37.3466 42.6672 39.1956 46.8185C39.0571 46.563 38.9186 46.3076 38.8046 46.0795C38.8046 46.0339 38.715 46.0795 38.7313 46.0795C39.8228 48.7254 41.3052 51.0064 40.9061 54.0355C40.9061 54.0355 40.8491 54.0355 40.8409 54.0355C39.8146 57.5117 36.4994 58.0409 34.3898 55.4041C34.3898 55.4041 34.3246 55.4041 34.3409 55.4041C35.8804 58.7343 40.507 57.5938 41.0283 54.0355C41.0283 53.9899 41.0283 53.9625 40.9631 53.9442C41.163 53.3583 41.2558 52.7334 41.2362 52.1065C41.2167 51.4797 41.085 50.8636 40.8491 50.2947L41.0609 50.76C41.0573 50.7781 41.0573 50.7967 41.0609 50.8148C41.2401 51.1888 41.4111 51.5629 41.574 51.9187C41.5251 51.9644 41.4681 52.01 41.4763 52.083C41.6804 53.2302 41.6386 54.4153 41.3541 55.5409C41.2096 56.047 41.0099 56.5312 40.7595 56.9825C40.678 57.1194 40.5966 57.2471 40.507 57.3748H40.4174C30.1298 62.8947 23.3121 34.8845 34.9518 30.8427C34.9648 30.8427 34.9772 30.8369 34.9864 30.8266C34.9955 30.8164 35.0007 30.8024 35.0007 30.7879C35.0007 30.7734 34.9955 30.7595 34.9864 30.7492C34.9772 30.7389 34.9648 30.7332 34.9518 30.7332C28.5903 31.5908 27.6209 42.2748 28.8183 47.6762C29.4292 50.3586 31.881 55.4497 34.8378 57.9405C36.0853 58.9751 37.5199 59.6914 39.0408 60.039C39.4355 60.0982 39.8354 60.0982 40.23 60.039C40.3033 60.039 40.3766 60.1211 40.4418 60.0846C40.4852 60.0541 40.5193 60.0096 40.5395 59.9569C41.6209 59.6569 42.6845 59.2821 43.7244 58.8346C44.7852 58.5155 45.7714 57.9424 46.6152 57.1548C47.459 56.3672 48.1401 55.3839 48.6116 54.2727C50.2407 52.2928 50.7294 48.8805 50.6887 46.4262C50.6887 46.3441 50.6235 46.335 50.5747 46.2985C50.7864 37.5031 43.8547 25.7789 35.1147 30.5051ZM42.2093 58.789L42.1197 58.6521H42.1605C42.1904 58.6222 42.2145 58.5857 42.2313 58.5449C42.2481 58.5041 42.2573 58.4599 42.2582 58.4149C42.2582 58.4149 42.2582 58.4606 42.2582 58.4879C42.2582 58.5153 42.356 58.6339 42.3967 58.7252L42.2093 58.789ZM40.8491 58.5427C40.8178 58.5016 40.7822 58.4648 40.7432 58.4332L40.6699 58.3602C40.7351 58.3054 40.8002 58.269 40.8654 58.2051C40.9305 58.1412 40.9957 58.3511 41.069 58.4149L40.8491 58.5427ZM41.8509 57.7671L42.1442 57.6303C42.118 57.6453 42.0967 57.6694 42.0835 57.6989C42.0703 57.7285 42.0659 57.762 42.0709 57.7945C42.0922 57.889 42.1222 57.9807 42.1605 58.0682C42.0546 57.9405 41.9487 57.8492 41.8509 57.7398V57.7671ZM40.2789 58.6795V58.7343L40.1079 58.789L40.2789 58.6795ZM39.3992 59.227C39.3992 59.227 39.3992 59.2269 39.3992 59.2726H39.22L39.3829 59.1996L39.3992 59.227ZM42.6574 58.2598C42.5521 58.0518 42.4323 57.8535 42.299 57.6668C42.2761 57.6495 42.2491 57.6403 42.2216 57.6403C42.194 57.6403 42.1671 57.6495 42.1442 57.6668C42.4374 57.5208 42.7225 57.3657 43.0076 57.2015C42.7714 57.5117 43.1379 58.1138 43.3579 58.3693L42.7632 58.6065C42.7469 58.4332 42.7306 58.3237 42.6818 58.2233L42.6574 58.2598ZM43.7244 58.0773C43.5436 57.8435 43.3927 57.5825 43.2764 57.3018C43.2764 57.2562 43.1623 57.1193 43.0727 57.1193C43.3252 56.9734 43.5696 56.8274 43.8058 56.6632C43.9285 57.0912 44.101 57.4992 44.319 57.8766C44.1317 57.977 43.928 58.0682 43.7244 58.1595C43.7407 58.0956 43.7651 58.0591 43.7488 58.0409L43.7244 58.0773ZM43.9688 56.5537C44.1154 56.4533 44.2376 56.3256 44.376 56.2161C44.5001 56.5886 44.6671 56.9413 44.8729 57.2653C44.9194 57.3435 44.9883 57.4015 45.0684 57.4296C44.8836 57.5529 44.6933 57.6656 44.4982 57.7671C44.3821 57.3264 44.2122 56.9057 43.9932 56.5172L43.9688 56.5537ZM45.2313 55.7964C45.2313 55.7964 45.2313 55.8603 45.1743 55.8876H45.1254C45.0278 55.8787 44.9298 55.8787 44.8322 55.8876C44.8926 55.8441 44.9497 55.7953 45.0032 55.7416C45.1091 55.6869 45.1824 55.7508 45.2557 55.7508L45.2313 55.7964ZM44.6367 55.55C43.5778 56.207 42.4944 56.8 41.4274 57.3748L41.3541 57.3018C41.3541 57.3018 41.2808 57.3018 41.24 57.3018C41.3148 57.1742 41.3802 57.0399 41.4356 56.9004C41.4612 56.9101 41.4883 56.9138 41.5153 56.9111C41.5423 56.9084 41.5685 56.8995 41.5922 56.885C41.6159 56.8704 41.6367 56.8504 41.6532 56.8264C41.6697 56.8023 41.6816 56.7747 41.6881 56.7453C41.9062 55.9325 42.0347 55.093 42.0709 54.2453C42.0872 53.9841 42.0872 53.7219 42.0709 53.4607C42.1442 53.4607 42.2257 53.4607 42.1931 53.3512C42.0953 53.0045 42.022 52.6395 41.9324 52.2837C41.7964 51.5951 41.6167 50.9182 41.3948 50.2582C41.3948 50.1579 41.2075 50.2582 41.2319 50.3221L41.2808 50.5137C41.2808 50.4133 41.2237 50.3129 41.1912 50.2126C41.1912 50.2673 41.2808 50.2126 41.2726 50.2126C41.0486 49.0441 40.7352 47.8994 40.3359 46.7911C40.3359 46.7455 40.2463 46.7911 40.2626 46.7911C40.4706 47.8329 40.7428 48.8572 41.0772 49.8568C40.9468 49.4553 40.8165 49.063 40.6943 48.6707C39.5239 44.7243 38.6146 40.6867 37.9738 36.5907C37.9329 35.761 37.9329 34.9295 37.9738 34.0999C38.1504 34.344 38.3136 34.5999 38.4625 34.8663C38.4034 37.2055 38.7037 39.5387 39.3503 41.7639C39.7331 43.4637 40.198 45.1388 40.7432 46.782C40.7765 47.0199 40.8255 47.2547 40.8898 47.4846C40.4418 45.9974 40.0101 44.501 39.5051 43.0504C39.5051 42.9682 39.3585 43.0504 39.3829 43.096C39.8879 44.8113 40.4744 46.5174 41.0609 48.2054C41.0609 48.3513 41.1423 48.4973 41.1749 48.6524C41.2075 48.8075 41.2726 49.209 41.3215 49.4918C41.3161 49.4978 41.3118 49.5048 41.3088 49.5127C41.3059 49.5205 41.3044 49.5289 41.3044 49.5374C41.3044 49.5459 41.3059 49.5543 41.3088 49.5622C41.3118 49.57 41.3161 49.5771 41.3215 49.583C41.3948 49.7746 41.4518 49.9845 41.517 50.1761C41.5124 50.2277 41.5124 50.2796 41.517 50.3312C41.7858 51.1888 42.0302 52.0556 42.3315 52.8859C42.3315 52.9862 42.4944 52.9315 42.4781 52.8311C42.3506 52.1864 42.1679 51.557 41.9324 50.9516C41.9731 50.9516 41.9975 51.0429 42.0546 51.0429C42.1434 51.4895 42.2888 51.9196 42.4863 52.3202C42.5352 52.5209 42.6003 52.7034 42.6655 52.895H42.6166C42.751 53.6018 42.751 54.3323 42.6166 55.0391C42.3999 55.6588 42.127 56.2519 41.8021 56.8091C41.788 56.8285 41.7814 56.8533 41.7837 56.8781C41.786 56.9029 41.797 56.9257 41.8143 56.9414C41.8316 56.9572 41.8537 56.9646 41.8759 56.962C41.898 56.9594 41.9184 56.9471 41.9324 56.9278C42.8528 56.1887 43.0483 54.4461 42.7958 53.2143C43.1583 54.2016 43.8183 55.0152 44.6611 55.5135L44.6367 55.55ZM41.7858 50.7144C41.7043 50.4954 41.6229 50.2856 41.5333 50.0666C41.4437 49.8476 41.5333 49.8294 41.5333 49.7108C41.4778 49.2763 41.3961 48.8465 41.2889 48.4243L41.24 48.2236C41.3296 48.4517 41.4437 48.6707 41.5496 48.8987C41.631 49.4553 41.7125 50.0666 41.8102 50.6779L41.7858 50.7144ZM40.5314 42.5029C40.8653 44.2182 41.1016 45.9518 41.3459 47.6853C39.7356 43.7318 38.7939 39.4781 38.5684 35.14C39.725 37.2932 40.1404 40.149 40.5558 42.4938L40.5314 42.5029ZM38.5113 40.7329C38.5113 40.8789 38.5602 41.0249 38.5928 41.1617C38.5113 41.0249 38.5113 40.8789 38.5113 40.7329ZM38.0552 37.4392C38.1529 38.2968 38.2588 39.1545 38.3891 40.0121C38.2262 39.1727 38.1122 38.3151 38.0389 37.4392H38.0552Z" fill="#DC0000"/>
<path d="M34.0795 55.5229C34.1366 55.5776 34.218 55.5229 34.1691 55.4408C29.4041 49.0541 26.9767 39.7751 32.7844 33.1329C32.8414 33.0691 32.7844 32.9505 32.6948 33.0235C26.8546 38.6438 28.7362 50.2767 34.0795 55.5229Z" fill="#DC0000"/>
<path d="M33.4094 32.6037C33.3442 32.6675 33.4094 32.7953 33.4909 32.7405C34.6538 31.8984 35.9615 31.3391 37.3295 31.0986C38.6975 30.8582 40.0953 30.942 41.4326 31.3446V31.2625C40.112 30.6528 38.6684 30.4555 37.2556 30.6917C35.8428 30.9278 34.5136 31.5886 33.4094 32.6037Z" fill="#DC0000"/>
<path d="M42.2945 49.6923C42.2945 49.6376 42.1885 49.6923 42.2048 49.6923C42.604 51.3711 43.7443 54.5553 45.7318 54.2543C45.7888 54.2543 45.7318 54.1539 45.7318 54.1539C43.7443 54.0262 42.8891 51.4897 42.2945 49.6923Z" fill="#DC0000"/>
<path d="M30.038 43.7893C30.038 43.7893 30.038 43.7437 29.9729 43.7893H29.867C29.8533 43.7915 29.8408 43.7992 29.8318 43.811C29.8228 43.8227 29.818 43.8377 29.8181 43.8532C29.7965 44.9096 29.9799 45.9587 30.3557 46.9279C30.6342 47.9908 31.0397 49.0067 31.5612 49.9479C31.5612 49.9935 31.659 49.9479 31.6346 49.9023C31.2436 48.8987 30.82 47.9315 30.5105 46.8914C30.3883 46.4991 30.2905 46.1068 30.2009 45.7053C30.1113 45.3039 30.0869 45.167 30.038 44.9024C29.9731 44.6026 29.9731 44.2898 30.038 43.99C30.038 44.0356 30.1521 43.99 30.1195 43.917L30.038 43.7893Z" fill="#DC0000"/>
<path d="M29.7525 42.9777C29.6835 41.1228 29.9691 39.2727 30.59 37.5513C31.2109 35.83 32.1528 34.2769 33.3528 32.9962C33.3614 32.9912 33.369 32.9841 33.3749 32.9754C33.3808 32.9667 33.3848 32.9566 33.3868 32.9459C33.3887 32.9352 33.3885 32.9241 33.3861 32.9135C33.3837 32.9029 33.3792 32.893 33.373 32.8846C33.3667 32.8762 33.3589 32.8696 33.35 32.865C33.3411 32.8605 33.3315 32.8582 33.3217 32.8584C33.3119 32.8586 33.3023 32.8612 33.2936 32.8662C33.2849 32.8711 33.2773 32.8781 33.2713 32.8868C32.0194 34.1418 31.0485 35.7091 30.4372 37.462C29.8259 39.215 29.5914 41.1045 29.7525 42.9777Z" fill="#DC0000"/>
<path d="M39.8703 55.3219C39.8756 55.3123 39.8792 55.3017 39.8809 55.2905C39.8826 55.2794 39.8823 55.268 39.88 55.257C39.8777 55.246 39.8735 55.2355 39.8677 55.2263C39.8618 55.2171 39.8544 55.2093 39.8459 55.2033C39.8373 55.1973 39.8278 55.1933 39.8178 55.1914C39.8079 55.1896 39.7977 55.1899 39.7878 55.1924C39.778 55.195 39.7687 55.1997 39.7605 55.2062C39.7523 55.2128 39.7453 55.2211 39.74 55.2307C38.0376 57.5938 35.4474 55.8146 33.9812 54.1997C32.9779 53.0275 32.2015 51.636 31.7005 50.1122C31.7005 50.0575 31.6027 50.1122 31.619 50.1122C32.3602 52.749 37.5081 59.9933 39.8703 55.3219Z" fill="#DC0000"/>
<path d="M40.1367 36.1894C40.6404 37.9544 41.0083 39.7645 41.2363 41.5998C41.2405 41.6116 41.2479 41.6218 41.2573 41.629C41.2667 41.6361 41.2779 41.64 41.2893 41.64C41.3007 41.64 41.3118 41.6361 41.3212 41.629C41.3307 41.6218 41.338 41.6116 41.3422 41.5998C41.2584 39.7132 40.8722 37.8588 40.2019 36.1255C40.2019 36.1255 40.1367 36.1437 40.1367 36.1894Z" fill="#DC0000"/>
<path d="M41.3984 43.4794C41.3984 43.4064 41.3984 43.3425 41.3984 43.2695C41.4025 43.3394 41.4025 43.4095 41.3984 43.4794Z" fill="#DC0000"/>
<path d="M41.7195 40.4595C41.6297 38.828 41.2562 37.2318 40.6199 35.7607H40.5547C41.0027 37.3209 41.3041 38.8629 41.638 40.4413C41.6462 40.5143 41.7683 40.5143 41.7195 40.4595Z" fill="#DC0000"/>
<path d="M33.336 49.2184C33.3923 49.2286 33.45 49.2208 33.5025 49.1958C33.5549 49.1708 33.6 49.1296 33.6324 49.0771C33.6648 49.0245 33.6832 48.9628 33.6856 48.899C33.6879 48.8352 33.674 48.7719 33.6455 48.7166C33.45 48.3425 33.0835 48.8899 33.1242 49.1545C33.1242 49.2275 33.2219 49.2275 33.2464 49.1545C33.2708 49.0815 33.3197 48.8352 33.393 48.8169C33.4663 48.7987 33.564 49.0998 33.393 49.0724C33.2952 49.0724 33.2708 49.2001 33.336 49.2184Z" fill="#DC0000"/>
<path d="M32.7428 40.7241C32.7836 40.7241 32.8243 40.7241 32.8243 40.642C32.8243 40.5598 32.7591 40.1128 32.5473 40.1766C32.5069 40.1875 32.4717 40.2154 32.449 40.2544C32.4263 40.2934 32.4178 40.3407 32.4252 40.3865C32.4252 40.3865 32.3519 40.3865 32.36 40.3865C32.3774 40.4846 32.4255 40.5726 32.4957 40.6345C32.5659 40.6964 32.6536 40.7282 32.7428 40.7241ZM32.6532 40.496C32.6292 40.5025 32.604 40.5025 32.5799 40.496C32.6125 40.3865 32.6369 40.4047 32.6532 40.496Z" fill="#DC0000"/>
<path d="M44.9766 44.7205C44.9686 44.6988 44.955 44.6804 44.9376 44.6674C44.9202 44.6544 44.8998 44.6475 44.8789 44.6475C44.858 44.6475 44.8375 44.6544 44.8201 44.6674C44.8027 44.6804 44.7892 44.6988 44.7811 44.7205C44.7811 44.8026 44.6915 44.9303 44.5938 44.9303C44.496 44.9303 44.4634 45.0945 44.5938 45.1219C44.7811 45.1675 45.0255 45.0033 44.9766 44.7205Z" fill="#DC0000"/>
<path d="M53.416 10.98C55.9981 6.15349 49.3433 2.99664 46.6228 2.16636C42.2405 0.852527 34.3314 -2.52331 31.2361 3.32509C30.7822 3.56913 30.4067 3.96427 30.1609 4.45645C30.0713 4.64805 30.3157 4.86702 30.4134 4.68455C30.7054 4.22514 31.1369 3.90076 31.6271 3.77216C31.3886 4.0183 31.2165 4.33438 31.1302 4.68455C30.4087 4.80066 29.6955 4.97447 28.9961 5.20461C28.9228 5.20461 28.9147 5.29584 28.931 5.3597C28.9473 5.42357 28.931 5.3597 28.931 5.3597C27.4729 6.27209 26.9517 8.27023 27.1797 10.2136C26.3652 18.7718 34.2092 23.3976 39.8702 23.8264C46.2806 24.3009 53.2531 20.2681 53.6278 11.2264C53.6259 11.1633 53.6032 11.1031 53.5641 11.0576C53.525 11.0121 53.4722 10.9845 53.416 10.98ZM31.5864 4.49295C31.725 4.26312 31.8803 4.04644 32.0507 3.84514C32.0507 3.84514 32.0507 3.77216 32.0507 3.72654L32.2461 3.6718C32.2461 3.72654 32.2869 3.78129 32.3195 3.73567C32.3521 3.69005 32.4498 3.59881 32.515 3.60794L32.3683 3.89078C32.3059 4.0567 32.2541 4.22746 32.2136 4.40171C32.2136 4.5112 32.2869 4.62979 32.352 4.52943C32.4172 4.42907 32.5312 4.29223 32.6127 4.128C32.6942 3.96377 32.7674 3.77216 32.8489 3.58969C32.9845 3.58065 33.1205 3.58065 33.2562 3.58969C33.191 3.73567 33.1258 3.89078 33.0525 4.03676C32.9792 4.18274 32.8733 4.33783 32.7919 4.50206C32.3683 4.50206 31.9366 4.5477 31.5212 4.61157C31.5212 4.5842 31.5619 4.5477 31.5864 4.49295ZM48.203 8.25198C48.203 8.06951 48.1541 7.89614 48.1296 7.72278L48.5614 7.98738C48.5614 7.98738 48.5614 7.9874 48.5614 8.03302C48.5695 8.16364 48.5695 8.29472 48.5614 8.42534L48.203 8.25198ZM47.9178 8.09687L47.5513 7.91441C47.5594 7.75639 47.5594 7.59796 47.5513 7.43995C47.6898 7.50381 47.8364 7.55858 47.9667 7.63157C47.926 7.78667 47.9178 7.94176 47.9178 8.09687ZM47.2662 7.78666L46.8019 7.58593C46.817 7.39856 46.78 7.21054 46.696 7.04763C46.8915 7.12974 47.0789 7.23012 47.2662 7.32136C47.2662 7.47647 47.2581 7.63155 47.2662 7.78666ZM46.3702 6.87427C46.4661 7.04393 46.5195 7.23927 46.525 7.43995L45.8489 7.13887C45.8489 6.97464 45.8489 6.81042 45.8001 6.66444L46.3702 6.87427ZM45.4824 6.62794V6.97465C43.5478 6.14977 41.5565 5.50288 39.5281 5.04039C38.8046 4.75758 38.0677 4.52 37.3207 4.32873L36.7831 4.15538C38.7217 4.64806 40.5626 5.30497 41.4749 5.51482C42.8759 5.83416 44.2199 6.16262 45.5476 6.60057C45.515 6.61881 45.4824 6.60968 45.4824 6.64617V6.62794ZM35.0726 3.89078L35.7568 4.24659C35.7484 4.34064 35.7484 4.43538 35.7568 4.52943L35.0318 4.48382C35.0973 4.40274 35.1369 4.29956 35.1443 4.19054C35.1516 4.08152 35.1264 3.97285 35.0726 3.88164V3.89078ZM36.0989 4.40171L36.5388 4.57507H36.0745C36.0778 4.51409 36.0751 4.45287 36.0663 4.39258L36.0989 4.40171ZM34.8282 3.75392C34.8675 3.80447 34.8953 3.86479 34.9095 3.92987C34.9237 3.99495 34.9238 4.0629 34.9097 4.128C34.9097 4.23749 34.8201 4.31047 34.7957 4.42908H34.0544C34.206 4.20618 34.3167 3.95192 34.3802 3.68092L34.8282 3.75392ZM33.9241 4.45645C33.6797 4.45645 33.4354 4.45645 33.1829 4.51119C33.2222 4.45023 33.2576 4.38621 33.2888 4.3196C33.3918 4.09874 33.4737 3.8663 33.5331 3.62618C33.7449 3.62618 33.9404 3.62618 34.1603 3.62618C34.0245 3.83803 33.9327 4.08116 33.8915 4.33784C33.8895 4.35764 33.8914 4.3777 33.897 4.39661C33.9026 4.41553 33.9119 4.43283 33.9241 4.44732V4.45645ZM27.7092 12.2756C29.0613 15.2956 32.2217 16.208 34.7061 16.7098C38.4122 17.458 44.4805 18.9452 48.6835 17.1204C45.7433 18.5678 42.4831 18.9937 39.3245 18.343C36.0663 17.7226 31.7982 16.7281 28.8903 14.4471V14.365C28.8903 14.365 28.8333 14.365 28.8088 14.365C28.6459 14.2281 28.4341 14.1369 28.2794 14C28.1246 13.8632 28.1409 14 28.1979 14.1095C28.4267 14.3717 28.6716 14.6157 28.931 14.8394C29.6005 17.1043 30.9506 19.0391 32.7512 20.3137C32.7512 20.3137 32.8571 20.4871 32.9222 20.5601C31.5536 19.7041 30.3745 18.5142 29.4721 17.0786C28.5697 15.643 27.9672 13.9983 27.7092 12.2665V12.2756ZM52.3326 14.0091L51.8114 14.6661C51.915 14.4658 52.0074 14.2586 52.0883 14.0456C52.3062 13.6599 52.4942 13.2539 52.6503 12.8322C52.5444 13.2154 52.4548 13.6351 52.3571 14L52.3326 14.0091ZM50.6628 15.9343C50.5488 16.0164 50.4348 16.062 50.3207 16.1441C50.4836 16.0164 50.6384 15.8887 50.785 15.7518C50.728 15.7974 50.728 15.8704 50.6628 15.9252V15.9343ZM33.1177 20.4962L32.8489 20.1039C32.9874 20.2955 33.1177 20.5053 33.2643 20.6787C33.4109 20.852 33.4191 20.6787 33.3784 20.5601C33.2967 20.3817 33.207 20.2081 33.1096 20.04L33.3621 20.2043C33.4901 20.4824 33.6429 20.7452 33.8182 20.9889C33.8834 21.071 33.9892 20.9889 33.9567 20.8703C33.9162 20.7387 33.8672 20.6106 33.81 20.4871C34.0137 20.6148 34.2336 20.7334 34.4373 20.8429C34.4334 20.8609 34.4334 20.8797 34.4373 20.8977C34.4373 20.9433 34.4373 20.8977 34.5024 20.8977C35.73 21.6107 37.0364 22.1384 38.3877 22.467C36.5385 22.2384 34.7447 21.6192 33.1014 20.6422C33.1142 20.6345 33.1251 20.6234 33.1333 20.61C33.1414 20.5965 33.1464 20.581 33.148 20.5649C33.1496 20.5487 33.1478 20.5324 33.1425 20.5172C33.1372 20.5021 33.1287 20.4886 33.1177 20.478V20.4962ZM34.1114 17.6952C34.1316 18.4871 34.1996 19.2766 34.3151 20.0583H34.2581C33.8671 19.1459 33.4435 18.2335 33.0281 17.3211C33.3865 17.4306 33.7449 17.5674 34.1114 17.6769V17.6952ZM32.8734 17.2481C33.122 18.14 33.4495 19.0019 33.8508 19.821C33.7205 19.7572 33.5901 19.7207 33.4598 19.6568C33.3458 19.4378 33.2236 19.2189 33.1177 18.9999C32.8755 18.37 32.5486 17.7854 32.1484 17.2664C32.2997 17.9133 32.5416 18.5292 32.8652 19.0911L33.0607 19.5473L32.8163 19.4561C32.629 19.1276 32.4253 18.7992 32.2461 18.4707C31.8877 17.8138 31.5538 17.1478 31.2036 16.4908C31.7477 16.7711 32.3051 17.0178 32.8734 17.2299V17.2481ZM31.0488 16.3996C31.4104 17.3936 31.8407 18.3545 32.3357 19.2736H32.2625C31.5178 18.2188 30.8452 17.1025 30.2505 15.9343C30.5112 16.062 30.7719 16.2262 31.0488 16.3814V16.3996ZM30.1772 15.8613C30.6627 17.0125 31.2493 18.1067 31.9285 19.1276C31.8731 19.1136 31.8187 19.0953 31.7655 19.0729C31.2679 18.5831 30.815 18.039 30.4134 17.4488C29.9557 16.721 29.5525 15.952 29.2079 15.1496C29.55 15.3868 29.8433 15.6058 30.1772 15.843V15.8613ZM32.1321 19.4105L32.2054 19.52L32.0507 19.3648L32.1321 19.4105ZM34.4943 20.1495C34.4441 19.3337 34.3434 18.5228 34.1929 17.7226C34.478 17.8138 34.7631 17.8959 35.0563 17.9689C35.0894 18.8414 35.1765 19.7102 35.317 20.5692L34.4943 20.1495ZM49.2455 19.2371C49.2356 19.2237 49.2232 19.2129 49.2091 19.2055C49.195 19.1981 49.1797 19.1943 49.1641 19.1943C49.1486 19.1943 49.1332 19.1981 49.1191 19.2055C49.105 19.2129 49.0926 19.2237 49.0826 19.2371C48.8326 19.5644 48.5602 19.8694 48.2681 20.1495C47.3995 20.8414 46.4443 21.3856 45.4335 21.7644C43.5275 22.2541 41.5618 22.3837 39.6177 22.1476C38.1626 21.9466 36.7554 21.4356 35.4717 20.6422C35.422 19.7499 35.3158 18.8626 35.154 17.9871C36.8644 18.4338 38.597 18.766 40.3427 18.9817C44.1547 19.4835 48.0645 18.8722 51.2249 16.0255C51.2435 16.0093 51.2586 15.9886 51.2689 15.9648C51.2793 15.9411 51.2847 15.9151 51.2847 15.8887C51.2847 15.8623 51.2793 15.8362 51.2689 15.8125C51.2586 15.7888 51.2435 15.768 51.2249 15.7518C51.4759 15.498 51.7151 15.23 51.9417 14.9489C51.3101 16.5725 50.3932 18.0371 49.2455 19.2554V19.2371ZM52.968 11.6278C52.968 11.6278 52.8784 11.6278 52.8539 11.6278C51.2249 15.9069 47.4454 16.4726 43.8289 16.3175C41.2712 15.7792 38.6891 15.4051 36.1234 14.9398C34.3721 14.6113 29.8351 13.3066 28.2468 11.0074C28.5222 11.7039 28.9277 12.3261 29.436 12.8322C30.9592 14.4015 33.1096 14.6569 34.9667 15.031C36.8239 15.4051 38.6321 15.7244 40.473 16.0164L39.8458 15.9525C37.738 15.8061 35.6389 15.532 33.5575 15.1314C31.5538 14.7117 28.1246 12.8139 27.4322 10.1771C27.4322 10.0585 27.4323 9.95814 27.3834 9.83953C27.3345 9.72092 27.3833 9.83953 27.3426 9.78479C27.1471 8.52569 27.5788 7.12062 29.0694 5.6243C29.1183 5.56956 29.0694 5.50568 29.0694 5.44182C29.8542 5.26845 30.6491 5.15869 31.4479 5.11337C31.1081 5.20687 30.7886 5.3763 30.5087 5.61147C30.2288 5.84664 29.9941 6.14271 29.8188 6.48195C29.8188 6.53669 29.8188 6.60056 29.884 6.56406C30.1446 6.30859 30.3808 6.02576 30.6985 5.79766C30.9766 5.5828 31.2648 5.38484 31.5619 5.20461C31.6108 5.20461 31.5619 5.12249 31.5619 5.10424C31.8226 5.10424 32.0914 5.10424 32.3764 5.10424C31.9232 5.32293 31.5092 5.63209 31.1546 6.01662C31.0976 6.08049 31.1547 6.20824 31.2198 6.14437C31.6838 5.7542 32.1802 5.41503 32.7023 5.13161H32.9466C32.6658 5.28227 32.414 5.49306 32.2054 5.75205C32.1321 5.83417 32.2054 5.95276 32.3113 5.90714C32.5475 5.76116 32.7674 5.57869 33.0037 5.43271C33.2399 5.28673 33.3458 5.24111 33.525 5.14987C38.4122 5.44184 43.4135 7.60417 48.1296 9.09136C48.1296 9.09136 48.1296 9.09136 48.1785 9.09136L48.6509 9.23735C48.6509 9.34684 48.6509 9.46547 48.6509 9.57496C48.6578 9.60414 48.6732 9.62994 48.6945 9.64835C48.7159 9.66677 48.7421 9.67675 48.769 9.67675C48.796 9.67675 48.8222 9.66677 48.8435 9.64835C48.8649 9.62994 48.8802 9.60414 48.8871 9.57496C48.8871 9.50197 48.8871 9.41984 48.8871 9.33773C49.2455 9.44721 49.6121 9.57493 49.9705 9.66617C50.1904 9.73004 50.3207 9.31035 50.1008 9.19174L49.3433 8.79029V8.72642C49.3433 8.52569 49.1641 8.53483 49.0908 8.66257L48.8708 8.54395C48.8708 8.4071 48.8708 8.27023 48.8708 8.13337C49.44 8.47499 49.9846 8.86544 50.4999 9.30122C50.4915 9.34324 50.4908 9.38672 50.4978 9.42905C50.5048 9.47139 50.5194 9.51169 50.5407 9.54756C50.728 9.85777 50.9317 9.8669 51.2086 9.95814C51.5166 10.0834 51.8052 10.262 52.0639 10.4873C52.1209 10.533 52.3571 10.7793 52.5852 10.9618L52.8539 11.3176C52.8609 11.3284 52.8697 11.3375 52.8798 11.3445C52.8899 11.3515 52.9011 11.3562 52.9128 11.3583C52.9246 11.3604 52.9365 11.3599 52.9481 11.3569C52.9597 11.3538 52.9706 11.3482 52.9802 11.3404C52.9898 11.3326 52.998 11.3228 53.0042 11.3115C53.0105 11.3001 53.0147 11.2876 53.0166 11.2744C53.0184 11.2613 53.018 11.2479 53.0153 11.2349C53.0125 11.222 53.0075 11.2098 53.0005 11.199L52.9517 11.1169C53.0005 11.1169 53.0576 11.1169 53.0739 11.0621C53.2368 10.5238 52.5607 9.89427 52.2593 9.6388C51.8358 9.28297 51.1027 8.72643 50.6303 9.02752C47.5595 5.37797 42.4849 5.17724 38.5588 4.26486C36.9297 3.88165 33.9974 2.44007 31.9611 2.96926C34.7631 -0.917513 39.8213 0.879889 43.4786 1.82877C46.0851 2.50394 55.9003 4.72104 53.1879 10.8705C53.1879 10.9344 53.1879 10.9709 53.1879 11.0256C53.1553 11.0524 53.1322 11.0912 53.1227 11.1351C53.0494 11.3541 53.0006 11.4818 52.968 11.6369V11.6278Z" fill="#DC0000"/>
<path d="M47.9106 18.4161C47.8047 18.4708 47.8536 18.6533 47.9595 18.6168C49.025 18.2563 50.0048 17.6327 50.8267 16.792C50.8837 16.7373 50.8267 16.6278 50.7697 16.6735C49.8728 17.3631 48.9147 17.9471 47.9106 18.4161Z" fill="#DC0000"/>
<path d="M49.3528 18.2149C48.8966 18.5342 48.3998 18.7441 47.9355 19.0452C47.8785 19.0452 47.9355 19.1638 47.9355 19.1455C48.9886 18.7856 49.9309 18.103 50.656 17.1748C50.656 17.1748 50.656 17.1018 50.656 17.1292C50.2448 17.5248 49.8093 17.8876 49.3528 18.2149Z" fill="#DC0000"/>
<path d="M28.2636 7.60449C27.9065 8.08482 27.7109 8.69014 27.7109 9.31522C27.7109 9.9403 27.9065 10.5456 28.2636 11.026C28.052 10.4868 27.9428 9.9042 27.9428 9.31522C27.9428 8.72624 28.052 8.14369 28.2636 7.60449Z" fill="#DC0000"/>
<path d="M29.6139 5.99817C29.7035 5.91605 29.6139 5.73356 29.5162 5.81568C28.9706 6.2993 28.5397 6.92602 28.2617 7.64045C28.6345 7.01854 29.0906 6.46464 29.6139 5.99817Z" fill="#DC0000"/>
<path d="M41.8838 1.78318C38.756 0.952907 35.6281 0.441971 32.875 2.79593C36.2309 0.414599 39.6357 1.3361 43.2115 2.30323C46.1357 3.08789 48.9703 3.89078 51.5687 5.84329C51.642 5.89803 51.7234 5.75206 51.6583 5.6882C48.8155 3.16088 45.2234 2.6682 41.8838 1.78318Z" fill="#DC0000"/>
<path d="M52.3969 12.0197C52.3969 11.9285 52.462 11.8373 52.4865 11.7369C52.486 11.7223 52.4816 11.7082 52.4739 11.6964C52.4662 11.6846 52.4555 11.6757 52.4433 11.6708C52.431 11.6659 52.4177 11.6652 52.405 11.6688C52.3924 11.6725 52.3811 11.6803 52.3725 11.6913C52.2584 11.9285 52.1199 12.1292 51.9896 12.3573C51.8593 12.5854 51.6231 12.7588 51.4357 12.9321C51.0939 13.1037 50.78 13.3381 50.5071 13.6255C50.2709 13.7624 50.0429 13.8992 49.8148 14.0543C49.8148 14.0543 49.8148 14.0543 49.8148 14.1182C49.4038 14.3993 48.9734 14.6434 48.5278 14.8481C48.5278 14.8481 48.479 14.8481 48.4545 14.9211C46.9747 15.6387 45.3833 16.0231 43.7709 16.0525C43.6569 16.0525 43.6732 16.2623 43.7709 16.2715C45.3711 16.3694 46.9701 16.0574 48.4464 15.3591C48.4712 15.3962 48.5056 15.4239 48.5449 15.4386C48.5842 15.4533 48.6265 15.4542 48.6663 15.4412C49.6011 15.1618 50.4727 14.6644 51.2239 13.9814C51.248 13.947 51.2649 13.907 51.2734 13.8644C51.2818 13.8218 51.2816 13.7776 51.2728 13.735C51.5375 13.5429 51.7716 13.3023 51.9652 13.0234C52.2842 12.7569 52.5183 12.3827 52.6331 11.9559C52.6331 11.9559 52.6331 11.9011 52.5924 11.9559C52.5254 11.9694 52.4599 11.9908 52.3969 12.0197Z" fill="#DC0000"/>
<path d="M35.707 18.2333C35.739 19.0928 35.8371 19.9475 36.0003 20.788C36.0003 20.8701 36.1143 20.8428 36.1143 20.788C36.0654 19.9301 35.951 19.0785 35.7722 18.2425C35.7641 18.1695 35.707 18.1877 35.707 18.2333Z" fill="#DC0000"/>
</svg>
