<svg width="165" height="87" viewBox="0 0 165 87" fill="none" xmlns="http://www.w3.org/2000/svg">
<path d="M160.577 19.5082H12.5831C9.76463 19.5082 7.39119 21.5355 6.89672 24.255L0.0730824 62.5762C-0.421384 65.2958 1.65538 67.7681 4.42439 67.7681H152.418C155.237 67.7681 157.61 65.7408 158.105 63.0212L164.928 24.7001C165.423 21.9805 163.296 19.5082 160.577 19.5082Z" fill="#DC0000"/>
<path d="M124.035 1.06462L115.48 52.3408H124.43L117.607 85.8162C117.508 86.3601 118.249 86.5579 118.447 86.0634L141.341 32.7599L131.155 32.5621L137.484 9.81668C137.731 9.02554 137.385 8.18494 136.693 7.73992L125.963 0.174585C125.221 -0.270435 124.183 0.174578 124.035 1.06462Z" fill="#DC0000"/>
<path d="M152.167 25.0956H132.734C132.339 25.0956 131.993 25.3428 131.894 25.7384L129.52 33.8476C129.372 34.3421 129.767 34.8366 130.262 34.8366H136.789C137.135 34.8366 137.382 35.1827 137.234 35.4794L127.196 60.2521C126.998 60.7961 127.394 61.3894 127.938 61.3894H148.409C148.854 61.3894 149.2 61.0927 149.299 60.6477L150.683 52.3901C150.733 51.9946 150.436 51.6484 150.041 51.6484H142.624C142.277 51.6484 142.03 51.3023 142.179 50.9562L152.958 26.2823C153.255 25.7384 152.81 25.0956 152.167 25.0956Z" fill="white"/>
<path d="M110.39 25.8374L105.049 55.7032C104.95 56.2966 104.703 56.8899 104.357 57.4338L102.429 60.4501C102.181 60.8456 102.478 61.3896 102.973 61.3896H123.444C123.889 61.3896 124.235 61.0929 124.334 60.6479L125.669 52.6869C125.768 52.143 125.323 51.6486 124.779 51.6486H116.966C116.669 51.6486 116.422 51.3519 116.472 51.0552L120.18 30.881C120.279 30.2876 120.526 29.7437 120.823 29.2492L122.85 25.9857C123.097 25.5902 122.801 25.0463 122.306 25.0463H111.23C110.835 25.0957 110.439 25.3924 110.39 25.8374Z" fill="white"/>
<path d="M103.066 34.8366H98.171C97.8249 34.8366 97.5776 35.0838 97.5282 35.3805L92.9791 60.6477C92.8802 61.0927 92.5341 61.3894 92.0891 61.3894H81.0625C80.568 61.3894 80.2713 60.8455 80.5186 60.4499L82.447 57.3842C82.7931 56.8898 82.9909 56.2964 83.0898 55.7031L86.7488 35.3805C86.7983 35.0838 86.551 34.8366 86.2544 34.8366H81.458C81.0625 34.8366 80.7658 34.4904 80.8152 34.0949L82.2986 25.8373C82.3975 25.3923 82.7436 25.0956 83.1887 25.0956H104.698C105.094 25.0956 105.39 25.4417 105.341 25.8373L103.956 34.0949C103.857 34.5399 103.511 34.8366 103.066 34.8366Z" fill="white"/>
<path d="M19.6516 25.2441C19.2066 24.6507 18.2176 24.8485 18.1188 25.5902L12.7291 55.7032C12.6302 56.2966 12.3829 56.89 12.0368 57.4339L10.1084 60.4501C9.86116 60.8457 10.1578 61.3896 10.6523 61.3896H21.135C21.58 61.3896 21.9261 61.0929 22.025 60.6479L24.1512 48.6324C24.2007 48.2368 24.7446 48.0885 24.9918 48.4346L34.535 61.4391C34.9801 62.0324 35.969 61.8346 36.0679 61.0929L41.4576 30.9305C41.5565 30.3371 41.8037 29.7437 42.1004 29.2493L44.1277 26.0352C44.3749 25.6397 44.0782 25.0958 43.5838 25.0958H33.1011C32.6561 25.0958 32.3099 25.3924 32.211 25.8375L29.9859 38.0508C29.8871 38.4464 29.3926 38.5947 29.1454 38.2486L19.6516 25.2441Z" fill="white"/>
<path d="M66.8214 25.0957C66.3764 25.0957 66.0303 25.3924 65.9314 25.8374L61.8768 48.6323C61.3823 51.1046 59.9978 52.1925 58.1188 52.1925C55.7454 52.1925 55.1026 50.2641 55.3993 48.1873L58.3661 30.9799C58.465 30.3865 58.7122 29.7931 59.0089 29.2492L61.0362 26.0352C61.2834 25.6396 60.9867 25.0957 60.4923 25.0957H49.5151C49.0701 25.0957 48.724 25.3924 48.6251 25.8374L44.7188 47.5939C43.2354 55.9504 48.4767 61.884 57.1299 61.884C66.7226 61.884 70.9255 56.7416 72.3595 49.5223L75.7218 30.9304C75.8207 30.337 76.0185 29.7931 76.3647 29.2987L78.3425 26.0352C78.5898 25.6396 78.2931 25.0957 77.7986 25.0957H66.8214Z" fill="white"/>
</svg>
