<svg width="67" height="66" viewBox="0 0 67 66" fill="none" xmlns="http://www.w3.org/2000/svg">
<path d="M34.8055 39.6205C37.2267 38.5965 38.9376 36.7711 40.9485 35.0125C43.85 32.4859 52.2041 29.9481 55.1355 34.0887C59.7178 40.5666 50.1331 42.993 46.1311 42.4588C42.2692 41.9913 38.3573 40.4108 34.6855 39.1196C34.2452 38.9638 34.0351 39.7763 34.4853 39.8876C39.898 41.2456 44.8405 45.2971 50.6433 44.4511C53.985 43.9725 58.2571 40.6 57.3366 36.2702C56.3361 31.4285 51.0936 31.0946 47.5318 31.3951C45.2983 31.4303 43.1157 32.1422 41.2187 33.4542C38.8475 35.2685 37.3468 37.9064 34.7655 39.4313C34.6555 39.4313 34.7655 39.6984 34.8455 39.6428L34.8055 39.6205Z" fill="#DC0000"/>
<path d="M34.3746 39.2985C35.055 39.8328 36.0555 38.909 36.6157 38.5194C37.7492 37.7126 38.7877 36.7517 39.7073 35.6589C39.7219 35.6456 39.7311 35.6264 39.733 35.6055C39.7349 35.5847 39.7292 35.5638 39.7173 35.5476C39.7053 35.5313 39.6881 35.521 39.6693 35.5189C39.6505 35.5169 39.6318 35.5232 39.6172 35.5364C38.8568 36.1709 38.0664 36.7719 37.286 37.3841C36.7958 37.7737 35.105 39.4766 34.4847 39.0982C34.4732 39.0841 34.4589 39.0731 34.443 39.0662C34.427 39.0593 34.4098 39.0566 34.3928 39.0583C34.3757 39.0601 34.3593 39.0663 34.3448 39.0764C34.3302 39.0864 34.318 39.1002 34.3091 39.1164C34.3002 39.1327 34.2948 39.151 34.2934 39.17C34.2919 39.189 34.2944 39.2081 34.3008 39.2257C34.3072 39.2434 34.3172 39.2592 34.33 39.2718C34.3428 39.2845 34.3581 39.2936 34.3746 39.2985Z" fill="#DC0000"/>
<path d="M34.4441 39.6109C36.105 38.9541 38.2059 37.8073 39.0964 36.0148C39.0964 35.9369 39.0964 35.8256 38.9763 35.8812C38.246 36.4156 37.6457 37.1505 36.9153 37.7071C36.1088 38.3117 35.2469 38.8192 34.3441 39.2212C34.144 39.3214 34.214 39.7 34.4441 39.6109Z" fill="#DC0000"/>
<path d="M33.9036 39.8885C37.6255 42.1146 41.0771 44.9306 45.4392 45.1866C48.9209 45.3869 53.063 44.3184 55.3841 41.2575C55.4154 41.2148 55.4328 41.1616 55.4336 41.1066C55.4343 41.0515 55.4184 40.9978 55.3884 40.954C55.3583 40.9103 55.3158 40.8791 55.2678 40.8655C55.2199 40.8519 55.1692 40.8567 55.124 40.8791C51.7323 42.5041 48.7809 44.3184 44.929 44.0846C40.927 43.8398 37.5354 41.6916 34.0437 39.6325C33.8936 39.5434 33.7636 39.7883 33.9036 39.8773V39.8885Z" fill="#DC0000"/>
<path d="M35.8849 40.3341C35.7349 40.6237 35.7949 41.125 36.1651 41.1027C36.1775 41.1032 36.1899 41.1004 36.2012 41.0946C36.2124 41.0888 36.2224 41.0801 36.2302 41.0693C36.2379 41.0585 36.2433 41.0458 36.2459 41.0323C36.2485 41.0187 36.2482 41.0047 36.2451 40.9913C36.1806 40.8264 36.1499 40.6476 36.1551 40.4678C36.1551 40.2895 35.975 40.167 35.8849 40.3341Z" fill="#DC0000"/>
<path d="M36.1758 40.4341C36.2658 40.4341 36.516 40.4341 36.576 40.5455C36.636 40.6569 36.576 40.8463 36.576 40.8797C36.5735 41.1023 36.6407 41.3189 36.7661 41.4923C36.7661 41.5101 36.7724 41.527 36.7837 41.5396C36.7949 41.5521 36.8102 41.5592 36.8261 41.5592C36.8421 41.5592 36.8573 41.5521 36.8686 41.5396C36.8798 41.527 36.8862 41.5101 36.8862 41.4923C36.8877 41.1492 36.8643 40.8065 36.8161 40.4675C36.8161 40.4007 36.7561 40.3339 36.6961 40.3673C36.5302 40.3951 36.3616 40.3951 36.1958 40.3673V40.4341H36.1758Z" fill="#DC0000"/>
<path d="M37.3775 40.5887C37.2174 40.9449 37.1174 41.7018 37.5276 41.9244C37.5776 41.9244 37.6376 41.9244 37.6476 41.8687C37.6576 41.8131 37.6476 41.5794 37.5776 41.3901C37.5357 41.1407 37.5189 40.8868 37.5276 40.6332C37.5219 40.6162 37.5116 40.6015 37.4982 40.5912C37.4848 40.5808 37.4689 40.5752 37.4525 40.5752C37.4362 40.5752 37.4202 40.5808 37.4068 40.5912C37.3934 40.6015 37.3832 40.6162 37.3775 40.6332V40.5887Z" fill="#DC0000"/>
<path d="M37.4358 40.6449C37.5908 40.6447 37.7404 40.7081 37.856 40.823L37.776 40.656C37.776 41.0678 37.8661 41.769 38.1962 41.9805C38.2107 41.9908 38.2268 41.9978 38.2437 42.0011C38.2606 42.0045 38.2779 42.0041 38.2946 41.9999C38.3114 41.9958 38.3272 41.988 38.3412 41.977C38.3552 41.966 38.3672 41.9521 38.3763 41.936C38.5164 41.5576 38.2463 40.9343 38.0862 40.6003C38.0614 40.5572 38.0227 40.5262 37.978 40.5138C37.9334 40.5014 37.8861 40.5084 37.846 40.5336C37.7189 40.6148 37.5697 40.6425 37.4258 40.6115V40.6783L37.4358 40.6449Z" fill="#DC0000"/>
<path d="M42.6488 42.4599C42.5337 43.0993 42.5337 43.7577 42.6488 44.3971C42.6488 44.7979 43.3191 44.72 43.2991 44.3081C43.2883 43.6599 43.1625 43.0204 42.9289 42.4265C42.9173 42.4007 42.8994 42.3791 42.8773 42.364C42.8552 42.3488 42.8298 42.3408 42.8039 42.3408C42.7779 42.3408 42.7525 42.3488 42.7305 42.364C42.7084 42.3791 42.6905 42.4007 42.6788 42.4265L42.6488 42.4599Z" fill="#DC0000"/>
<path d="M43.5398 43.0495C43.4152 43.4695 43.3544 43.9096 43.3597 44.3518C43.3604 44.4161 43.3753 44.4792 43.4032 44.5356C43.4312 44.5919 43.4712 44.6396 43.5198 44.6746C43.5715 44.7078 43.6301 44.7253 43.6898 44.7253C43.7495 44.7253 43.8082 44.7078 43.8599 44.6746C43.9116 44.6426 43.9547 44.5959 43.9846 44.5391C44.0145 44.4823 44.0302 44.4176 44.03 44.3518C44.0478 43.9142 43.9935 43.4766 43.8699 43.0607C43.8607 43.0197 43.8395 42.9832 43.8096 42.9572C43.7797 42.9311 43.7428 42.917 43.7048 42.917C43.6669 42.917 43.63 42.9311 43.6001 42.9572C43.5702 42.9832 43.5489 43.0197 43.5398 43.0607V43.0495Z" fill="#DC0000"/>
<path d="M44.2181 43.5721C44.2843 43.7713 44.3116 43.984 44.2981 44.1959C44.299 44.2544 44.3133 44.3116 44.3396 44.3623C44.3658 44.4129 44.4032 44.4554 44.4482 44.4855C44.4835 44.507 44.523 44.5182 44.5632 44.5182C44.6034 44.5182 44.643 44.507 44.6783 44.4855C44.742 44.4649 44.7983 44.4227 44.8396 44.3648C44.8808 44.307 44.9049 44.2362 44.9084 44.1625C44.907 44.0035 44.875 43.8466 44.8146 43.7025C44.7542 43.5584 44.6668 43.4304 44.5582 43.327C44.4282 43.1933 44.1481 43.327 44.2181 43.5387V43.5721Z" fill="#DC0000"/>
<path d="M34.1849 39.7113C34.6698 39.6594 35.1451 39.5281 35.5956 39.3214C36.0747 39.1961 36.5314 38.9814 36.9463 38.6865C36.9673 38.6753 36.9841 38.6563 36.9939 38.6328C37.0037 38.6093 37.0058 38.5827 36.9999 38.5576C36.994 38.5326 36.9804 38.5106 36.9615 38.4955C36.9425 38.4804 36.9195 38.4731 36.8963 38.4749C36.4113 38.5044 35.9344 38.6249 35.4855 38.8313C35.0034 38.9458 34.5407 39.1451 34.1148 39.4217C34.0887 39.4391 34.0685 39.4656 34.0571 39.497C34.0457 39.5285 34.0438 39.5632 34.0517 39.5959C34.0596 39.6286 34.0769 39.6576 34.1009 39.6784C34.1249 39.6992 34.1544 39.7108 34.1849 39.7113Z" fill="#DC0000"/>
<path d="M35.6445 39.2545C35.9629 39.2752 36.2812 39.2141 36.575 39.0758C36.635 39.0758 36.575 38.9531 36.575 38.9419C36.261 38.9347 35.9497 39.0072 35.6645 39.154V39.2545H35.6445Z" fill="#DC0000"/>
<path d="M38.5375 40.8236C38.4875 41.3529 38.4875 41.8865 38.5375 42.4157C38.5375 42.4689 38.5565 42.5198 38.5903 42.5574C38.624 42.595 38.6699 42.6161 38.7176 42.6161C38.7654 42.6161 38.8112 42.595 38.845 42.5574C38.8787 42.5198 38.8977 42.4689 38.8977 42.4157C38.9477 41.8828 38.9477 41.3455 38.8977 40.8125C38.8977 40.7682 38.8819 40.7258 38.8538 40.6944C38.8256 40.6631 38.7874 40.6455 38.7476 40.6455C38.7078 40.6455 38.6696 40.6631 38.6415 40.6944C38.6133 40.7258 38.5975 40.7682 38.5975 40.8125L38.5375 40.8236Z" fill="#DC0000"/>
<path d="M39.1163 40.8233C39.1163 41.2129 39.1163 41.5915 39.1163 41.9366C39.0999 42.2499 39.1514 42.563 39.2664 42.8495C39.2729 42.8718 39.2856 42.8912 39.3027 42.905C39.3198 42.9187 39.3403 42.9261 39.3614 42.9261C39.3824 42.9261 39.403 42.9187 39.4201 42.905C39.4371 42.8912 39.4499 42.8718 39.4564 42.8495C39.5314 42.5132 39.5314 42.1616 39.4564 41.8253C39.4564 41.469 39.3364 41.135 39.2764 40.801C39.2764 40.7774 39.2679 40.7547 39.2529 40.738C39.2379 40.7213 39.2175 40.7119 39.1963 40.7119C39.1751 40.7119 39.1547 40.7213 39.1397 40.738C39.1247 40.7547 39.1163 40.7774 39.1163 40.801V40.8233Z" fill="#DC0000"/>
<path d="M39.8273 41.4579C39.7972 41.8059 39.7972 42.1564 39.8273 42.5044C39.8265 42.7863 39.8847 43.0646 39.9973 43.3171C40.0061 43.3384 40.0202 43.3565 40.0379 43.3692C40.0557 43.3818 40.0763 43.3886 40.0974 43.3886C40.1184 43.3886 40.1391 43.3818 40.1568 43.3692C40.1746 43.3565 40.1887 43.3384 40.1974 43.3171C40.2573 43.0428 40.2573 42.7565 40.1974 42.4821C40.1654 42.1334 40.0983 41.7899 39.9973 41.4579C39.9912 41.4382 39.9797 41.4212 39.9645 41.4091C39.9493 41.3971 39.931 41.3906 39.9123 41.3906C39.8936 41.3906 39.8754 41.3971 39.8601 41.4091C39.8449 41.4212 39.8334 41.4382 39.8273 41.4579Z" fill="#DC0000"/>
<path d="M35.1151 39.165C35.0431 39.1648 34.9728 39.1886 34.913 39.2333C34.8533 39.278 34.807 39.3416 34.78 39.4159C34.7531 39.4902 34.7468 39.5717 34.762 39.65C34.7771 39.7283 34.813 39.7997 34.865 39.8551C35.0611 40.0679 35.3074 40.2145 35.5754 40.2781C35.9184 40.4856 36.2967 40.6107 36.6859 40.6454C36.712 40.6439 36.7371 40.6344 36.7586 40.6179C36.78 40.6013 36.7969 40.5785 36.8073 40.5519C36.8177 40.5253 36.8212 40.496 36.8174 40.4672C36.8137 40.4385 36.8027 40.4116 36.7859 40.3894C36.4842 40.1529 36.1446 39.9829 35.7854 39.8885C35.5809 39.844 35.3848 39.7612 35.2052 39.6436C35.1251 39.5769 34.9751 39.2986 35.2052 39.2652V39.165H35.1151Z" fill="#DC0000"/>
<path d="M36.8945 39.4208C40.2262 39.7102 43.2076 41.5695 46.5493 41.6474C49.182 41.7462 51.7843 40.9961 54.043 39.4876C54.054 39.4761 54.0614 39.461 54.064 39.4444C54.0667 39.4279 54.0645 39.4109 54.0577 39.3959C54.051 39.3809 54.0401 39.3687 54.0266 39.3611C54.0131 39.3536 53.9978 39.3511 53.9829 39.354C50.5112 40.9572 46.9795 41.7922 43.2977 40.8236C41.1266 40.2558 39.1657 39.2538 36.8945 39.3206V39.3762V39.4208Z" fill="#DC0000"/>
<path d="M54.2558 39.2424C55.3463 38.4633 55.3863 36.8605 55.3763 35.5694C55.3763 35.3245 55.0261 35.3245 55.0362 35.5694C55.1262 36.8271 55.1362 38.2518 54.1457 39.0978C54.0657 39.1645 54.1457 39.3092 54.2558 39.2536V39.2424Z" fill="#DC0000"/>
<path d="M35.3739 16.3367C30.9117 19.3308 23.9783 21.0115 20.9068 25.9979C18.6957 29.582 19.166 34.3124 22.9078 36.2157C26.8397 38.1858 30.5716 36.5162 33.1628 32.8766C34.6135 30.8508 34.8837 28.2352 35.3139 25.7753C35.8342 22.8369 36.9947 19.6091 35.9242 16.704C35.7341 16.1697 35.0238 16.5704 35.2139 17.0936C36.1243 19.6313 35.0338 23.1374 34.5635 25.6084C34.3557 27.6234 33.8056 29.5762 32.9428 31.3628C30.5316 35.3698 22.0574 38.9204 20.3666 31.7079C19.146 26.4988 24.3686 23.3044 27.7102 21.5012C30.4314 20.1223 33.0508 18.5071 35.544 16.6706C35.7041 16.5482 35.544 16.2365 35.3439 16.3478L35.3739 16.3367Z" fill="#DC0000"/>
<path d="M34.9159 17.8613C33.7453 18.8077 32.5148 19.587 31.3242 20.4888C31.3242 20.4888 31.3242 20.5779 31.3242 20.5556C32.6216 19.8467 33.8545 19.0004 35.006 18.0283C35.106 17.9393 35.006 17.7723 34.8759 17.8613H34.9159Z" fill="#DC0000"/>
<path d="M34.4663 19.3745C34.1262 19.7306 33.5759 20.1647 33.4158 20.6656C33.4128 20.6816 33.4137 20.6982 33.4186 20.7136C33.4235 20.729 33.4321 20.7426 33.4435 20.753C33.4548 20.7633 33.4685 20.77 33.483 20.7722C33.4976 20.7745 33.5124 20.7723 33.5259 20.7658C33.9661 20.5766 34.3362 19.931 34.6264 19.5303C34.7064 19.4301 34.5564 19.2854 34.4663 19.3745Z" fill="#DC0000"/>
<path d="M31.5625 20.0984C28.0207 21.857 19.5566 24.9846 21.2174 31.0285C21.224 31.0669 21.2441 31.1007 21.2732 31.1226C21.3023 31.1446 21.338 31.1527 21.3725 31.1453C21.407 31.138 21.4374 31.1156 21.4571 31.0833C21.4768 31.0509 21.4842 31.0112 21.4775 30.9728C20.7172 24.8399 27.8206 22.6027 31.6225 20.2208C31.6297 20.2164 31.6361 20.2105 31.6412 20.2034C31.6464 20.1962 31.6503 20.188 31.6526 20.1793C31.6549 20.1705 31.6557 20.1613 31.6548 20.1521C31.6539 20.143 31.6515 20.1342 31.6475 20.1262C31.6436 20.1181 31.6382 20.111 31.6318 20.1053C31.6254 20.0995 31.6181 20.0953 31.6102 20.0927C31.6023 20.0901 31.594 20.0893 31.5858 20.0902C31.5776 20.0912 31.5697 20.094 31.5625 20.0984Z" fill="#DC0000"/>
<path d="M33.8033 18.5629C33.9744 18.5187 34.1524 18.5187 34.3235 18.5629V18.3402C33.9156 18.5395 33.535 18.8018 33.193 19.1195C32.7566 19.3706 32.3663 19.7105 32.0425 20.1215C32.0313 20.1449 32.0262 20.1711 32.0276 20.1975C32.0289 20.2238 32.0366 20.2493 32.05 20.2711C32.0634 20.2928 32.0819 20.3101 32.1035 20.3211C32.1251 20.332 32.149 20.3361 32.1725 20.3331C32.5939 20.1479 32.9781 19.8716 33.303 19.5203C33.7199 19.2464 34.1004 18.9091 34.4336 18.5183C34.4522 18.4962 34.4621 18.4667 34.4611 18.4364C34.4602 18.4062 34.4485 18.3776 34.4286 18.3569C34.4087 18.3362 34.3822 18.3252 34.355 18.3262C34.3278 18.3273 34.3021 18.3403 34.2835 18.3625C34.1323 18.4663 33.9605 18.5274 33.7833 18.5406V18.6074L33.8033 18.5629Z" fill="#DC0000"/>
<path d="M34.7047 17.8391C34.3036 18.1513 33.9194 18.4896 33.5541 18.8523C33.284 19.1195 32.9138 19.3755 32.8438 19.7875C32.8438 19.8543 32.9038 19.9322 32.9539 19.9211C33.334 19.9211 33.6042 19.5203 33.8743 19.2531C34.1444 18.9859 34.5746 18.496 34.8748 18.0841C34.8982 18.0531 34.9106 18.0138 34.9099 17.9734C34.9092 17.9329 34.8954 17.8942 34.871 17.8642C34.8465 17.8343 34.8132 17.8153 34.7771 17.8107C34.741 17.806 34.7046 17.8162 34.6747 17.8391H34.7047Z" fill="#DC0000"/>
<path d="M34.9257 18.3396C34.6123 18.6028 34.3445 18.9272 34.1354 19.297C33.9205 19.5819 33.7972 19.9385 33.7852 20.3102C33.7907 20.3312 33.8009 20.3504 33.8146 20.3661C33.8284 20.3817 33.8455 20.3933 33.8642 20.3999C33.883 20.4065 33.9029 20.4079 33.9223 20.4039C33.9417 20.3999 33.9599 20.3906 33.9752 20.377C34.2061 20.1226 34.3837 19.8147 34.4955 19.4752C34.6756 19.13 34.8757 18.8072 35.0457 18.462C35.0958 18.3618 35.0458 18.2728 34.9257 18.3396Z" fill="#DC0000"/>
<path d="M35.2134 18.7739L34.543 19.8873C34.3406 20.1829 34.2004 20.5253 34.1328 20.8893C34.1328 20.91 34.138 20.9302 34.1478 20.9478C34.1575 20.9654 34.1715 20.9796 34.1881 20.9889C34.2048 20.9981 34.2233 21.002 34.2418 21.0002C34.2603 20.9983 34.278 20.9908 34.2929 20.9783C34.5479 20.7133 34.7492 20.3906 34.8832 20.032L35.4134 18.9187C35.4835 18.7628 35.3034 18.6181 35.2134 18.7628V18.7739Z" fill="#DC0000"/>
<path d="M35.0233 19.6753C34.7959 20.0707 34.6332 20.5079 34.543 20.9664C34.5442 20.9865 34.5509 21.0057 34.5621 21.0215C34.5734 21.0374 34.5886 21.049 34.6059 21.055C34.6232 21.0611 34.6417 21.0611 34.6591 21.0552C34.6764 21.0494 34.6918 21.0378 34.7031 21.0221C34.9338 20.63 35.1029 20.1972 35.2034 19.7421C35.2034 19.6196 35.0733 19.564 35.0233 19.6753Z" fill="#DC0000"/>
<path d="M34.9235 19.6089C33.6228 22.1133 34.1931 25.3745 33.3027 28.0903C31.8019 32.6093 26.2992 37.3397 22.2972 33.2549C22.2972 33.1992 22.1272 33.2549 22.1772 33.3439C23.908 36.2935 27.87 35.2472 30.0511 33.4886C34.3932 29.9825 33.4627 24.6621 35.2836 19.7981C35.2948 19.7515 35.2913 19.7021 35.2737 19.658C35.2562 19.6139 35.2256 19.5778 35.187 19.5557C35.1485 19.5336 35.1043 19.5268 35.0618 19.5365C35.0194 19.5462 34.9811 19.5717 34.9535 19.6089H34.9235Z" fill="#DC0000"/>
<path d="M22.8397 26.1533C22.2357 26.4789 21.7438 27.015 21.4386 27.6801C21.1334 28.3453 21.0317 29.1031 21.149 29.8384C21.149 29.9943 21.399 29.9498 21.4391 29.8384C21.5591 29.1655 21.723 28.5032 21.9293 27.8567C22.2192 27.3111 22.5541 26.7968 22.9298 26.3203C22.9898 26.2424 22.9298 26.1422 22.8097 26.1756L22.8397 26.1533Z" fill="#DC0000"/>
<path d="M23.6173 25.296C22.2266 26.2977 20.7559 28.7242 21.086 30.6498C21.0938 30.68 21.1102 30.7066 21.1328 30.7255C21.1554 30.7445 21.1828 30.7547 21.2111 30.7547C21.2393 30.7547 21.2669 30.7445 21.2894 30.7255C21.312 30.7066 21.3284 30.68 21.3361 30.6498C21.6863 29.7259 21.7564 28.7353 22.1766 27.8226C22.6044 26.9482 23.1106 26.124 23.6873 25.3628C23.6873 25.3628 23.6873 25.2292 23.6173 25.2737V25.296Z" fill="#DC0000"/>
<path d="M23.4499 26.2422C22.3274 27.3127 21.5916 28.7995 21.3789 30.4272C21.3789 30.5608 21.539 30.5942 21.579 30.4272C21.7854 29.6353 22.0602 28.8674 22.3994 28.1344C22.7497 27.4998 23.1303 26.8868 23.5399 26.2978C23.5899 26.2311 23.54 26.1531 23.4499 26.1977V26.2422Z" fill="#DC0000"/>
<path d="M23.52 26.8207C23.0075 27.2944 22.5891 27.8812 22.2911 28.5442C21.9932 29.2071 21.8222 29.9316 21.7891 30.6718C21.7961 30.6967 21.81 30.7185 21.8289 30.734C21.8478 30.7494 21.8707 30.7578 21.8942 30.7578C21.9176 30.7578 21.9404 30.7494 21.9593 30.734C21.9782 30.7185 21.9922 30.6967 21.9992 30.6718C22.3336 29.3121 22.8972 28.0355 23.66 26.9097C23.73 26.8096 23.6 26.6983 23.52 26.7762V26.8207Z" fill="#DC0000"/>
<path d="M23.8873 27.2776C23.4322 27.7425 23.073 28.3117 22.8346 28.946C22.5962 29.5803 22.4844 30.2646 22.5067 30.9516C22.5067 31.0073 22.5967 31.0073 22.6067 30.9516C22.8068 30.3727 22.8769 29.7492 23.077 29.1814C23.3311 28.5512 23.6464 27.9539 24.0174 27.4001C24.0774 27.311 23.9574 27.1997 23.8873 27.2665V27.2776Z" fill="#DC0000"/>
<path d="M24.0812 28.2232C23.7894 28.6775 23.5506 29.1713 23.3708 29.6928C23.1257 30.1669 22.9628 30.6881 22.8906 31.2292C22.8969 31.2407 22.9056 31.2502 22.9162 31.2569C22.9267 31.2635 22.9386 31.267 22.9507 31.267C22.9627 31.267 22.9746 31.2635 22.9851 31.2569C22.9956 31.2502 23.0045 31.2407 23.0107 31.2292C23.2437 30.7901 23.4316 30.3233 23.571 29.8375C23.7811 29.3254 24.0312 28.8244 24.2213 28.3011C24.2213 28.212 24.1512 28.1675 24.1012 28.2343L24.0812 28.2232Z" fill="#DC0000"/>
<path d="M24.6294 28.68C24.1323 29.1845 23.7836 29.8441 23.6289 30.5727C23.6341 30.5872 23.6431 30.5996 23.6547 30.6083C23.6663 30.6171 23.6799 30.6217 23.6939 30.6217C23.7079 30.6217 23.7216 30.6171 23.7332 30.6083C23.7448 30.5996 23.7538 30.5872 23.759 30.5727C23.9274 30.2704 24.0746 29.954 24.1992 29.6264C24.3492 29.3147 24.5093 29.0029 24.6794 28.7023C24.6794 28.7023 24.6794 28.591 24.6093 28.6355L24.6294 28.68Z" fill="#DC0000"/>
<path d="M21.7274 27.3667C20.3867 29.1476 20.3767 33.2102 22.5678 34.2899C22.6879 34.3455 22.7979 34.1785 22.7479 34.0672C22.1783 33.2136 21.7451 32.2573 21.4672 31.2401C21.2689 29.9877 21.4669 28.6975 22.0275 27.5893C22.0406 27.5674 22.0498 27.5428 22.0544 27.5169C22.059 27.4911 22.0589 27.4645 22.0543 27.4386C22.0497 27.4128 22.0405 27.3882 22.0273 27.3663C22.0141 27.3445 21.9972 27.3257 21.9775 27.311C21.9578 27.2964 21.9357 27.2863 21.9124 27.2812C21.8892 27.276 21.8653 27.2761 21.8421 27.2812C21.8189 27.2864 21.7967 27.2966 21.7771 27.3113C21.7574 27.3259 21.7405 27.3448 21.7274 27.3667Z" fill="#DC0000"/>
<path d="M65.5093 0.1875C63.1082 1.30055 61.2873 3.35967 58.826 4.41706C56.8251 5.27411 54.8941 5.89741 53.4034 7.7562C50.9622 10.7837 50.2118 15.3806 53.1032 18.2967C55.4544 20.6787 59.5164 21.6359 62.2077 19.4098C65.8095 16.3934 64.779 9.63726 66.1497 5.44108C66.2197 5.2296 65.9396 5.04037 65.8295 5.25185C64.709 7.34437 64.6089 9.70403 64.2987 12.1082C63.9886 14.5124 63.6584 16.5604 61.8976 18.1743C60.8243 19.0584 59.5288 19.5458 58.1934 19.5678C56.8581 19.5897 55.5502 19.1452 54.4539 18.2967C51.6525 16.2376 51.7025 12.1194 53.4534 9.24769C54.6452 7.48642 56.2879 6.16723 58.1658 5.46333C60.9171 4.14993 63.0281 1.93497 65.6994 0.610446C65.9095 0.510272 65.7594 0.154106 65.5493 0.25428L65.5093 0.1875Z" fill="#DC0000"/>
<path d="M65.8492 0.0749347C65.3531 0.133095 64.8971 0.404952 64.5786 0.832417C64.568 0.84128 64.561 0.854474 64.5591 0.869097C64.5572 0.88372 64.5606 0.898566 64.5686 0.910383C64.5765 0.922201 64.5884 0.930017 64.6015 0.932106C64.6147 0.934195 64.628 0.930379 64.6386 0.921516C65.0851 0.736995 65.5087 0.489958 65.8992 0.186335C65.8992 0.186335 65.8992 0.0637953 65.8992 0.0749347H65.8492Z" fill="#DC0000"/>
<path d="M54.8442 8.05572C52.7732 10.7159 51.7026 14.4891 54.3139 17.2384C56.0448 19.0526 60.0767 20.3772 61.8576 18.0064C61.9476 17.8839 61.7976 17.7504 61.6975 17.7949C60.6236 18.2024 59.4801 18.331 58.3546 18.1709C57.2291 18.0108 56.1515 17.5661 55.2044 16.871C52.0728 14.5114 53.2033 11.0053 54.9842 8.16703C54.9903 8.14671 54.9904 8.12474 54.9845 8.10436C54.9785 8.08399 54.9669 8.06627 54.9512 8.05382C54.9355 8.04136 54.9166 8.03483 54.8974 8.03517C54.8781 8.03551 54.8595 8.04272 54.8442 8.05572Z" fill="#DC0000"/>
<path d="M61.4375 18.2746C62.0478 18.2746 62.6481 17.4507 63.0283 16.9831C63.5819 16.4145 63.9893 15.692 64.2089 14.89C64.2099 14.8663 64.2047 14.8428 64.1939 14.8223C64.1831 14.8018 64.1672 14.7853 64.1482 14.7746C64.1291 14.764 64.1076 14.7598 64.0864 14.7625C64.0652 14.7652 64.0452 14.7747 64.0288 14.7898C63.5749 15.3637 63.1506 15.9659 62.7581 16.5934C62.498 16.9386 62.2079 17.2726 61.9178 17.5955C61.6276 17.9183 61.5275 17.9517 61.4375 18.2523V18.2746Z" fill="#DC0000"/>
<path d="M54.9455 8.09956C56.2562 6.53016 58.4272 5.79554 60.068 4.68249C61.6058 3.65961 63.0441 2.46227 64.3601 1.10962C64.4201 1.04284 64.3601 0.931522 64.2901 0.976043C62.4792 2.08909 60.8184 3.5917 59.0775 4.84944C57.7669 5.80666 55.6158 6.40772 54.8555 8.01051C54.8555 8.01051 54.8555 8.16634 54.9455 8.09956Z" fill="#DC0000"/>
<path d="M53.0944 13.6537C52.7735 14.0619 52.5468 14.5509 52.434 15.0784C52.4324 15.0959 52.4356 15.1135 52.443 15.129C52.4504 15.1445 52.4618 15.1572 52.4757 15.1655C52.4896 15.1739 52.5054 15.1774 52.5211 15.1758C52.5368 15.1741 52.5518 15.1674 52.5641 15.1563C52.8913 14.7514 53.1217 14.2615 53.2344 13.7316C53.239 13.7119 53.2375 13.6909 53.2299 13.6723C53.2223 13.6538 53.2092 13.6386 53.1927 13.6295C53.1763 13.6204 53.1576 13.6178 53.1397 13.6222C53.1218 13.6266 53.1058 13.6377 53.0944 13.6537Z" fill="#DC0000"/>
<path d="M53.2133 14.9664C52.9031 15.1891 52.4929 15.6124 52.5829 16.0803C52.5933 16.1012 52.6086 16.1186 52.627 16.1307C52.6455 16.1429 52.6665 16.1493 52.688 16.1493C52.7094 16.1493 52.7305 16.1429 52.749 16.1307C52.7675 16.1186 52.7826 16.1012 52.793 16.0803C52.8742 15.9341 52.9381 15.7769 52.9831 15.6124C53.0612 15.3993 53.162 15.1973 53.2833 15.0109C53.2833 15.0109 53.2833 14.8884 53.2133 14.9218V14.9664Z" fill="#DC0000"/>
<path d="M53.3848 15.5576C53.1065 15.8967 52.8982 16.2994 52.7745 16.7374C52.7719 16.754 52.7741 16.771 52.7809 16.786C52.7877 16.801 52.7986 16.8131 52.8121 16.8206C52.8256 16.8281 52.8409 16.8306 52.8558 16.8276C52.8706 16.8247 52.8842 16.8165 52.8945 16.8042C53.1711 16.4853 53.3856 16.1064 53.5248 15.6912C53.5248 15.591 53.4348 15.5242 53.3848 15.6021V15.5576Z" fill="#DC0000"/>
<path d="M54.8452 8.03314C53.9851 9.02839 53.2543 10.1526 52.6741 11.3732C52.594 11.5402 52.8042 11.7072 52.8942 11.5402C53.5245 10.3489 54.2649 9.31349 54.9552 8.11108C54.9685 8.09484 54.9754 8.0734 54.9745 8.05147C54.9735 8.02955 54.9648 8.00895 54.9502 7.99419C54.9356 7.97943 54.9164 7.97171 54.8967 7.97275C54.877 7.97379 54.8585 7.9835 54.8452 7.99974V8.03314Z" fill="#DC0000"/>
<path d="M53.5555 10.1924C53.3354 10.5598 53.1254 10.9383 52.9053 11.3057C52.6903 11.6288 52.5121 11.9803 52.375 12.3523C52.375 12.4747 52.475 12.5415 52.5551 12.4525C52.801 12.1102 53.0093 11.7365 53.1754 11.3391C53.3454 10.994 53.5155 10.6489 53.6756 10.2926C53.6756 10.2147 53.5956 10.159 53.5555 10.2258V10.1924Z" fill="#DC0000"/>
<path d="M54.4353 8.23281C53.6009 9.06961 52.9359 10.0943 52.4844 11.2388L52.8746 11.3279C52.8746 11.172 52.8746 11.0162 52.9446 10.8603C52.9447 10.8446 52.9411 10.8291 52.9342 10.8155C52.9272 10.8018 52.9171 10.7905 52.9049 10.7826C52.8927 10.7746 52.8789 10.7705 52.8647 10.7704C52.8506 10.7704 52.8368 10.7745 52.8246 10.7824C52.7345 10.9048 52.6444 11.0273 52.5444 11.1386C52.5236 11.1614 52.5075 11.1889 52.4972 11.2193C52.4869 11.2497 52.4828 11.2822 52.485 11.3146C52.4872 11.347 52.4957 11.3784 52.51 11.4067C52.5243 11.435 52.544 11.4595 52.5677 11.4785C52.5914 11.4974 52.6185 11.5104 52.6472 11.5164C52.6758 11.5225 52.7054 11.5215 52.7336 11.5135C52.7619 11.5055 52.7883 11.4907 52.8109 11.4702C52.8336 11.4497 52.8518 11.4239 52.8646 11.3947C53.3548 10.2814 53.9751 9.35728 54.5054 8.31074C54.5126 8.30002 54.5161 8.28676 54.5153 8.2734C54.5144 8.26003 54.5092 8.24745 54.5007 8.23798C54.4922 8.2285 54.4809 8.22277 54.4689 8.22182C54.4569 8.22087 54.445 8.22477 54.4353 8.23281Z" fill="#DC0000"/>
<path d="M54.0947 8.38909C53.156 9.52005 52.4705 10.8814 52.0938 12.3627C52.0938 12.5073 52.2538 12.563 52.3238 12.4517C52.6549 11.8396 52.949 11.2038 53.2043 10.5484L54.2048 8.44475C54.2048 8.37797 54.1447 8.33344 54.1047 8.44475L54.0947 8.38909Z" fill="#DC0000"/>
<path d="M53.0121 11.5057C52.6875 11.8659 52.4292 12.2931 52.2517 12.7635C52.2416 12.7886 52.2395 12.8168 52.2456 12.8435C52.2517 12.8702 52.2657 12.8938 52.2854 12.9105C52.3051 12.9273 52.3292 12.9361 52.354 12.9357C52.3787 12.9353 52.4026 12.9256 52.4218 12.9082C52.7243 12.5102 52.9584 12.0537 53.1121 11.5614C53.1121 11.4946 53.0521 11.4389 53.0121 11.5057Z" fill="#DC0000"/>
<path d="M58.2374 18.5627C57.8172 18.496 57.387 19.097 57.2369 19.4643C57.2098 19.5086 57.1953 19.561 57.1953 19.6146C57.1953 19.6682 57.2098 19.7205 57.2369 19.7648C57.2527 19.793 57.2749 19.8161 57.3013 19.8317C57.3276 19.8473 57.3572 19.855 57.387 19.8539C57.4266 19.8561 57.4661 19.8482 57.5025 19.8308C57.5389 19.8135 57.5713 19.7871 57.5971 19.7537C57.7144 19.5218 57.8591 19.3084 58.0274 19.1193C58.1573 19.0066 58.266 18.8667 58.3476 18.7074C58.3504 18.6913 58.3504 18.6747 58.3474 18.6587C58.3444 18.6426 58.3385 18.6274 58.3301 18.6139C58.3217 18.6004 58.3109 18.5889 58.2985 18.5801C58.286 18.5713 58.272 18.5654 58.2575 18.5627H58.2374Z" fill="#DC0000"/>
<path d="M58.9447 18.8627C58.5222 19.1194 58.175 19.5057 57.9443 19.9757C57.8542 20.1984 58.1144 20.3542 58.2644 20.2317C58.6308 19.9077 58.9081 19.4758 59.0648 18.9851C59.0648 18.885 58.9948 18.7737 58.9047 18.8293L58.9447 18.8627Z" fill="#DC0000"/>
<path d="M59.6354 19.1739C59.4253 19.4413 59.0851 19.6975 59.1151 20.0873C59.1151 20.1764 59.2152 20.2322 59.2853 20.221C59.6154 20.1542 59.7555 19.6975 59.9356 19.4078C59.9634 19.3635 59.9743 19.3087 59.9659 19.2554C59.9575 19.2022 59.9304 19.1548 59.8905 19.1238C59.8507 19.0928 59.8015 19.0806 59.7536 19.09C59.7058 19.0994 59.6633 19.1296 59.6354 19.1739Z" fill="#DC0000"/>
<path d="M61.1374 18.8514C60.9974 19.1744 60.7173 19.3081 60.5372 19.5866C60.5279 19.5995 60.5219 19.6151 60.5201 19.6315C60.5183 19.648 60.5207 19.6646 60.5269 19.6797C60.5331 19.6947 60.543 19.7075 60.5554 19.7167C60.5678 19.7258 60.5823 19.7309 60.5972 19.7314C61.0074 19.7314 61.2675 19.3415 61.3976 18.9517C61.4576 18.7734 61.2175 18.6843 61.1374 18.8514Z" fill="#DC0000"/>
<path d="M63.52 16.002C63.0445 16.5391 62.5291 17.0307 61.9793 17.4716C61.3525 17.8847 60.7044 18.2565 60.0384 18.5849C60.0079 18.5952 59.9823 18.6186 59.9673 18.6499C59.9522 18.6813 59.9491 18.7179 59.9583 18.7519C59.9676 18.7859 59.9886 18.8143 60.0168 18.831C60.0449 18.8477 60.0779 18.8513 60.1084 18.841C60.8312 18.6888 61.5162 18.3655 62.1169 17.8929C62.7176 17.4204 63.22 16.8097 63.5901 16.1021C63.5901 16.1021 63.5901 15.9797 63.52 16.0242V16.002Z" fill="#DC0000"/>
<path d="M55.7845 7.95508C55.3288 8.35932 54.9569 8.86818 54.694 9.44695C54.4613 10.1132 54.2741 10.798 54.1337 11.4955C54.1337 11.4955 54.1337 11.4398 54.1337 11.4064C54.1262 11.397 54.117 11.3894 54.1066 11.3842C54.0963 11.379 54.0851 11.3763 54.0737 11.3763C54.0624 11.3763 54.0512 11.379 54.0408 11.3842C54.0305 11.3894 54.0212 11.397 54.0137 11.4064C53.9537 11.5066 53.9437 11.5289 54.0137 11.6402C54.0265 11.6673 54.048 11.6881 54.074 11.6984C54.0999 11.7087 54.1284 11.7078 54.1538 11.6959C54.564 11.451 54.5139 10.6939 54.674 10.2374C54.9863 9.45238 55.3719 8.70605 55.8245 8.01075L55.7845 7.95508Z" fill="#DC0000"/>
<path d="M55.9644 8.18848C55.299 9.13062 54.8308 10.226 54.5938 11.3949C54.5938 11.5174 54.7238 11.5842 54.7538 11.4617C55.0531 10.3319 55.4765 9.2475 56.0144 8.23302C56.0144 8.23302 56.0144 8.15509 56.0144 8.23302L55.9644 8.18848Z" fill="#DC0000"/>
<path d="M56.1457 8.60059C55.4533 9.36047 55.0549 10.3911 55.0352 11.473C55.0352 11.5287 55.1152 11.5398 55.1352 11.473C55.2953 11.0165 55.3353 10.5267 55.4953 10.0591C55.6683 9.54616 55.8932 9.05685 56.1657 8.60059H56.1457Z" fill="#DC0000"/>
<path d="M55.8947 7.95535C57.4654 6.61969 59.2663 5.80717 60.8971 4.61621C62.5279 3.42525 64.1287 1.83359 65.9796 0.765061C66.2797 0.598104 66.0596 0.0638404 65.7594 0.241928C63.8985 1.35497 62.5179 3.09133 60.757 4.37134C58.9962 5.65134 57.2453 6.36369 55.7546 7.8663C55.7487 7.87215 55.7439 7.87924 55.7404 7.88716C55.737 7.89508 55.7349 7.90366 55.7345 7.91245C55.734 7.92123 55.7351 7.93003 55.7377 7.93835C55.7403 7.94666 55.7443 7.95434 55.7496 7.96092C55.7548 7.96749 55.7612 7.97286 55.7683 7.9767C55.7754 7.98054 55.7832 7.98277 55.7911 7.98328C55.799 7.9838 55.8069 7.98259 55.8144 7.9797C55.8218 7.97682 55.8287 7.97232 55.8346 7.96647L55.8947 7.95535Z" fill="#DC0000"/>
<path d="M1.03822 64.3085C1.2083 57.5301 -1.37294 42.1367 7.50141 40.4003C10.9631 39.7214 13.5043 42.4706 13.8045 46.3106C14.0046 49.3715 12.4738 51.9871 10.803 54.2355C8.22019 57.6689 5.40747 60.88 2.38892 63.841C1.97872 64.2529 2.51896 64.9541 2.92916 64.5868C7.14123 60.3127 12.4938 55.215 14.2747 49.0042C15.4253 44.9972 14.3848 40.5116 10.4028 39.2761C6.42085 38.0407 2.75909 41.0348 1.25836 44.9416C-0.872687 50.5068 0.257841 58.543 0.668042 64.3531C0.677187 64.3941 0.698395 64.4305 0.728313 64.4565C0.758231 64.4826 0.795116 64.4967 0.833101 64.4967C0.871086 64.4967 0.908031 64.4826 0.93795 64.4565C0.967868 64.4305 0.989076 64.3941 0.998221 64.3531L1.03822 64.3085Z" fill="#DC0000"/>
<path d="M0.586273 64.0527C0.6463 64.1863 0.586273 64.398 0.586273 64.5428C0.589663 64.5578 0.59587 64.5719 0.604409 64.5841C0.612947 64.5963 0.62362 64.6064 0.635856 64.6137C0.648092 64.621 0.66157 64.6254 0.675425 64.6267C0.689279 64.6279 0.703219 64.6259 0.716337 64.6208H0.786375C0.811226 64.6103 0.832899 64.5922 0.848843 64.5685C0.864786 64.5448 0.874368 64.5166 0.876443 64.4871C0.889457 64.3898 0.876431 64.2904 0.839072 64.2013C0.801714 64.1122 0.741653 64.0372 0.666326 63.9858C0.652588 63.976 0.636491 63.9711 0.620163 63.9717C0.603835 63.9724 0.588047 63.9786 0.574977 63.9895C0.561906 64.0004 0.552143 64.0155 0.54701 64.0328C0.541877 64.0501 0.541635 64.0687 0.546277 64.0861L0.586273 64.0527Z" fill="#DC0000"/>
<path d="M0.698358 63.8296C0.498259 64.1191 0.588306 64.6201 0.638331 64.943C0.649846 65.1465 0.727037 65.3386 0.855723 65.4839C0.984409 65.6291 1.15588 65.7177 1.33863 65.7334C1.7461 65.6972 2.12727 65.4951 2.40916 65.1656C2.86613 64.7964 3.26793 64.3493 3.59975 63.8407C3.65359 63.7561 3.68249 63.655 3.68249 63.5513C3.68249 63.4476 3.65359 63.3465 3.59975 63.2618C3.57798 63.2302 3.55075 63.2037 3.5197 63.1839C3.44364 63.124 3.3528 63.0918 3.25962 63.0918C3.16643 63.0918 3.07554 63.124 2.99948 63.1839C2.73253 63.39 2.48455 63.6249 2.25912 63.8853C2.04167 64.1613 1.79273 64.4046 1.51871 64.609C1.39865 64.6758 1.51872 64.7203 1.33863 64.609C1.15854 64.4976 1.1886 64.275 1.13858 64.1748C1.08855 64.0746 0.978462 63.8407 0.788368 63.7628C0.776201 63.755 0.76242 63.7509 0.74837 63.7509C0.73432 63.7509 0.720479 63.755 0.708312 63.7628L0.698358 63.8296Z" fill="#DC0000"/>
<path d="M1.19849 65.2436C1.0484 63.0175 1.13843 60.7358 0.92832 58.4874C0.92832 58.4206 0.838235 58.4318 0.828229 58.4874C0.508056 60.4686 -0.0622411 63.5295 1.02835 65.3215C1.04233 65.3368 1.06006 65.3471 1.07928 65.3513C1.0985 65.3555 1.11839 65.3533 1.1365 65.345C1.15461 65.3367 1.17013 65.3226 1.18114 65.3046C1.19215 65.2866 1.19821 65.2654 1.19849 65.2436Z" fill="#DC0000"/>
<path d="M1.40778 60.0127C1.20446 61.284 1.10069 62.5726 1.09766 63.8639C1.09766 64.1421 1.47783 64.2089 1.49784 63.9195C1.56801 62.6168 1.53786 61.3097 1.40778 60.0127Z" fill="#DC0000"/>
<path d="M1.92922 60.0005C1.76933 60.6118 1.65883 61.2377 1.59906 61.8709C1.59906 62.3385 1.38898 62.9842 1.6691 63.3962C1.68032 63.4123 1.69469 63.4254 1.71117 63.4345C1.72765 63.4435 1.74581 63.4481 1.76417 63.4481C1.78253 63.4481 1.80063 63.4435 1.81711 63.4345C1.83359 63.4254 1.84796 63.4123 1.85918 63.3962C2.1593 63.0399 2.05923 62.2828 2.07924 61.8152C2.09925 61.3476 2.07924 60.624 2.07924 60.0227C2.07105 60.0039 2.05829 59.9881 2.04236 59.9769C2.02644 59.9658 2.00803 59.96 1.98924 59.96C1.97045 59.96 1.95204 59.9658 1.93612 59.9769C1.92019 59.9881 1.90737 60.0039 1.89918 60.0227L1.92922 60.0005Z" fill="#DC0000"/>
<path d="M3.35784 61.9703C6.03547 59.7095 8.51142 57.1675 10.7515 54.3793C12.4423 52.3424 14.1131 49.9271 14.3032 47.1C14.3042 47.0716 14.2963 47.0437 14.2809 47.0211C14.2655 46.9985 14.2436 46.9826 14.2187 46.976C14.1939 46.9694 14.1678 46.9726 14.1449 46.9851C14.122 46.9975 14.1037 47.0185 14.0931 47.0443C11.832 53.4777 7.01965 56.6833 3.25781 61.8589C3.25781 61.9369 3.25779 62.0148 3.35784 61.9703Z" fill="#DC0000"/>
<path d="M13.543 46.3217C13.3229 47.1565 13.3129 48.0358 13.0828 48.8706C12.8527 49.7054 12.3925 50.4511 12.1523 51.297C12.1523 51.3638 12.2024 51.4751 12.2824 51.4306C12.9635 50.8433 13.4727 50.0443 13.7452 49.1348C14.0177 48.2253 14.0414 47.2462 13.8132 46.3217C13.8009 46.2935 13.7817 46.2697 13.7578 46.253C13.7339 46.2364 13.7063 46.2275 13.6781 46.2275C13.6499 46.2275 13.6223 46.2364 13.5984 46.253C13.5745 46.2697 13.5553 46.2935 13.543 46.3217Z" fill="#DC0000"/>
<path d="M1.91677 47.3232C0.606131 51.7754 0.816234 55.9716 0.916283 60.5351C0.916283 60.702 1.1464 60.6798 1.16641 60.5351C1.51658 58.309 0.996306 56.0829 1.08635 53.8568C1.27651 51.6914 1.57717 49.5398 1.98682 47.4123C1.98682 47.3455 1.89679 47.3121 1.87678 47.4123L1.91677 47.3232Z" fill="#DC0000"/>
<path d="M1.4087 53.578C1.07392 55.6538 1.02336 57.774 1.25865 59.8667C1.26332 59.8786 1.27098 59.8887 1.28076 59.8958C1.29054 59.903 1.30199 59.9068 1.31368 59.9068C1.32536 59.9068 1.33676 59.903 1.34653 59.8958C1.35631 59.8887 1.36403 59.8786 1.3687 59.8667C1.53898 57.7836 1.58908 55.6905 1.51875 53.6002C1.51875 53.5223 1.41871 53.5001 1.4087 53.6002V53.578Z" fill="#DC0000"/>
<path d="M1.77799 54.7246C1.54822 56.5047 1.44784 58.3025 1.47783 60.1006C1.47783 60.1563 1.54789 60.1006 1.55789 60.1006C1.77801 58.3234 1.86832 56.5292 1.82801 54.7358H1.77799V54.7246Z" fill="#DC0000"/>
<path d="M2.23042 56.4053C1.81702 57.7032 1.67671 59.0892 1.82022 60.4569C1.82022 60.5125 1.92027 60.5459 1.94028 60.4569C2.04408 59.8289 2.09762 59.192 2.10034 58.5535C2.10034 57.8412 2.22044 57.1288 2.3205 56.4165C2.3205 56.4165 2.24043 56.3386 2.23042 56.4165V56.4053Z" fill="#DC0000"/>
<path d="M5.50915 58.065C4.34909 59.0863 3.37457 60.3443 2.63774 61.7714C2.62263 61.7956 2.61189 61.8228 2.60623 61.8515C2.60057 61.8802 2.60006 61.9099 2.6047 61.9388C2.60935 61.9677 2.6191 61.9954 2.63334 62.0201C2.64759 62.0449 2.66607 62.0663 2.68775 62.0831C2.70943 62.0999 2.73388 62.1118 2.75969 62.1181C2.7855 62.1244 2.81214 62.125 2.83816 62.1198C2.86417 62.1147 2.88899 62.1038 2.91125 62.088C2.93351 62.0721 2.95275 62.0515 2.96786 62.0274C3.4581 61.3596 3.96835 60.6807 4.40857 60.0017C4.87529 59.443 5.28782 58.8312 5.63922 58.1763C5.63922 58.0872 5.56918 58.0204 5.50915 58.065Z" fill="#DC0000"/>
<path d="M3.71829 61.0695C3.26763 61.5154 2.85565 62.0074 2.48773 62.5391C2.31765 62.7618 2.61781 63.0735 2.8179 62.8842C3.31814 62.4166 3.76832 61.8711 4.22854 61.3478C4.65259 60.988 4.99519 60.5229 5.22901 59.9896C5.23583 59.9622 5.23584 59.9334 5.22901 59.9061C5.22218 59.8787 5.20876 59.854 5.19024 59.8345C5.17171 59.8151 5.14876 59.8016 5.12386 59.7956C5.09896 59.7895 5.07306 59.7912 5.04893 59.8003C4.49867 60.0007 4.11848 60.6242 3.71829 61.0806C3.3181 61.5371 2.86792 62.027 2.49774 62.5391L2.86791 62.8397C3.26421 62.3381 3.61914 61.7978 3.92841 61.2254C3.98844 61.1029 3.81835 60.9916 3.7283 61.0695H3.71829Z" fill="#DC0000"/>
<path d="M13.184 44.7744C13.0018 46.3136 12.6662 47.8256 12.1835 49.2823C11.5918 50.6824 10.8816 52.0167 10.0625 53.267C10.0625 53.3337 10.0625 53.4005 10.1426 53.356C11.2014 52.2708 12.032 50.939 12.575 49.4556C13.1181 47.9723 13.3601 46.3739 13.2841 44.7744C13.2841 44.7744 13.214 44.7744 13.214 44.7744H13.184Z" fill="#DC0000"/>
<path d="M12.7725 43.9283C12.5517 45.1633 12.2644 46.3825 11.9121 47.5791C11.582 48.6922 11.0617 49.6717 10.7215 50.7513C10.7109 50.772 10.7082 50.7965 10.7138 50.8194C10.7194 50.8424 10.733 50.8619 10.7516 50.8737C10.7702 50.8856 10.7922 50.8887 10.8128 50.8824C10.8335 50.8761 10.851 50.861 10.8616 50.8404C12.1332 48.8182 12.8303 46.4182 12.8626 43.9506C12.8626 43.9329 12.8563 43.9159 12.845 43.9034C12.8338 43.8908 12.8185 43.8838 12.8026 43.8838C12.7867 43.8838 12.7714 43.8908 12.7601 43.9034C12.7489 43.9159 12.7426 43.9329 12.7426 43.9506L12.7725 43.9283Z" fill="#DC0000"/>
<path d="M12.072 44.2512C11.8318 45.1416 11.7018 46.0544 11.4316 46.9448C11.1615 47.8352 10.7713 48.6589 10.4312 49.5159C10.4226 49.5327 10.4171 49.5513 10.415 49.5704C10.4129 49.5896 10.4142 49.6091 10.4189 49.6277C10.4235 49.6463 10.4314 49.6636 10.4421 49.6788C10.4528 49.6941 10.4661 49.7068 10.4812 49.7163C10.4963 49.7258 10.5129 49.7319 10.5301 49.7342C10.5474 49.7366 10.5648 49.7351 10.5816 49.73C10.5983 49.7248 10.6139 49.716 10.6276 49.7041C10.6413 49.6922 10.6527 49.6774 10.6613 49.6606C11.6158 48.0562 12.1462 46.1857 12.192 44.2623C12.192 44.1956 12.082 44.1844 12.0619 44.2623L12.072 44.2512Z" fill="#DC0000"/>
<path d="M2.81927 45.175C3.92981 42.2811 5.82071 41.1903 8.43198 40.5114C8.52202 40.5114 8.54203 40.3333 8.43198 40.3221C5.90075 40.1218 3.42957 42.5482 2.69922 45.1194C2.69922 45.2084 2.78926 45.2641 2.81927 45.175Z" fill="#DC0000"/>
</svg>
