<svg width="57" height="52" viewBox="0 0 57 52" fill="none" xmlns="http://www.w3.org/2000/svg">
<path d="M47.3198 40.3571L46.9297 40.7684C47.5722 40.3571 48.2147 39.9116 48.8343 39.4746C48.3218 39.7488 47.817 40.0486 47.3198 40.3571Z" fill="#DC0000"/>
<path d="M6.18192 43.0657V43.1085C5.92857 43.5104 5.77543 43.9806 5.73828 44.4708C5.73828 44.4708 5.73828 44.4708 5.73828 44.4708C5.79927 44.3183 5.87631 44.1745 5.96775 44.0424C5.96775 44.0424 6.08249 43.8539 6.13603 43.7511C6.18957 43.6483 6.38845 43.417 6.49554 43.2799C6.74031 42.9714 7.05392 42.7572 7.26045 42.4231C7.27093 42.407 7.27701 42.3878 7.27795 42.3679C7.27889 42.348 7.27464 42.3282 7.26572 42.311C7.25681 42.2937 7.24361 42.2797 7.22774 42.2707C7.21186 42.2617 7.19399 42.2581 7.17631 42.2603C7.07787 42.2912 6.98478 42.3404 6.90094 42.406C9.49398 38.7646 14.0375 37.0938 16.8447 33.5038C17.6097 32.51 18.5581 30.9335 19.6596 30.3594C20.4781 29.9139 21.5719 29.9739 22.4439 29.5969C23.89 29.0041 25.1268 27.9043 25.9701 26.461C25.9611 26.4745 25.9545 26.4899 25.9507 26.5062C25.947 26.5226 25.9462 26.5396 25.9483 26.5563C25.9504 26.573 25.9555 26.5891 25.9632 26.6036C25.9708 26.6181 25.981 26.6308 25.993 26.6409C26.0051 26.651 26.0188 26.6584 26.0334 26.6626C26.048 26.6668 26.0632 26.6677 26.0781 26.6653C26.093 26.663 26.1074 26.6573 26.1204 26.6487C26.1333 26.6401 26.1446 26.6287 26.1537 26.6152C27.7582 25.0029 29.6748 23.8298 31.7528 23.188C33.1754 22.7666 34.4636 21.9056 35.4703 20.7033C35.6309 20.4977 35.3785 20.2064 35.2102 20.412C33.5503 22.3912 31.3321 22.8967 29.1368 23.7535C27.9397 24.1199 26.8933 24.9406 26.1766 26.0754C26.1954 26.0322 26.2 25.983 26.1898 25.9364C26.1795 25.8897 26.155 25.8485 26.1204 25.82C26.0859 25.7915 26.0435 25.7774 26.0007 25.7803C25.9579 25.7831 25.9173 25.8027 25.886 25.8355C24.6517 27.1461 23.1986 28.171 21.6101 28.8515C20.7348 29.0842 19.845 29.2417 18.9482 29.3227C17.2196 29.6311 16.1487 31.6189 15.2002 33.1097C14.2744 34.709 13.0824 36.0936 11.6893 37.1881C10.7255 37.9163 9.70815 38.5332 8.78261 39.3129C7.59956 40.2436 6.69349 41.5511 6.18192 43.0657Z" fill="#DC0000"/>
<path d="M10.367 40.9578C10.4205 40.9149 10.367 40.8378 10.2981 40.8635C9.64578 41.2293 9.06955 41.7449 8.60695 42.3767C8.14436 43.0086 7.80579 43.7424 7.61328 44.5306C7.61328 44.582 7.66683 44.5992 7.68213 44.5306C8.27051 43.0884 9.19872 41.8532 10.367 40.9578Z" fill="#DC0000"/>
<path d="M11.2942 40.9145C11.3401 40.863 11.2942 40.7688 11.2253 40.8116C10.0688 41.7643 9.11312 42.9898 8.42578 44.4016C8.42578 44.4616 8.47168 44.5044 8.50992 44.453C9.35897 43.1593 10.3457 42.1054 11.2942 40.9145Z" fill="#DC0000"/>
<path d="M19.5311 34.7459C16.0967 37.4362 11.599 40.0494 9.63322 44.342C9.62809 44.3554 9.62752 44.3705 9.63161 44.3844C9.63571 44.3982 9.64419 44.41 9.65547 44.4173C9.66675 44.4247 9.68004 44.4272 9.69284 44.4244C9.70565 44.4215 9.71709 44.4136 9.72501 44.4019C12.3104 40.1694 16.3185 38.2416 19.6153 34.8744C19.6765 34.8144 19.6 34.6945 19.5311 34.7459Z" fill="#DC0000"/>
<path d="M26.9894 27.7371C26.9894 27.6857 26.9512 27.6172 26.9053 27.6686C24.7518 30.4536 22.2774 32.9056 19.5469 34.9599C19.5469 34.9599 19.5469 34.9599 19.5469 34.9599C22.5048 33.2489 25.0561 30.7729 26.9894 27.7371Z" fill="#DC0000"/>
<path d="M28.3948 27.3946C26.9609 29.2288 25.6227 31.154 24.3867 33.1608C24.3867 33.2037 24.3867 33.2551 24.4479 33.2122C25.883 31.3808 27.2262 29.4615 28.4713 27.4632C28.4794 27.4518 28.4832 27.4373 28.4818 27.4228C28.4803 27.4083 28.4738 27.3951 28.4637 27.386C28.4535 27.377 28.4406 27.3728 28.4277 27.3744C28.4148 27.376 28.4029 27.3832 28.3948 27.3946Z" fill="#DC0000"/>
<path d="M30.1605 26.5801C28.1903 28.6304 26.4743 30.9674 25.0586 33.5286C25.0586 33.5286 25.0586 33.5886 25.1045 33.5286C26.6955 31.0954 28.4548 28.8934 30.2064 26.6058L30.1605 26.5801Z" fill="#DC0000"/>
<path d="M25.9648 34.1638C28.4202 29.8798 31.3192 27.1466 35.052 24.3792C35.061 24.3736 35.069 24.366 35.0754 24.3569C35.0818 24.3478 35.0866 24.3375 35.0894 24.3263C35.0923 24.3152 35.0931 24.3035 35.092 24.292C35.0908 24.2805 35.0876 24.2694 35.0826 24.2592C35.0775 24.2491 35.0708 24.2402 35.0627 24.233C35.0546 24.2258 35.0453 24.2204 35.0353 24.2173C35.0254 24.2141 35.015 24.2131 35.0047 24.2144C34.9944 24.2158 34.9845 24.2194 34.9755 24.225C31.0526 26.2974 27.8752 29.8021 25.9648 34.1638Z" fill="#DC0000"/>
<path d="M35.1133 23.9849C35.1133 23.9849 35.1133 24.0791 35.1133 24.062C39.0354 22.273 42.5753 19.575 45.5007 16.1452C45.5139 16.1304 45.5213 16.1104 45.5213 16.0895C45.5213 16.0686 45.5139 16.0486 45.5007 16.0338C45.4876 16.0191 45.4697 16.0107 45.451 16.0107C45.4324 16.0107 45.4145 16.0191 45.4013 16.0338C42.2204 19.0665 38.7735 21.7304 35.1133 23.9849Z" fill="#DC0000"/>
<path d="M38.5391 20.1287C38.5391 20.2143 38.6003 20.3086 38.6538 20.2315C40.9485 17.0442 43.9164 16.0675 47.2896 14.8423C47.3119 14.8366 47.3313 14.8212 47.3435 14.7995C47.3557 14.7778 47.3597 14.7516 47.3546 14.7266C47.3496 14.7016 47.3358 14.6799 47.3165 14.6662C47.2971 14.6526 47.2737 14.6481 47.2514 14.6538C44.077 15.3649 40.1224 16.7443 38.5391 20.1287Z" fill="#DC0000"/>
<path d="M6.08823 47.8638C8.30308 48.5018 10.5511 48.9854 12.8194 49.3117C12.8806 49.3117 12.9112 49.2175 12.8194 49.2089C10.6037 48.5457 8.35301 48.0392 6.08058 47.6924C6.06029 47.6935 6.04124 47.7036 6.02761 47.7205C6.01398 47.7374 6.00689 47.7596 6.00791 47.7824C6.00892 47.8051 6.01796 47.8264 6.03302 47.8417C6.04808 47.8569 6.06794 47.8649 6.08823 47.8638Z" fill="#DC0000"/>
<path d="M13.5042 17.8324C14.3984 16.1987 15.5926 14.7968 17.0075 13.7197C17.0075 13.7197 17.0075 13.6426 17.0075 13.6683C15.8653 14.3598 14.8628 15.3077 14.0626 16.4529C13.0912 17.8581 12.594 19.5631 11.5078 20.8825C11.5078 20.8825 11.5078 20.9511 11.5078 20.9254C12.3082 20.0126 12.9813 18.9699 13.5042 17.8324Z" fill="#DC0000"/>
<path d="M14.956 19.5374C16.4113 18.0447 17.6047 16.2605 18.4746 14.2766C18.4807 14.2641 18.4821 14.2495 18.4785 14.2358C18.4749 14.2221 18.4667 14.2106 18.4555 14.2038C18.4444 14.197 18.4312 14.1954 18.419 14.1994C18.4068 14.2035 18.3966 14.2127 18.3905 14.2252C17.2584 16.0331 16.1799 17.7809 14.9102 19.486L14.956 19.5374Z" fill="#DC0000"/>
<path d="M48.6632 20.8398C49.0477 19.6479 49.2644 18.3963 49.3058 17.1299C49.3058 17.1299 49.2675 17.1299 49.2675 17.1299C49.1375 17.9181 48.9998 18.7064 48.8392 19.4775C48.8392 19.4775 48.7933 19.4347 48.7856 19.4775C48.6938 19.8973 48.6097 20.3343 48.5255 20.737C48.3906 21.3178 48.2272 21.8899 48.036 22.4506H48.0896C48.1508 22.3049 48.1966 22.1507 48.2578 22.005C47.4929 25.535 46.728 28.9622 44.6016 31.9781C44.6016 31.9781 44.6016 32.0381 44.6475 31.9781C47.0799 28.9279 48.1049 24.841 48.6632 20.8398Z" fill="#DC0000"/>
<path d="M46.547 31.1215C48.5382 27.791 49.5443 23.8436 49.4231 19.8375C49.4195 19.8283 49.4136 19.8205 49.4062 19.815C49.3987 19.8096 49.3899 19.8066 49.381 19.8066C49.3721 19.8066 49.3633 19.8096 49.3559 19.815C49.3484 19.8205 49.3425 19.8283 49.3389 19.8375C49.0693 23.7612 48.0908 27.5827 46.4629 31.0701C46.4568 31.0826 46.4554 31.0973 46.459 31.1109C46.4626 31.1246 46.4708 31.1361 46.482 31.1429C46.4932 31.1497 46.5063 31.1513 46.5185 31.1473C46.5307 31.1432 46.5409 31.134 46.547 31.1215Z" fill="#DC0000"/>
<path d="M48.3367 29.2802C49.8516 26.0719 50.4574 22.4225 50.073 18.8187C50.068 18.8016 50.0582 18.7866 50.0452 18.776C50.0321 18.7654 50.0165 18.7598 50.0003 18.7598C49.9842 18.7598 49.9685 18.7654 49.9555 18.776C49.9424 18.7866 49.9327 18.8016 49.9277 18.8187C50.082 22.3845 49.5145 25.9432 48.2678 29.2288C48.2525 29.2973 48.3214 29.323 48.3367 29.2802Z" fill="#DC0000"/>
<path d="M41.0315 13.2836C41.0774 13.2322 41.0315 13.1379 40.9626 13.1808C38.6442 15.0631 36.2223 16.7801 33.7113 18.3215C33.6578 18.3215 33.7113 18.4586 33.7113 18.4329C36.4152 17.2395 38.8974 15.4934 41.0315 13.2836Z" fill="#DC0000"/>
<path d="M19.4163 12.8637C21.4051 10.8159 23.891 9.61639 26.3005 8.40831C27.6855 7.71813 29.1148 7.14533 30.5763 6.69472C31.28 6.54907 31.9685 6.50624 32.6569 6.43769C32.2209 6.53194 31.7772 6.61762 31.3565 6.73758C31.2647 6.73758 31.2953 6.91749 31.3565 6.90892C31.4177 6.90035 31.7237 6.90892 31.9073 6.85751C31.3412 6.94319 30.7905 7.02032 30.2933 7.06316C30.2398 7.06316 30.2321 7.17454 30.2933 7.16597C33.2459 7.08886 37.3152 6.05214 39.8241 8.23697C39.9006 8.30551 40.0077 8.16841 39.9388 8.0913C39.0931 7.23477 38.0163 6.71913 36.8792 6.62619H38.103C38.6538 6.80612 39.2045 7.00318 39.7629 7.24308C41.1321 7.83427 42.4324 8.32264 43.9163 7.90281C43.9622 7.90281 43.9546 7.80855 43.9163 7.81712C41.9888 8.08273 40.4054 7.23451 38.7303 6.5405C38.7303 6.47196 38.7303 6.37772 38.6767 6.36058C38.4396 6.30918 38.1872 6.29204 37.9118 6.2492C37.6364 6.20636 37.5064 6.0864 37.2999 6.02642C35.4288 5.52904 33.4826 5.50271 31.6013 5.94931C29.1856 6.55332 26.8471 7.4946 24.6406 8.75105C22.6672 9.78777 20.5178 10.7474 19.1562 12.7351C19.2557 12.838 19.3704 12.9236 19.4163 12.8637Z" fill="#DC0000"/>
<path d="M23.6307 14.4996C26.2675 14.0875 28.8412 13.2717 31.2798 12.0748V12.0234C28.7479 12.9573 26.2237 13.6856 23.6307 14.3368C23.5006 14.3625 23.5389 14.5167 23.6307 14.4996Z" fill="#DC0000"/>
<path d="M31.0349 11.1414C28.7313 11.7064 26.4605 12.4275 24.2348 13.3005C24.2256 13.2967 24.2156 13.2954 24.2058 13.2968C24.196 13.2982 24.1867 13.3022 24.1786 13.3085C24.1705 13.3148 24.1639 13.3232 24.1593 13.333C24.1547 13.3428 24.1523 13.3537 24.1523 13.3648C24.1523 13.3758 24.1547 13.3867 24.1593 13.3965C24.1639 13.4063 24.1705 13.4147 24.1786 13.421C24.1867 13.4273 24.196 13.4314 24.2058 13.4328C24.2156 13.4342 24.2256 13.4329 24.2348 13.429C26.537 12.8407 28.8053 12.0968 31.0272 11.2013C31.0272 11.2013 31.0731 11.1328 31.0349 11.1414Z" fill="#DC0000"/>
<path d="M36.6927 10.3274C34.5974 11.47 32.4231 12.4213 30.191 13.1719C27.6502 13.9841 25.0532 14.5573 22.4272 14.8855C22.3354 14.8855 22.3278 15.0483 22.4272 15.0397C23.9097 14.9803 25.3843 14.771 26.8331 14.4142C26.8331 14.4142 26.8331 14.4742 26.8943 14.4742C29.3772 14.0896 31.7968 13.3016 34.0768 12.1352C37.2205 10.6187 39.6606 8.76798 43.2098 8.78512C43.2098 8.78512 43.248 8.73371 43.2098 8.72514C40.8309 8.37385 38.8727 9.10215 36.6927 10.3274Z" fill="#DC0000"/>
<path d="M9.27344 38.8332C10.1375 37.6126 10.9223 36.3241 11.6217 34.9776C11.6217 34.9776 11.6217 34.8834 11.5682 34.9262C10.7245 36.1623 9.95773 37.462 9.27344 38.8161V38.8332Z" fill="#DC0000"/>
<path d="M54.8522 32.4153C55.3006 31.0504 55.6861 29.6605 56.0072 28.2513C56.0239 28.1917 56.0225 28.1277 56.0032 28.0691C55.984 28.0105 55.948 27.9607 55.9008 27.9275C55.8537 27.8942 55.798 27.8794 55.7425 27.8853C55.6871 27.8911 55.6349 27.9174 55.5942 27.96C55.5942 27.9 55.5942 27.8486 55.5942 27.7886C56.076 24.3614 54.8904 20.8315 53.766 17.7727C52.5359 14.3703 50.8063 11.2224 48.6488 8.45935C45.1501 3.9499 40.315 1.00768 35.0334 0.174171C29.5108 -0.639783 24.3247 1.45937 19.9265 5.21212C14.8398 9.49609 10.0515 15.1595 7.45847 21.654C6.29581 24.5757 5.52325 27.6515 4.39884 30.5818C3.17498 33.7776 1.23976 36.6822 0.398363 40.0065C-0.182968 42.3456 -0.251806 44.9673 1.04089 46.9894C2.33358 49.0114 4.66655 49.7911 6.83889 50.2966C9.01123 50.8021 11.2601 51.4104 13.5165 51.9502L15.2452 51.7017C19.7582 52.0102 24.4241 51.5218 28.8759 51.359C32.8993 51.2219 37.9401 51.9245 41.7034 49.9796C43.4551 49.0714 44.6177 47.4092 45.8875 45.8584C47.3255 44.0934 49.1995 43.2281 50.7676 41.7115H50.8441C50.8441 41.7115 50.8441 41.7115 50.8441 41.6601C52.1674 40.3407 52.7487 38.4472 53.3606 36.6393L53.8578 35.1999C54.2548 34.3572 54.585 33.477 54.8446 32.5695C54.8606 32.5482 54.87 32.5217 54.8714 32.4939C54.8727 32.4661 54.866 32.4385 54.8522 32.4153ZM48.6029 42.3027C48.2893 42.4141 47.9757 42.5426 47.6697 42.6626L48.7941 42.1571L48.6029 42.3027ZM50.4463 40.6748C49.1689 41.1375 47.9068 41.6773 46.6218 42.1828C46.7518 42.1057 46.8895 42.0628 47.0272 41.9857C48.4691 41.2836 49.845 40.4225 51.1347 39.4153C51.1959 39.4196 51.2572 39.4196 51.3183 39.4153C51.0584 39.8608 50.7668 40.282 50.4463 40.6748ZM30.9259 43.3223L31.1936 43.1424C31.1911 43.168 31.1911 43.1939 31.1936 43.2195L31.2548 43.2623C33.9855 38.9784 38.0013 36.7164 41.4204 33.2121C43.4575 31.1155 45.1483 28.6327 46.4153 25.878C46.2776 26.3492 46.1322 26.8205 45.9563 27.2917C45.0279 29.4745 43.8586 31.5182 42.476 33.3749C42.4377 33.4263 42.476 33.4863 42.5295 33.4435C45.2065 30.2791 47.0308 26.3319 47.7921 22.0567C47.9068 21.4055 48.0598 20.7715 48.121 20.1203H48.0598C47.9451 20.7544 47.7768 21.3455 47.6391 21.9624C47.7079 21.5083 47.7921 21.0457 47.8303 20.5916C47.8303 20.4802 47.8915 20.3688 47.9145 20.2574C47.9374 20.146 47.8686 20.1717 47.8303 20.206C47.8662 19.6355 47.8662 19.0629 47.8303 18.4924C47.8706 18.3975 47.9064 18.3003 47.9374 18.2011C47.9374 18.2011 47.9374 18.1411 47.9374 18.1069C48.2704 17.5563 48.5499 16.9675 48.7712 16.3504C48.9395 15.8792 48.274 15.6993 48.1057 16.1534C48.0882 16.1951 48.0677 16.2353 48.0445 16.2733C48.0635 16.0769 48.0635 15.8786 48.0445 15.6821C48.0428 15.6415 48.0294 15.6026 48.0062 15.5712C47.9831 15.5398 47.9516 15.5176 47.9163 15.508C47.881 15.4983 47.8439 15.5018 47.8105 15.5177C47.7771 15.5337 47.7491 15.5613 47.7309 15.5965C47.5108 16.004 47.3264 16.4344 47.1802 16.8817C47.0501 16.8817 46.9124 16.9759 46.9583 17.1644C46.9621 17.2414 46.9621 17.3187 46.9583 17.3957C46.8068 17.8851 46.6332 18.3655 46.4382 18.8351C46.2393 19.2978 46.0481 19.7433 45.8492 20.1889C44.9161 21.5179 43.8654 22.7379 42.7131 23.8302C40.9377 25.5265 39.0564 27.0784 37.0834 28.4741C35.2093 29.7507 33.1594 30.6161 31.4842 32.2268C30.6665 33.0009 29.8996 33.8398 29.1895 34.7372C28.5546 35.3284 27.9427 35.9624 27.3537 36.6307C26.7648 37.299 26.3594 37.736 25.8239 38.3015C25.109 38.8813 24.3659 39.4162 23.598 39.9037C22.1133 40.5945 20.5777 41.1392 19.0086 41.5316C18.0242 41.8264 17.1452 42.4548 16.492 43.3309C15.5894 44.479 15.6736 44.916 14.1973 45.4557C13.1766 45.8142 12.1058 45.9594 11.0382 45.8841C12.4151 45.9784 14.488 46.501 15.8266 45.8841C16.2645 45.5948 16.6529 45.2205 16.9739 44.7789C17.7685 43.8192 18.8119 43.1629 19.9571 42.9025C21.9305 42.3627 25.3114 41.523 27.0325 39.6295C29.1589 38.7727 30.9488 36.6736 32.5092 34.9686C34.7583 32.5071 37.2353 30.3213 39.8982 28.4484C41.7242 27.0586 43.3363 25.3455 44.6713 23.3761C45.8529 22.1763 46.8031 20.7185 47.4632 19.0922C47.3637 20.0432 47.2414 20.9771 47.1037 21.9025C46.966 22.8278 46.6294 23.676 46.4 24.5585C44.7975 28.3845 42.4442 31.7556 39.5158 34.4202C36.6091 36.9906 32.8534 39.244 31.1018 43.0653L30.7805 43.2623C30.7805 43.2623 30.7805 43.1852 30.7805 43.2024C29.885 43.9301 28.9528 44.5995 27.9886 45.2073C26.8681 45.7955 25.7002 46.2631 24.5006 46.6038H24.4088C26.2622 45.7381 28.0141 44.6217 29.6255 43.2795V43.2195C27.6903 44.3933 25.6403 45.4472 23.7357 46.6467C23.4145 46.6467 23.0855 46.7238 22.7643 46.7752C23.1008 46.6124 23.4451 46.4582 23.7816 46.2783C23.765 46.284 23.7498 46.294 23.7372 46.3073C23.7245 46.3206 23.7148 46.337 23.7086 46.3552C23.7024 46.3734 23.7 46.3929 23.7015 46.4123C23.703 46.4316 23.7085 46.4504 23.7174 46.4671C23.7263 46.4837 23.7385 46.4979 23.7531 46.5086C23.7676 46.5192 23.7841 46.526 23.8014 46.5284C23.8186 46.5309 23.8361 46.5289 23.8526 46.5227C23.869 46.5164 23.884 46.5061 23.8964 46.4925C25.5909 45.5792 27.2222 44.5252 28.7765 43.3395C28.83 43.2966 28.7765 43.2195 28.7229 43.2452C28.2257 43.4851 27.7285 43.7935 27.1931 44.102C27.2696 44.0334 27.1931 43.9135 27.1243 43.9563C26.061 44.5561 25.0055 45.1901 23.9346 45.7985C23.0473 46.1754 22.16 46.5781 21.2957 47.0322C20.6099 47.2457 19.9357 47.5031 19.2763 47.8033C19.2744 47.7867 19.2672 47.7714 19.2559 47.7603C19.2446 47.7493 19.2301 47.7432 19.2151 47.7434C17.8153 47.8719 16.4002 47.9661 14.9928 48.0861H12.6981C12.3309 48.009 11.9332 47.949 11.589 47.889C10.7963 47.5693 9.98319 47.3172 9.15656 47.135C7.59257 46.8184 6.00197 46.6977 4.41413 46.7752C4.41413 46.7152 4.41413 46.6295 4.36059 46.6295C4.14016 46.6096 3.92223 46.5636 3.71042 46.4925C3.39047 46.2805 3.10578 46.008 2.86902 45.6871C2.7577 45.4307 2.61338 45.1939 2.44067 44.9845C2.70838 42.8939 4.2229 41.3603 5.27848 39.6381C6.22237 38.1489 7.05146 36.5724 7.75678 34.9257C8.39166 33.3492 8.61348 31.5585 9.35544 30.0334C10.0974 28.5084 11.4513 28.0028 12.1397 26.6063C12.2011 26.4651 12.23 26.309 12.2238 26.1522C12.5604 25.9979 12.7134 25.7752 12.9888 25.2954C13.671 23.9446 14.6506 22.8119 15.8342 22.0053C17.5782 20.9086 19.3757 20.1889 20.9821 18.8351C23.3533 16.8388 25.7015 17.4129 28.394 16.7788C28.5011 16.7788 28.5929 16.6932 28.7 16.6675C27.828 17.173 26.9636 17.7042 26.1146 18.244L25.3497 18.7238L24.3859 19.3064C24.0187 19.5463 23.1544 19.949 22.5119 20.4288C22.5119 20.4288 22.5119 20.4288 22.466 20.4288C19.4063 22.4251 15.8725 24.6014 13.2871 27.3431C11 29.8364 10.8623 33.6919 8.70527 36.3137C10.8853 33.9661 11.0841 30.4447 13.0729 27.9686C14.9316 25.6638 17.6623 24.0016 20.1254 22.3051C20.12 22.3156 20.1172 22.3274 20.1172 22.3394C20.1172 22.3515 20.12 22.3633 20.1254 22.3737C19.5746 22.7336 19.0086 23.0677 18.4731 23.4361C18.3967 23.4875 18.4196 23.5646 18.4731 23.616L18.0601 23.9502C18.0066 23.9502 18.0601 24.1044 18.1289 24.0616C18.8938 23.5475 19.6588 23.042 20.5078 22.605C19.8421 23.0518 19.2102 23.559 18.6185 24.1215C18.5573 24.1815 18.6185 24.31 18.7026 24.2586C19.4675 23.7189 20.1636 23.162 20.9285 22.665C21.5557 22.2623 22.2518 21.9539 22.8484 21.5083L22.9479 21.4569L22.5042 22.0138C21.0312 22.7503 19.6482 23.6947 18.389 24.8241C18.2972 24.9098 18.389 25.0555 18.5114 24.9783C20.1482 23.7554 21.8726 22.6865 23.6669 21.7825C23.7663 21.7311 23.6669 21.534 23.5904 21.5683C23.3456 21.6454 23.1008 21.7654 22.8255 21.8682C23.3981 21.2461 24.0117 20.6733 24.6613 20.1546L25.3879 19.7519C25.4415 19.7519 25.4415 19.6577 25.4338 19.5977C26.3677 19.0062 27.3883 18.6059 28.4476 18.4153C30.3904 18.0469 31.7826 16.5561 33.6719 16.0334C35.2657 15.7053 36.8105 15.1284 38.2613 14.3198C39.4316 13.6001 40.556 12.829 41.734 12.0236C43.5606 11.208 45.4872 10.7082 47.4479 10.5414C47.6773 10.7384 47.8992 10.9441 48.121 11.1497L48.2051 11.2611C46.1029 11.0737 43.9935 11.5049 42.0859 12.512C42.0646 12.5211 42.0474 12.5393 42.038 12.5626C42.0287 12.5859 42.028 12.6124 42.0362 12.6362C42.0443 12.6601 42.0605 12.6794 42.0813 12.6898C42.1021 12.7002 42.1258 12.701 42.1471 12.6919H42.193C41.8411 12.949 41.5045 13.2488 41.1527 13.5487C39.5635 14.7624 38.0829 16.1455 36.7315 17.6785C36.6627 17.7556 36.7315 17.8584 36.8309 17.7899C38.3608 16.4447 39.8523 15.031 41.3516 13.6258C43.6609 12.6248 46.1191 12.1247 48.5952 12.1521C48.5952 12.1521 48.5952 12.1093 48.5952 12.1007C46.2617 11.7717 43.8924 12.172 41.7493 13.2574L42.3918 12.6662C43.325 12.3663 44.2276 11.9893 45.1914 11.8094C46.2424 11.6016 47.3063 11.487 48.3734 11.4667C48.4356 11.5535 48.502 11.6365 48.5723 11.7152C48.7482 12.1007 48.9318 12.4777 49.1154 12.8462C48.1745 11.818 46.2087 12.4692 45.0614 12.8462C44.3312 13.0781 43.6157 13.3644 42.9196 13.703C42.9302 13.6917 42.9369 13.6766 42.9384 13.6603C42.9399 13.644 42.9361 13.6277 42.9278 13.6142C42.9195 13.6008 42.9072 13.5911 42.893 13.5869C42.8789 13.5828 42.8639 13.5844 42.8508 13.5916C40.285 14.98 38.0155 16.9699 36.1961 19.4263C36.1768 19.4479 36.166 19.4772 36.166 19.5077C36.166 19.5383 36.1768 19.5675 36.1961 19.5891C36.2154 19.6107 36.2415 19.6228 36.2687 19.6228C36.296 19.6228 36.3221 19.6107 36.3414 19.5891C36.5938 19.3321 36.8539 19.1093 37.1063 18.8608C36.9986 19.0495 36.904 19.2472 36.8233 19.452C36.8233 19.572 36.9227 19.632 36.9992 19.5634C37.4123 19.1607 37.7641 18.6638 38.116 18.2183C38.4679 17.7727 38.8809 17.3614 39.2481 16.8645L40.1277 16.0934C40.0548 16.1808 39.9859 16.2723 39.9212 16.3676C39.9158 16.3766 39.9131 16.3872 39.9134 16.398C39.9137 16.4089 39.9171 16.4193 39.923 16.4278C39.929 16.4364 39.9372 16.4426 39.9464 16.4456C39.9557 16.4487 39.9656 16.4483 39.9747 16.4447C41.5045 16.1705 42.9426 15.1766 44.4647 14.7311C45.935 14.3969 47.4257 14.1878 48.9242 14.1056C49.0537 14.0933 49.1762 14.0339 49.2728 13.9365C49.3695 13.839 49.435 13.7089 49.4596 13.5659L49.6126 13.8829C50.0827 14.9883 50.6114 16.0612 51.1959 17.0959C51.1959 17.0959 51.2571 17.0958 51.2877 17.1387C51.2342 17.5585 51.1883 17.9955 51.1653 18.4324C51.1653 18.5353 51.1653 18.6381 51.1118 18.7409C50.8913 18.1386 50.6144 17.5641 50.2857 17.0273C50.2821 17.0017 50.2821 16.9757 50.2857 16.9502C50.2857 16.9502 50.2321 16.8731 50.2092 16.9502C50.0715 16.7703 49.7885 16.9502 49.8956 17.1644C50.0027 17.3786 49.9797 17.3871 50.0333 17.5071C49.6005 18.9514 49.4238 20.4765 49.5131 21.9967H49.5667C49.635 20.5689 49.8246 19.1517 50.1327 17.7642C50.4564 18.5461 50.7125 19.3609 50.8976 20.1974C50.8145 21.548 50.9256 22.9047 51.2265 24.2158C51.2265 24.3786 51.2265 24.5328 51.2265 24.7042C51.2265 24.8755 51.5248 24.9612 51.5631 24.747C51.7647 23.6181 51.7906 22.4586 51.6396 21.3198C51.686 20.366 51.6706 19.4096 51.5937 18.4582C51.5937 18.3982 51.5478 18.3982 51.5095 18.3896C51.5095 18.2268 51.5095 18.064 51.5095 17.9012C51.7084 18.4839 51.9455 19.0579 52.198 19.6148C52.1444 19.5291 52.0067 19.5634 52.0373 19.6748C53.7966 26.0494 51.9149 32.1926 48.404 37.2305L48.9777 36.8364C52.3662 31.8241 54.2556 25.758 52.2286 19.7005C52.8365 20.9013 53.3485 22.16 53.7584 23.4618C54.4315 25.9808 54.0796 28.4484 53.4371 30.9416C52.9248 32.4194 52.2654 33.8277 51.4713 35.1399L51.8385 34.8915C51.5784 35.3798 51.2954 35.8511 51.0277 36.3309C50.0675 37.6503 48.8331 38.6859 47.4326 39.3468C45.8854 39.9685 44.4051 40.7817 43.0191 41.7715C41.1956 43.3046 39.0079 44.199 36.7315 44.3419C35.5271 44.402 34.338 44.6679 33.2053 45.1302C33.2971 45.0616 33.2665 44.8817 33.1517 44.9245L32.4557 45.1816C33.1594 44.8046 33.8708 44.4361 34.5515 44.0506C37.2364 42.5426 40.2424 41.0861 42.5142 38.867C43.6463 37.7617 44.5489 36.4594 45.5739 35.2513C46.5988 34.0432 48.0063 32.9637 49.1077 31.6871C50.6773 29.9653 51.6435 27.67 51.8308 25.2182C51.8308 24.867 51.4025 24.8498 51.303 25.1411C50.3164 27.8948 48.8019 30.3722 46.8666 32.3982C45.0843 34.3688 43.7228 36.8278 41.8717 38.6956C39.6764 40.9233 36.6091 42.3284 33.9625 43.7593C32.7693 44.4104 31.5531 44.9588 30.3292 45.4729L29.5643 45.7299C29.5184 45.7299 29.5643 45.7899 29.5184 45.8242C28.7535 46.1669 27.8968 46.4839 27.0784 46.8009L26.8412 46.8437C26.3059 46.7647 25.7671 46.7189 25.2273 46.7066C27.3857 46.2407 29.3704 45.0621 30.9259 43.3223ZM27.9351 36.9392C27.6597 37.162 27.3843 37.3847 27.0937 37.5904C27.4532 37.2391 27.7744 36.8792 28.1186 36.5194C28.0422 36.6564 27.9963 36.8021 27.9351 36.9392ZM28.0116 37.6161C29.4027 36.6001 30.6332 35.3319 31.6525 33.8633C31.7367 33.7348 31.576 33.5977 31.4689 33.6919C31.1171 34.0261 30.7805 34.386 30.444 34.7458C30.444 34.7458 30.444 34.703 30.4899 34.6773C31.4115 33.5687 32.455 32.5956 33.5954 31.7813C34.651 31.053 35.7295 30.4276 36.8004 29.7764C36.6703 29.8878 36.525 29.9735 36.395 30.0849C34.7347 31.6161 33.1659 33.2675 31.6984 35.0285C30.4918 36.2792 29.2143 37.4412 27.8739 38.5071C27.9541 38.3641 28.0256 38.2153 28.088 38.0616C28.1157 37.9871 28.1232 37.9052 28.1096 37.8259C28.096 37.7467 28.0619 37.6737 28.0116 37.6161ZM22.0835 46.9208L22.2518 46.8523L22.1524 46.9123L22.0835 46.9208ZM9.20246 47.7776C9.11067 47.7776 9.01888 47.7776 8.92709 47.7776C7.87917 47.5549 6.83889 47.3321 5.79861 47.0836C7.47262 47.1728 9.13506 47.4426 10.7629 47.889C10.2351 47.7862 9.7226 47.7605 9.20246 47.7519V47.7776ZM15.4059 49.0114C15.0387 48.8743 14.6869 48.7201 14.312 48.6002C15.077 48.6002 15.796 48.5059 16.5456 48.4117C17.2952 48.3174 17.8536 48.3346 18.4731 48.2146C18.5267 48.2146 18.4731 48.1289 18.4731 48.1118L19.0468 48.0004C17.9024 48.5924 16.6654 48.9272 15.4059 48.9857V49.0114ZM16.798 19.9832C18.4579 18.938 20.4925 18.0983 21.4639 16.1877C21.4639 16.1877 21.4639 16.1362 21.4639 16.1105C23.3992 15.3823 25.2885 15.605 27.3231 15.2537C28.8183 14.9886 30.2847 14.5493 31.6984 13.9429L31.9049 13.8572C31.8727 13.8877 31.8468 13.9258 31.8291 13.9687C31.8113 14.0116 31.8021 14.0584 31.8021 14.1056C31.8021 14.1529 31.8113 14.1997 31.8291 14.2426C31.8468 14.2855 31.8727 14.3235 31.9049 14.3541C29.9206 15.6396 27.6862 16.3632 25.3956 16.4618C23.9191 16.4293 22.4684 16.8982 21.2345 17.807C20.1242 18.7565 18.9358 19.5857 17.6853 20.2831C16.655 20.7486 15.6664 21.3224 14.7327 21.9967C13.6332 22.9878 12.7272 24.2214 12.0709 25.6209C12.0709 25.6209 12.0709 25.5267 12.0097 25.4839L11.8337 25.2782C11.7793 25.2255 11.7133 25.1901 11.6425 25.1754C13.3483 23.3419 14.6027 21.3627 16.798 19.9832ZM21.9458 21.0457C21.7699 21.1742 21.6169 21.3027 21.5098 21.3969L20.5384 22.0224C21.0509 21.6711 21.5404 21.3113 22.0223 20.9428L21.9458 21.0457ZM23.185 21.157C23.0244 21.157 22.8561 21.2513 22.6954 21.2941L23.4604 20.8829C23.3533 20.9771 23.2385 21.0628 23.185 21.157ZM32.6622 14.6883L32.8993 14.5255H33.0982L32.6622 14.6883ZM50.5381 39.0383C50.5381 39.0383 50.5381 39.0383 50.5381 39.0812H50.4846L50.5381 39.0383ZM50.4769 39.1154H50.4234H50.4769ZM51.4101 38.5414C51.7761 38.0482 52.1182 37.5333 52.4351 36.9992C52.2466 37.4536 52.024 37.8893 51.7696 38.3015C51.6549 38.3872 51.5401 38.4557 51.4101 38.5414ZM32.4939 45.4643C32.4939 45.4643 32.4939 45.4214 32.4327 45.4643L32.1344 45.5328L33.0829 45.1901C32.8823 45.2695 32.6857 45.361 32.4939 45.4643ZM34.4215 45.3358C34.2073 45.3358 33.9855 45.4129 33.7637 45.4472C33.9811 45.3975 34.2007 45.3603 34.4215 45.3358ZM34.9646 45.6871C35.1635 45.6871 35.3623 45.7299 35.5612 45.747C35.1482 45.747 34.7351 45.747 34.3144 45.8242L34.9646 45.6871ZM35.8672 45.4986C36.089 45.4986 36.3108 45.4215 36.5326 45.3615C36.6091 45.3615 36.6015 45.2587 36.5326 45.2158C37.3971 45.22 38.2601 45.1339 39.1104 44.9588C38.0514 45.2777 36.9632 45.4589 35.8672 45.4986ZM43.7534 42.0714C45.4974 40.6491 47.6162 40.2636 49.3525 38.8841C49.4672 38.7984 49.5514 38.6956 49.6585 38.6014C49.6126 38.6699 49.5743 38.747 49.5361 38.8156C49.4945 38.8859 49.4774 38.9709 49.4883 39.0543C49.4991 39.1378 49.537 39.2139 49.5948 39.268C49.6526 39.3221 49.7261 39.3504 49.8014 39.3475C49.8766 39.3447 49.9483 39.3109 50.0027 39.2525L50.0486 39.184C50.1939 39.0212 50.3163 38.8241 50.454 38.6442C50.3545 38.8241 50.2474 38.9869 50.1557 39.1669C50.1414 39.1878 50.1337 39.2134 50.1337 39.2397C50.1337 39.266 50.1414 39.2916 50.1557 39.3125C48.0751 40.5806 45.9181 41.6087 43.7687 42.7397L44.0593 42.4741L43.1261 43.1167C42.476 43.4594 41.8258 43.7936 41.1909 44.1705C41.1909 44.1705 41.1909 44.2305 41.1909 44.2477C40.7167 44.4447 40.2424 44.6332 39.7835 44.7874C41.2284 44.1343 42.5691 43.2228 43.7534 42.0885V42.0714ZM53.942 22.3651C53.2765 20.4288 52.3586 18.5353 51.5325 16.6418C51.5325 16.5475 51.5325 16.4447 51.5325 16.3504C51.5325 16.2562 51.4331 16.2305 51.3719 16.2905V16.2219C51.2159 15.3795 50.9422 14.5698 50.5611 13.8229C52.0789 16.4707 53.2195 19.3671 53.942 22.408V22.3651ZM50.1557 13.1803C49.9891 12.8835 49.8078 12.5975 49.6126 12.3235C49.5833 12.2319 49.5475 12.1431 49.5055 12.0579C49.5274 12.0797 49.5456 12.1058 49.559 12.135C49.7579 12.5206 49.9568 12.8804 50.1557 13.2231V13.1803ZM45.1379 45.4472C43.608 47.3235 42.2312 49.0114 39.9594 49.7311C37.9802 50.1683 35.9638 50.3579 33.9472 50.2966L26.8642 50.5365C24.2865 50.6308 21.6475 50.6051 19.0239 50.725C19.0239 50.725 18.9397 50.6736 18.9244 50.6308C18.3584 50.5708 17.8077 50.4851 17.2493 50.4166C18.75 50.115 20.2688 49.9403 21.7929 49.8939C21.4257 49.9882 21.0279 50.0482 20.6761 50.1681C20.6302 50.1681 20.6761 50.2538 20.6761 50.2452C24.1875 49.5782 27.7613 49.4227 31.3083 49.7825C31.3925 49.7825 31.3925 49.6626 31.3083 49.6454C30.4405 49.4725 29.5645 49.3552 28.6847 49.2942C30.8188 49.2942 32.9529 49.2942 35.087 49.2342C36.3873 49.2018 37.6762 48.9535 38.9115 48.4973C38.988 48.4973 38.9956 48.3089 38.9115 48.3174L38.3455 48.3774C38.6267 48.2782 38.9025 48.1609 39.1716 48.0261C39.1827 48.0165 39.1917 48.0042 39.1979 47.9901C39.2041 47.976 39.2073 47.9604 39.2073 47.9447C39.2073 47.929 39.2041 47.9135 39.1979 47.8994C39.1917 47.8852 39.1827 47.8729 39.1716 47.8633C39.5334 47.762 39.8886 47.6332 40.2348 47.4778C40.3266 47.4349 40.2348 47.2721 40.1736 47.2978C38.7471 47.7723 37.2811 48.0823 35.7983 48.2232C34.6739 48.2917 33.5571 48.2232 32.4327 48.2232C32.4532 48.2136 32.4699 48.1962 32.4797 48.174C32.4896 48.1517 32.4919 48.1263 32.4863 48.1023C32.4807 48.0783 32.4676 48.0574 32.4493 48.0434C32.431 48.0294 32.4088 48.0232 32.3868 48.0261H32.0962L32.8611 47.9404C32.9988 47.9404 32.9758 47.6748 32.8611 47.6663C30.5895 47.6435 28.3239 47.9312 26.1146 48.523H25.9463C24.1622 48.4538 22.3799 48.7084 20.6684 49.277C20.6602 49.281 20.6533 49.2876 20.6484 49.296C20.6435 49.3044 20.6409 49.3141 20.6409 49.3242C20.6409 49.3342 20.6435 49.3439 20.6484 49.3523C20.6533 49.3607 20.6602 49.3673 20.6684 49.3713C23.0866 48.8964 25.5434 48.7154 27.9963 48.8315C28.0422 48.8315 28.0422 48.7544 27.9963 48.7458L27.522 48.6858C28.9218 48.6259 30.3139 48.4974 31.6755 48.2917C32.112 48.4677 32.5594 48.608 33.0141 48.7115C32.3945 48.7115 31.7673 48.7116 31.1324 48.6687C29.663 48.6983 28.1967 48.8299 26.7418 49.0628C26.6806 49.0628 26.6806 49.1485 26.7418 49.1999C25.4601 49.2138 24.1814 49.3398 22.9173 49.5769C20.8095 49.2481 18.6621 49.486 16.6527 50.2709C12.677 49.7079 8.73927 48.8492 4.86543 47.7005C4.83575 47.6985 4.80632 47.7078 4.78206 47.7271C4.7578 47.7464 4.74018 47.7744 4.73212 47.8065C4.72407 47.8385 4.72608 47.8727 4.73781 47.9034C4.74954 47.934 4.77028 47.9592 4.79659 47.9747C8.8506 49.2256 13.2106 50.5451 17.5323 50.7678C16.7674 50.8278 16.0407 50.9135 15.2988 51.0163C12.461 50.4508 9.63081 49.7997 6.88479 49.1742C3.50389 48.4117 0.658434 46.8523 0.765521 42.5255C0.826714 39.5267 2.45597 36.9478 3.76396 34.4031C4.10052 33.7433 4.36824 33.0579 4.66655 32.3811C3.54979 35.8682 1.41569 39.0726 1.30096 42.8511C1.30146 42.9068 1.31989 42.9604 1.35286 43.0021C1.38583 43.0438 1.43113 43.0708 1.48043 43.0781C1.52973 43.0854 1.57972 43.0725 1.62122 43.0418C1.66273 43.0111 1.69296 42.9647 1.70636 42.9111C1.89914 42.1034 2.13152 41.3082 2.40243 40.5292L2.52481 40.4521L2.41772 40.512C3.18263 38.1815 4.27645 35.9796 5.14079 33.6577C6.00514 31.3358 6.30345 28.9367 7.22134 26.7605C7.22134 26.7605 7.25959 26.7605 7.27489 26.7605C8.39165 25.0469 9.25601 23.2048 10.411 21.5255C11.4666 19.9832 12.5451 18.4667 13.616 16.9331C14.7849 15.1114 16.129 13.4392 17.6241 11.9465C19.2392 10.5743 20.9742 9.38872 22.8025 8.40795C24.6803 7.27856 26.6342 6.316 28.6464 5.52913C27.3205 6.01479 26.0397 6.64319 24.8219 7.40551C24.8109 7.4153 24.8033 7.429 24.8003 7.44434C24.7972 7.45968 24.799 7.47573 24.8053 7.48979C24.8115 7.50384 24.8219 7.51504 24.8347 7.52153C24.8475 7.52802 24.8619 7.52941 24.8754 7.52545C25.8426 6.97326 26.8479 6.5091 27.8815 6.13745C27.8815 6.13745 27.8815 6.18887 27.8815 6.18031C29.6393 5.65973 31.429 5.28457 33.2359 5.05788C34.5439 5.05788 35.8595 5.05789 37.2134 5.15214C37.2593 5.15214 37.2822 5.1093 37.2899 5.06646C39.7529 5.8033 42.1241 7.01138 44.6177 7.50833C44.6349 7.50913 44.6518 7.50406 44.6663 7.49376C44.6808 7.48347 44.6921 7.46844 44.6988 7.45072C44.7054 7.43301 44.7071 7.41344 44.7036 7.39464C44.7 7.37583 44.6914 7.35871 44.6789 7.34553C42.7207 6.14602 40.4566 5.45202 38.3914 4.45814C36.9647 3.70354 35.4331 3.22827 33.8631 3.05299C32.6645 2.99177 31.4651 3.15391 30.3139 3.53279C26.8796 3.81615 23.595 5.22228 20.8673 7.57686C20.8138 7.62827 20.8673 7.72252 20.9362 7.68825C23.0718 6.21376 25.3922 5.10484 27.8203 4.39816L28.1569 4.32963C26.3594 5.18642 24.6307 6.24883 23.0397 7.19987C19.3757 9.41039 16.1555 12.8119 13.4095 16.2648C12.0785 17.9783 10.8394 19.6919 9.65375 21.5255C9.23305 22.1509 8.80471 22.8107 8.3993 23.4961C8.3993 23.4961 8.35341 23.4961 8.33811 23.4961C8.32281 23.4961 8.14688 23.6846 8.04745 23.7703C8.70151 22.0662 9.46856 20.4195 10.3422 18.8437C13.5156 13.4143 17.6497 8.77181 22.4889 5.20355C30.5969 -0.691195 40.0818 1.43366 46.4535 8.09952C46.4004 8.11905 46.3551 8.15901 46.3257 8.21231C46.2963 8.26562 46.2847 8.32884 46.2929 8.39082C45.8348 8.0014 45.316 7.71086 44.7631 7.53403C44.6177 7.53403 44.4418 7.68826 44.5412 7.83391C45.1143 8.53383 45.7707 9.14213 46.4917 9.64173C46.8512 9.93304 47.1802 10.2672 47.532 10.5756C46.0485 10.4293 44.5542 10.6396 43.1491 11.1925C43.2638 11.1154 43.3786 11.0383 43.4857 10.9526V10.8927C43.2562 11.0212 43.042 11.184 42.8125 11.3211C42.2789 11.5501 41.7665 11.837 41.2827 12.1779C41.2687 12.1939 41.2609 12.2154 41.2609 12.2378C41.2609 12.2602 41.2687 12.2818 41.2827 12.2978C40.0971 13.0946 38.9268 13.9086 37.6953 14.594C35.9819 15.5536 34.1232 15.5022 32.4251 16.3847C31.1859 17.0359 30.2374 17.8755 28.853 18.1925C28.2946 18.3296 27.7438 18.4067 27.1931 18.5181C27.3985 18.4164 27.5934 18.29 27.7744 18.1411C27.7744 18.1616 27.7817 18.1812 27.7946 18.1957C27.8075 18.2101 27.825 18.2183 27.8433 18.2183C27.8615 18.2183 27.879 18.2101 27.892 18.1957C27.9049 18.1812 27.9121 18.1616 27.9121 18.1411L27.9886 17.9098C28.5699 17.4985 29.1513 17.053 29.7632 16.7189C31.293 15.8021 32.907 15.0995 34.4827 14.2684C34.5745 14.217 34.5286 14.0971 34.4827 14.0628C35.1176 13.7286 35.7295 13.2831 36.372 12.8804C38.3302 11.6381 41.1297 10.1987 43.4015 10.1301C43.4115 10.1257 43.42 10.118 43.426 10.108C43.432 10.0981 43.4352 10.0864 43.4352 10.0744C43.4352 10.0624 43.432 10.0507 43.426 10.0408C43.42 10.0309 43.4115 10.0232 43.4015 10.0187C42.5178 9.90899 41.6282 9.87176 40.7396 9.90734C41.211 9.79905 41.6893 9.73317 42.17 9.71029C42.2083 9.71029 42.2159 9.66744 42.2388 9.64173C42.9107 9.55166 43.5907 9.56897 44.2582 9.69314C45.1302 9.8902 45.9793 10.0787 46.8666 10.2072C46.9277 10.2072 46.9583 10.1044 46.8666 10.0787C45.99 9.65012 45.0378 9.45087 44.0823 9.49609C43.4704 9.49609 42.8661 9.49609 42.2542 9.49609C42.2542 9.44469 42.2542 9.3847 42.1853 9.37613C40.709 9.07625 39.4546 9.65887 38.1083 10.3614C36.1043 11.4067 34.0849 12.452 32.0426 13.3945C29.7278 14.4313 27.2612 14.9775 24.7683 15.0053C23.6271 14.9554 22.4925 15.2202 21.4639 15.7764C21.4164 15.754 21.3645 15.7462 21.3134 15.7537C21.2624 15.7613 21.214 15.7839 21.1733 15.8192C20.2614 16.6179 19.2738 17.3017 18.2284 17.8584C18.9244 16.8217 19.6358 15.7935 20.2936 14.7397C20.2936 14.6797 20.2936 14.6283 20.2095 14.6711C19.3037 15.6638 18.5308 16.7979 17.9148 18.0383C17.4482 18.3039 16.9892 18.5781 16.5303 18.8523C17.5731 17.4653 18.5436 16.012 19.4369 14.4998C19.4369 14.4569 19.4369 14.3969 19.3681 14.4398C18.2703 15.8856 17.2487 17.4018 16.3085 18.9808C15.6791 19.3602 15.0779 19.7957 14.5109 20.2831C12.8883 21.6826 11.6114 23.5228 10.8011 25.6295C10.8011 25.6809 10.8011 25.6981 10.8394 25.7409C10.5869 26.0408 10.3575 26.3578 10.0745 26.6491C9.40807 27.1893 8.81097 27.8293 8.29987 28.5512C7.27489 30.3505 7.08366 32.5781 6.31111 34.4973C5.43911 36.6907 4.01638 38.5842 3.18263 40.7776C2.71604 41.9771 2.08881 43.5708 2.20355 44.916C1.95878 45.49 2.43302 46.1754 2.80783 46.5182C3.00019 46.6933 3.22473 46.8187 3.46539 46.8853C3.70605 46.952 3.95688 46.9583 4.19996 46.9037L5.04136 46.9637C4.97252 47.0494 4.94957 47.1779 5.04136 47.2207C5.80627 47.4178 6.62472 47.5806 7.42022 47.7605C7.42022 47.7605 7.42022 47.8291 7.45847 47.8376C7.71089 47.8976 7.96331 47.9319 8.22338 47.9747H8.56758L9.04183 48.069C9.74555 48.2146 10.4493 48.326 11.1606 48.4459C12.178 48.6687 13.18 48.9343 14.2203 49.1656C14.2355 49.1736 14.2529 49.1744 14.2687 49.168C14.2844 49.1616 14.2973 49.1484 14.3044 49.1314C14.3115 49.1143 14.3123 49.0948 14.3065 49.0772C14.3008 49.0595 14.289 49.0451 14.2738 49.0371C14.7247 49.197 15.1847 49.3229 15.6506 49.4141C17.5094 49.7568 19.131 49.08 20.9209 48.6002C22.1218 48.2746 23.338 48.0261 24.5618 47.7434C24.9366 47.6577 25.3267 47.5892 25.6862 47.5206C25.6862 47.5892 25.7398 47.6491 25.8086 47.6234L26.0381 47.5463C26.0381 47.6491 26.0381 47.7519 26.1681 47.7091L26.4282 47.6406C28.3022 47.1779 30.1915 47.195 32.0656 46.8523C32.1803 46.8523 32.1497 46.6552 32.0656 46.6381C31.3514 46.548 30.6304 46.548 29.9162 46.6381L30.138 46.5867L30.5511 46.501C30.5511 46.501 30.5511 46.5696 30.6275 46.561C32.7999 46.2268 34.9722 46.0384 37.1369 45.747C37.1369 45.747 37.1369 45.747 37.1369 45.6871C38.7026 45.6174 40.2288 45.1172 41.581 44.2305C41.6434 44.2098 41.7099 44.2098 41.7723 44.2305C41.8103 44.1524 41.8691 44.0895 41.9405 44.0506L42.5066 43.7336L42.5907 43.6736L43.0191 43.5194C43.0069 43.5194 42.9952 43.5248 42.9866 43.5344C42.978 43.5441 42.9732 43.5571 42.9732 43.5708C42.9732 43.5844 42.978 43.5975 42.9866 43.6071C42.9952 43.6168 43.0069 43.6222 43.0191 43.6222L43.4551 43.4594C43.2332 43.5708 43.0267 43.7164 42.8049 43.8364C42.8049 43.8364 42.8049 43.9135 42.8049 43.8964C43.4704 43.6222 44.1282 43.2623 44.7936 42.9453C46.53 42.3284 48.2587 41.6944 49.9644 41.0004C49.7734 41.1971 49.5715 41.3802 49.3601 41.5488C47.1113 42.4998 44.8854 43.5194 42.6749 44.5647V44.6332L45.9104 43.2966C44.6987 43.812 43.5736 44.5536 42.5831 45.49C41.1068 47.0151 40.1889 48.3345 38.116 48.9172C36.141 49.3526 34.1168 49.4336 32.1191 49.1571C32.0983 49.1637 32.0801 49.1778 32.067 49.1971C32.054 49.2164 32.047 49.24 32.047 49.2642C32.047 49.2884 32.054 49.3119 32.067 49.3313C32.0801 49.3506 32.0983 49.3646 32.1191 49.3713C35.0564 49.654 38.3302 49.9453 40.8697 47.9147C41.3734 47.4818 41.8326 46.9875 42.2388 46.441C43.1037 45.4116 44.1654 44.6149 45.3444 44.1106C45.9181 43.8364 46.4994 43.5793 47.0807 43.3223C46.3696 43.9697 45.7187 44.696 45.1379 45.49V45.4472ZM34.5133 48.4802C34.8881 48.4802 35.2782 48.4802 35.6377 48.4802C35.2638 48.5159 34.8885 48.5302 34.5133 48.523V48.4802ZM33.3889 48.4202H33.7025H33.3889ZM29.1436 5.30636C29.0715 5.31939 29 5.33655 28.9294 5.35776L29.0442 5.31494L29.1436 5.30636Z" fill="#DC0000"/>
<path d="M21.457 45.9954C21.457 45.9954 21.457 46.0725 21.457 46.0639C23.5944 45.4411 25.6115 44.3839 27.408 42.9452C27.4769 42.8938 27.408 42.7739 27.3239 42.8167C25.4492 44.0542 23.487 45.1174 21.457 45.9954Z" fill="#DC0000"/>
<path d="M26.5277 41.583C24.7687 42.8424 22.8678 43.8336 20.875 44.5304C20.875 44.5304 20.875 44.6075 20.875 44.5989C22.9659 44.1835 24.926 43.1713 26.5659 41.6601C26.5699 41.6524 26.572 41.6437 26.5721 41.6348C26.5721 41.6259 26.5702 41.6172 26.5663 41.6094C26.5625 41.6017 26.5569 41.5951 26.5501 41.5905C26.5433 41.5859 26.5356 41.5833 26.5277 41.583Z" fill="#DC0000"/>
<path d="M27.6915 40.8292C27.7527 40.7864 27.6915 40.6665 27.6456 40.6922H27.5997C30.2352 39.0011 32.5858 36.8059 34.5451 34.2063C34.6139 34.112 34.4762 33.9835 34.3997 34.0692C31.9677 36.8869 29.2039 39.3198 26.1846 41.3005C24.1959 42.1573 22.2224 43.1169 20.2489 43.9737C20.1954 43.9737 20.2489 44.1108 20.2948 44.0851C22.8694 43.3407 25.3533 42.2473 27.6915 40.8292Z" fill="#DC0000"/>
<path d="M37.0085 40.2119C37.1232 40.1348 37.0085 39.9292 36.9167 40.0063L33.8571 42.1911C33.75 42.2682 33.8571 42.4824 33.9565 42.3967L37.0085 40.2119Z" fill="#DC0000"/>
<path d="M32.5327 43.8537C32.5327 43.9394 32.5327 44.0336 32.6474 43.9908L33.5882 43.4938C33.5882 43.5624 33.6418 43.6309 33.7183 43.5881C35.0696 42.7998 36.4286 42.0173 37.7952 41.2405C37.91 41.1719 37.7952 40.9663 37.6958 41.0349L35.577 42.2601C35.577 42.2601 35.577 42.2172 35.5082 42.2601L33.0834 43.5367L34.1084 42.8769L34.705 42.4657L36.0513 41.6089C36.0513 41.6089 36.0513 41.5575 36.0513 41.5404L37.2981 40.6836C37.4051 40.6065 37.2981 40.4008 37.1986 40.4779L34.6438 42.2601L31.2629 44.4277C31.2447 44.4457 31.2325 44.47 31.2282 44.4967C31.224 44.5235 31.2279 44.5511 31.2395 44.5749C31.251 44.5988 31.2695 44.6176 31.2918 44.6282C31.3141 44.6388 31.339 44.6406 31.3624 44.6334L32.5327 43.8537Z" fill="#DC0000"/>
<path d="M26.605 47.9321C24.6084 47.9283 22.6254 48.299 20.7381 49.0288C20.6769 49.0288 20.7381 49.1573 20.7381 49.1316C22.413 48.6785 24.1202 48.3918 25.8401 48.2748C25.8401 48.3263 25.8936 48.3777 25.9548 48.3605C26.2149 48.292 26.4749 48.2577 26.7197 48.2063L27.7982 48.1206C27.8104 48.1206 27.8221 48.1152 27.8307 48.1056C27.8393 48.0959 27.8441 48.0829 27.8441 48.0692C27.8441 48.0556 27.8393 48.0425 27.8307 48.0329C27.8221 48.0232 27.8104 48.0178 27.7982 48.0178C29.2057 47.8293 30.6208 47.7522 32.0205 47.4523C32.1123 47.4523 32.0817 47.2981 32.0205 47.281C30.1948 47.1113 28.357 47.3323 26.605 47.9321Z" fill="#DC0000"/>
<path d="M18.9641 28.5516C21.6082 28.1059 24.1112 26.9278 26.246 25.1244C26.246 25.1244 26.246 25.0387 26.2078 25.0644C23.9387 26.5533 21.4883 27.6645 18.9335 28.3631C18.9112 28.3676 18.8914 28.3819 18.8785 28.4028C18.8656 28.4237 18.8606 28.4494 18.8647 28.4744C18.8687 28.4994 18.8815 28.5216 18.9001 28.5361C18.9188 28.5505 18.9418 28.5561 18.9641 28.5516Z" fill="#DC0000"/>
<path d="M19.0087 27.6942C21.3377 27.1037 23.5649 26.0907 25.6022 24.6954C25.6132 24.6856 25.6208 24.6719 25.6238 24.6566C25.6268 24.6412 25.6251 24.6252 25.6188 24.6111C25.6125 24.5971 25.6021 24.5859 25.5894 24.5794C25.5766 24.5729 25.5622 24.5715 25.5486 24.5755C23.3687 25.6807 21.2422 26.7003 18.9857 27.6C18.9785 27.5996 18.9713 27.6011 18.9646 27.6044C18.958 27.6077 18.9522 27.6127 18.9476 27.6191C18.9431 27.6254 18.94 27.6328 18.9385 27.6408C18.937 27.6487 18.9372 27.657 18.9391 27.6648C18.941 27.6726 18.9446 27.6799 18.9494 27.6859C18.9543 27.6919 18.9604 27.6965 18.9672 27.6994C18.974 27.7023 18.9813 27.7033 18.9885 27.7024C18.9957 27.7015 19.0026 27.6987 19.0087 27.6942Z" fill="#DC0000"/>
<path d="M25.1889 23.6158C25.2424 23.5644 25.1888 23.4701 25.12 23.5044C22.8595 24.8882 20.5217 26.1074 18.1211 27.1543C18.1211 27.1543 18.1211 27.24 18.1211 27.2314C20.6444 26.4882 23.035 25.2652 25.1889 23.6158Z" fill="#DC0000"/>
<path d="M18.4365 26.4432C20.5525 25.5092 22.6164 24.4334 24.617 23.2216C24.6705 23.2216 24.617 23.076 24.617 23.1017C22.5002 24.05 20.4364 25.1401 18.4365 26.3661C18.3524 26.3918 18.3906 26.4689 18.4365 26.4432Z" fill="#DC0000"/>
<path d="M24.2332 22.7846C24.2445 22.7744 24.2526 22.7606 24.2564 22.7449C24.2602 22.7293 24.2596 22.7127 24.2545 22.6975C24.2494 22.6823 24.2402 22.6693 24.2281 22.6604C24.2161 22.6514 24.2018 22.6469 24.1873 22.6475C22.1376 23.4221 20.194 24.5121 18.4123 25.8862C18.3511 25.9291 18.4123 26.0404 18.4658 25.9976C20.3398 24.7895 22.3362 23.9156 24.2332 22.7846Z" fill="#DC0000"/>
<path d="M23.8444 22.6052C23.8595 22.5934 23.8707 22.5764 23.8764 22.5568C23.882 22.5373 23.8818 22.5161 23.8757 22.4967C23.8696 22.4773 23.8581 22.4606 23.8427 22.4493C23.8274 22.4379 23.8092 22.4325 23.7909 22.4338C21.9578 23.01 20.2214 23.9188 18.6507 25.1241C18.6304 25.1366 18.6154 25.1576 18.6089 25.1825C18.6025 25.2075 18.6051 25.2342 18.6163 25.2569C18.6274 25.2797 18.6462 25.2965 18.6684 25.3037C18.6907 25.3109 18.7146 25.308 18.7348 25.2955C20.3794 24.2673 22.1463 23.5476 23.8444 22.6052Z" fill="#DC0000"/>
</svg>
