<svg width="50" height="73" viewBox="0 0 50 73" fill="none" xmlns="http://www.w3.org/2000/svg">
<path d="M47.0795 44.288C45.2146 39.7795 42.6588 36.0225 40.0493 32.2654C39.0229 31.1609 38.0368 30.0112 36.9769 29.0419C36.3061 28.3807 35.2931 27.5391 34.3808 26.6524C33.073 25.7137 31.8467 24.6394 30.7181 23.4439C29.524 22.2525 28.7111 20.6558 28.4038 18.8979C28.09 17.9547 27.9485 16.9505 27.9879 15.9449C27.7598 15.0732 27.5518 14.1941 27.317 13.2924C26.6462 10.1741 25.8345 6.80025 23.4799 4.7489C22.2989 3.27715 20.8604 2.09297 19.2537 1.26988C18.3802 0.843841 17.4757 0.501965 16.5503 0.247966C16.4094 0.247966 16.2619 0.202884 16.121 0.180342C18.2215 0.918056 20.1756 2.10177 21.8767 3.66687C21.5144 3.47902 21.1388 3.3062 20.7631 3.14089C19.1922 1.88649 17.4773 0.875475 15.6648 0.135259C15.6648 0.135259 15.5508 0.0676249 15.4904 0.0450826C15.316 0.0450826 15.1416 0.0450845 14.9605 0C14.5043 0.0751408 14.0481 0.157802 13.6188 0.217915C12.5455 0.368196 11.385 0.556038 10.211 0.653721C9.07815 1.1642 7.99843 1.81175 6.99108 2.58484C6.99108 2.58484 6.99108 2.65247 6.99108 2.68253C4.37486 3.50908 2.23493 7.06323 1.28236 9.62553C-0.0592843 13.2398 -0.622776 18.5523 0.960368 22.144C0.987445 22.1889 1.02322 22.2265 1.06503 22.2538C1.10684 22.2811 1.15361 22.2975 1.20187 22.3018C1.4371 22.9439 1.7082 23.5688 2.01356 24.1728C2.99967 26.134 4.49561 27.6142 5.83055 29.2824C6.91776 30.6294 7.8219 32.1486 8.51385 33.7908C8.60776 33.9937 8.70839 34.1891 8.79559 34.3919C8.8828 34.5948 8.88951 34.6098 8.92976 34.7226C11.9954 42.1465 12.143 51.5315 15.638 59.0531C18.9921 66.3343 24.4392 72.4958 32.0799 72.9617C37.1782 73.2773 42.1825 71.6542 45.919 67.7018C46.131 67.4647 46.3304 67.2138 46.516 66.9504C46.838 66.3493 47.1265 65.7256 47.3948 65.1095C47.5088 64.8465 47.6363 64.5234 47.7705 64.1777C47.9046 63.8321 48.0187 63.5466 48.1662 63.2084C48.2266 63.0581 48.3004 62.9079 48.3675 62.7576C48.5839 62.2571 48.8399 61.7793 49.1322 61.3299C49.2262 59.5115 49.6152 57.648 49.7226 55.8221C49.7226 55.4915 49.7226 55.1533 49.7695 54.8152C49.466 51.1491 48.5536 47.5788 47.0795 44.288ZM17.5633 1.36757L17.5029 1.32247L17.5633 1.36757ZM35.9707 71.3462C28.5916 72.3305 21.8163 66.7926 18.0463 60.075C13.6926 52.313 13.8804 43.9423 11.5929 35.519C9.775 28.8315 2.98626 25.0369 1.53057 18.5898C1.53057 16.1102 1.39641 13.6606 2.14102 11.1283C2.71508 9.12213 3.69804 7.29306 5.01215 5.78584C5.8708 4.80901 6.91729 4.1628 7.80277 3.26863L8.28577 2.96806L8.66143 2.76519C9.5335 2.53976 10.3586 2.23168 11.3447 1.91609C14.6116 0.871635 15.3697 1.91609 18.1268 3.55416C21.3601 5.46273 24.1105 6.30431 25.3985 10.7677C25.7346 12.234 25.959 13.7297 26.0693 15.2385C26.0693 15.2385 26.0358 15.2385 26.0291 15.2385C25.916 17.3086 26.1925 19.3822 26.8408 21.325C26.7737 21.2498 26.7133 21.1672 26.6529 21.0845C26.5926 21.0018 26.4383 21.1221 26.4852 21.2198C26.8917 22.0342 27.356 22.8107 27.8738 23.5416C28.0214 23.7821 28.1891 24 28.3568 24.2254C28.6721 24.6462 29.0276 25.0219 29.3563 25.4051C28.984 25.1315 28.6318 24.8249 28.3032 24.4884C27.5508 23.6641 26.8764 22.7551 26.2907 21.7758C26.2774 21.7604 26.26 21.7504 26.2412 21.7472C26.2223 21.7439 26.203 21.7477 26.1863 21.758C26.1695 21.7682 26.1562 21.7843 26.1484 21.8038C26.1406 21.8233 26.1388 21.8452 26.1431 21.866C26.9011 23.7745 28.5581 26.0739 30.4163 26.6675C30.4967 26.6675 30.5303 26.6224 30.537 26.5397C30.8613 26.8254 31.2069 27.0793 31.5701 27.2986C31.5987 27.3118 31.6303 27.3145 31.6604 27.3064C31.6905 27.2983 31.7176 27.2798 31.7378 27.2536C32.8591 28.2267 34.1539 28.9185 35.5346 29.2824C35.9841 29.6806 36.4403 30.0713 36.8763 30.5072C39.6106 33.3472 41.9588 36.6205 43.8461 40.2229C46.5965 45.4827 48.6358 51.8171 48.4212 58.0012C48.4212 58.0012 48.3675 58.0462 48.3608 58.0838C46.1202 64.8164 42.9003 70.4144 35.9841 71.3462H35.9707Z" fill="#DC0000"/>
<path d="M5.92254 12.1882C5.9295 12.2023 5.93971 12.2141 5.95209 12.2223C5.96448 12.2304 5.9786 12.2347 5.99297 12.2347C6.00735 12.2347 6.02147 12.2304 6.03386 12.2223C6.04624 12.2141 6.05645 12.2023 6.06341 12.1882C6.21371 11.7059 6.27976 11.1957 6.25795 10.6854C6.34006 10.0243 6.49788 9.37776 6.72753 8.76181C6.95099 8.14555 7.24893 7.56656 7.61302 7.04108C7.93306 6.68264 8.21244 6.28137 8.44484 5.84635C8.45734 5.81526 8.46135 5.78072 8.45637 5.74708C8.45139 5.71344 8.43763 5.6822 8.41684 5.65729C8.39604 5.63239 8.36913 5.61494 8.33949 5.60713C8.30986 5.59932 8.27883 5.60151 8.2503 5.61341C7.2776 5.9816 6.57324 7.66476 6.23783 8.67165C5.90241 9.67854 5.406 11.3091 5.92254 12.1882Z" fill="#DC0000"/>
<path d="M19.6416 14.8254C20.1447 17.1473 20.1715 18.9732 21.6541 20.8367C21.6541 20.8367 21.7211 20.8367 21.701 20.7991C20.1581 18.7177 20.3594 16.1254 19.6886 13.7058C19.1754 11.9621 18.3361 10.361 17.2266 9.00953C15.885 7.37146 13.5572 5.15481 11.4844 6.0039V6.05649C15.5294 5.19989 18.8232 11.2262 19.6416 14.8254Z" fill="#DC0000"/>
<path d="M22.1797 21.6927C23.6201 25.0215 25.5601 28.0486 27.9152 30.6419C28.1366 30.8899 28.4586 30.4541 28.2238 30.2061C25.9348 27.6334 23.9323 24.7596 22.2602 21.6476C22.2535 21.6025 22.1797 21.6476 22.1797 21.6927Z" fill="#DC0000"/>
<path d="M29.7799 26.4946C29.7468 26.4816 29.7107 26.4829 29.6784 26.4982C29.6462 26.5135 29.6202 26.5417 29.6055 26.5772C29.203 26.2015 28.8139 25.8258 28.4181 25.4276C28.4181 25.4276 28.4181 25.3825 28.4181 25.36C26.9471 23.92 25.9034 22.0117 25.4262 19.8897C25.36 19.0687 25.2366 18.2547 25.0573 17.4552C25.0573 17.4552 25.1311 17.4101 25.1311 17.35C25.1311 17.0569 25.0506 16.7714 25.017 16.4858C24.9202 15.5553 24.7541 14.6353 24.5206 13.7357C24.424 13.0438 24.2528 12.3676 24.0108 11.7219C23.7478 10.7098 23.3103 9.76523 22.7228 8.94172C22.5841 8.74535 22.4363 8.55724 22.2801 8.37816C21.7715 7.73526 21.1843 7.17618 20.5359 6.71755C18.3419 4.50175 15.4801 3.29898 12.5263 3.35124C12.486 3.35124 12.486 3.41887 12.5263 3.41887C14.9976 3.83868 17.336 4.94424 19.3284 6.63489C18.927 6.30989 18.5105 6.00891 18.0807 5.73321C17.913 5.62801 17.7453 5.92857 17.8996 6.0563C19.2283 7.15675 20.4136 8.45919 21.4214 9.92606C21.4214 9.92606 21.361 9.92606 21.3745 9.92606C22.5254 12.3022 23.3294 14.8694 23.7559 17.5303C23.7608 17.5489 23.771 17.5652 23.7849 17.5768C23.7988 17.5884 23.8157 17.5947 23.833 17.5947C23.8504 17.5947 23.8672 17.5884 23.8811 17.5768C23.895 17.5652 23.9052 17.5489 23.9102 17.5303C23.7639 14.7886 22.8981 12.1563 21.4214 9.96362C22.3346 11.3345 23.1065 12.8167 23.7223 14.3819C23.7827 14.5547 23.8431 14.7351 23.8967 14.9079C24.0108 15.4113 24.1449 15.8922 24.2322 16.4107C24.4813 18.4475 25.0085 20.4293 25.7952 22.2867C25.7775 22.2708 25.7555 22.2621 25.7328 22.2619C25.7101 22.2618 25.6881 22.2702 25.6702 22.2859C25.6523 22.3015 25.6397 22.3235 25.6344 22.3482C25.6291 22.3729 25.6314 22.3989 25.6409 22.422C26.5579 24.1472 27.7763 25.6474 29.2231 26.8327L29.6994 27.3061C29.3438 27.0281 28.9816 26.7501 28.6529 26.4345C27.5357 25.3274 26.4931 24.1294 25.5336 22.8503C25.5143 22.8315 25.49 22.8205 25.4646 22.8191C25.4391 22.8176 25.4139 22.8257 25.393 22.8422C25.3722 22.8586 25.3569 22.8824 25.3495 22.9097C25.3421 22.9371 25.3432 22.9664 25.3524 22.993C25.5537 23.3612 25.7818 23.7444 26.0233 24.1051C25.9629 24.0225 25.8891 23.9624 25.8354 23.8797C25.8312 23.8686 25.8248 23.8586 25.8167 23.8505C25.8086 23.8425 25.799 23.8365 25.7886 23.833C25.7782 23.8296 25.7673 23.8287 25.7566 23.8305C25.7459 23.8324 25.7357 23.8368 25.7267 23.8435C25.7177 23.8502 25.7101 23.8591 25.7045 23.8695C25.6989 23.8798 25.6954 23.8915 25.6942 23.9035C25.6931 23.9156 25.6943 23.9278 25.6979 23.9392C25.7014 23.9507 25.7071 23.9612 25.7147 23.9699C26.2932 25.0609 27.0432 26.0258 27.9284 26.8177C28.4347 27.4455 28.9793 28.033 29.5585 28.576C28.9288 28.2411 28.3272 27.8438 27.7607 27.3888C27.5594 27.2235 27.385 27.0281 27.1905 26.8478C26.4833 26.1249 25.8115 25.3599 25.178 24.556L25.1176 24.4808C25.0707 24.4207 25.0103 24.3681 24.9634 24.3005C24.9164 24.2329 24.8225 24.3005 24.8694 24.3756L25.0103 24.571C26.352 26.8252 28.4516 29.1846 30.927 29.7332C31.8642 30.423 32.9086 30.9098 34.0061 31.1684C34.0933 31.1684 34.1134 31.0707 34.0664 31.0106L34.2341 31.1308C34.3281 31.1909 34.4086 31.0331 34.3281 30.958C33.087 29.7181 31.7253 28.6136 30.3836 27.4865C30.3963 27.4654 30.4031 27.4405 30.4031 27.4151C30.4031 27.3896 30.3963 27.3648 30.3836 27.3437C40.6338 35.2335 51.9909 51.246 43.4513 65.1695C43.4192 65.2134 43.4041 65.2697 43.4091 65.3261C43.4141 65.3824 43.439 65.4342 43.4781 65.4701C43.5172 65.506 43.5675 65.523 43.6178 65.5173C43.6681 65.5117 43.7144 65.4839 43.7464 65.4401C54.4461 53.6655 40.5332 31.3487 29.7799 26.4946ZM31.3697 29.2447C31.4771 29.2898 31.5777 29.3575 31.685 29.395C31.7186 29.4087 31.7553 29.4095 31.7893 29.3972C31.8233 29.385 31.8527 29.3604 31.8728 29.3274C32.4848 29.871 33.1255 30.3729 33.7914 30.8302C32.9596 30.3042 32.1546 29.7707 31.3697 29.2447Z" fill="#DC0000"/>
<path d="M6.97784 13.6077C6.97784 13.5838 6.96936 13.5609 6.95426 13.544C6.93917 13.5271 6.91869 13.5176 6.89734 13.5176C6.87599 13.5176 6.85552 13.5271 6.84042 13.544C6.82532 13.5609 6.81684 13.5838 6.81684 13.6077C6.79716 15.9508 7.44322 18.2402 8.66161 20.145C8.72198 20.2352 8.86286 20.145 8.82261 20.0548C8.37797 19.1166 7.98154 18.1507 7.63525 17.1619C7.33024 15.9992 7.11037 14.8105 6.97784 13.6077Z" fill="#DC0000"/>
<path d="M10.6051 18.222C10.5112 17.7712 10.2898 17.3429 10.1556 16.8996C10.002 16.3889 9.88095 15.8666 9.7934 15.3366C9.79027 15.3286 9.78511 15.3218 9.77856 15.3169C9.772 15.3121 9.76434 15.3096 9.75651 15.3096C9.74867 15.3096 9.74101 15.3121 9.73445 15.3169C9.7279 15.3218 9.72274 15.3286 9.71961 15.3366C9.70139 16.3849 9.97321 17.4138 10.4978 18.2822C10.5058 18.2961 10.5182 18.3063 10.5326 18.3106C10.5469 18.315 10.5621 18.3133 10.5754 18.3059C10.5887 18.2984 10.5991 18.2858 10.6046 18.2703C10.61 18.2548 10.6102 18.2377 10.6051 18.222Z" fill="#DC0000"/>
<path d="M10.6211 15.794C10.7653 16.4555 10.9722 17.0979 11.2383 17.7101C11.247 17.7235 11.2594 17.7332 11.2736 17.7378C11.2877 17.7424 11.3029 17.7417 11.3166 17.7357C11.3304 17.7297 11.342 17.7188 11.3496 17.7047C11.3573 17.6905 11.3606 17.674 11.359 17.6575C11.1954 16.9993 10.9705 16.3621 10.6882 15.7565C10.6817 15.7528 10.6745 15.751 10.6672 15.751C10.6599 15.751 10.6528 15.7529 10.6463 15.7565C10.6398 15.7602 10.6341 15.7654 10.6297 15.772C10.6254 15.7785 10.6224 15.786 10.6211 15.794Z" fill="#DC0000"/>
<path d="M20.6003 63.5992C20.56 63.5541 20.4997 63.5992 20.5332 63.6668C22.4048 66.0413 24.7124 68.2128 27.4561 69.1221C27.5433 69.1221 27.5702 69.0093 27.5031 68.9643C25.0143 67.4088 22.6262 65.906 20.6003 63.5992Z" fill="#DC0000"/>
<path d="M10.3905 32.0399C11.4957 33.8613 12.2097 35.9444 12.4767 38.1263C12.4767 38.209 12.6176 38.2315 12.6243 38.1263C12.676 36.987 12.5074 35.8486 12.13 34.789C11.7525 33.7295 11.1752 32.7738 10.4374 31.9873C10.4374 31.9873 10.3704 32.0098 10.3905 32.0399Z" fill="#DC0000"/>
<path d="M43.6448 51.1333C42.9512 47.4403 41.548 43.9608 39.5327 40.9367C39.5167 40.9128 39.4928 40.897 39.4664 40.8927C39.44 40.8885 39.4132 40.8962 39.3918 40.9141C39.3705 40.9321 39.3563 40.9588 39.3526 40.9884C39.3488 41.018 39.3557 41.048 39.3717 41.0719C41.0881 44.2514 42.4916 47.6299 43.5576 51.1483C43.5912 51.2009 43.6448 51.1859 43.6448 51.1333Z" fill="#DC0000"/>
<path d="M27.9464 54.4921C26.6852 52.0275 25.4375 49.6681 24.391 47.0607C24.3836 47.0511 24.3736 47.0444 24.3625 47.0416C24.3514 47.0387 24.3398 47.0399 24.3294 47.0449C24.319 47.0499 24.3102 47.0585 24.3044 47.0694C24.2986 47.0804 24.296 47.0931 24.2971 47.1058C25.0181 49.8373 26.2201 52.3795 27.8324 54.5823C27.843 54.5992 27.8593 54.6107 27.8775 54.6142C27.8958 54.6178 27.9145 54.613 27.9296 54.6011C27.9447 54.5891 27.955 54.5709 27.9582 54.5505C27.9613 54.5301 27.9571 54.5091 27.9464 54.4921Z" fill="#DC0000"/>
<path d="M36.6017 50.8781C37.82 55.899 38.7786 60.9945 39.4728 66.1392C39.4785 66.1632 39.4911 66.1845 39.5087 66.1997C39.5263 66.2148 39.5479 66.2231 39.5701 66.2231C39.5923 66.2231 39.6138 66.2148 39.6314 66.1997C39.649 66.1845 39.6616 66.1632 39.6673 66.1392C39.5816 60.8722 38.6216 55.6691 36.8365 50.7955C36.8214 50.769 36.7989 50.7488 36.7726 50.7381C36.7463 50.7274 36.7175 50.7267 36.6908 50.7361C36.6641 50.7455 36.6409 50.7645 36.6247 50.7902C36.6086 50.8158 36.6005 50.8467 36.6017 50.8781Z" fill="#DC0000"/>
<path d="M22.425 27.3365C22.3177 27.1562 22.0695 27.3365 22.1164 27.5093C20.7748 22.9408 19.4331 18.2745 17.7494 13.8262C16.8639 11.4292 15.804 9.57324 13.6641 8.49121V8.52878C16.8169 10.3772 17.7561 14.2846 18.8629 17.7561C19.9094 21.0322 20.9291 24.3234 22.0359 27.5695C22.0359 27.5834 22.0409 27.5968 22.0497 27.6066C22.0585 27.6165 22.0704 27.622 22.0829 27.622C22.0954 27.622 22.1073 27.6165 22.1161 27.6066C22.1249 27.5968 22.1299 27.5834 22.1299 27.5695C23.3977 30.823 25.9066 32.6941 28.0264 35.2413C31.3805 39.314 33.7351 44.0704 35.8683 49.0597C35.9086 49.1499 36.036 49.1048 36.0025 49.0071C34.692 44.9537 32.8297 41.1517 30.4816 37.736C27.9996 34.0616 24.6589 31.1236 22.425 27.3365Z" fill="#DC0000"/>
<path d="M15.4704 25.9538C15.4508 25.9398 15.4271 25.9352 15.4044 25.9408C15.3818 25.9464 15.3621 25.9619 15.3496 25.9839C15.3372 26.0058 15.333 26.0323 15.338 26.0577C15.3431 26.0831 15.3569 26.1051 15.3764 26.1191C18.1939 28.2982 19.341 32.8818 20.676 36.2932C22.1048 39.915 23.2788 43.6645 24.6405 47.3163C24.6503 47.3351 24.6658 47.3493 24.6842 47.3563C24.7026 47.3633 24.7226 47.3627 24.7406 47.3544C24.7586 47.3462 24.7733 47.3309 24.782 47.3115C24.7907 47.2921 24.7929 47.2698 24.7881 47.2487C23.0775 42.1316 21.434 36.9319 19.5758 31.8749C18.6702 29.3502 17.6505 27.2988 15.4704 25.9538Z" fill="#DC0000"/>
<path d="M7.74583 12.0749C7.74583 12.0749 7.70558 12.0749 7.70558 12.1275C7.70071 12.8334 7.73881 13.5389 7.81962 14.2389C7.75925 14.0135 7.68546 13.8031 7.62508 13.5702H7.57812C7.68027 15.1117 8.03979 16.6181 8.63803 18.011C8.98135 19.067 9.4315 20.0754 9.97967 21.0166C9.49762 20.3388 9.0497 19.6314 8.63803 18.8977C8.63803 18.8601 8.55753 18.8977 8.57094 18.9428C9.50873 21.3102 11.0852 23.2889 13.0789 24.6009C13.1258 24.6009 13.1728 24.5483 13.1325 24.5032C12.7435 24.15 12.3812 23.7518 12.0324 23.4212C12.0547 23.3904 12.0669 23.3519 12.0669 23.3122C12.0669 23.2725 12.0547 23.2341 12.0324 23.2032C11.5494 22.3692 11.1134 21.5577 10.6907 20.7537C11.398 22.0517 12.3393 23.1701 13.4545 24.0373C13.5216 24.0899 13.6222 24.0373 13.5619 23.9246L13.2198 23.4662C13.8213 24.1988 14.4692 24.8818 15.1584 25.5101C15.2591 25.6077 15.3865 25.4274 15.2859 25.3297C14.8163 24.8714 14.3736 24.398 13.9442 23.9171C13.9678 23.8869 13.9808 23.8482 13.9808 23.8081C13.9808 23.768 13.9678 23.7293 13.9442 23.6992C12.4144 21.6185 10.9836 19.4489 9.65768 17.1995C9.29543 16.125 8.98685 15.058 8.68498 13.9159C8.68498 13.8708 8.60448 13.9159 8.61119 13.9159C8.6895 15.7402 9.20383 17.5074 10.1004 19.0329C9.97967 18.8301 9.8388 18.6572 9.71805 18.4468C9.70698 18.4357 9.69265 18.4296 9.6778 18.4296C9.66295 18.4296 9.64862 18.4357 9.63755 18.4468C9.09259 17.1076 8.66136 15.7138 8.34957 14.284C8.39238 14.4171 8.44629 14.5455 8.51057 14.6673C8.51057 14.6673 8.55082 14.6673 8.51057 14.6673C8.40387 14.424 8.31198 14.173 8.23553 13.9159C8.13491 13.4124 8.01416 12.9315 7.94037 12.413C7.88122 11.3322 8.06577 10.2521 8.47703 9.27215C8.47703 9.21203 8.43007 9.15943 8.39653 9.21203C7.90536 10.0606 7.67674 11.0665 7.74583 12.0749ZM10.2614 18.9503C10.4895 19.4011 10.7377 19.8369 10.9859 20.2803C10.9839 20.3002 10.9839 20.3204 10.9859 20.3404C11.1872 20.7011 11.4018 21.0392 11.6567 21.3773C11.1134 20.6259 10.5968 19.8745 10.1004 19.0329C10.1139 19.0486 10.1314 19.0591 10.1505 19.0631C10.1696 19.0672 10.1894 19.0644 10.207 19.0554C10.2247 19.0463 10.2394 19.0313 10.2491 19.0125C10.2589 18.9937 10.2632 18.9719 10.2614 18.9503Z" fill="#DC0000"/>
<path d="M40.9595 63.4263C41.2743 59.1261 40.8879 54.7976 39.8191 50.6524C39.8191 50.5773 39.6849 50.6073 39.6916 50.69C40.1143 54.9279 40.3625 59.2034 40.7851 63.4639C40.765 63.524 40.9125 63.539 40.9595 63.4263Z" fill="#DC0000"/>
<path d="M28.2774 56.5208C26.386 52.9372 24.6902 49.2284 23.1992 45.415C23.87 49.3975 25.9697 53.4551 28.2237 56.581C28.2379 56.581 28.2516 56.5746 28.2616 56.5633C28.2717 56.5521 28.2774 56.5368 28.2774 56.5208Z" fill="#DC0000"/>
<path d="M27.4018 50.0587C25.8207 46.9438 24.496 43.6742 23.4439 40.2904C23.4439 40.2303 23.3433 40.2904 23.3567 40.2904C24.1905 43.7854 25.5224 47.1068 27.3011 50.1263C27.3481 50.224 27.442 50.1413 27.4018 50.0587Z" fill="#DC0000"/>
<path d="M29.2264 48.9616C28.2403 46.7074 27.1133 44.6486 26.315 42.2967C26.315 42.229 26.2144 42.2967 26.2278 42.2967C26.7622 44.7286 27.7397 47.0106 29.0989 48.9992C29.1526 49.0894 29.2666 49.0894 29.2264 48.9616Z" fill="#DC0000"/>
<path d="M30.3891 46.7149C30.2266 45.5631 29.7592 44.4925 29.0474 43.6417C29.0412 43.6318 29.0334 43.6234 29.0243 43.6169C29.0153 43.6104 29.0051 43.606 28.9946 43.6039C28.984 43.6018 28.9731 43.6021 28.9626 43.6047C28.9521 43.6073 28.9422 43.6122 28.9334 43.6191C28.9246 43.626 28.9171 43.6348 28.9113 43.645C28.9055 43.6551 28.9016 43.6665 28.8997 43.6783C28.8978 43.6902 28.898 43.7023 28.9004 43.7141C28.9027 43.7259 28.9071 43.737 28.9132 43.7469C29.3986 44.7174 29.8288 45.7212 30.2012 46.7525C30.2132 46.77 30.2292 46.7835 30.2476 46.7915C30.266 46.7995 30.286 46.8017 30.3054 46.7978C30.3248 46.7939 30.3428 46.7841 30.3576 46.7695C30.3724 46.7549 30.3832 46.736 30.3891 46.7149Z" fill="#DC0000"/>
<path d="M27.4246 30.3045C26.7069 29.4178 25.8482 28.7115 25.1573 27.7873C24.4788 26.8614 23.8707 25.8736 23.3393 24.8342C23.3322 24.8203 23.3204 24.8101 23.3066 24.8058C23.2928 24.8016 23.278 24.8037 23.2655 24.8117C23.2531 24.8197 23.244 24.8328 23.2402 24.8483C23.2364 24.8638 23.2383 24.8804 23.2454 24.8943C23.9766 26.9983 25.4457 29.4629 27.3106 30.4623C27.3911 30.5224 27.485 30.4097 27.4246 30.3045Z" fill="#DC0000"/>
<path d="M28.4176 29.0119C32.2413 32.5586 35.8705 35.3538 38.6611 40.1253C38.6692 40.1392 38.6816 40.1494 38.6959 40.1537C38.7102 40.1581 38.7255 40.1564 38.7388 40.149C38.752 40.1415 38.7624 40.1289 38.7679 40.1134C38.7734 40.098 38.7736 40.0808 38.7684 40.0652C36.9035 35.1585 32.4426 31.2887 28.4243 28.7339C28.4138 28.7276 28.4023 28.7237 28.3904 28.7225C28.3785 28.7214 28.3665 28.7229 28.3552 28.7271C28.3439 28.7314 28.3335 28.7382 28.3246 28.7471C28.3157 28.756 28.3086 28.7669 28.3036 28.779C27.7401 28.223 27.0894 27.7871 26.5326 27.2161C25.8922 26.5181 25.3023 25.7643 24.7683 24.9619C24.7281 24.9093 24.6342 24.9619 24.661 25.0295C25.3318 26.6225 26.8009 28.5085 28.3505 29.057C28.3774 29.0495 28.3975 29.027 28.4176 29.0119Z" fill="#DC0000"/>
<path d="M44.8643 61.6903C45.1756 61.1135 45.3596 60.4618 45.401 59.7893C45.401 59.7893 45.401 59.7893 45.3607 59.7893C45.401 59.5714 45.4345 59.361 45.4613 59.1355C45.4882 58.9101 45.5888 58.6772 45.629 58.4292C45.6321 58.3987 45.6258 58.368 45.6111 58.342C45.5965 58.3161 45.5744 58.2965 45.5485 58.2865C45.6492 57.0542 45.6693 55.7993 45.7565 54.6271C45.7581 54.6107 45.7548 54.5941 45.7471 54.58C45.7395 54.5659 45.7279 54.555 45.7141 54.549C45.7004 54.543 45.6852 54.5422 45.6711 54.5469C45.6569 54.5515 45.6445 54.5612 45.6358 54.5745C45.9113 51.0364 45.2807 47.4837 43.8178 44.3328C43.8178 44.2877 43.7373 44.3328 43.7507 44.3328C44.4472 46.4746 44.9243 48.6979 45.1729 50.9602C45.2443 52.9649 45.204 54.9725 45.0521 56.9715C45.0521 57.0617 45.1729 57.0842 45.1997 56.9715C45.0351 57.8915 44.9253 58.8228 44.871 59.7592C44.8106 59.9245 44.757 60.0898 44.6899 60.2476C44.7838 58.4292 44.7369 56.5883 44.8978 54.7774C44.8932 54.7606 44.8838 54.7459 44.8711 54.7354C44.8585 54.725 44.8431 54.7194 44.8274 54.7194C44.8117 54.7194 44.7964 54.725 44.7837 54.7354C44.771 54.7459 44.7617 54.7606 44.757 54.7774C44.6899 55.1306 44.6295 55.5288 44.5624 55.8895C44.5352 53.6975 44.3693 51.5104 44.066 49.3447C44.066 49.2846 43.9654 49.2696 43.9654 49.3447C43.8118 52.1204 43.9243 54.9065 44.3008 57.6553C44.2382 58.1562 44.198 58.6571 44.1801 59.1581C44.1177 57.8954 43.9719 56.6396 43.744 55.401C43.744 55.0855 43.6837 54.7774 43.6568 54.4693C43.6071 52.9685 43.4297 51.4765 43.1269 50.0135H43.0732C43.0732 50.1562 43.0732 50.2915 43.0732 50.4342C42.9994 50.0435 42.9457 49.6453 42.8585 49.2696C42.8585 49.1418 42.6305 49.1869 42.6506 49.3222C42.8049 50.2389 42.8854 51.1331 42.9592 52.0272C42.8359 51.3398 42.6585 50.6659 42.4292 50.0135C42.427 50.0065 42.4236 50.0002 42.4192 49.9948C42.4148 49.9893 42.4095 49.9849 42.4036 49.9818C42.3977 49.9786 42.3913 49.9768 42.3847 49.9765C42.3782 49.9761 42.3717 49.9772 42.3655 49.9796C42.3593 49.9821 42.3536 49.9859 42.3488 49.9908C42.3439 49.9958 42.34 50.0017 42.3372 50.0083C42.3344 50.015 42.3328 50.0221 42.3325 50.0295C42.3321 50.0368 42.3331 50.0441 42.3353 50.051C42.7087 51.7379 42.9045 53.4678 42.9189 55.2057C42.9189 55.5213 42.872 55.8369 42.8451 56.1449C42.5567 45.8807 37.1565 36.3904 28.8115 31.3485C28.7511 31.3485 28.6907 31.4236 28.7444 31.4762C32.7224 35.3685 36.6735 39.073 39.283 44.2502C39.3837 44.6334 39.4977 45.0016 39.5849 45.3923C39.2562 44.7311 38.9141 44.0924 38.572 43.5138C38.4848 43.3635 38.2433 43.5138 38.3171 43.6641C39.0857 45.3745 39.771 47.1303 40.3698 48.9239C40.4905 49.5326 40.6046 50.1337 40.7186 50.7423C40.9467 52.4555 41.0876 54.1161 41.1882 55.7692C41.1882 58.587 41.1882 61.4123 41.1882 64.2376C41.1882 64.5833 41.6443 64.5757 41.7047 64.2376C41.829 63.4929 41.9097 62.7399 41.9462 61.9834C41.9462 62.4267 41.9462 62.855 41.9462 63.2984C41.9462 63.4111 42.02 63.4411 42.1005 63.4261C41.9596 63.8844 41.8121 64.3353 41.7114 64.8012C41.7039 64.8423 41.7075 64.8851 41.7219 64.9239C41.7362 64.9628 41.7606 64.9959 41.7919 65.0191L41.2553 65.6277C41.2325 65.654 41.2155 65.6857 41.2053 65.7205C41.1952 65.7553 41.1923 65.7922 41.1968 65.8284C41.2013 65.8646 41.2132 65.8992 41.2315 65.9296C41.2497 65.9599 41.2739 65.9852 41.3022 66.0034C41.2016 66.1236 41.1211 66.2514 41.0205 66.3716C40.9199 66.4918 41.0205 66.4392 40.9802 66.4693C40.1787 66.9702 39.3522 67.4193 38.5049 67.8143C38.2164 67.9345 37.9213 67.9947 37.6328 68.0923C37.6476 68.0652 37.6555 68.034 37.6555 68.0022C37.6555 67.9703 37.6476 67.9391 37.6328 67.912C37.0559 67.1005 36.0564 66.597 35.3051 65.9884C35.2531 65.95 35.2037 65.9073 35.1575 65.8607C35.6455 66.2258 36.1923 66.481 36.7675 66.6121C36.9754 66.7623 37.1834 66.9352 37.398 67.0779C37.5121 67.1531 37.6597 66.9577 37.5657 66.845L37.3242 66.5745C37.345 66.5578 37.3619 66.5358 37.3736 66.5103C37.3853 66.4848 37.3914 66.4566 37.3914 66.428C37.3914 66.3993 37.3853 66.3711 37.3736 66.3456C37.3619 66.3201 37.345 66.2981 37.3242 66.2814C37.112 66.1131 36.8876 65.9648 36.6534 65.8381C35.3343 64.4781 34.0804 63.0409 32.8968 61.5325C31.5433 59.5528 30.3021 57.4798 29.1804 55.3259C29.1201 55.2207 28.9658 55.3259 29.006 55.4311C29.2073 56.0022 29.4354 56.5883 29.6768 57.1744C29.0999 56.3553 28.5029 55.5664 27.9193 54.83C27.8656 54.7699 27.7918 54.83 27.8254 54.8976C28.8269 56.884 30.0143 58.7454 31.3673 60.4505C31.7631 61.1117 32.2059 61.7504 32.6553 62.3741C32.6396 62.3618 32.6208 62.3552 32.6016 62.3552C32.5825 62.3552 32.5637 62.3618 32.548 62.3741C31.743 61.4348 30.891 60.5332 30.133 59.5413C29.0597 58.1287 28.1205 56.5958 27.1411 55.123C27.0875 55.0479 26.9667 55.123 27.007 55.2057C28.2346 58.061 30.455 61.4874 32.8968 63.3359C33.2805 63.9589 33.7311 64.5267 34.2385 65.0266L32.7895 63.7567C32.7585 63.75 32.7266 63.75 32.6956 63.7567C30.1414 61.1289 27.8207 58.2299 25.7659 55.1005C25.7659 55.0629 25.6787 55.1005 25.6989 55.1381C27.3396 58.6182 29.6107 61.6765 32.3669 64.1174C32.3655 64.1424 32.3689 64.1675 32.377 64.1908C32.3852 64.2142 32.3977 64.2352 32.4138 64.2526C32.7419 64.654 33.089 65.0352 33.4536 65.3948L32.3333 64.5983C31.1325 63.381 29.9519 62.2088 28.8115 60.999C28.1407 60.2101 27.4229 59.4286 26.799 58.6471C26.7725 58.6406 26.745 58.6406 26.7185 58.6471C26.155 57.9709 25.5982 57.2796 25.0616 56.5432C25.0079 56.4756 24.914 56.5432 24.961 56.6183C25.4037 57.3697 25.9001 58.1211 26.4166 58.82C26.399 58.857 26.3898 58.8982 26.3898 58.9402C26.3898 58.9821 26.399 59.0234 26.4166 59.0604C27.0338 59.9771 27.7583 60.9539 28.4895 61.8782L28.1071 61.6077C28.0778 61.5878 28.0441 61.5773 28.0099 61.5773C27.9756 61.5773 27.9419 61.5878 27.9126 61.6077C24.4687 57.9286 21.5842 53.6443 19.373 48.9239C18.5035 46.3381 18.0054 43.6143 17.8972 40.8538C17.7966 38.006 17.9441 35.3535 16.9044 32.671C15.5627 29.1769 12.8794 26.7424 10.5584 24.1575C11.3319 24.9476 12.2099 25.599 13.1612 26.0886C13.1735 26.0908 13.1862 26.0886 13.1974 26.0823C13.2087 26.0761 13.2179 26.066 13.2238 26.0536C13.2297 26.0413 13.232 26.0271 13.2304 26.0132C13.2288 25.9993 13.2233 25.9862 13.2148 25.9759C10.7288 24.1957 8.69543 21.7265 7.31158 18.8075C7.3065 18.7965 7.2988 18.7872 7.28934 18.7807C7.27987 18.7743 7.269 18.7709 7.25791 18.7709C7.24682 18.7709 7.23595 18.7743 7.22649 18.7807C7.21702 18.7872 7.20933 18.7965 7.20425 18.8075C6.81605 17.8808 6.47561 16.93 6.18459 15.9597C6.05957 15.0575 6.03029 14.1419 6.09739 13.2321C6.10272 13.1962 6.09512 13.1594 6.07625 13.1298C6.05738 13.1002 6.02879 13.0802 5.99676 13.0743C5.96474 13.0683 5.93191 13.0768 5.90549 13.0979C5.87907 13.1191 5.86123 13.1511 5.85589 13.187C4.152 20.4982 10.5517 24.6985 13.8655 29.8382C17.1794 34.9778 16.8373 41.1093 18.1387 46.8575C18.1387 46.8575 18.1387 46.8575 18.1387 46.9177C18.2058 47.1807 18.2997 47.4361 18.3668 47.6691C18.521 48.2777 18.6955 48.8788 18.8967 49.4724C19.5594 51.5552 20.3879 53.567 21.3721 55.4837C21.4324 55.6114 21.4861 55.7317 21.5532 55.8519C22.2134 57.1222 22.9415 58.3467 23.7333 59.5188C23.6529 59.5188 23.5858 59.624 23.6596 59.7367C23.9212 60.165 24.2231 60.5933 24.5316 61.0216C24.109 60.6158 23.6797 60.2176 23.2504 59.8268C23.2326 59.8121 23.2108 59.8048 23.1887 59.8063C23.1666 59.8078 23.1457 59.818 23.1297 59.835C23.1136 59.8521 23.1035 59.8749 23.101 59.8996C23.0986 59.9242 23.1039 59.949 23.1162 59.9696C25.1382 62.7265 27.6338 65.0007 30.455 66.6571C30.455 66.6571 30.455 66.6571 30.502 66.6571C31.6209 67.5049 32.8012 68.2463 34.0305 68.8738C34.0986 68.9026 34.1714 68.9146 34.244 68.9089C34.3166 68.9031 34.3873 68.8798 34.451 68.8405C34.5148 68.8012 34.5702 68.7469 34.6134 68.6813C34.6566 68.6157 34.6866 68.5404 34.7013 68.4605C34.9831 68.6033 35.2715 68.731 35.56 68.8588L34.4263 69.0917C33.0759 68.6984 31.7619 68.1625 30.502 67.4912C30.7099 67.4912 30.9112 67.5663 31.1124 67.5739C31.1412 67.5686 31.1679 67.5535 31.1887 67.5306C31.2095 67.5077 31.2234 67.4781 31.2286 67.446C31.2337 67.4138 31.2298 67.3806 31.2174 67.351C31.205 67.3215 31.1848 67.2969 31.1594 67.2808C30.0123 66.7999 28.8987 66.4242 27.8053 65.8531C26.6218 65.0075 25.5002 64.0577 24.4511 63.0128L23.2436 61.6227C23.2436 61.6227 23.1766 61.6227 23.1833 61.6753C20.8117 59.0383 18.9944 55.8425 17.8636 52.3203C17.4142 49.5701 16.6897 46.835 16.2671 44.0999C16.1195 43.1456 15.925 42.2063 15.7573 41.2671C15.7744 41.2635 15.7899 41.2533 15.801 41.2381C15.812 41.223 15.8179 41.204 15.8176 41.1844C15.7965 39.432 15.6121 37.6868 15.2676 35.9772C15.4084 36.3228 15.5627 36.6459 15.7237 36.9615C15.7707 37.1268 15.8042 37.2921 15.8579 37.4499C15.8632 37.4636 15.8713 37.4758 15.8815 37.4855C15.8917 37.4952 15.9037 37.5021 15.9167 37.5057C15.9297 37.5094 15.9432 37.5096 15.9563 37.5064C15.9693 37.5033 15.9816 37.4968 15.992 37.4875C16.1866 38.5996 16.361 39.7417 16.5824 40.8313C16.5824 40.8472 16.588 40.8625 16.5981 40.8738C16.6081 40.885 16.6218 40.8914 16.636 40.8914C16.6503 40.8914 16.6639 40.885 16.674 40.8738C16.684 40.8625 16.6897 40.8472 16.6897 40.8313C16.645 38.4218 16.1658 36.0474 15.281 33.8507C15.281 33.8507 15.2474 33.8131 15.2206 33.8507C15.1401 33.6703 15.0462 33.505 14.959 33.3247C14.5498 32.2352 14.107 31.1531 13.7112 30.1387C13.6955 30.1073 13.6703 30.0832 13.6401 30.0709C13.6099 30.0586 13.5767 30.0588 13.5467 30.0716C13.5166 30.0843 13.4916 30.1087 13.4763 30.1403C13.4609 30.172 13.4562 30.2087 13.463 30.2439C13.5838 30.6497 13.6978 31.078 13.8119 31.5063C13.5865 31.1898 13.3469 30.8863 13.0941 30.5971C13.079 30.5859 13.0609 30.5808 13.0429 30.5826C13.0249 30.5844 13.0079 30.5929 12.9947 30.6068C12.9815 30.6207 12.9729 30.6391 12.9702 30.6592C12.9676 30.6793 12.971 30.6997 12.98 30.7173C13.3913 31.3077 13.7742 31.9222 14.1271 32.5583C14.3351 33.3097 14.5632 34.0611 14.798 34.8125C14.9456 36.2402 15.12 37.6603 15.3078 39.0805C15.1736 38.4192 14.9858 37.773 14.8382 37.1193C14.798 31.341 12.1549 30.1988 9.23014 26.4268C8.4967 25.49 7.80575 24.5307 7.15729 23.5489C6.40938 22.0876 5.76562 20.5626 5.23202 18.9878C4.78257 17.6128 4.5612 16.1625 4.11175 14.795C4.08435 16.5622 4.42666 18.3121 5.11128 19.9046C3.0116 15.3961 2.62252 10.5946 6.2718 5.62781C6.2718 5.62781 6.2718 5.56018 6.23155 5.58273C3.0183 8.82129 1.36137 15.2233 3.23968 19.8069C4.54108 22.79 7.41891 25.4725 9.37101 28.0498C10.4309 29.2572 11.3525 30.6076 12.1147 32.0698L12.1482 32.145C12.6916 33.3623 13.0002 34.542 13.4429 35.7067C13.4966 35.9246 13.5435 36.135 13.6039 36.3529C13.6039 36.428 13.6844 36.4205 13.7247 36.3529C13.7984 37.0517 13.8789 37.773 13.9662 38.4944C13.8632 37.657 13.58 36.8601 13.141 36.1725C12.841 34.5105 12.172 32.96 11.1957 31.6641C11.1844 31.6529 11.1702 31.6463 11.1553 31.6453C11.1403 31.6442 11.1254 31.6488 11.1131 31.6583C11.1007 31.6679 11.0916 31.6817 11.0871 31.6978C11.0826 31.7138 11.083 31.731 11.0883 31.7467C11.8163 33.0222 12.3808 34.4057 12.7654 35.8569C12.5843 35.7517 12.4098 35.7142 12.497 36.0748H12.591V36.0222C13.0672 36.0222 13.7515 39.907 13.8119 40.2827C14.0399 41.7254 13.9796 43.1606 14.107 44.6108C14.114 44.6459 14.1314 44.6772 14.1564 44.6997C14.1814 44.7222 14.2125 44.7344 14.2445 44.7344C14.2766 44.7344 14.3077 44.7222 14.3327 44.6997C14.3577 44.6772 14.3751 44.6459 14.3821 44.6108C14.4885 43.9568 14.5245 43.2908 14.4894 42.6271C14.8047 44.7386 15.1602 46.8801 15.6902 48.984C15.9428 50.6458 16.4201 52.2548 17.1056 53.7555C17.9057 56.1549 19.0032 58.4162 20.3658 60.473C22.4743 63.5639 25.281 65.9685 28.4962 67.4386C28.1675 67.3184 27.8254 67.1982 27.5168 67.0404C25.9601 66.178 24.4857 65.1408 23.1162 63.9445C23.0983 63.9323 23.0775 63.9262 23.0566 63.9269C23.0356 63.9277 23.0152 63.9354 22.9981 63.949C22.981 63.9626 22.9678 63.9815 22.9601 64.0034C22.9525 64.0254 22.9508 64.0493 22.9552 64.0723C22.879 64.0241 22.8051 63.9714 22.7338 63.9145C21.4787 62.8203 20.2846 61.6408 19.1583 60.3829C19.1181 60.3378 19.0577 60.3829 19.0912 60.458C20.5831 62.6697 22.4674 64.5117 24.6255 65.8682C24.6754 65.9066 24.7225 65.9493 24.7664 65.9959L24.3773 65.7329C24.3103 65.6878 24.27 65.8005 24.3103 65.8456C24.5232 66.0721 24.7472 66.2854 24.9811 66.4843C24.2471 66.0672 23.5429 65.5874 22.8747 65.0491C21.6055 63.9059 20.421 62.6494 19.3327 61.2921C19.2657 61.2094 19.1583 61.3372 19.212 61.4273C20.2031 63.058 21.4456 64.4778 22.8814 65.6202C23.9769 66.6321 25.2365 67.3975 26.5911 67.8744L27.0673 68.1149C28.662 69.1756 30.4514 69.8155 32.2998 69.9859C32.3368 69.9886 32.374 69.9811 32.4079 69.9641C32.4418 69.947 32.4714 69.921 32.4943 69.8882C33.0627 69.9595 33.6365 69.9595 34.2049 69.8882C34.2049 69.9633 34.2049 70.046 34.2653 70.0535C36.3267 70.0961 38.3477 69.4099 40.0411 68.0923C40.8891 67.6217 41.6424 66.962 42.2548 66.1537C43.5048 64.9929 44.414 63.4377 44.8643 61.6903ZM8.45869 21.4299C8.61968 21.7004 8.80752 21.9559 8.98193 22.1813C8.85447 22.016 8.72702 21.8507 8.60627 21.6779L8.45869 21.4299ZM44.0929 61.6077C44.1331 61.2545 44.1532 60.9014 44.1666 60.5332C44.1666 60.7962 44.2069 61.0516 44.2404 61.2846C44.1935 61.4123 44.1398 61.51 44.0929 61.6077ZM43.0061 52.4555C43.0061 52.3654 43.0061 52.2677 43.0061 52.17C42.9726 52.2602 42.9726 52.3654 43.0061 52.4555ZM42.3957 62.2238H42.4426L42.342 62.5545C42.3621 62.4493 42.3755 62.3441 42.3957 62.2389V62.2238ZM43.0665 62.3441C43.0665 62.3441 43.0665 62.1863 43.1067 62.1186C43.3039 61.294 43.4518 60.4556 43.5495 59.6089C43.5495 60.6459 43.5025 61.6828 43.5092 62.7273C43.4019 62.9302 43.2744 63.1105 43.1604 63.3134C42.8988 63.6665 42.6439 64.0272 42.3554 64.3578C42.6587 63.7191 42.908 63.0499 43.1 62.3591L43.0665 62.3441ZM34.2519 66.6872C34.4531 66.7999 34.6074 66.6271 34.6342 66.4242L34.8824 66.6496C35.5833 67.3665 36.4009 67.9253 37.2907 68.2952L36.9687 68.4004C36.9285 68.3553 36.915 68.2952 36.8547 68.2651C34.9681 67.3622 33.1547 66.2787 31.4344 65.0266L30.7636 64.3503C31.8738 65.2238 33.0397 66.0048 34.2519 66.6872ZM31.4545 69.0917C31.1728 69.0391 30.9045 68.9339 30.6294 68.8663C31.28 68.9959 31.9426 69.0338 32.6016 68.979C32.6016 68.979 32.6016 68.9414 32.6419 68.9264C32.9505 69.009 33.2523 69.0917 33.5676 69.1593C32.8523 69.2359 32.1313 69.2132 31.421 69.0917H31.4545Z" fill="#DC0000"/>
<path d="M13.2282 7.97973C13.238 7.97404 13.2463 7.96543 13.252 7.95483C13.2578 7.94423 13.2609 7.93205 13.2609 7.91963C13.2609 7.90721 13.2578 7.89502 13.252 7.88442C13.2463 7.87382 13.238 7.86521 13.2282 7.85952C12.5478 7.57708 11.833 7.41238 11.1084 7.37109C11.0941 7.37109 11.0805 7.37743 11.0704 7.3887C11.0603 7.39998 11.0547 7.41526 11.0547 7.43121C11.0547 7.44715 11.0603 7.46244 11.0704 7.47371C11.0805 7.48498 11.0941 7.49132 11.1084 7.49132C11.7891 7.77231 12.5037 7.93695 13.2282 7.97973Z" fill="#DC0000"/>
<path d="M17.4823 22.6702C15.2216 18.2219 12.7865 13.8262 10.2709 9.55067C10.2665 9.54327 10.2609 9.53691 10.2543 9.53196C10.2477 9.52701 10.2403 9.52357 10.2325 9.52183C10.2247 9.52008 10.2167 9.52007 10.2089 9.52179C10.2011 9.52352 10.1937 9.52695 10.1871 9.53188C10.1805 9.53682 10.1748 9.54316 10.1704 9.55055C10.166 9.55794 10.1629 9.56624 10.1613 9.57496C10.1598 9.58368 10.1598 9.59266 10.1613 9.60139C10.1628 9.61011 10.1659 9.61841 10.1703 9.62581C12.4511 14.0666 14.8661 18.4849 17.3817 22.7529C17.442 22.8355 17.536 22.7454 17.4823 22.6702Z" fill="#DC0000"/>
<path d="M35.5481 60.6613C33.7368 54.7327 30.7986 49.0896 28.169 43.5668C25.5394 38.0439 22.8628 32.3858 19.8441 27.0358C19.8105 26.9682 19.7367 27.0358 19.7636 27.1035C22.5408 32.8292 25.4454 38.4723 28.0684 44.2957C28.3368 45.2561 28.7374 46.1637 29.2557 46.9857C31.2078 51.6069 32.9453 56.4008 35.1925 60.8342C35.2931 61.037 35.5279 60.8342 35.5212 60.6688C36.2375 62.5541 37.0853 64.3731 38.0569 66.109C38.1643 66.2894 38.3991 66.109 38.3051 65.9062C37.3727 64.1479 36.447 62.3971 35.5816 60.5937C35.595 60.6012 35.595 60.6388 35.5481 60.6613Z" fill="#DC0000"/>
<path d="M20.3939 8.91187C21.8722 12.0914 22.9104 15.5042 23.473 19.0333C23.473 19.0552 23.4808 19.0763 23.4946 19.0918C23.5084 19.1073 23.5272 19.116 23.5468 19.116C23.5663 19.116 23.5851 19.1073 23.599 19.0918C23.6128 19.0763 23.6206 19.0552 23.6206 19.0333C23.4258 15.3804 22.3526 11.8546 20.5147 8.82921C20.461 8.7165 20.3469 8.8217 20.3939 8.91187Z" fill="#DC0000"/>
<path d="M19.8758 10.2188C21.3516 12.1725 21.8346 14.2689 22.17 16.7411C22.17 16.8087 22.2707 16.8162 22.2774 16.7411C22.4853 14.314 21.4053 11.8719 19.9966 10.1137C19.9362 10.016 19.8155 10.1362 19.8758 10.2188Z" fill="#DC0000"/>
<path d="M9.01423 25.2544C9.0679 25.3145 9.15511 25.2544 9.10815 25.1492C6.94139 21.7303 5.49241 18.5668 4.94233 14.359C4.93642 14.3331 4.92299 14.3102 4.90417 14.2938C4.88534 14.2774 4.86218 14.2686 4.83835 14.2686C4.81452 14.2686 4.79137 14.2774 4.77254 14.2938C4.75371 14.3102 4.74029 14.3331 4.73438 14.359C4.82158 18.364 6.28398 22.6244 9.01423 25.2544Z" fill="#DC0000"/>
</svg>
