<svg width="50" height="55" viewBox="0 0 50 55" fill="none" xmlns="http://www.w3.org/2000/svg">
<path d="M46.2235 14.2364C42.324 7.98472 35.6815 2.99496 29.1724 0.817606C24.9097 -0.609219 19.394 -0.609219 17.5258 4.46302C16.7518 5.29818 15.8102 5.9163 14.7789 6.26624C13.7475 6.61619 12.6561 6.68789 11.595 6.47542C10.6752 6.24896 9.72705 6.20153 8.79268 6.33521C7.61205 6.61016 6.5476 7.31544 5.76795 8.33937C5.10658 8.92995 4.5679 9.67272 4.18887 10.5167C3.92158 10.9737 3.70266 11.4636 3.53647 11.9765C-0.948707 19.8777 -0.911623 32.1913 2.20947 40.0182C4.19629 45.0327 7.60649 49.6266 12.062 52.1338C13.0002 52.6482 13.9983 53.0146 15.0274 53.2225C16.8734 54.5421 19.2457 54.6493 21.4772 54.4844C24.0645 54.3029 26.6667 53.7339 29.2762 53.8246C29.7362 53.8392 30.1946 53.8916 30.6477 53.9813C30.6996 54.0555 30.7367 54.138 30.7886 54.204C30.8405 54.2699 31.0777 54.204 31.0851 54.0638C32.3211 54.4219 33.6083 54.506 34.8734 54.3112C34.8963 54.3064 34.9177 54.2958 34.9362 54.2801C34.9546 54.2643 34.9695 54.244 34.9796 54.2208C34.9897 54.1975 34.9948 54.1719 34.9943 54.1461C34.9939 54.1202 34.9881 54.0949 34.9772 54.072H35.0291C35.0423 54.0908 35.0591 54.1061 35.0784 54.1166C35.0977 54.1271 35.1189 54.1325 35.1403 54.1325C35.1618 54.1325 35.1829 54.1271 35.2022 54.1166C35.2215 54.1061 35.2384 54.0908 35.2515 54.072C38.7729 50.773 42.665 47.474 45.2672 43.2017C46.9998 40.206 48.2539 36.8995 48.9739 33.4284C49.0703 33.1315 49.2038 32.8593 49.2927 32.5542C51.0053 26.3355 49.4632 19.4241 46.2235 14.2364ZM4.04801 39.7295C1.81525 34.5139 1.04049 28.673 1.82395 22.9623C2.40962 18.6323 4.09991 14.9869 5.44175 11.0611C5.90139 10.5002 6.24243 9.7332 6.70948 9.22186C7.324 8.55507 7.9887 7.94804 8.6963 7.40739C9.41449 7.15577 10.1716 7.07154 10.9204 7.15997C12.2844 7.33317 13.2185 7.68781 14.5604 7.28368C15.5419 6.99474 16.4387 6.42622 17.1625 5.63417C17.2218 5.80737 17.422 5.8981 17.4887 5.63417C17.6051 5.25869 17.7438 4.89224 17.9039 4.53725C18.019 4.35266 18.123 4.1598 18.2152 3.95992C18.2152 3.95992 18.2152 3.90219 18.2152 3.87745C20.0093 0.421725 23.2564 0.149556 26.6073 1.11452L27.0818 1.25473C29.9454 2.28511 32.6843 3.70333 35.2367 5.47747C40.2705 8.82597 44.9187 13.4363 47.0983 19.6138C49.2779 25.7912 48.8257 32.5459 44.9632 37.7584C41.894 41.8821 37.483 44.7853 35.3627 49.7585C35.3348 49.8169 35.3202 49.8821 35.3202 49.9482C35.3202 50.0144 35.3348 50.0795 35.3627 50.1379C35.3252 50.2366 35.2954 50.3387 35.2737 50.4431C35.2455 50.6258 35.2281 50.8104 35.2218 50.9957V51.0617C35.0142 51.4329 34.7327 51.7461 34.399 51.9771C34.0282 52.187 33.621 52.3052 33.2054 52.3235C33.2054 52.2658 33.2054 52.1998 33.1312 52.1668C32.9933 52.1005 32.8522 52.0427 32.7087 51.9936C33.1504 52.1021 33.6109 52.0677 34.0357 51.8946C34.344 51.7644 34.6135 51.541 34.8139 51.2496C35.0143 50.9581 35.1376 50.6103 35.1699 50.2451C36.2004 44.9667 40.1222 42.5007 43.0876 38.6326C45.5814 35.5465 47.2167 31.7217 47.7952 27.6221C48.7293 19.1189 41.9533 11.2672 36.1411 6.8878C33.9171 4.26508 29.1205 2.47536 26.0365 1.77432C22.9525 1.07328 20.1576 2.06299 18.8528 5.30427C18.8459 5.2955 18.8373 5.28847 18.8277 5.28365C18.8181 5.27884 18.8077 5.27635 18.7972 5.27635C18.7867 5.27635 18.7763 5.27884 18.7667 5.28365C18.7571 5.28847 18.7486 5.2955 18.7416 5.30427C16.9475 7.64657 14.8643 7.92699 12.2993 8.13318C12.2029 8.13318 12.2029 8.30638 12.2993 8.33112C12.3503 8.34875 12.4023 8.36253 12.455 8.37236C12.2723 9.17158 12.2954 10.0118 12.5217 10.7971C12.5259 10.8098 12.5335 10.8207 12.5434 10.8283C12.5534 10.836 12.5652 10.8402 12.5773 10.8402C12.5894 10.8402 12.6012 10.836 12.6111 10.8283C12.621 10.8207 12.6287 10.8098 12.6329 10.7971C12.6329 9.97238 12.5587 9.22185 12.6329 8.42184C12.8345 8.48788 13.0401 8.53749 13.2482 8.5703C13.1617 9.19219 13.1344 9.82248 13.1666 10.4507C13.1666 10.5167 13.2779 10.5332 13.2927 10.4507C13.3978 9.82813 13.4474 9.19551 13.4409 8.56205C13.6211 8.57442 13.8019 8.57442 13.9821 8.56205C13.9006 8.85072 13.8116 9.13938 13.7375 9.43629C13.6152 9.7977 13.533 10.1744 13.4928 10.558C13.4928 10.6569 13.6263 10.7312 13.6782 10.6239C13.8241 10.249 13.9286 9.85573 13.9895 9.45279C14.0562 9.15587 14.1082 8.85896 14.1601 8.56205C14.3022 8.53979 14.4432 8.50951 14.5826 8.47133C14.2543 9.34157 14.2227 10.3152 14.4937 11.2095C14.4937 11.2672 14.6197 11.2508 14.6123 11.2095C14.5283 10.2926 14.5683 9.36683 14.7309 8.46308C14.8717 8.46308 15.0126 8.40535 15.1609 8.35586C14.8746 9.78544 14.8244 11.261 15.0126 12.7106C15.0126 12.7237 15.0173 12.7363 15.0256 12.7456C15.034 12.7548 15.0453 12.7601 15.0571 12.7601C15.0689 12.7601 15.0802 12.7548 15.0886 12.7456C15.0969 12.7363 15.1015 12.7237 15.1015 12.7106C15.0669 11.2489 15.1139 9.78628 15.2424 8.33112C16.63 7.80765 17.8595 6.86534 18.7935 5.60943C18.7877 5.64039 18.7914 5.67263 18.8041 5.70093C18.8169 5.72922 18.8378 5.7519 18.8636 5.76527C18.8893 5.77865 18.9184 5.78194 18.946 5.77461C18.9737 5.76728 18.9983 5.74976 19.0159 5.72489C21.2919 1.75783 24.7169 1.60112 28.4237 3.15991C30.8479 4.16611 34.0728 5.13932 35.978 7.14347C35.978 7.14347 36.0373 7.14347 36.0744 7.14347C43.184 13.8075 50.7013 23.5313 45.2153 34.3604C43.3916 37.9728 40.656 40.7275 38.1725 43.7461C37.0362 45.0308 36.1148 46.5306 35.4517 48.175C35.5469 47.7269 35.5794 47.2651 35.548 46.8059C35.548 46.7399 35.5481 46.7234 35.4665 46.7234C36.2968 45.4286 37.0604 44.0842 37.9278 42.8141C38.9435 41.3296 40.0851 39.9605 41.0934 38.4759C41.1379 38.4099 41.0489 38.3274 40.997 38.3769C38.4708 40.8923 36.4282 43.9502 34.992 47.3668C34.992 47.3668 34.992 47.4245 35.0439 47.3668C35.0958 47.309 35.2441 47.0533 35.3479 46.8884C34.7697 48.4224 34.6065 50.3524 32.9163 50.7318C32.2556 50.7091 31.6106 50.5021 31.0406 50.1297C31.0406 50.0637 31.0406 49.9812 30.9961 49.9482C28.838 49.0713 26.5684 48.5813 24.2721 48.4967C21.8182 48.4224 19.3273 49.3214 16.9104 48.975C16.8585 48.975 16.8289 48.975 16.8141 49.0575C9.02991 45.8327 6.37586 38.3357 4.15181 29.9809C4.15181 29.9809 4.07765 29.9809 4.08507 29.9809C5.56777 37.8656 9.1337 47.6802 17.1329 49.3627C17.1922 49.3627 17.1996 49.3132 17.1848 49.2637C18.8899 49.7091 20.5431 49.1482 22.2852 48.975C25.1148 48.7375 27.9588 49.1214 30.6551 50.1049C30.728 50.2514 30.8233 50.3826 30.9369 50.4926C29.595 49.874 27.9714 50.0142 26.4887 50.006C24.9393 50.006 23.3677 49.9565 21.8182 50.006C21.707 50.006 19.3495 50.5338 18.5118 50.6988C18.5294 50.6792 18.5413 50.6542 18.5461 50.627C18.551 50.5999 18.5485 50.5718 18.539 50.5462C18.5295 50.5206 18.5134 50.4987 18.4927 50.4833C18.472 50.4679 18.4477 50.4596 18.4228 50.4596C16.7233 50.5454 15.0418 50.041 13.6115 49.0163C10.4237 46.1956 8.18475 43.6966 6.59826 39.4244C6.55378 39.3089 6.38327 39.3749 6.41292 39.4903C6.42431 39.5491 6.43917 39.607 6.4574 39.6635C5.56778 37.5604 4.70038 35.4408 3.93679 33.247C2.78028 27.3665 3.92939 22.0633 5.67157 16.29C5.67157 16.2405 5.61969 16.1993 5.59003 16.2488C2.11309 22.022 2.12792 30.3851 4.29267 36.8676C4.78988 38.9629 5.65958 40.9259 6.85034 42.6409C6.92447 42.7729 6.97634 42.9131 7.05047 43.045C7.12461 43.177 7.13203 43.045 7.14685 43.045C7.21357 43.1358 7.28774 43.21 7.36187 43.3007C8.13834 44.51 9.03622 45.6168 10.0381 46.5997C10.724 47.3848 11.4991 48.0669 12.3437 48.6286C14.0563 50.0472 16.1395 51.3998 18.1856 50.8555C18.1887 50.8939 18.1887 50.9325 18.1856 50.9709C18.1783 51.0026 18.1818 51.0362 18.1955 51.0652C18.2092 51.0941 18.2321 51.1164 18.2597 51.1276C18.5637 51.2431 18.5859 51.1276 18.8825 51.1276C19.3495 51.1854 20.2095 50.5668 20.7136 50.4596C21.6226 50.2974 22.5445 50.2421 23.464 50.2946C25.436 50.2946 29.0242 49.841 31.0851 50.9627C31.0778 50.9749 31.0739 50.9892 31.0739 51.0039C31.0739 51.0186 31.0778 51.0329 31.0851 51.0452C31.3005 51.2992 31.5507 51.5135 31.8265 51.6802C31.4689 51.5653 31.1048 51.4771 30.7367 51.4163L30.581 51.3586H30.5291C29.6996 51.0246 28.824 50.8543 27.9418 50.8555C26.9092 50.7579 25.8693 50.8697 24.8726 51.1854C21.7219 51.1854 18.5489 52.5545 15.3759 51.5812C10.2531 50.0225 6.25724 44.8595 4.04801 39.7295ZM45.964 39.5068L46.0678 39.7708C45.9789 39.9605 45.9048 40.1666 45.8158 40.3563C45.7565 40.2574 45.7046 40.1584 45.6453 40.0677C45.5859 39.977 45.5192 39.878 45.4525 39.779C45.6008 39.5893 45.7268 39.3831 45.8751 39.1852C45.9047 39.2924 45.927 39.3831 45.964 39.5068ZM44.9187 41.8574L44.7853 41.6595C44.6519 41.4615 44.4962 41.2801 44.3479 41.0821L44.637 40.7357L44.9632 41.346C45.0044 41.4192 45.0543 41.4857 45.1115 41.544C45.0522 41.6759 44.9632 41.7749 44.9187 41.8574ZM44.0736 41.412C44.17 41.5935 44.2589 41.7749 44.3627 41.9481C44.4665 42.1213 44.5258 42.2285 44.6148 42.3605C44.4962 42.5419 44.3924 42.7399 44.2663 42.9213C44.1551 42.6492 44.0217 42.3852 43.9031 42.0966C43.8512 41.9894 43.7919 41.8904 43.74 41.7749L44.0736 41.412ZM45.0077 40.2986L45.1189 40.1666C45.1189 40.2409 45.1856 40.3233 45.2227 40.3976C45.2597 40.4718 45.4229 40.7192 45.5192 40.8759C45.6156 41.0326 45.4747 40.9419 45.4599 40.9832C45.3387 40.74 45.1864 40.5178 45.0077 40.3233V40.2986ZM37.5942 48.5462C37.7568 49.1144 37.9627 49.6662 38.2095 50.1957L37.6757 50.773C37.5942 50.5833 37.483 50.4018 37.3866 50.2122C37.237 49.9246 37.1033 49.6271 36.9863 49.3214L37.5942 48.5462ZM37.7276 48.3812L38.2021 47.8369C38.2985 48.1503 38.3948 48.4637 38.5135 48.7688C38.6 49.0159 38.72 49.2467 38.8693 49.4534L38.4764 49.8823C38.2504 49.3726 37.9953 48.8795 37.7128 48.4059L37.7276 48.3812ZM24.2573 53.1153L24.4945 53.5194H23.9162C23.8439 53.2938 23.736 53.0843 23.5975 52.9009L24.0941 52.8349C24.146 52.9421 24.2054 53.0493 24.2424 53.14L24.2573 53.1153ZM34.8364 52.4802C34.8323 52.5186 34.8323 52.5573 34.8364 52.5957C34.7861 52.6318 34.7341 52.6648 34.6807 52.6947C34.5149 52.7332 34.3459 52.7526 34.1766 52.7524C34.3409 52.7194 34.5022 52.6697 34.6584 52.6039L34.8364 52.4802ZM23.1897 52.9503C23.3079 53.1717 23.4526 53.3743 23.6197 53.5524H22.9451C22.846 53.3641 22.7181 53.1966 22.567 53.0576L23.1897 52.9503ZM30.6032 52.6287C30.7253 52.8729 30.8589 53.1096 31.0036 53.338L31.0925 53.4782L30.7589 53.4204C30.5643 53.1285 30.3564 52.8477 30.1362 52.5792C30.2696 52.5792 30.4253 52.5792 30.5884 52.6534L30.6032 52.6287ZM31.3446 53.0905C31.263 52.9833 31.1667 52.8926 31.0851 52.7854C31.2556 52.8596 31.4187 52.9421 31.5892 53.0328C31.7734 53.2857 31.9795 53.5177 32.2045 53.7256L31.6411 53.6019C31.5666 53.4249 31.4692 53.2609 31.352 53.1153L31.3446 53.0905ZM32.7013 53.6679C32.9057 53.7721 33.1194 53.8523 33.3388 53.9071C33.1249 53.8862 32.9121 53.8532 32.7013 53.8081C32.7162 53.7719 32.7188 53.7308 32.7087 53.6926L32.7013 53.6679ZM35.0069 49.6926C35.0105 49.6735 35.0105 49.6539 35.0069 49.6348C35.0274 49.584 35.0448 49.5316 35.0588 49.4781L35.0143 49.7008L35.0069 49.6926ZM34.1469 50.4596L34.2877 50.3194L34.1469 50.4596ZM33.1239 51.1936C33.2201 51.202 33.3167 51.202 33.4129 51.1936H33.5242C33.7841 51.154 34.0354 51.0617 34.2655 50.9214C34.0583 51.1794 33.7833 51.3582 33.4797 51.4328C32.8975 51.5168 32.3059 51.4138 31.7746 51.1359C31.6705 51.0486 31.5615 50.9687 31.4484 50.8967C31.973 51.1322 32.5363 51.2418 33.1016 51.2184L33.1239 51.1936ZM19.3643 53.4369C19.861 53.4369 20.3651 53.338 20.847 53.272C20.8951 53.3769 20.9522 53.4763 21.0176 53.5689C20.4986 53.5689 19.9278 53.5277 19.3717 53.4617L19.3643 53.4369ZM21.5884 53.5772L21.2325 53.2308L22.1741 53.0988C22.3032 53.3126 22.4863 53.4791 22.7004 53.5772C22.3198 53.6046 21.9467 53.6129 21.581 53.6019L21.5884 53.5772ZM24.9022 53.4947C24.8133 53.3215 24.7021 53.1483 24.5983 52.9833C24.4945 52.8184 24.4945 52.8514 24.45 52.7771L25.1321 52.6864L25.1914 52.8101C25.2983 53.0632 25.4585 53.2839 25.6584 53.4534H25.6065L24.9022 53.4947ZM29.8248 53.2802C28.496 53.2446 27.1665 53.2997 25.8438 53.4452C25.8655 53.4275 25.8825 53.4036 25.893 53.376C25.9034 53.3484 25.9069 53.3181 25.903 53.2885C25.8521 53.0448 25.7448 52.8202 25.5917 52.6369H25.8957C26.4216 52.787 26.9708 52.8067 27.5044 52.6947C28.2421 52.5869 28.9846 52.5236 29.7284 52.505C29.8915 52.8019 30.0769 53.0741 30.2622 53.3297C30.1362 53.3545 29.9657 53.3132 29.8174 53.305L29.8248 53.2802ZM35.7556 52.9009C35.7591 52.8377 35.7591 52.7743 35.7556 52.7112C35.8372 52.538 35.9039 52.3813 35.9632 52.241C36.0225 52.1008 35.9632 52.1916 35.9632 52.1586C36.1252 51.9902 36.2552 51.7873 36.3456 51.5621C36.436 51.3369 36.485 51.0938 36.4896 50.8472C36.5714 51.0829 36.7007 51.2945 36.8677 51.4658C36.9047 51.4658 36.9863 51.4658 36.9788 51.4081C36.9133 50.9564 36.7505 50.5292 36.5044 50.1627C36.5044 50.0472 36.5044 49.9317 36.5044 49.8163L36.7565 49.5111C36.8557 50.0522 37.0924 50.5503 37.4385 50.9462C36.9121 51.6142 36.3413 52.2658 35.7704 52.9256L35.7556 52.9009ZM39.1955 49.0657C39.1955 49.0657 39.151 49.0657 39.1288 49.0657L39.0695 48.9338C39.0283 48.7927 38.9683 48.6592 38.8915 48.5379C38.7395 48.2089 38.5712 47.8895 38.3874 47.5812L39.1955 46.6822C39.3067 47.0286 39.4476 47.3668 39.581 47.6967C39.7144 48.0266 39.7367 48.1255 39.8331 48.3317L39.1955 49.0657ZM40.2112 47.9276C40.137 47.7791 40.0629 47.6307 40.0036 47.4905C39.8331 47.1276 39.6551 46.7647 39.455 46.4183C40.5374 45.2471 41.679 44.076 42.7466 42.8883L42.8355 43.1358C42.9762 43.5079 43.1397 43.8689 43.3248 44.2162C42.3462 45.5193 41.3009 46.7482 40.226 47.9523L40.2112 47.9276ZM43.6807 43.8038C43.5621 43.4987 43.4212 43.2017 43.2878 42.9131C43.2285 42.7811 43.1543 42.6574 43.095 42.5337L43.436 42.1626C43.436 42.2285 43.4805 42.2945 43.5102 42.3605C43.6439 42.7171 43.7974 43.0642 43.9698 43.3997C43.9698 43.4492 43.9105 43.5069 43.8735 43.5646C43.8364 43.6224 43.7548 43.7213 43.6955 43.8038H43.6807ZM46.3051 39.1852C46.2444 39.0682 46.1775 38.9553 46.1049 38.847C46.4163 38.4099 46.7425 38.0223 47.0242 37.5274C46.824 38.0965 46.5646 38.6326 46.3199 39.1852H46.3051Z" fill="#DC0000"/>
<path d="M17.5353 15.9927C17.2859 16.0045 17.0378 16.0403 16.794 16.0999C16.7361 16.1138 16.6757 16.1039 16.6239 16.0721C16.5721 16.0402 16.5324 15.9886 16.5122 15.9267C15.921 13.612 15.7546 11.1886 16.023 8.8008C16.023 8.76142 16.037 8.72366 16.062 8.69582C16.0871 8.66798 16.121 8.65234 16.1564 8.65234C16.1918 8.65234 16.2257 8.66798 16.2508 8.69582C16.2758 8.72366 16.2899 8.76142 16.2899 8.8008C16.1935 10.5988 15.719 14.5493 17.6762 15.3081C17.8368 15.3628 18.0002 15.4069 18.1654 15.4401C17.6091 14.1593 17.3857 12.7309 17.5205 11.3163H17.5724C17.6251 12.7254 17.8752 14.1168 18.3137 15.4401C18.4842 15.4813 18.6473 15.5555 18.8104 15.5555C18.2649 14.5701 18.0717 13.3928 18.2692 12.2565C18.2767 12.2153 18.3286 12.2565 18.3286 12.2565C18.4027 12.8503 18.425 13.4854 18.5287 14.0297C18.6325 14.5741 18.8623 15.0689 18.981 15.5968C19.8266 15.663 20.6502 15.9272 21.3978 16.372C22.7322 17.2298 23.3698 17.9968 25.0452 18.2607C25.6679 18.3597 26.2684 18.335 26.8912 18.4999C27.9278 18.7912 28.8911 19.3412 29.7083 20.1082C30.7588 21.0718 31.5406 22.3486 31.9621 23.7889C32.3836 25.2292 32.4273 26.7733 32.088 28.2403C31.731 29.3232 31.2475 30.3493 30.6498 31.2919C28.4851 35.7373 29.7973 37.4693 30.1383 41.857C30.1412 41.9097 30.1272 41.962 30.0986 42.0043C30.0701 42.0466 30.029 42.0762 29.9826 42.0879C30.0051 42.1245 30.025 42.1631 30.0419 42.2034C30.3162 42.7312 29.5674 43.1271 29.3006 42.6075C27.7437 39.4982 25.5864 38.36 23.4661 36.0837C23.1885 35.7866 22.94 35.4576 22.7248 35.1022C22.124 33.9177 21.3808 32.83 20.5156 31.8692C18.4694 29.7083 17.6539 27.0031 17.5502 23.8361C17.5427 23.6381 17.691 23.6381 17.817 23.7041C17.6465 22.9701 18.1506 22.2855 18.5584 21.634C18.8501 21.1766 19.0523 20.6561 19.152 20.1063C19.2516 19.5565 19.2463 18.9896 19.1366 18.4422C18.9678 17.6433 18.576 16.9243 18.0172 16.3885C17.8541 16.2401 17.691 16.1164 17.5353 15.9927Z" fill="#DC0000"/>
<path d="M5.37426 16.2895C6.0563 15.0028 6.29354 13.5018 6.85696 12.1657C7.92451 9.45225 9.726 8.57801 12.2763 8.57801C12.2911 8.57259 12.304 8.56209 12.3132 8.54803C12.3223 8.53396 12.3273 8.51703 12.3273 8.49966C12.3273 8.48229 12.3223 8.46537 12.3132 8.4513C12.304 8.43723 12.2911 8.42673 12.2763 8.42131C12.2206 8.39565 12.1637 8.37362 12.1058 8.35533C12.1821 8.16817 12.2465 7.97525 12.2985 7.778C12.2985 7.76488 12.2938 7.75229 12.2855 7.74301C12.2771 7.73373 12.2658 7.72852 12.254 7.72852C12.2422 7.72852 12.2309 7.73373 12.2226 7.74301C12.2142 7.75229 12.2096 7.76488 12.2096 7.778C12.1383 7.96763 12.0813 8.16349 12.0391 8.36358C7.90231 6.54912 5.84133 12.8667 5.02584 16.1575C4.97395 16.339 5.25564 16.5286 5.37426 16.2895Z" fill="#DC0000"/>
<path d="M6.52734 14.9127C6.52734 14.954 6.57926 14.9705 6.59409 14.9127C6.89017 13.7999 7.31111 12.7331 7.84697 11.7374C8.39042 10.8788 8.97443 10.0529 9.59654 9.26315C9.59654 9.26315 9.59653 9.15593 9.53722 9.18892C7.80246 10.3353 6.78682 12.7601 6.52734 14.9127Z" fill="#DC0000"/>
<path d="M7.43359 14.6811C7.43359 14.7636 7.52995 14.7801 7.55219 14.6811C8.22001 12.8159 9.1156 11.062 10.2137 9.46866C10.2137 9.46866 10.2137 9.40268 10.1692 9.42743C8.74714 10.7819 7.78228 12.6349 7.43359 14.6811Z" fill="#DC0000"/>
<path d="M8.42188 15.2506C8.42188 15.333 8.51823 15.3743 8.54047 15.2506C9.06872 13.3386 9.86158 11.5299 10.8905 9.88966C10.8964 9.87982 10.8986 9.86777 10.8965 9.85617C10.8944 9.84457 10.8883 9.83437 10.8795 9.8278C10.8706 9.82124 10.8598 9.81886 10.8493 9.82118C10.8389 9.8235 10.8297 9.83033 10.8238 9.84018C9.65626 11.4116 8.83386 13.264 8.42188 15.2506Z" fill="#DC0000"/>
<path d="M41.1953 37.7327C41.1953 37.7327 41.1953 37.7986 41.1953 37.7821C46.1623 33.8646 48.0232 25.7242 44.5166 19.918C44.5166 19.918 44.4721 19.918 44.5166 19.918C47.1261 26.5243 46.281 32.9903 41.1953 37.7327Z" fill="#DC0000"/>
<path d="M44.3265 19.4575C43.4431 17.5042 42.3876 15.6532 41.1758 13.9316C41.1758 13.9316 41.1165 13.9316 41.1313 13.9316C41.9858 15.9298 43.0216 17.8256 44.2227 19.5895C44.2598 19.5895 44.3562 19.54 44.3265 19.4575Z" fill="#DC0000"/>
<path d="M7.06336 36.6602C7.06336 36.6602 6.9892 36.6602 6.99661 36.6602C7.63924 39.1631 8.76295 41.481 10.29 43.4532C11.8171 45.4255 13.7111 47.0052 15.8409 48.083C15.8928 48.083 15.9299 48.0253 15.8854 48.0005C11.8102 45.5297 8.67654 41.5015 7.06336 36.6602Z" fill="#DC0000"/>
<path d="M8.11719 36.9502C8.5117 39.0825 9.34306 41.0848 10.5466 42.8013C11.7501 44.5179 13.2933 45.9024 15.0562 46.8473C15.1377 46.8967 15.2119 46.74 15.1303 46.6905C11.7262 44.6041 9.20429 41.1015 8.11719 36.9502Z" fill="#DC0000"/>
<path d="M10.5922 40.5374C11.6159 43.009 13.3869 45.0025 15.5964 46.1705C15.6779 46.1705 15.7521 46.055 15.6705 45.9972C13.624 44.641 11.8982 42.7606 10.6367 40.5126C10.6367 40.5126 10.5774 40.5044 10.5922 40.5374Z" fill="#DC0000"/>
<path d="M15.48 45.4191C15.5467 45.4191 15.6135 45.3366 15.5616 45.2872C15.0204 44.7016 14.3976 44.2232 13.8787 43.6377C13.2898 42.9414 12.7679 42.1785 12.3218 41.3613H12.2773C12.9003 43.0789 14.0297 44.5098 15.48 45.4191Z" fill="#DC0000"/>
<path d="M16.7931 44.4372C16.8302 44.4372 16.8598 44.3877 16.7931 44.363C15.3374 43.4488 14.1427 42.0968 13.3458 40.4619C13.3458 40.4619 13.2643 40.4619 13.2791 40.4619C13.9376 42.2476 15.1993 43.6749 16.7931 44.4372Z" fill="#DC0000"/>
<path d="M14.3038 39.9852C15.0336 41.7575 16.241 43.2333 17.7585 44.208C17.7723 44.2178 17.789 44.2212 17.805 44.2173C17.821 44.2135 17.8349 44.2027 17.8438 44.1874C17.8526 44.1721 17.8557 44.1535 17.8522 44.1357C17.8487 44.1179 17.839 44.1024 17.8253 44.0925C16.4458 42.9654 15.2625 41.5679 14.3334 39.9688C14.3334 39.9687 14.289 39.9688 14.3038 39.9852Z" fill="#DC0000"/>
<path d="M18.0802 43.1695C18.1618 43.219 18.2804 43.0952 18.1989 43.021C17.1578 42.0002 16.1841 40.8974 15.2853 39.7211C15.2482 39.6716 15.1593 39.7211 15.1964 39.7953C15.8936 41.1669 16.8841 42.3259 18.0802 43.1695Z" fill="#DC0000"/>
<path d="M15.6765 38.9785C15.6765 38.9785 15.6023 38.9785 15.632 39.0363C16.6587 40.3788 17.8064 41.6006 19.0571 42.6826C19.0703 42.6918 19.086 42.6956 19.1014 42.6933C19.1168 42.691 19.131 42.6828 19.1416 42.6701C19.1521 42.6574 19.1583 42.6409 19.1592 42.6236C19.16 42.6064 19.1553 42.5893 19.146 42.5754C18.0989 41.2521 16.9368 40.0472 15.6765 38.9785Z" fill="#DC0000"/>
<path d="M16.2748 38.3193C16.2748 38.3193 16.1784 38.3193 16.2155 38.3936C17.0881 39.6153 18.083 40.7224 19.1809 41.6935C19.2402 41.743 19.2996 41.6935 19.2625 41.5945C18.3854 40.3762 17.3826 39.277 16.2748 38.3193Z" fill="#DC0000"/>
<path d="M16.9914 37.6747C16.9395 37.617 16.8505 37.6747 16.9024 37.7572C17.7959 38.9416 18.7727 40.045 19.8234 41.0571C19.8679 41.0571 19.9197 41.0571 19.8901 40.9828C19.0064 39.7942 18.0369 38.6878 16.9914 37.6747Z" fill="#DC0000"/>
<path d="M17.844 37.2051C17.844 37.2051 17.7995 37.2051 17.844 37.2051C18.4942 38.1468 19.2241 39.017 20.0236 39.8037C20.0755 39.8532 20.1274 39.8037 20.0903 39.7212C19.4141 38.806 18.662 37.9635 17.844 37.2051Z" fill="#DC0000"/>
<path d="M6.14531 17.3047C4.16331 20.8301 3.51318 25.0838 4.33641 29.1399C4.33641 29.2141 4.47726 29.2224 4.46985 29.1399C4.29462 27.2204 4.29462 25.2861 4.46985 23.3666C4.86309 21.294 5.42386 19.2651 6.14531 17.3047Z" fill="#DC0000"/>
<path d="M24.0782 11.572C24.0877 11.5812 24.0996 11.5868 24.1122 11.5879C24.1248 11.5891 24.1374 11.5857 24.1481 11.5784C24.1589 11.571 24.1672 11.56 24.172 11.547C24.1767 11.534 24.1776 11.5196 24.1745 11.506C23.1948 9.58137 21.8301 7.93333 20.1861 6.68945C20.1416 6.68945 20.0897 6.73894 20.1342 6.78018C21.611 8.20237 22.9345 9.81039 24.0782 11.572Z" fill="#DC0000"/>
<path d="M20.8948 6.25195C20.8503 6.25195 20.791 6.29319 20.8281 6.33443C22.2781 7.92486 23.6072 9.64624 24.8017 11.4809C24.8462 11.5551 24.95 11.4809 24.9129 11.3984C23.964 9.34916 22.5859 7.58399 20.8948 6.25195Z" fill="#DC0000"/>
<path d="M34.391 6.87017C36.7707 8.69287 38.1719 11.5795 40.4923 13.4682C40.5516 13.5177 40.6332 13.4682 40.5813 13.3692C38.0829 10.5733 36.1332 7.39801 32.8861 5.69077C30.4693 4.42889 26.3325 2.2268 23.6562 3.37321V3.42269C26.6365 2.63918 31.9742 5.02272 34.391 6.87017Z" fill="#DC0000"/>
<path d="M34.8477 21.3863C36.2175 25.1742 36.4363 29.3567 35.4704 33.2957C35.4704 33.3535 35.5371 33.3865 35.552 33.2957C36.7242 29.3595 36.4933 25.0727 34.907 21.3203L34.8477 21.3863Z" fill="#DC0000"/>
<path d="M36.5859 21.8898C37.5365 24.9528 37.7185 28.2462 37.1123 31.4157C37.1123 31.5146 37.2383 31.5476 37.268 31.4157C38.0966 28.2396 37.8703 24.8378 36.6304 21.832L36.5859 21.8898Z" fill="#DC0000"/>
<path d="M37.6764 22.153C38.2696 24.6865 38.4851 27.3111 38.3139 29.9222C38.3139 29.9964 38.4177 30.0294 38.4325 29.9222C38.8678 27.295 38.6262 24.5844 37.7357 22.1035C37.7357 22.1035 37.6689 22.1118 37.6764 22.153Z" fill="#DC0000"/>
<path d="M38.5434 22.2606C38.9307 24.3376 39.1785 26.4438 39.2848 28.5617C39.2848 28.7267 39.5368 28.7102 39.5442 28.5617C39.6027 26.4127 39.301 24.2703 38.6546 22.2441C38.6249 22.1699 38.536 22.2028 38.5434 22.2606Z" fill="#DC0000"/>
<path d="M39.2108 22.5079C39.5458 23.3455 39.7945 24.2225 39.9521 25.1224C40.0312 26.0268 40.0511 26.9364 40.0114 27.8441C40.0114 27.9183 40.1078 27.9513 40.13 27.8441C40.3564 26.9256 40.4014 25.9635 40.262 25.0239C40.1225 24.0843 39.8018 23.1894 39.322 22.4007C39.2701 22.3677 39.1885 22.4419 39.2108 22.5079Z" fill="#DC0000"/>
<path d="M40.0898 22.6057C40.1784 23.7739 40.3925 24.9261 40.7274 26.0376C40.7332 26.06 40.7453 26.0797 40.7621 26.0937C40.7788 26.1078 40.7991 26.1154 40.8201 26.1154C40.841 26.1154 40.8614 26.1078 40.8781 26.0937C40.8948 26.0797 40.907 26.06 40.9127 26.0376C40.8201 24.872 40.6036 23.7228 40.2678 22.6139C40.2687 22.5877 40.2603 22.5621 40.2443 22.5427C40.2283 22.5234 40.2061 22.5119 40.1825 22.5108C40.1589 22.5097 40.1359 22.5191 40.1185 22.5369C40.1012 22.5547 40.0908 22.5794 40.0898 22.6057Z" fill="#DC0000"/>
<path d="M41.4259 27.0685C41.4259 27.1675 41.5593 27.1428 41.5741 27.0685C41.7153 25.6848 41.4885 24.2854 40.9218 23.0437C40.9218 22.9695 40.7809 23.0437 40.8032 23.0437C40.9663 23.7035 41.1219 24.3551 41.2257 25.0231C41.3295 25.6912 41.3221 26.4005 41.4259 27.0685Z" fill="#DC0000"/>
<path d="M7.34928 35.3338C5.78171 31.6515 5.17057 27.5551 5.58484 23.5068H5.5181C4.83445 27.5712 5.41216 31.7733 7.15652 35.4245C7.16733 35.453 7.18786 35.4755 7.21358 35.4871C7.2393 35.4987 7.26811 35.4984 7.29367 35.4864C7.31923 35.4744 7.33944 35.4515 7.34987 35.4229C7.3603 35.3943 7.3601 35.3622 7.34928 35.3338Z" fill="#DC0000"/>
<path d="M44.6898 26.7471C44.5341 30.4585 43.2664 33.5266 41.5391 36.6441C41.5391 36.6936 41.5391 36.7513 41.5984 36.7101C43.7483 34.0297 44.6528 30.2853 44.7269 26.7636L44.6898 26.7471Z" fill="#DC0000"/>
<path d="M23.9312 8.50502C23.9499 8.52799 23.976 8.54177 24.0038 8.54331C24.0316 8.54486 24.0588 8.53405 24.0795 8.51327C24.1001 8.49248 24.1125 8.46342 24.1139 8.43248C24.1153 8.40154 24.1056 8.37125 24.0869 8.34827C23.2076 7.05604 22.125 5.95196 20.8917 5.08963C20.7805 5.00713 20.6692 5.19688 20.7804 5.28763C21.8882 6.28816 22.9404 7.3626 23.9312 8.50502Z" fill="#DC0000"/>
<path d="M23.6642 7.21801C23.7086 7.284 23.8272 7.21801 23.7828 7.12726C23.1788 6.07859 22.3377 5.22507 21.3438 4.65234V4.71009C22.231 5.40491 23.0142 6.25131 23.6642 7.21801Z" fill="#DC0000"/>
<path d="M24.3166 6.49254C23.565 5.55333 22.6687 4.77107 21.6699 4.18262L21.6328 4.24862C22.5373 4.96634 23.3305 5.89856 24.2498 6.57504C24.2943 6.60804 24.3462 6.54204 24.3166 6.49254Z" fill="#DC0000"/>
<path d="M24.6947 5.74068C24.7466 5.74068 24.7911 5.74068 24.7614 5.6582C24.195 4.88474 23.46 4.28561 22.6264 3.91797C22.5819 3.91797 22.5448 3.98395 22.6264 4.00869C22.997 4.25612 23.3677 4.53654 23.7161 4.83345C24.0646 5.13036 24.3314 5.46851 24.6947 5.74068Z" fill="#DC0000"/>
<path d="M24.7335 4.54575C24.3444 4.15354 23.9195 3.80774 23.4657 3.51399C23.4559 3.50633 23.4437 3.50333 23.4319 3.50565C23.4201 3.50797 23.4096 3.51543 23.4027 3.52637C23.3958 3.53732 23.3931 3.55086 23.3952 3.56401C23.3973 3.57717 23.404 3.58887 23.4138 3.59653C23.801 3.99005 24.2234 4.33853 24.6742 4.63654C24.7112 4.66956 24.7854 4.60352 24.7335 4.54575Z" fill="#DC0000"/>
<path d="M17.6426 15.0271C17.1371 13.6312 16.8657 12.1441 16.8419 10.6394C16.8419 10.611 16.8318 10.5837 16.8137 10.5636C16.7956 10.5435 16.7711 10.5322 16.7455 10.5322C16.72 10.5322 16.6955 10.5435 16.6774 10.5636C16.6593 10.5837 16.6492 10.611 16.6492 10.6394C16.4731 12.1989 16.7511 13.7801 17.4424 15.1509C17.4497 15.1655 17.4596 15.1784 17.4713 15.1888C17.4831 15.1992 17.4966 15.2069 17.5111 15.2115C17.5255 15.2161 17.5407 15.2174 17.5556 15.2155C17.5705 15.2136 17.585 15.2085 17.5981 15.2003C17.6113 15.1922 17.6228 15.1813 17.6322 15.1682C17.6415 15.1551 17.6485 15.1401 17.6526 15.124C17.6567 15.1079 17.658 15.0911 17.6562 15.0745C17.6545 15.0578 17.6499 15.0418 17.6426 15.0271Z" fill="#DC0000"/>
<path d="M15.8319 13.4116C15.6127 12.4067 15.4958 11.3776 15.4835 10.3436C15.4835 9.88995 15.5502 9.45283 15.5873 8.99921C15.5814 8.91962 15.5814 8.83962 15.5873 8.76003C15.5873 8.64457 15.5873 8.53735 15.6244 8.41364C15.6244 8.39614 15.6181 8.37936 15.607 8.36698C15.5959 8.35461 15.5808 8.34766 15.565 8.34766C15.5493 8.34766 15.5343 8.35461 15.5231 8.36698C15.512 8.37936 15.5058 8.39614 15.5058 8.41364C15.0475 10.0771 15.1182 11.8654 15.7059 13.4776C15.7578 13.5024 15.8394 13.4694 15.8319 13.4116Z" fill="#DC0000"/>
<path d="M37.642 16.4131C36.2885 13.046 34.1162 10.1666 31.3701 8.09961C31.3701 8.09961 31.3108 8.09961 31.3701 8.1491C33.9368 10.3955 36.0445 13.2238 37.5531 16.4461L37.642 16.4131Z" fill="#DC0000"/>
<path d="M32.0938 7.25847C34.469 9.30289 36.3934 11.9234 37.7206 14.9204C37.7206 14.9782 37.817 14.9204 37.7948 14.8792C36.6202 11.7598 34.6481 9.0928 32.1234 7.20898L32.0938 7.25847Z" fill="#DC0000"/>
<path d="M32.9905 7.1172C35.2051 9.08352 37.077 11.4847 38.5135 14.2018C38.5247 14.2148 38.5393 14.2233 38.5553 14.2262C38.5712 14.229 38.5875 14.226 38.6017 14.2176C38.616 14.2093 38.6274 14.1959 38.6342 14.1797C38.641 14.1634 38.6429 14.1452 38.6396 14.1276C37.4698 11.18 35.5164 8.70176 33.0424 7.02647C33.0321 7.02423 33.0215 7.02549 33.0119 7.03006C33.0023 7.03464 32.9942 7.04233 32.9886 7.05213C32.983 7.06193 32.9802 7.07338 32.9805 7.08499C32.9808 7.09659 32.9843 7.10782 32.9905 7.1172Z" fill="#DC0000"/>
<path d="M39.4384 13.6995C38.2368 10.8803 36.3524 8.48966 33.9968 6.79633C33.9929 6.79309 33.9885 6.79072 33.9837 6.78938C33.979 6.78803 33.9741 6.78773 33.9693 6.7885C33.9645 6.78927 33.9599 6.79108 33.9557 6.79384C33.9515 6.7966 33.9478 6.80025 33.9449 6.80458C33.942 6.80891 33.9399 6.81384 33.9387 6.81909C33.9375 6.82433 33.9372 6.82979 33.9379 6.83516C33.9386 6.84052 33.9402 6.84567 33.9427 6.85033C33.9451 6.85499 33.9484 6.85906 33.9523 6.86231C35.9987 8.92491 37.8088 11.26 39.342 13.815C39.379 13.815 39.468 13.7655 39.4384 13.6995Z" fill="#DC0000"/>
<path d="M11.253 10.8716C10.8527 11.9028 10.5487 13.4868 11.0528 14.5345H11.1121C11.1121 13.957 11.0157 13.3878 11.0454 12.8103C11.0877 12.1757 11.21 11.5508 11.4086 10.9541C11.4457 10.8221 11.2974 10.7726 11.253 10.8716Z" fill="#DC0000"/>
<path d="M11.912 10.9362C11.912 10.862 11.8378 10.8207 11.8156 10.9362C11.5245 11.8029 11.4553 12.7425 11.6155 13.6504C11.6155 13.6657 11.621 13.6804 11.6307 13.6912C11.6404 13.7021 11.6536 13.7081 11.6674 13.7081C11.6811 13.7081 11.6943 13.7021 11.7041 13.6912C11.7138 13.6804 11.7192 13.6657 11.7192 13.6504C11.6948 12.7406 11.7594 11.8305 11.912 10.9362Z" fill="#DC0000"/>
<path d="M13.8247 23.4812C13.834 23.4855 13.8442 23.487 13.8542 23.4856C13.8642 23.4843 13.8738 23.4801 13.8819 23.4735C13.8901 23.4669 13.8966 23.4581 13.9009 23.4479C13.9051 23.4377 13.9069 23.4264 13.9062 23.4152C13.9062 23.1678 13.8098 23.0194 13.9062 22.7719C13.9316 22.7083 13.9684 22.6511 14.0143 22.6039C14.0602 22.5566 14.1143 22.5203 14.1733 22.4972C14.2323 22.474 14.295 22.4645 14.3574 22.4692C14.4198 22.4739 14.4807 22.4927 14.5364 22.5245C14.6321 22.6046 14.7024 22.7165 14.737 22.8441C14.7717 22.9716 14.7689 23.1081 14.7291 23.2338C14.5882 23.7039 14.1138 23.4812 14.0915 23.0441C14.0915 22.9781 13.9878 22.9864 13.9804 23.0441C13.9804 23.4152 14.2991 23.8689 14.6475 23.6379C14.7997 23.5084 14.9009 23.3185 14.9299 23.1078C14.9589 22.8972 14.9135 22.6822 14.8032 22.508C14.2324 21.4771 13.1574 23.1678 13.8247 23.4812Z" fill="#DC0000"/>
</svg>
