<svg width="66" height="61" viewBox="0 0 66 61" fill="none" xmlns="http://www.w3.org/2000/svg">
<path d="M10.2138 13.5187L10.6719 13.0391C9.91742 13.5187 9.16296 14.0383 8.43545 14.5479C9.03722 14.2281 9.63002 13.8784 10.2138 13.5187Z" fill="#DC0000"/>
<path d="M58.5181 10.3616V10.3116C58.8156 9.84295 58.9954 9.29456 59.0391 8.72288C59.0391 8.72288 59.0391 8.72288 59.0391 8.72288C58.9674 8.90075 58.877 9.06848 58.7696 9.22248C58.7696 9.22248 58.6349 9.4423 58.572 9.56221C58.5092 9.68211 58.2756 9.95188 58.1499 10.1118C57.8625 10.4715 57.4942 10.7213 57.2517 11.111C57.2394 11.1297 57.2323 11.1521 57.2312 11.1753C57.2301 11.1985 57.2351 11.2216 57.2455 11.2417C57.256 11.2618 57.2715 11.2781 57.2901 11.2886C57.3088 11.2991 57.3298 11.3033 57.3505 11.3008C57.4661 11.2648 57.5754 11.2073 57.6739 11.1309C54.6291 15.3775 49.2941 17.326 45.9978 21.5126C45.0997 22.6717 43.986 24.5102 42.6926 25.1797C41.7316 25.6993 40.4472 25.6293 39.4233 26.069C37.7252 26.7603 36.2731 28.0429 35.2828 29.726C35.2934 29.7103 35.3012 29.6924 35.3056 29.6733C35.3099 29.6543 35.3109 29.6344 35.3084 29.6149C35.3059 29.5954 35.3 29.5767 35.291 29.5598C35.282 29.5428 35.27 29.528 35.2559 29.5162C35.2417 29.5044 35.2256 29.4958 35.2085 29.4909C35.1913 29.486 35.1735 29.485 35.156 29.4877C35.1385 29.4905 35.1216 29.4971 35.1064 29.5071C35.0912 29.5172 35.0779 29.5305 35.0673 29.5462C33.1833 31.4264 30.9327 32.7946 28.4928 33.543C26.8223 34.0345 25.3098 35.0386 24.1277 36.4407C23.9391 36.6805 24.2355 37.0202 24.4331 36.7804C26.3821 34.4722 28.9868 33.8827 31.5645 32.8835C32.9701 32.4563 34.1988 31.4992 35.0403 30.1757C35.0183 30.2261 35.0128 30.2835 35.0249 30.3379C35.037 30.3923 35.0658 30.4403 35.1063 30.4736C35.1469 30.5068 35.1966 30.5232 35.2469 30.5199C35.2972 30.5166 35.3449 30.4938 35.3816 30.4555C36.8309 28.9271 38.5371 27.7318 40.4023 26.9383C41.4301 26.6668 42.475 26.4831 43.5279 26.3887C45.5577 26.029 46.8152 23.7109 47.9289 21.9722C49.0159 20.1072 50.4156 18.4924 52.0514 17.2161C53.1831 16.3668 54.3776 15.6473 55.4644 14.7381C56.8535 13.6526 57.9175 12.1279 58.5181 10.3616Z" fill="#DC0000"/>
<path d="M53.6026 12.8187C53.5397 12.8686 53.6026 12.9586 53.6834 12.9286C54.4494 12.502 55.126 11.9007 55.6692 11.1639C56.2123 10.427 56.6099 9.57118 56.8359 8.65201C56.8359 8.59206 56.7731 8.57208 56.7551 8.65201C56.0642 10.3339 54.9743 11.7744 53.6026 12.8187Z" fill="#DC0000"/>
<path d="M52.5147 12.8694C52.4608 12.9293 52.5147 13.0392 52.5956 12.9893C53.9536 11.8783 55.0757 10.4491 55.8828 8.80265C55.8828 8.7327 55.8289 8.68275 55.784 8.7427C54.7871 10.2515 53.6284 11.4805 52.5147 12.8694Z" fill="#DC0000"/>
<path d="M42.8415 20.0645C46.8743 16.927 52.1554 13.8795 54.4637 8.87354C54.4697 8.85786 54.4704 8.84027 54.4656 8.82408C54.4608 8.80789 54.4508 8.79422 54.4376 8.78562C54.4243 8.77703 54.4087 8.77411 54.3937 8.77742C54.3786 8.78073 54.3652 8.79003 54.3559 8.80358C51.3201 13.7396 46.6138 15.9878 42.7427 19.9147C42.6709 19.9846 42.7607 20.1245 42.8415 20.0645Z" fill="#DC0000"/>
<path d="M34.0852 28.2377C34.0852 28.2977 34.1301 28.3776 34.1839 28.3176C36.7125 25.0697 39.6181 22.2102 42.8242 19.8144C42.8242 19.8144 42.8242 19.8144 42.8242 19.8144C39.351 21.8099 36.3553 24.6974 34.0852 28.2377Z" fill="#DC0000"/>
<path d="M32.4343 28.6381C34.118 26.4991 35.6894 24.2538 37.1406 21.9135C37.1406 21.8635 37.1406 21.8036 37.0688 21.8535C35.3837 23.9894 33.8065 26.2277 32.3445 28.5582C32.335 28.5714 32.3305 28.5883 32.3322 28.6052C32.3339 28.6221 32.3415 28.6375 32.3535 28.6481C32.3654 28.6587 32.3806 28.6636 32.3957 28.6617C32.4109 28.6598 32.4248 28.6514 32.4343 28.6381Z" fill="#DC0000"/>
<path d="M30.3648 29.5859C32.6783 27.1948 34.6931 24.4694 36.3555 21.4825C36.3555 21.4825 36.3555 21.4125 36.3016 21.4825C34.4334 24.3202 32.3677 26.8881 30.3109 29.556L30.3648 29.5859Z" fill="#DC0000"/>
<path d="M35.2891 20.743C32.406 25.739 29.002 28.9265 24.619 32.1539C24.6083 32.1604 24.599 32.1693 24.5914 32.1799C24.5839 32.1904 24.5783 32.2025 24.575 32.2155C24.5716 32.2285 24.5706 32.2421 24.572 32.2555C24.5734 32.269 24.5771 32.282 24.583 32.2938C24.5889 32.3056 24.5969 32.316 24.6064 32.3244C24.6159 32.3328 24.6268 32.339 24.6385 32.3427C24.6501 32.3464 24.6624 32.3476 24.6744 32.346C24.6865 32.3445 24.6982 32.3403 24.7088 32.3337C29.315 29.9168 33.0459 25.8297 35.2891 20.743Z" fill="#DC0000"/>
<path d="M24.5508 32.6136C24.5508 32.6136 24.5508 32.5037 24.5508 32.5237C19.9455 34.61 15.7888 37.7564 12.3538 41.7563C12.3383 41.7735 12.3296 41.7969 12.3296 41.8212C12.3296 41.8456 12.3383 41.8689 12.3538 41.8862C12.3693 41.9034 12.3903 41.9131 12.4122 41.9131C12.4341 41.9131 12.4551 41.9034 12.4706 41.8862C16.2056 38.3495 20.253 35.2428 24.5508 32.6136Z" fill="#DC0000"/>
<path d="M20.5234 37.1104C20.5234 37.0105 20.4516 36.9006 20.3887 36.9905C17.6942 40.7075 14.2094 41.8466 10.2485 43.2754C10.2223 43.282 10.1996 43.3 10.1852 43.3253C10.1709 43.3506 10.1662 43.3812 10.1722 43.4103C10.1781 43.4395 10.1943 43.4648 10.217 43.4807C10.2397 43.4966 10.2672 43.5019 10.2934 43.4952C14.0208 42.6659 18.6643 41.0572 20.5234 37.1104Z" fill="#DC0000"/>
<path d="M58.6282 4.76597C56.0276 4.02185 53.3879 3.45789 50.7245 3.07734C50.6526 3.07734 50.6167 3.18727 50.7245 3.19727C53.3261 3.97065 55.9689 4.56132 58.6372 4.96582C58.661 4.9645 58.6834 4.95269 58.6994 4.93301C58.7154 4.91333 58.7237 4.88739 58.7225 4.86089C58.7214 4.83439 58.7107 4.80951 58.6931 4.79171C58.6754 4.7739 58.6521 4.76465 58.6282 4.76597Z" fill="#DC0000"/>
<path d="M49.9253 39.7891C48.8754 41.6943 47.4732 43.3292 45.8118 44.5853C45.8118 44.5853 45.8118 44.6752 45.8118 44.6452C47.1529 43.8389 48.3301 42.7334 49.2697 41.3978C50.4103 39.7591 50.9941 37.7707 52.2695 36.232C52.2695 36.232 52.2695 36.152 52.2695 36.182C51.3297 37.2465 50.5394 38.4626 49.9253 39.7891Z" fill="#DC0000"/>
<path d="M48.2196 37.7997C46.5108 39.5404 45.1095 41.6212 44.088 43.9348C44.0809 43.9494 44.0792 43.9665 44.0834 43.9824C44.0877 43.9983 44.0974 44.0118 44.1105 44.0197C44.1236 44.0277 44.139 44.0295 44.1533 44.0248C44.1676 44.0201 44.1797 44.0093 44.1868 43.9947C45.5161 41.8864 46.7825 39.848 48.2734 37.8596L48.2196 37.7997Z" fill="#DC0000"/>
<path d="M8.63702 36.2809C8.18565 37.6709 7.93113 39.1305 7.88257 40.6074C7.88257 40.6074 7.92748 40.6074 7.92748 40.6074C8.08017 39.6882 8.24184 38.7689 8.43045 37.8696C8.43045 37.8696 8.48435 37.9196 8.49333 37.8696C8.60111 37.38 8.6999 36.8704 8.7987 36.4008C8.95715 35.7234 9.14905 35.0563 9.37352 34.4024H9.31064C9.23879 34.5723 9.1849 34.7521 9.11305 34.922C10.0112 30.8053 10.9094 26.8085 13.4062 23.2913C13.4062 23.2913 13.4062 23.2213 13.3523 23.2913C10.4962 26.8484 9.29268 31.6146 8.63702 36.2809Z" fill="#DC0000"/>
<path d="M11.1209 24.2909C8.78282 28.1749 7.60145 32.7784 7.74383 37.4503C7.74802 37.461 7.75492 37.4701 7.7637 37.4765C7.77247 37.4829 7.78273 37.4863 7.79322 37.4863C7.80371 37.4863 7.81398 37.4829 7.82275 37.4765C7.83153 37.4701 7.83843 37.461 7.84262 37.4503C8.15925 32.8745 9.30817 28.4178 11.2197 24.3508C11.2268 24.3363 11.2285 24.3191 11.2243 24.3032C11.2201 24.2873 11.2103 24.2739 11.1972 24.2659C11.1841 24.258 11.1687 24.2561 11.1544 24.2608C11.1401 24.2655 11.128 24.2763 11.1209 24.2909Z" fill="#DC0000"/>
<path d="M9.02596 26.439C7.24708 30.1806 6.53585 34.4365 6.98714 38.6393C6.99305 38.6593 7.00448 38.6767 7.0198 38.689C7.03512 38.7014 7.05355 38.708 7.07247 38.708C7.09138 38.708 7.10981 38.7014 7.12513 38.689C7.14045 38.6767 7.15189 38.6593 7.15779 38.6393C6.97663 34.4808 7.6429 30.3306 9.10679 26.499C9.12475 26.4191 9.04392 26.3891 9.02596 26.439Z" fill="#DC0000"/>
<path d="M17.5994 45.094C17.5455 45.1539 17.5994 45.2639 17.6802 45.2139C20.4025 43.0187 23.2463 41.0164 26.1947 39.2187C26.2576 39.2187 26.1947 39.0588 26.1947 39.0888C23.0198 40.4805 20.1051 42.5169 17.5994 45.094Z" fill="#DC0000"/>
<path d="M42.9798 45.5839C40.6446 47.972 37.7256 49.3709 34.8964 50.7798C33.2701 51.5847 31.5918 52.2527 29.8757 52.7782C29.0494 52.9481 28.241 52.998 27.4327 53.0779C27.9446 52.968 28.4656 52.8681 28.9596 52.7282C29.0673 52.7282 29.0314 52.5184 28.9596 52.5284C28.8877 52.5384 28.5284 52.5284 28.3129 52.5883C28.9775 52.4884 29.6242 52.3985 30.208 52.3485C30.2709 52.3485 30.2799 52.2186 30.208 52.2286C26.7411 52.3185 21.9629 53.5276 19.017 50.9796C18.9272 50.8997 18.8014 51.0596 18.8822 51.1495C19.8752 52.1484 21.1397 52.7497 22.4749 52.8581H21.0378C20.3911 52.6483 19.7445 52.4185 19.0888 52.1387C17.4811 51.4492 15.9543 50.8797 14.2118 51.3693C14.1579 51.3693 14.1669 51.4792 14.2118 51.4692C16.4752 51.1595 18.3344 52.1487 20.3013 52.958C20.3013 53.038 20.3013 53.1479 20.3642 53.1679C20.6426 53.2278 20.939 53.2478 21.2624 53.2978C21.5857 53.3477 21.7384 53.4876 21.9809 53.5576C24.1779 54.1376 26.4632 54.1683 28.6722 53.6475C31.5087 52.9431 34.2546 51.8454 36.8454 50.3801C39.1626 49.1711 41.6864 48.052 43.2852 45.7338C43.1684 45.6139 43.0337 45.514 42.9798 45.5839Z" fill="#DC0000"/>
<path d="M38.0344 43.674C34.9383 44.1547 31.9162 45.1064 29.0529 46.5025V46.5625C32.0258 45.4731 34.9897 44.6235 38.0344 43.8639C38.1871 43.8339 38.1422 43.654 38.0344 43.674Z" fill="#DC0000"/>
<path d="M29.3365 47.5919C32.0414 46.9328 34.7078 46.0917 37.3211 45.0732C37.332 45.0777 37.3437 45.0792 37.3552 45.0776C37.3667 45.076 37.3776 45.0713 37.3871 45.0639C37.3967 45.0566 37.4044 45.0467 37.4098 45.0353C37.4152 45.0239 37.418 45.0112 37.418 44.9983C37.418 44.9854 37.4152 44.9727 37.4098 44.9613C37.4044 44.9498 37.3967 44.94 37.3871 44.9326C37.3776 44.9253 37.3667 44.9206 37.3552 44.919C37.3437 44.9173 37.332 44.9188 37.3211 44.9233C34.6179 45.6096 31.9544 46.4774 29.3455 47.5219C29.3455 47.5219 29.2916 47.6019 29.3365 47.5919Z" fill="#DC0000"/>
<path d="M22.6886 48.5401C25.149 47.2075 27.702 46.0982 30.3229 45.2228C33.3064 44.2756 36.3557 43.6071 39.4392 43.2244C39.547 43.2244 39.556 43.0345 39.4392 43.0445C37.6985 43.1138 35.967 43.3579 34.2658 43.7739C34.2658 43.7739 34.2658 43.704 34.194 43.704C31.2785 44.1525 28.4374 45.0715 25.7603 46.4318C22.0689 48.2004 19.2037 50.3586 15.0363 50.3387C15.0363 50.3387 14.9914 50.3986 15.0363 50.4086C17.8295 50.8183 20.1288 49.9689 22.6886 48.5401Z" fill="#DC0000"/>
<path d="M54.8906 15.2978C53.876 16.7213 52.9545 18.224 52.1333 19.7942C52.1333 19.7942 52.1333 19.9041 52.1962 19.8542C53.1868 18.4126 54.0871 16.8969 54.8906 15.3178V15.2978Z" fill="#DC0000"/>
<path d="M1.36982 22.782C0.84333 24.3738 0.390671 25.9946 0.0136032 27.6381C-0.00596619 27.7075 -0.00432587 27.7822 0.0182648 27.8506C0.0408554 27.9189 0.0831451 27.977 0.138512 28.0157C0.193878 28.0545 0.259224 28.0718 0.324364 28.065C0.389496 28.0581 0.45076 28.0275 0.498604 27.9778C0.498604 28.0478 0.498604 28.1077 0.498604 28.1777C-0.0672379 32.1745 1.32491 36.2911 2.6452 39.8583C4.08958 43.8262 6.1205 47.4973 8.65387 50.7196C12.7621 55.9786 18.4394 59.4098 24.6411 60.3818C31.1257 61.3311 37.2152 58.883 42.3797 54.5065C48.3524 49.5105 53.9748 42.9058 57.0196 35.3319C58.3848 31.9246 59.2919 28.3375 60.6122 24.9203C62.0493 21.1932 64.3216 17.806 65.3096 13.9291C65.9922 11.2012 66.073 8.1437 64.5551 5.78559C63.0372 3.42748 60.2979 2.5182 57.7471 1.92867C55.1963 1.33914 52.5558 0.629715 49.9062 0.000221252L47.8764 0.289997C42.5772 -0.0697174 37.0985 0.499821 31.8712 0.689671C27.1469 0.849541 21.2281 0.0301819 16.8091 2.29837C14.7524 3.35752 13.3872 5.29596 11.8962 7.10452C10.2077 9.16286 8.00719 10.1721 6.16597 11.9407H6.07616C6.07616 11.9407 6.07616 11.9407 6.07616 12.0006C4.52235 13.5394 3.83974 15.7476 3.12122 17.8559L2.53742 19.5346C2.07126 20.5174 1.68356 21.5438 1.37879 22.6021C1.35998 22.627 1.34893 22.6579 1.34731 22.6904C1.3457 22.7228 1.35359 22.7549 1.36982 22.782ZM8.70775 11.2512C9.076 11.1213 9.44424 10.9714 9.8035 10.8315L8.48322 11.4211L8.70775 11.2512ZM6.54319 13.1497C8.04311 12.6101 9.52507 11.9806 11.034 11.3911C10.8813 11.481 10.7196 11.531 10.558 11.6209C8.8649 12.4398 7.24925 13.4439 5.73486 14.6185C5.66307 14.6136 5.59108 14.6136 5.51929 14.6185C5.82444 14.099 6.16686 13.6078 6.54319 13.1497ZM29.4642 10.0622L29.1498 10.272C29.1528 10.2421 29.1528 10.212 29.1498 10.1821L29.0779 10.1321C25.8715 15.1281 21.1562 17.766 17.1414 21.8527C14.7495 24.2979 12.7641 27.1933 11.2765 30.4059C11.4382 29.8563 11.6088 29.3067 11.8154 28.7572C12.9055 26.2116 14.2785 23.8282 15.902 21.6629C15.9469 21.6029 15.902 21.533 15.8391 21.5829C12.6958 25.2732 10.5537 29.8765 9.6598 34.8623C9.52507 35.6217 9.34545 36.3611 9.2736 37.1205H9.34545C9.48018 36.3811 9.67777 35.6916 9.83944 34.9722C9.75861 35.5018 9.65981 36.0414 9.6149 36.5709C9.6149 36.7008 9.54305 36.8307 9.5161 36.9606C9.48916 37.0905 9.56999 37.0605 9.6149 37.0206C9.5728 37.6859 9.5728 38.3536 9.6149 39.019C9.56759 39.1296 9.52562 39.243 9.48916 39.3587C9.48916 39.3587 9.48916 39.4286 9.48916 39.4686C9.09821 40.1107 8.77001 40.7973 8.51016 41.5169C8.31256 42.0665 9.09397 42.2764 9.29156 41.7468C9.31209 41.6981 9.33612 41.6513 9.36342 41.6069C9.34108 41.836 9.34108 42.0672 9.36342 42.2963C9.36545 42.3437 9.38121 42.3891 9.40834 42.4257C9.43548 42.4623 9.47253 42.4882 9.51397 42.4994C9.5554 42.5107 9.59899 42.5067 9.63823 42.4881C9.67746 42.4695 9.71024 42.4373 9.73165 42.3962C9.99005 41.921 10.2066 41.419 10.3783 40.8975C10.531 40.8975 10.6927 40.7876 10.6388 40.5677C10.6343 40.4779 10.6343 40.3878 10.6388 40.2979C10.8167 39.7272 11.0205 39.167 11.2495 38.6193C11.4831 38.0797 11.7076 37.5601 11.9411 37.0406C13.0368 35.4906 14.2706 34.0678 15.6236 32.794C17.7082 30.8158 19.9173 29.0059 22.234 27.3783C24.4345 25.8895 26.8415 24.8803 28.8085 23.0018C29.7687 22.0991 30.6691 21.1207 31.503 20.0741C32.2484 19.3847 32.967 18.6453 33.6586 17.8659C34.3501 17.0865 34.8262 16.5769 35.4549 15.9175C36.2943 15.2413 37.1669 14.6175 38.0685 14.049C39.8119 13.2434 41.615 12.6082 43.4574 12.1505C44.6133 11.8067 45.6454 11.0738 46.4124 10.0522C47.4722 8.71324 47.3734 8.20364 49.1068 7.57414C50.3053 7.15612 51.5627 6.98678 52.8162 7.07454C51.1995 6.96463 48.7655 6.35511 47.1938 7.07454C46.6796 7.41201 46.2234 7.84846 45.8465 8.36351C44.9135 9.48271 43.6884 10.2481 42.3437 10.5518C40.0265 11.1813 36.0566 12.1605 34.0358 14.3687C31.5389 15.3679 29.4372 17.816 27.605 19.8044C24.9641 22.675 22.0556 25.224 18.9288 27.4083C16.7847 29.029 14.8919 31.0268 13.3243 33.3235C11.9367 34.7228 10.8211 36.4229 10.046 38.3195C10.1628 37.2104 10.3065 36.1213 10.4681 35.0422C10.6298 33.963 11.025 32.9738 11.2944 31.9446C13.1761 27.4827 15.9393 23.5513 19.3779 20.4438C22.7909 17.4462 27.2008 14.8183 29.2576 10.3619L29.6348 10.1321C29.6348 10.1321 29.6348 10.222 29.6348 10.202C30.6863 9.35331 31.7809 8.57264 32.9131 7.86391C34.2288 7.17793 35.6002 6.63258 37.0087 6.23521H37.1165C34.9402 7.2448 32.8831 8.54677 30.991 10.1121V10.1821C33.2634 8.81316 35.6704 7.58415 37.9068 6.18527C38.2841 6.18527 38.6703 6.09534 39.0475 6.03539C38.6523 6.22524 38.2481 6.40508 37.8529 6.61492C37.8724 6.60816 37.8902 6.59658 37.9051 6.58104C37.92 6.56549 37.9314 6.54641 37.9387 6.5252C37.946 6.504 37.9488 6.48124 37.947 6.45864C37.9452 6.43604 37.9388 6.41418 37.9283 6.39473C37.9178 6.37527 37.9035 6.35873 37.8864 6.34633C37.8694 6.33393 37.85 6.32601 37.8297 6.32316C37.8095 6.3203 37.789 6.3226 37.7696 6.32986C37.7503 6.33714 37.7327 6.34919 37.7182 6.36512C35.7284 7.4302 33.813 8.6593 31.988 10.0422C31.9251 10.0921 31.988 10.1821 32.0508 10.1521C32.6347 9.87231 33.2185 9.5126 33.8472 9.15289C33.7573 9.23283 33.8472 9.3727 33.928 9.32274C35.1764 8.6233 36.4159 7.8839 37.6733 7.17447C38.7152 6.73482 39.757 6.26519 40.7719 5.73561C41.5772 5.48669 42.3689 5.18644 43.1431 4.83634C43.1453 4.85577 43.1538 4.87361 43.1671 4.8865C43.1803 4.89939 43.1973 4.90645 43.2149 4.90629C44.8586 4.75641 46.5201 4.64651 48.1728 4.50662H50.8672C51.2983 4.59655 51.7654 4.66647 52.1696 4.73642C53.1003 5.10929 54.0551 5.40323 55.0257 5.61572C56.8621 5.98503 58.7298 6.1258 60.5943 6.03539C60.5943 6.10534 60.5943 6.20524 60.6571 6.20524C60.916 6.22851 61.1719 6.2821 61.4206 6.36512C61.7963 6.61226 62.1305 6.93006 62.4085 7.30437C62.5392 7.60339 62.7087 7.87946 62.9115 8.12372C62.5972 10.5618 60.8188 12.3503 59.5793 14.3587C58.471 16.0955 57.4975 17.934 56.6693 19.8543C55.9238 21.6928 55.6634 23.7812 54.7922 25.5597C53.921 27.3383 52.3312 27.9278 51.5229 29.5565C51.4508 29.7211 51.4169 29.9032 51.4241 30.0861C51.0289 30.266 50.8493 30.5258 50.5259 31.0853C49.7249 32.6606 48.5746 33.9815 47.1848 34.9223C45.137 36.2012 43.0263 37.0405 41.1402 38.6193C38.3559 40.9474 35.5986 40.2779 32.4371 41.0173C32.3113 41.0173 32.2035 41.1173 32.0778 41.1473C33.1017 40.5577 34.1166 39.9382 35.1136 39.3087L36.0117 38.7492L37.1434 38.0697C37.5745 37.79 38.5894 37.3203 39.3439 36.7608C39.3439 36.7608 39.3439 36.7608 39.3978 36.7608C42.9904 34.4326 47.1399 31.8947 50.1756 28.6972C52.8611 25.7896 53.0228 21.2932 55.5556 18.2356C52.9959 20.9734 52.7623 25.0801 50.4271 27.9678C48.2446 30.6557 45.0382 32.5941 42.1461 34.5725C42.1524 34.5604 42.1558 34.5466 42.1558 34.5326C42.1558 34.5185 42.1524 34.5047 42.1461 34.4926C42.7928 34.0729 43.4574 33.6832 44.0861 33.2536C44.176 33.1936 44.149 33.1037 44.0861 33.0438L44.5711 32.6541C44.634 32.6541 44.5711 32.4742 44.4903 32.5242C43.5922 33.1237 42.694 33.7132 41.697 34.2228C42.4788 33.7018 43.2207 33.1103 43.9155 32.4542C43.9873 32.3843 43.9155 32.2344 43.8167 32.2944C42.9185 32.9239 42.1012 33.5733 41.2031 34.1529C40.4666 34.6225 39.6493 34.9822 38.9487 35.5018L38.8319 35.5617L39.3529 34.9123C41.0825 34.0534 42.7064 32.952 44.1849 31.6349C44.2927 31.535 44.1849 31.3651 44.0412 31.455C42.1193 32.8812 40.0946 34.1278 37.9877 35.182C37.8709 35.242 37.9877 35.4718 38.0775 35.4318C38.3649 35.3419 38.6523 35.202 38.9756 35.0821C38.3033 35.8076 37.5827 36.4756 36.8201 37.0805L35.9668 37.5501C35.9039 37.5501 35.9039 37.6601 35.9129 37.73C34.8163 38.4198 33.618 38.8867 32.3742 39.1089C30.0929 39.5385 28.4582 41.2771 26.2398 41.8866C24.3684 42.2694 22.5544 42.9421 20.8508 43.885C19.4767 44.7244 18.1564 45.6237 16.7732 46.5629C14.6285 47.5141 12.3662 48.0969 10.064 48.2915C9.79453 48.0617 9.53406 47.8219 9.2736 47.5821L9.1748 47.4522C11.6432 47.6708 14.1201 47.1679 16.3601 45.9934C16.3851 45.9828 16.4053 45.9615 16.4162 45.9344C16.4272 45.9072 16.428 45.8763 16.4184 45.8485C16.4089 45.8207 16.3898 45.7982 16.3654 45.786C16.341 45.7738 16.3132 45.773 16.2882 45.7836H16.2343C16.6475 45.4838 17.0427 45.1341 17.4558 44.7844C19.3218 43.3689 21.0603 41.756 22.6471 39.9682C22.728 39.8783 22.6472 39.7584 22.5304 39.8383C20.7341 41.407 18.9827 43.0557 17.2223 44.6944C14.5106 45.8618 11.6242 46.4451 8.71674 46.4131C8.71674 46.4131 8.71674 46.463 8.71674 46.473C11.4568 46.8567 14.2388 46.3899 16.7552 45.1241L16.0008 45.8135C14.905 46.1632 13.8452 46.6029 12.7135 46.8127C11.4795 47.0551 10.2302 47.1888 8.9772 47.2124C8.90415 47.1112 8.8262 47.0144 8.74369 46.9226C8.53711 46.473 8.32155 46.0333 8.10599 45.6037C9.21072 46.8027 11.519 46.0433 12.8662 45.6037C13.7235 45.3331 14.5637 44.9993 15.3811 44.6045C15.3686 44.6176 15.3608 44.6353 15.3591 44.6542C15.3573 44.6732 15.3617 44.6923 15.3714 44.708C15.3812 44.7237 15.3957 44.7349 15.4123 44.7398C15.4289 44.7446 15.4465 44.7427 15.4619 44.7344C18.4747 43.1152 21.1395 40.7946 23.2759 37.9298C23.2985 37.9047 23.3112 37.8705 23.3112 37.8349C23.3112 37.7993 23.2985 37.7652 23.2759 37.74C23.2532 37.7148 23.2225 37.7007 23.1905 37.7007C23.1585 37.7007 23.1278 37.7148 23.1052 37.74C22.8088 38.0397 22.5034 38.2995 22.2071 38.5893C22.3335 38.3693 22.4446 38.1388 22.5394 37.8999C22.5394 37.76 22.4226 37.69 22.3328 37.77C21.8478 38.2396 21.4346 38.8191 21.0215 39.3387C20.6083 39.8583 20.1233 40.3379 19.6922 40.9175L18.6593 41.8167C18.7449 41.7148 18.8259 41.608 18.9018 41.497C18.9082 41.4865 18.9114 41.4741 18.911 41.4615C18.9106 41.4488 18.9066 41.4367 18.8997 41.4267C18.8927 41.4167 18.8831 41.4095 18.8722 41.4059C18.8613 41.4024 18.8497 41.4028 18.839 41.4071C17.0427 41.7268 15.3541 42.8859 13.5668 43.4055C11.8404 43.7952 10.09 44.039 8.33053 44.1348C8.17839 44.1492 8.03463 44.2185 7.92114 44.3321C7.80765 44.4458 7.73064 44.5975 7.70182 44.7643L7.52219 44.3946C6.97021 43.1055 6.34937 41.8543 5.663 40.6477C5.663 40.6477 5.59116 40.6477 5.55523 40.5977C5.6181 40.1081 5.67199 39.5985 5.69894 39.0889C5.69894 38.969 5.69893 38.8491 5.7618 38.7292C6.02069 39.4316 6.34585 40.1015 6.73181 40.7276C6.73602 40.7574 6.73602 40.7877 6.73181 40.8175C6.73181 40.8175 6.79469 40.9075 6.82163 40.8175C6.9833 41.0274 7.31561 40.8175 7.18987 40.5677C7.06413 40.3179 7.09108 40.3079 7.02821 40.1681C7.53638 38.4837 7.74384 36.7051 7.63895 34.9322H7.57608C7.4958 36.5973 7.27325 38.2501 6.91144 39.8683C6.53139 38.9564 6.23063 38.0062 6.01328 37.0306C6.11084 35.4555 5.98045 33.8733 5.62708 32.3443C5.62708 32.1545 5.62708 31.9746 5.62708 31.7748C5.62708 31.5749 5.2768 31.475 5.23189 31.7248C4.99517 33.0414 4.96478 34.3935 5.14207 35.7216C5.08761 36.834 5.10562 37.9494 5.19596 39.0589C5.19596 39.1289 5.24985 39.1289 5.29476 39.1388C5.29476 39.3287 5.29476 39.5186 5.29476 39.7084C5.06124 39.0289 4.78281 38.3595 4.48642 37.71C4.54929 37.8099 4.71096 37.7699 4.67504 37.6401C2.60928 30.206 4.81874 23.0418 8.94128 17.1665L8.26767 17.6261C4.28883 23.4714 2.07038 30.5457 4.4505 37.6101C3.7366 36.2097 3.13548 34.7419 2.65419 33.2236C1.86381 30.286 2.27696 27.4083 3.03141 24.5006C3.63295 22.7772 4.40726 21.1348 5.33967 19.6045L4.90855 19.8943C5.21393 19.3247 5.54625 18.7752 5.8606 18.2156C6.98806 16.6769 8.4375 15.4692 10.0819 14.6984C11.8986 13.9734 13.6369 13.025 15.2643 11.8707C17.4054 10.0828 19.9742 9.03976 22.6471 8.87312C24.0613 8.80298 25.4576 8.49297 26.7877 7.95384C26.6799 8.03378 26.7158 8.24363 26.8505 8.19367L27.6678 7.89389C26.8415 8.33354 26.0063 8.7632 25.2069 9.21284C22.0544 10.9714 18.5246 12.6701 15.8571 15.258C14.5278 16.547 13.468 18.0657 12.2645 19.4746C11.0609 20.8835 9.40831 22.1425 8.11497 23.6313C6.27201 25.6392 5.13752 28.316 4.91753 31.1753C4.91753 31.5849 5.4205 31.6049 5.53726 31.2652C6.69577 28.0538 8.4741 25.1647 10.7466 22.802C12.8393 20.5038 14.438 17.6361 16.6115 15.4578C19.1892 12.8599 22.7909 11.2212 25.8985 9.55257C27.2996 8.79317 28.7277 8.15369 30.1647 7.55416L31.0629 7.25442C31.1168 7.25442 31.0629 7.18446 31.1168 7.14449C32.0149 6.74481 33.0209 6.37512 33.9819 6.00542L34.2603 5.95544C34.8889 6.04767 35.5215 6.10105 36.1554 6.11531C33.621 6.65866 31.2906 8.03324 29.4642 10.0622ZM32.9759 17.5062C33.2993 17.2464 33.6226 16.9866 33.9639 16.7468C33.5418 17.1565 33.1646 17.5761 32.7604 17.9958C32.8502 17.8359 32.9041 17.6661 32.9759 17.5062ZM32.8861 16.7168C31.2526 17.9016 29.8078 19.3806 28.6109 21.0933C28.5121 21.2432 28.7007 21.4031 28.8265 21.2932C29.2396 20.9035 29.6348 20.4838 30.03 20.0641C30.03 20.0641 30.03 20.1141 29.9761 20.1441C28.8939 21.4369 27.6686 22.5717 26.3296 23.5214C25.0901 24.3707 23.8237 25.1001 22.5663 25.8595C22.719 25.7296 22.8897 25.6297 23.0423 25.4998C24.9918 23.714 26.8339 21.7881 28.557 19.7344C29.9738 18.2759 31.4738 16.9208 33.0478 15.6777C32.9536 15.8444 32.8696 16.018 32.7963 16.1972C32.7638 16.2841 32.755 16.3797 32.771 16.4721C32.787 16.5645 32.827 16.6496 32.8861 16.7168ZM39.8468 5.86552L39.6493 5.94547L39.766 5.87552L39.8468 5.86552ZM54.9718 4.86632C55.0796 4.86632 55.1874 4.86632 55.2951 4.86632C56.5256 5.12611 57.7471 5.3859 58.9686 5.67567C57.003 5.57164 55.0509 5.2571 53.1396 4.73642C53.7593 4.85632 54.3611 4.8863 54.9718 4.89629V4.86632ZM47.6878 3.42747C48.1189 3.58734 48.532 3.7672 48.9721 3.90709C48.074 3.90709 47.2297 4.01701 46.3495 4.12692C45.4693 4.23683 44.8137 4.21683 44.0861 4.35672C44.0233 4.35672 44.0861 4.45666 44.0861 4.47665L43.4125 4.60651C44.7563 3.91613 46.2088 3.52574 47.6878 3.45744V3.42747ZM46.0531 37.2804C44.1041 38.4994 41.715 39.4786 40.5744 41.7068C40.5744 41.7068 40.5744 41.7667 40.5744 41.7967C38.302 42.646 36.0836 42.3863 33.6945 42.7959C31.9388 43.1051 30.217 43.6175 28.557 44.3247L28.3145 44.4246C28.3524 44.389 28.3828 44.3446 28.4036 44.2946C28.4245 44.2445 28.4353 44.19 28.4353 44.1348C28.4353 44.0797 28.4245 44.0252 28.4036 43.9752C28.3828 43.9251 28.3524 43.8807 28.3145 43.8451C30.6445 42.3459 33.2682 41.5021 35.9578 41.387C37.6915 41.425 39.3949 40.8781 40.8438 39.8183C42.1475 38.7109 43.5429 37.744 45.0112 36.9306C46.221 36.3878 47.3818 35.7186 48.4781 34.9322C49.7692 33.7764 50.8331 32.3378 51.6037 30.7056C51.6037 30.7056 51.6037 30.8155 51.6756 30.8655L51.8821 31.1053C51.9461 31.1667 52.0236 31.2081 52.1067 31.2252C50.1038 33.3635 48.6308 35.6716 46.0531 37.2804ZM40.0085 36.0414C40.2151 35.8915 40.3947 35.7416 40.5205 35.6317L41.6611 34.9023C41.0594 35.3119 40.4845 35.7316 39.9187 36.1613L40.0085 36.0414ZM38.5535 35.9115C38.7421 35.9115 38.9397 35.8015 39.1283 35.7516L38.2302 36.2312C38.3559 36.1213 38.4906 36.0214 38.5535 35.9115ZM27.4253 43.4554L27.1469 43.6453H26.9134L27.4253 43.4554ZM6.43542 15.0582C6.43542 15.0582 6.43542 15.0581 6.43542 15.0082H6.49829L6.43542 15.0582ZM6.50727 14.9682H6.57015H6.50727ZM5.41152 15.6377C4.98182 16.2129 4.58007 16.8133 4.208 17.4363C4.42931 16.9063 4.69071 16.3982 4.98939 15.9175C5.12411 15.8175 5.25883 15.7376 5.41152 15.6377ZM27.6229 7.56417C27.6229 7.56417 27.6229 7.61413 27.6948 7.56417L28.0451 7.48421L26.9314 7.88389C27.1669 7.79134 27.3978 7.68462 27.6229 7.56417ZM25.3596 7.71404C25.6111 7.71404 25.8715 7.62411 26.132 7.58414C25.8767 7.64206 25.6189 7.68542 25.3596 7.71404ZM24.7219 7.30437C24.4884 7.30437 24.2548 7.2544 24.0213 7.23441C24.5063 7.23441 24.9913 7.23442 25.4853 7.14449L24.7219 7.30437ZM23.6621 7.52419C23.4016 7.52419 23.1411 7.61412 22.8807 7.68407C22.7909 7.68407 22.7998 7.80396 22.8807 7.85391C21.8656 7.84906 20.8523 7.94943 19.8539 8.15369C21.0973 7.78173 22.3751 7.5705 23.6621 7.52419ZM14.4021 11.521C12.3543 13.1797 9.86638 13.6293 7.82756 15.238C7.69284 15.3379 7.59405 15.4578 7.46831 15.5677C7.5222 15.4878 7.56709 15.3979 7.612 15.3179C7.66088 15.236 7.68087 15.1368 7.66815 15.0395C7.65543 14.9422 7.6109 14.8535 7.54307 14.7904C7.47523 14.7273 7.38887 14.6942 7.30051 14.6976C7.21214 14.7009 7.12798 14.7403 7.06413 14.8084L7.01024 14.8883C6.83959 15.0781 6.69588 15.308 6.53422 15.5178C6.65098 15.308 6.77672 15.1181 6.8845 14.9083C6.90125 14.8839 6.91033 14.854 6.91033 14.8233C6.91033 14.7926 6.90125 14.7628 6.8845 14.7384C9.32748 13.2596 11.8603 12.0606 14.3841 10.7416L14.0428 11.0514L15.1386 10.302C15.902 9.90229 16.6654 9.51258 17.4109 9.07294C17.4109 9.07294 17.4109 9.003 17.4109 8.98301C17.9678 8.7532 18.5246 8.53337 19.0635 8.35351C17.3669 9.11526 15.7926 10.1783 14.4021 11.501V11.521ZM2.43863 34.5026C3.22002 36.7608 4.2978 38.969 5.26781 41.1772C5.26781 41.2871 5.26781 41.407 5.26781 41.5169C5.26781 41.6269 5.38458 41.6568 5.45643 41.5869V41.6669C5.63959 42.6493 5.96088 43.5935 6.40847 44.4646C4.62624 41.3767 3.28693 37.9989 2.43863 34.4526V34.5026ZM6.8845 45.214C7.08008 45.5601 7.29299 45.8937 7.52219 46.2132C7.55658 46.32 7.59863 46.4236 7.64794 46.5229C7.62216 46.4976 7.60084 46.4671 7.58506 46.433C7.35154 45.9834 7.11802 45.5637 6.8845 45.1641V45.214ZM12.7764 7.58414C14.5727 5.39589 16.1894 3.42747 18.8569 2.58814C21.1809 2.07833 23.5486 1.85715 25.9164 1.92867L34.2334 1.64889C37.2602 1.53898 40.3588 1.56895 43.4395 1.42907C43.4395 1.42907 43.5383 1.48904 43.5562 1.53899C44.2209 1.60894 44.8675 1.70886 45.5232 1.7888C43.7611 2.14049 41.9777 2.34422 40.1881 2.39829C40.6193 2.28838 41.0863 2.21843 41.4995 2.07854C41.5533 2.07854 41.4995 1.97863 41.4995 1.98862C37.3763 2.76651 33.18 2.94788 29.0151 2.52819C28.9163 2.52819 28.9163 2.66808 29.0151 2.68807C30.0341 2.88973 31.0627 3.02652 32.0958 3.09774C29.5899 3.09774 27.084 3.09772 24.5782 3.16766C23.0513 3.20542 21.5379 3.49503 20.0874 4.02699C19.9976 4.02699 19.9886 4.24681 20.0874 4.23682L20.752 4.16687C20.4219 4.28251 20.098 4.4193 19.782 4.57654C19.769 4.58774 19.7584 4.60213 19.7511 4.61859C19.7439 4.63505 19.7401 4.65313 19.7401 4.67147C19.7401 4.6898 19.7439 4.70792 19.7511 4.72437C19.7584 4.74083 19.769 4.75519 19.782 4.76639C19.3572 4.88457 18.9401 5.03481 18.5336 5.21604C18.4258 5.266 18.5336 5.45584 18.6054 5.42587C20.2805 4.87257 22.0019 4.511 23.7429 4.34674C25.0632 4.26681 26.3745 4.34674 27.6948 4.34674C27.6708 4.35785 27.6512 4.37822 27.6396 4.40413C27.628 4.43004 27.6253 4.45972 27.6319 4.48771C27.6384 4.51571 27.6539 4.54012 27.6753 4.55645C27.6968 4.57277 27.7229 4.5799 27.7487 4.57654H28.09L27.1918 4.67647C27.0302 4.67647 27.0571 4.98623 27.1918 4.99622C29.8591 5.02273 32.5193 4.68718 35.1136 3.99702H35.3112C37.406 4.07779 39.4988 3.78084 41.5084 3.11772C41.5181 3.11305 41.5262 3.10537 41.532 3.09561C41.5377 3.08585 41.5408 3.07444 41.5408 3.06277C41.5408 3.0511 41.5377 3.03969 41.532 3.02993C41.5262 3.02016 41.5181 3.01249 41.5084 3.00782C38.6691 3.56162 35.7842 3.77265 32.9041 3.63729C32.8502 3.63729 32.8502 3.72722 32.9041 3.73722L33.461 3.80717C31.8173 3.87711 30.1827 4.02698 28.584 4.26679C28.0714 4.06155 27.5461 3.89792 27.0122 3.77719C27.7397 3.77719 28.4762 3.77718 29.2217 3.82714C30.947 3.79264 32.6688 3.63914 34.3771 3.36752C34.4489 3.36752 34.4489 3.26759 34.3771 3.20764C35.882 3.19151 37.3835 3.04451 38.8679 2.76799C41.3428 3.15143 43.8643 2.874 46.2238 1.95864C50.8919 2.61522 55.5157 3.61663 60.0643 4.95624C60.0992 4.95867 60.1338 4.94774 60.1622 4.92526C60.1907 4.90278 60.2114 4.87012 60.2209 4.83271C60.2303 4.79531 60.228 4.75541 60.2142 4.7197C60.2004 4.684 60.1761 4.65463 60.1452 4.63649C55.385 3.17766 50.2655 1.63891 45.1909 1.37912C46.089 1.30918 46.9423 1.20925 47.8135 1.08934C51.1457 1.74881 54.4688 2.5082 57.6932 3.23762C61.6631 4.1269 65.0042 5.94546 64.8785 10.9914C64.8066 14.4886 62.8935 17.4962 61.3577 20.4638C60.9625 21.2332 60.6482 22.0326 60.2979 22.8219C61.6092 18.7552 64.115 15.0182 64.2498 10.6117C64.2492 10.5468 64.2275 10.4842 64.1888 10.4356C64.1501 10.387 64.0969 10.3555 64.039 10.347C63.9811 10.3385 63.9224 10.3535 63.8737 10.3893C63.825 10.4251 63.7895 10.4792 63.7737 10.5418C63.5474 11.4837 63.2745 12.411 62.9564 13.3195L62.8127 13.4095L62.9385 13.3395C62.0403 16.0574 60.7559 18.6253 59.741 21.3331C58.7261 24.041 58.3758 26.8387 57.298 29.3767C57.298 29.3767 57.2531 29.3767 57.2352 29.3767C55.9239 31.3751 54.9089 33.5234 53.5527 35.4818C52.3133 37.2804 51.0469 39.0489 49.7894 40.8375C48.4169 42.9619 46.8387 44.9121 45.0831 46.6528C43.1866 48.2531 41.1494 49.6358 39.0026 50.7795C36.7978 52.0967 34.5034 53.2192 32.1407 54.1368C33.6976 53.5705 35.2015 52.8376 36.6314 51.9486C36.6443 51.9372 36.6533 51.9212 36.6568 51.9033C36.6604 51.8854 36.6583 51.8667 36.651 51.8503C36.6436 51.8339 36.6314 51.8209 36.6164 51.8133C36.6014 51.8057 36.5845 51.8041 36.5686 51.8087C35.4329 52.4527 34.2525 52.994 33.0388 53.4274C33.0388 53.4274 33.0388 53.3675 33.0388 53.3774C30.9748 53.9845 28.8734 54.4221 26.7517 54.6864C25.2159 54.6864 23.671 54.6864 22.0813 54.5765C22.0274 54.5765 22.0005 54.6265 21.9915 54.6764C19.0994 53.8171 16.3151 52.4082 13.3872 51.8287C13.367 51.8278 13.3471 51.8337 13.3301 51.8457C13.3131 51.8577 13.2998 51.8752 13.292 51.8959C13.2841 51.9165 13.2822 51.9394 13.2864 51.9613C13.2905 51.9832 13.3006 52.0032 13.3153 52.0185C15.6146 53.4174 18.2731 54.2268 20.6982 55.3858C22.3734 56.2659 24.1718 56.8201 26.0152 57.0245C27.4226 57.0959 28.8309 56.9068 30.1827 56.465C34.2153 56.1345 38.0721 54.4947 41.2749 51.7488C41.3378 51.6888 41.2749 51.5789 41.1941 51.6189C38.6863 53.3384 35.9618 54.6317 33.1107 55.4558L32.7155 55.5357C34.8262 54.5365 36.856 53.2975 38.7242 52.1884C43.0263 49.6105 46.8076 45.6437 50.0319 41.6169C51.5947 39.6185 53.0498 37.6201 54.4419 35.4818C54.9359 34.7524 55.4388 33.983 55.9149 33.1836C55.9149 33.1836 55.9688 33.1836 55.9867 33.1836C56.0047 33.1836 56.2113 32.9638 56.328 32.8639C55.56 34.8511 54.6593 36.7716 53.6336 38.6093C49.9073 44.9411 45.053 50.3552 39.3708 54.5165C29.8504 61.391 18.7132 58.913 11.2316 51.1392C11.294 51.1165 11.3471 51.0699 11.3817 51.0077C11.4162 50.9455 11.4298 50.8718 11.4202 50.7995C11.9581 51.2537 12.5672 51.5925 13.2165 51.7987C13.3872 51.7987 13.5937 51.6189 13.477 51.449C12.804 50.6327 12.0334 49.9233 11.1867 49.3407C10.7645 49.001 10.3783 48.6113 9.96518 48.2516C11.7071 48.4222 13.4618 48.1769 15.1116 47.5321C14.9769 47.6221 14.8422 47.712 14.7164 47.8119V47.8818C14.9859 47.732 15.2374 47.5421 15.5068 47.3822C16.1334 47.1152 16.7351 46.7805 17.3031 46.383C17.3196 46.3644 17.3288 46.3393 17.3288 46.3131C17.3288 46.287 17.3196 46.2619 17.3031 46.2432C18.6953 45.3139 20.0694 44.3647 21.5155 43.5653C23.5273 42.4462 25.7099 42.5062 27.7038 41.477C29.1588 40.7176 30.2725 39.7384 31.8982 39.3687C32.5538 39.2088 33.2005 39.1189 33.8472 38.989C33.606 39.1076 33.3771 39.2551 33.1646 39.4286C33.1646 39.4048 33.156 39.3819 33.1409 39.365C33.1257 39.3482 33.1052 39.3387 33.0837 39.3387C33.0623 39.3387 33.0417 39.3482 33.0266 39.365C33.0114 39.3819 33.0029 39.4048 33.0029 39.4286L32.9131 39.6984C32.2305 40.178 31.5479 40.6976 30.8294 41.0873C29.033 42.1564 27.1379 42.9758 25.2877 43.945C25.18 44.005 25.2338 44.1449 25.2877 44.1848C24.5423 44.5745 23.8237 45.0941 23.0693 45.5637C20.77 47.0126 17.4827 48.6912 14.8152 48.7711C14.8036 48.7763 14.7935 48.7853 14.7865 48.7969C14.7794 48.8085 14.7757 48.8221 14.7757 48.8361C14.7757 48.8501 14.7794 48.8637 14.7865 48.8753C14.7935 48.8869 14.8036 48.8959 14.8152 48.901C15.8528 49.029 16.8975 49.0724 17.9408 49.0309C17.3874 49.1572 16.8257 49.2341 16.2613 49.2607C16.2163 49.2607 16.2074 49.3107 16.1804 49.3407C15.3915 49.4457 14.5931 49.4256 13.8093 49.2807C12.7854 49.0509 11.7884 48.8311 10.7466 48.6812C10.6747 48.6812 10.6388 48.8011 10.7466 48.8311C11.7758 49.3309 12.8939 49.5633 14.0159 49.5105C14.7344 49.5105 15.4439 49.5105 16.1625 49.5105C16.1625 49.5705 16.1625 49.6405 16.2433 49.6504C17.9767 50.0002 19.4497 49.3207 21.0305 48.5014C23.3836 47.2824 25.7548 46.0633 28.1528 44.9642C30.8709 43.7551 33.7672 43.1181 36.6943 43.0857C38.0343 43.1438 39.3667 42.835 40.5744 42.1864C40.6301 42.2125 40.6911 42.2216 40.7511 42.2128C40.811 42.2041 40.8678 42.1777 40.9156 42.1364C41.9864 41.2051 43.146 40.4076 44.3736 39.7584C43.5562 40.9674 42.7209 42.1664 41.9485 43.3954C41.9485 43.4654 41.9485 43.5254 42.0473 43.4754C43.1109 42.3177 44.0184 40.9951 44.7418 39.5485C45.2897 39.2388 45.8286 38.919 46.3675 38.5993C45.143 40.2168 44.0034 41.9116 42.9545 43.6752C42.9545 43.7252 42.9545 43.7951 43.0353 43.7452C44.3243 42.0591 45.5239 40.2908 46.6279 38.4494C47.367 38.007 48.0728 37.499 48.7386 36.9306C50.6439 35.2986 52.1433 33.1525 53.0947 30.6956C53.0947 30.6357 53.0947 30.6157 53.0497 30.5657C53.3461 30.216 53.6156 29.8463 53.9479 29.5066C54.7304 28.8766 55.4315 28.1303 56.0316 27.2884C57.2352 25.19 57.4597 22.5921 58.3668 20.3539C59.3907 17.796 61.0613 15.5877 62.0403 13.0298C62.5882 11.6309 63.3247 9.77238 63.1899 8.20364C63.4773 7.53418 62.9205 6.73482 62.4804 6.33514C62.2545 6.13087 61.9909 5.98466 61.7083 5.90693C61.4257 5.8292 61.1312 5.82186 60.8457 5.88549L59.8578 5.81557C59.9386 5.71565 59.9656 5.56575 59.8578 5.51579C58.9596 5.28597 57.9986 5.09612 57.0645 4.88629C57.0645 4.88629 57.0645 4.80636 57.0196 4.79636C56.7232 4.72642 56.4268 4.68645 56.1214 4.63649H55.7173L55.1604 4.52659C54.3341 4.35673 53.5078 4.22683 52.6725 4.08694C51.478 3.82715 50.3014 3.5174 49.0799 3.24762C49.062 3.23834 49.0416 3.23735 49.0231 3.24484C49.0045 3.25234 48.9894 3.26772 48.9811 3.28759C48.9728 3.30747 48.9719 3.3302 48.9786 3.35081C48.9853 3.37142 48.9992 3.38822 49.017 3.39749C48.4875 3.2111 47.9474 3.06422 47.4003 2.95784C45.2178 2.55816 43.3137 3.34754 41.212 3.90709C39.8019 4.28679 38.3739 4.57656 36.9368 4.90629C36.4967 5.00621 36.0387 5.08613 35.6165 5.16607C35.6165 5.08613 35.5537 5.01619 35.4728 5.04617L35.2034 5.13609C35.2034 5.01619 35.2034 4.89631 35.0507 4.94627L34.7453 5.02619C32.5448 5.56576 30.3264 5.54579 28.1259 5.94547C27.9912 5.94547 28.0271 6.17529 28.1259 6.19527C28.9645 6.30029 29.8111 6.30029 30.6497 6.19527L30.3893 6.25522L29.9043 6.35511C29.9043 6.35511 29.9043 6.2752 29.8144 6.28519C27.2637 6.67488 24.7129 6.89469 22.1711 7.23441C22.1711 7.23441 22.1711 7.23442 22.1711 7.30437C20.3327 7.38556 18.5406 7.96894 16.9528 9.00302C16.8796 9.02717 16.8016 9.02717 16.7283 9.00302C16.6836 9.09409 16.6146 9.16742 16.5307 9.21284L15.8661 9.58254L15.7673 9.65249L15.2643 9.83234C15.2786 9.83234 15.2923 9.82602 15.3024 9.81478C15.3125 9.80353 15.3182 9.78829 15.3182 9.77239C15.3182 9.75649 15.3125 9.74125 15.3024 9.73C15.2923 9.71876 15.2786 9.71244 15.2643 9.71244L14.7524 9.90229C15.0128 9.7724 15.2553 9.60253 15.5158 9.46264C15.5158 9.46264 15.5158 9.3727 15.5158 9.39269C14.7344 9.71243 13.962 10.1321 13.1806 10.5018C11.1418 11.2212 9.11193 11.9606 7.10904 12.77C7.33339 12.5406 7.57037 12.3271 7.81859 12.1305C10.4592 11.0214 13.0728 9.83234 15.6685 8.61332V8.53339L11.8693 10.0921C13.2921 9.49112 14.6132 8.62623 15.7763 7.53419C17.5097 5.75562 18.5875 4.21685 21.0215 3.5374C23.3405 3.02961 25.7174 2.93517 28.063 3.25762C28.0874 3.24987 28.1089 3.23347 28.1242 3.21093C28.1395 3.1884 28.1477 3.16095 28.1477 3.13272C28.1477 3.10449 28.1395 3.07701 28.1242 3.05447C28.1089 3.03194 28.0874 3.01558 28.063 3.00782C24.6141 2.67809 20.77 2.33834 17.7881 4.70644C17.1967 5.21133 16.6575 5.78774 16.1804 6.42506C15.1649 7.62557 13.9182 8.55474 12.5339 9.14289C11.8603 9.46264 11.1777 9.76241 10.4951 10.0622C11.3301 9.30712 12.0944 8.46016 12.7764 7.53419V7.58414ZM25.2518 4.04697C24.8117 4.04697 24.3536 4.04697 23.9315 4.04697C24.3706 4.00534 24.8112 3.98867 25.2518 3.99702V4.04697ZM26.5721 4.11692H26.2038H26.5721ZM31.5569 54.3966C31.6416 54.3814 31.7255 54.3614 31.8083 54.3367L31.6736 54.3866L31.5569 54.3966Z" fill="#DC0000"/>
<path d="M40.582 6.94353C40.582 6.94353 40.582 6.85359 40.582 6.86358C38.0724 7.59 35.7039 8.8228 33.5944 10.5007C33.5135 10.5606 33.5944 10.7005 33.6932 10.6506C35.8944 9.20732 38.1985 7.96749 40.582 6.94353Z" fill="#DC0000"/>
<path d="M34.6283 12.0898C36.6936 10.6207 38.9257 9.46446 41.2656 8.65171C41.2656 8.65171 41.2656 8.56174 41.2656 8.57173C38.8104 9.05631 36.509 10.237 34.5833 11.9999C34.5787 12.0089 34.5762 12.019 34.5761 12.0294C34.576 12.0398 34.5784 12.0499 34.5829 12.059C34.5874 12.0681 34.594 12.0757 34.6019 12.0811C34.6099 12.0865 34.6189 12.0895 34.6283 12.0898Z" fill="#DC0000"/>
<path d="M33.262 12.9683C33.1902 13.0182 33.262 13.1581 33.3159 13.1281H33.3698C30.2752 15.1003 27.5151 17.6603 25.2145 20.6921C25.1337 20.802 25.2954 20.9519 25.3852 20.8519C28.2409 17.5659 31.4862 14.7286 35.0314 12.4187C37.3666 11.4195 39.6838 10.3004 42.0011 9.30122C42.0639 9.30122 42.0011 9.14134 41.9472 9.17132C38.9241 10.0394 36.0075 11.3145 33.262 12.9683Z" fill="#DC0000"/>
<path d="M22.3215 13.6885C22.1868 13.7785 22.3215 14.0183 22.4293 13.9284L26.0219 11.3798C26.1476 11.2898 26.0219 11.0399 25.9051 11.1399L22.3215 13.6885Z" fill="#DC0000"/>
<path d="M27.5796 9.44278C27.5796 9.34286 27.5796 9.23294 27.4449 9.2829L26.3402 9.86242C26.3402 9.78249 26.2773 9.70257 26.1875 9.75253C24.6008 10.6718 23.005 11.5844 21.4003 12.4903C21.2656 12.5702 21.4003 12.81 21.5171 12.7301L24.005 11.3013C24.005 11.3013 24.005 11.3512 24.0858 11.3013L26.933 9.81247L25.7294 10.5818L25.0289 11.0615L23.4481 12.0607C23.4481 12.0607 23.4481 12.1206 23.4481 12.1406L21.9841 13.1398C21.8584 13.2297 21.9841 13.4695 22.1009 13.3796L25.1007 11.3013L29.0706 8.7733C29.092 8.75238 29.1063 8.72402 29.1113 8.69283C29.1163 8.66165 29.1117 8.62948 29.0981 8.60163C29.0845 8.57377 29.0629 8.55186 29.0367 8.53948C29.0105 8.52711 28.9812 8.52501 28.9538 8.53351L27.5796 9.44278Z" fill="#DC0000"/>
<path d="M34.5362 4.68556C36.8806 4.69003 39.2091 4.25762 41.4251 3.40626C41.4969 3.40626 41.4251 3.25635 41.4251 3.28634C39.4585 3.81492 37.4538 4.14937 35.4344 4.28579C35.4344 4.22582 35.3715 4.16585 35.2997 4.18584C34.9943 4.26579 34.6889 4.30576 34.4015 4.36573L33.1351 4.46568C33.1208 4.46568 33.1071 4.472 33.097 4.48325C33.0869 4.4945 33.0812 4.50974 33.0812 4.52565C33.0812 4.54155 33.0869 4.5568 33.097 4.56804C33.1071 4.57929 33.1208 4.58561 33.1351 4.58561C31.4825 4.80549 29.8209 4.89544 28.1773 5.24525C28.0695 5.24525 28.1054 5.42516 28.1773 5.44515C30.321 5.64308 32.4791 5.38529 34.5362 4.68556Z" fill="#DC0000"/>
<path d="M43.5105 27.288C40.4058 27.8078 37.4668 29.1816 34.9601 31.2848C34.9601 31.2848 34.9601 31.3847 35.005 31.3547C37.6693 29.6183 40.5466 28.3224 43.5464 27.5078C43.5727 27.5025 43.5959 27.4858 43.6111 27.4615C43.6262 27.4371 43.632 27.4071 43.6273 27.3779C43.6225 27.3488 43.6075 27.3229 43.5856 27.306C43.5637 27.2892 43.5367 27.2827 43.5105 27.288Z" fill="#DC0000"/>
<path d="M43.4555 28.2861C40.7208 28.975 38.1056 30.1566 35.7134 31.7842C35.7005 31.7957 35.6915 31.8116 35.688 31.8295C35.6844 31.8474 35.6865 31.8662 35.6939 31.8825C35.7012 31.8989 35.7134 31.912 35.7284 31.9196C35.7434 31.9272 35.7603 31.9288 35.7763 31.9242C38.336 30.6349 40.8329 29.4455 43.4824 28.396C43.4909 28.3965 43.4994 28.3948 43.5072 28.3909C43.515 28.387 43.5218 28.3812 43.5272 28.3738C43.5325 28.3664 43.5362 28.3577 43.5379 28.3484C43.5397 28.3392 43.5394 28.3295 43.5372 28.3204C43.5349 28.3113 43.5308 28.3028 43.525 28.2958C43.5193 28.2888 43.5122 28.2834 43.5042 28.28C43.4962 28.2767 43.4877 28.2755 43.4792 28.2766C43.4707 28.2776 43.4626 28.2809 43.4555 28.2861Z" fill="#DC0000"/>
<path d="M36.1971 33.0442C36.1343 33.1041 36.1971 33.214 36.278 33.1741C38.9323 31.5602 41.6773 30.1384 44.4961 28.9175C44.4961 28.9175 44.4961 28.8176 44.4961 28.8276C41.5332 29.6944 38.7261 31.1206 36.1971 33.0442Z" fill="#DC0000"/>
<path d="M44.1291 29.7461C41.6445 30.8353 39.221 32.0899 36.872 33.5031C36.8091 33.5031 36.872 33.6729 36.872 33.6429C39.3574 32.537 41.7808 31.2657 44.1291 29.836C44.2279 29.806 44.1829 29.7161 44.1291 29.7461Z" fill="#DC0000"/>
<path d="M37.3225 34.0129C37.3093 34.0248 37.2998 34.041 37.2953 34.0592C37.2908 34.0774 37.2916 34.0968 37.2976 34.1145C37.3035 34.1322 37.3144 34.1473 37.3285 34.1578C37.3427 34.1683 37.3594 34.1735 37.3764 34.1728C39.7832 33.2695 42.0654 31.9983 44.1575 30.3958C44.2294 30.3458 44.1575 30.2159 44.0946 30.2659C41.8942 31.6748 39.55 32.694 37.3225 34.0129Z" fill="#DC0000"/>
<path d="M37.7781 34.2217C37.7604 34.2355 37.7472 34.2553 37.7406 34.2781C37.734 34.301 37.7342 34.3256 37.7414 34.3482C37.7485 34.3709 37.7621 34.3903 37.7801 34.4036C37.7981 34.4168 37.8194 34.4232 37.841 34.4216C39.9934 33.7495 42.0323 32.6893 43.8766 31.2833C43.9004 31.2687 43.918 31.2442 43.9256 31.2152C43.9332 31.1861 43.9301 31.1549 43.917 31.1284C43.9039 31.1019 43.8819 31.0823 43.8558 31.0738C43.8297 31.0654 43.8016 31.0688 43.7778 31.0834C41.8467 32.2828 39.772 33.1223 37.7781 34.2217Z" fill="#DC0000"/>
</svg>
