<svg width="55" height="38" viewBox="0 0 55 38" fill="none" xmlns="http://www.w3.org/2000/svg">
<path d="M25.3825 26.4645C24.8195 27.0725 24.2112 27.6397 23.5625 28.1614C22.3925 29.228 20.8225 30.8861 18.7325 32.8738C17.5866 33.9785 16.338 34.9782 15.0025 35.8603C13.4034 36.9512 11.507 37.5585 9.5525 37.6057C7.35737 37.4922 5.26838 36.6539 3.63252 35.2301C2.72637 34.534 1.95152 33.6908 1.34248 32.7381C0.748181 31.7341 0.348275 30.6332 0.162486 29.4898C-0.172603 27.2966 0.01211 25.0582 0.702525 22.9446C1.01566 21.9391 1.42753 20.965 1.9325 20.0357C2.4525 19.1727 2.93247 18.3679 3.46247 17.5631C4.42109 16.0281 5.50808 14.5719 6.71247 13.2094C7.33446 12.6198 8.00318 12.0783 8.71247 11.5901C9.35247 11.1246 9.97251 10.6883 10.5625 10.2811C11.7525 9.47624 12.8525 8.7684 13.8225 8.15752C14.6409 7.61943 15.4925 7.13046 16.3725 6.69336C17.0984 6.27073 17.8696 5.92608 18.6725 5.66553C18.0571 6.20769 17.3871 6.68848 16.6725 7.10061C15.8542 7.61767 15.0632 8.17431 14.3025 8.7684L11.2325 11.0956C10.6625 11.5319 10.0825 11.9876 9.48249 12.4725C8.87475 12.9525 8.30326 13.4743 7.77247 14.0336C6.6648 15.3851 5.66205 16.8144 4.77247 18.3097C4.31247 19.1145 3.83248 19.929 3.34248 20.7726C2.92746 21.6106 2.59272 22.4837 2.34248 23.381C1.7594 25.2657 1.6059 27.2509 1.89253 29.1989C2.05341 30.1521 2.39229 31.0689 2.89253 31.9042C3.39964 32.6982 4.03814 33.4059 4.78248 33.9986C6.13381 35.2181 7.86424 35.9683 9.70252 36.1318C11.3862 36.1241 13.0318 35.6461 14.4425 34.7549C15.7507 33.9646 16.9884 33.0694 18.1425 32.0787C20.3125 30.2558 22.0525 28.685 23.3625 27.7444C23.9616 27.2167 24.6435 26.7847 25.3825 26.4645Z" fill="#DC0000"/>
<path d="M19.5547 5.20021C19.5547 5.20021 19.7347 5.02567 20.1447 4.78326C20.5547 4.54085 21.1447 4.15299 21.9147 3.72634C24.1586 2.4899 26.5541 1.53213 29.0447 0.875584C32.7963 -0.123902 36.7353 -0.269912 40.5547 0.448937C42.7926 0.914107 44.9672 1.62998 47.0347 2.58216C49.3749 3.56694 51.4337 5.08752 53.0347 7.01345C53.8848 8.09323 54.3388 9.4173 54.3247 10.7757C54.2565 12.0739 53.8053 13.3259 53.0246 14.3828C51.6324 16.2389 49.7874 17.7314 47.6547 18.7268C46.6946 19.1951 45.6899 19.5718 44.6547 19.8516L41.8647 20.7243L36.8647 22.3145C33.8647 23.2841 31.3747 24.1568 29.6747 24.7483C28.815 25.1064 27.925 25.3919 27.0147 25.6016C27.7902 25.0907 28.6179 24.6585 29.4847 24.312C31.1147 23.5556 33.4847 22.5181 36.4847 21.403C37.9847 20.8309 39.6347 20.2201 41.4147 19.5801L44.1847 18.6104C45.1374 18.316 46.0611 17.9396 46.9447 17.4856C48.8163 16.5524 50.431 15.1994 51.6546 13.5392C52.2563 12.731 52.6037 11.7712 52.6546 10.7757C52.6553 9.76512 52.3028 8.78415 51.6546 7.99279C50.2257 6.29195 48.4076 4.9374 46.3447 4.03663C44.4003 3.11616 42.3583 2.40411 40.2547 1.91311C38.3494 1.47381 36.3919 1.28466 34.4347 1.35071C32.717 1.39867 31.0071 1.59335 29.3247 1.9325C26.8688 2.45565 24.4758 3.22584 22.1847 4.23056C21.3547 4.56994 20.7547 4.88022 20.2847 5.04506C19.8147 5.2099 19.5547 5.239 19.5547 5.20021Z" fill="#DC0000"/>
<path d="M8.07431 33.834C8.19431 33.834 8.5343 34.5806 9.3743 35.1527C10.2143 35.7247 10.9543 36.2871 10.8943 36.3744C10.2069 36.2895 9.55834 36.0172 9.02426 35.589C8.61917 35.2974 8.30724 34.9008 8.12429 34.4449C8.00429 34.0764 8.03431 33.8437 8.07431 33.834Z" fill="#DC0000"/>
<path d="M5.76194 32.1369C5.82194 32.1369 5.76194 32.4568 5.76194 32.8932C5.79748 33.4644 6.01008 34.0119 6.37193 34.464C6.94874 35.1149 7.57372 35.7242 8.24191 36.287C7.2918 36.1084 6.45369 35.5713 5.91191 34.7937C5.69154 34.523 5.53157 34.2108 5.44206 33.877C5.35255 33.5432 5.3355 33.195 5.39195 32.8544C5.48195 32.3502 5.73194 32.1175 5.76194 32.1369Z" fill="#DC0000"/>
<path d="M5.01221 29.4896C5.01221 29.5477 4.78221 29.7805 4.5122 30.2265C4.20051 30.8267 4.05248 31.4944 4.08221 32.1658C4.08221 32.9803 4.17217 33.7463 4.17217 34.3087C4.2023 34.616 4.16832 34.9259 4.0722 35.2202C3.94239 34.9437 3.85803 34.6492 3.8222 34.3475C3.63996 33.6296 3.53605 32.8951 3.5122 32.1561C3.47114 31.3773 3.71947 30.6101 4.21215 29.9938C4.63216 29.5768 5.00221 29.4605 5.01221 29.4896Z" fill="#DC0000"/>
<path d="M5.79529 26.7069C5.79529 26.7844 5.43528 26.8523 4.97528 27.1335C4.38934 27.5259 3.91202 28.052 3.58533 28.6656C2.75533 30.1103 2.38527 31.4872 2.27527 31.4581C2.19991 31.139 2.19991 30.8076 2.27527 30.4885C2.39989 29.7403 2.65702 29.0185 3.03528 28.3553C3.41077 27.6537 4.02074 27.0965 4.76532 26.7747C5.0882 26.6295 5.4551 26.6053 5.79529 26.7069Z" fill="#DC0000"/>
<path d="M5.92988 24.2729C6.00988 24.4087 4.59988 25.0293 3.42988 26.2704C2.80376 27.1204 2.23907 28.0114 1.73988 28.937C1.71718 28.6078 1.76486 28.2777 1.87989 27.9673C2.09085 27.2011 2.47323 26.4893 2.99989 25.8826C3.55845 25.2962 4.24054 24.8333 4.99989 24.5251C5.28844 24.3792 5.60518 24.2934 5.92988 24.2729Z" fill="#DC0000"/>
<path d="M6.8941 20.2006C5.78047 20.5953 4.7915 21.2635 4.02405 22.1399C3.42405 22.8768 2.96406 23.6429 2.59406 24.1762C2.22406 24.7095 1.95406 25.0295 1.91406 25.0004C1.98514 24.6606 2.10994 24.3335 2.28406 24.0307C2.61802 23.2399 3.05495 22.4936 3.58411 21.8102C4.13912 21.1045 4.90859 20.5856 5.78406 20.3266C6.13754 20.196 6.51905 20.1527 6.8941 20.2006Z" fill="#DC0000"/>
<path d="M10.3627 16.2737C9.0065 16.6332 7.70028 17.1509 6.47266 17.8154C5.38563 18.6969 4.38167 19.6704 3.47266 20.7244C3.59952 20.3254 3.792 19.9488 4.04266 19.6093C4.59273 18.741 5.32118 17.9918 6.18268 17.4082C7.06085 16.8441 8.05896 16.4795 9.10266 16.3416C9.51489 16.2447 9.94191 16.2217 10.3627 16.2737Z" fill="#DC0000"/>
<path d="M13.1341 13.7527C11.7145 13.8657 10.3066 14.0895 8.92407 14.4217C7.972 14.6854 7.08671 15.1378 6.3241 15.7501C5.7441 16.2253 5.46406 16.6228 5.41406 16.5937C5.53116 16.1787 5.7588 15.8008 6.0741 15.498C6.80033 14.7357 7.72673 14.1793 8.75409 13.8884C9.76011 13.5886 10.8136 13.4671 11.8641 13.5296C12.2985 13.5217 12.7302 13.5975 13.1341 13.7527Z" fill="#DC0000"/>
<path d="M15.0234 12.0072C15.0234 12.1624 13.5034 11.8812 11.7834 12.1333C10.9134 12.2788 10.1234 12.5115 9.52344 12.6278C9.20084 12.7282 8.86138 12.7677 8.52344 12.7442C8.78918 12.5491 9.08659 12.3984 9.40344 12.2981C10.1251 11.976 10.8838 11.7384 11.6635 11.5903C12.4653 11.4641 13.2852 11.4971 14.0735 11.6873C14.4096 11.7291 14.733 11.838 15.0234 12.0072Z" fill="#DC0000"/>
<path d="M18.5506 10.9989C17.5109 10.8726 16.4839 10.6618 15.4806 10.3686C13.8206 10.0196 12.4106 10.0681 12.3906 9.9614C13.4194 9.60756 14.5338 9.56028 15.5906 9.82565C16.6513 10.0107 17.6599 10.4105 18.5506 10.9989Z" fill="#DC0000"/>
<path d="M20.8706 8.68116C20.8706 8.77813 19.2606 8.53571 17.2806 8.73935C16.0751 8.9284 14.8461 8.9284 13.6406 8.73935C13.9624 8.62435 14.2988 8.55257 14.6406 8.52601C15.2906 8.41935 16.1806 8.27389 17.1906 8.19631C18.0624 8.11729 18.9413 8.15975 19.8006 8.32238C20.1815 8.35825 20.5482 8.48121 20.8706 8.68116Z" fill="#DC0000"/>
<path d="M24.5513 7.25583C24.183 7.18609 23.8216 7.08552 23.4713 6.95524C22.6198 6.77654 21.7415 6.75352 20.8813 6.88737C19.9689 7.03505 19.0394 7.05464 18.1213 6.94554C17.7319 6.91291 17.3571 6.78623 17.0312 6.57708C17.4043 6.55761 17.7782 6.55761 18.1512 6.57708C19.0424 6.53471 19.9305 6.44407 20.8113 6.30558C21.7474 6.16384 22.7054 6.26075 23.5912 6.58678C23.967 6.72283 24.2985 6.95382 24.5513 7.25583Z" fill="#DC0000"/>
<path d="M27.155 5.60757C27.095 5.72393 25.675 5.11303 23.815 4.93849C22.6639 4.90034 21.5156 4.80324 20.375 4.64759C20.6933 4.52144 21.0315 4.44928 21.375 4.43426C22.2023 4.34288 23.0377 4.34288 23.865 4.43426C25.0606 4.48506 26.2103 4.89509 27.155 5.60757Z" fill="#DC0000"/>
<path d="M30.6797 5.46176C30.6097 5.56843 29.3397 4.87996 27.6197 4.55027C25.8997 4.22058 24.4397 4.20119 24.4297 4.09452C25.5053 3.77976 26.6481 3.74963 27.7397 4.00725C28.8573 4.16758 29.8899 4.67847 30.6797 5.46176Z" fill="#DC0000"/>
<path d="M34.602 4.42434C34.542 4.5407 32.722 3.60984 30.302 3.04745C27.882 2.48505 25.8221 2.32991 25.8321 2.21355C26.2752 2.12038 26.7301 2.09098 27.182 2.12628C28.2771 2.13473 29.3676 2.26486 30.432 2.51414C31.5013 2.7624 32.5307 3.15059 33.492 3.66802C33.9076 3.85045 34.2842 4.10701 34.602 4.42434Z" fill="#DC0000"/>
<path d="M38.3753 5.11282C38.3153 5.11282 38.0653 4.80254 37.5453 4.40498C36.8396 3.9025 36.0612 3.50387 35.2353 3.22199C34.2353 2.87292 33.3453 2.58202 32.6953 2.32991C32.3353 2.21712 31.9973 2.04669 31.6953 1.82568C32.0745 1.8399 32.4506 1.8985 32.8153 2.00022C33.7121 2.17266 34.5945 2.40926 35.4553 2.70808C36.3456 3.00353 37.1533 3.4947 37.8153 4.14317C38.0955 4.40649 38.2902 4.74355 38.3753 5.11282Z" fill="#DC0000"/>
<path d="M40.2923 4.78326C39.623 4.09131 38.8825 3.46751 38.0824 2.92156C37.4024 2.53371 36.7023 2.24281 36.2123 1.95192C35.7223 1.66103 35.4223 1.53498 35.4423 1.48649C35.7459 1.47949 36.048 1.52886 36.3324 1.63194C37.0319 1.79781 37.7048 2.05553 38.3324 2.39796C38.9829 2.76394 39.5266 3.2845 39.9123 3.91059C40.2423 4.43419 40.3323 4.76387 40.2923 4.78326Z" fill="#DC0000"/>
<path d="M44.9917 5.84973C44.9317 5.84973 44.7017 5.57823 44.2517 5.18067C43.6596 4.66769 43.0165 4.21297 42.3317 3.82318C41.3482 3.27137 40.3217 2.7948 39.2617 2.3978C40.462 2.3482 41.6448 2.68955 42.6217 3.36744C43.3541 3.77883 43.9989 4.32182 44.5217 4.96735C44.9217 5.45217 45.0317 5.84003 44.9917 5.84973Z" fill="#DC0000"/>
<path d="M47.5514 7.40149C46.9804 6.40346 46.3106 5.4617 45.5514 4.5895C44.2314 3.232 42.9014 2.31083 42.9714 2.21387C43.3302 2.29655 43.6696 2.44462 43.9714 2.65021C44.708 3.08401 45.3808 3.61241 45.9714 4.22104C46.5741 4.83902 47.0433 5.56761 47.3514 6.36397C47.5039 6.68896 47.5725 7.04504 47.5514 7.40149Z" fill="#DC0000"/>
<path d="M49.4613 10.0002C49.2556 8.92493 48.92 7.87694 48.4613 6.8779C47.949 5.90333 47.2995 5.00262 46.5312 4.20166C46.5313 4.20166 46.9413 4.29862 47.4413 4.69618C48.0804 5.23687 48.601 5.8966 48.9721 6.63618C49.3431 7.37576 49.5571 8.1801 49.6013 9.00144C49.6523 9.3405 49.6038 9.68664 49.4613 10.0002Z" fill="#DC0000"/>
<path d="M50.2731 11.5611C50.5662 10.6194 50.6581 9.62953 50.5432 8.65216C50.4339 7.9827 50.1556 7.3498 49.7332 6.80982C49.3932 6.40257 49.0932 6.21834 49.1232 6.16016C49.4482 6.20051 49.7505 6.34365 49.9832 6.56741C50.5774 7.06813 50.9734 7.75379 51.1032 8.50671C51.2439 9.2628 51.15 10.0424 50.8332 10.7466C50.5532 11.3478 50.3031 11.5902 50.2731 11.5611Z" fill="#DC0000"/>
<path d="M49.7422 13.9272C50.4554 12.9799 51.0245 11.9382 51.4322 10.834C51.7042 10.0894 51.746 9.28385 51.5522 8.51653C51.3522 7.93474 51.0622 7.62445 51.1122 7.54688C51.4552 7.7232 51.7266 8.00685 51.8822 8.35169C52.0722 8.71738 52.1844 9.11638 52.2122 9.52497C52.2291 10.0222 52.1684 10.5191 52.0322 10.9988C51.7673 11.8483 51.3055 12.6277 50.6822 13.2775C50.4331 13.5703 50.1089 13.7944 49.7422 13.9272Z" fill="#DC0000"/>
<path d="M46.6217 16.5256C46.6217 16.448 47.1517 16.6032 47.9417 16.5256C48.4 16.4835 48.8487 16.3723 49.2716 16.1959C49.7768 15.9597 50.2476 15.6598 50.6717 15.3039C51.7275 14.2829 52.5428 13.0523 53.0617 11.6968C53.0875 12.1426 53.0159 12.5887 52.8517 13.0058C52.5037 14.0436 51.8834 14.9759 51.0517 15.7111C50.5873 16.1259 50.0484 16.4546 49.4616 16.6807C48.9762 16.8558 48.4588 16.9317 47.9417 16.9038C47.5982 16.8966 47.2591 16.8276 46.9417 16.7001C46.7317 16.6032 46.6117 16.545 46.6217 16.5256Z" fill="#DC0000"/>
<path d="M12.4534 26.9396C12.5134 27.1141 12.1434 27.405 11.8634 27.9092C11.7112 28.1414 11.6282 28.4099 11.6234 28.685C11.6298 28.8004 11.6607 28.9133 11.714 29.0168C11.7673 29.1202 11.842 29.2119 11.9334 29.2861C12.5565 29.7037 13.2555 30.0031 13.9934 30.1685C14.7034 30.4012 15.1134 30.7115 15.0734 30.8376C15.0334 30.9636 14.5934 31.0606 13.8934 31.1769C13.4487 31.2333 12.9982 31.2333 12.5534 31.1769C11.8994 31.1246 11.2812 30.8657 10.7934 30.44C10.5017 30.1898 10.2867 29.8665 10.1721 29.5056C10.0574 29.1446 10.0475 28.7601 10.1434 28.3941C10.2968 27.8597 10.6544 27.402 11.1434 27.1141C11.8834 26.6972 12.4334 26.8426 12.4534 26.9396Z" fill="#DC0000"/>
<path d="M44.0316 14.5768C44.0316 14.5768 44.0316 14.412 44.2116 14.1308C44.4161 13.7364 44.5448 13.3093 44.5916 12.8702C44.65 12.1886 44.4351 11.5113 43.9916 10.9794C43.3873 10.266 42.6429 9.676 41.8016 9.24375C40.7974 8.67573 39.7219 8.23575 38.6016 7.93473C37.314 7.62651 35.9836 7.52173 34.6616 7.62444C33.1821 7.76096 31.717 8.01719 30.2816 8.39046C28.7516 8.81711 27.0915 8.97225 25.5215 9.36011C22.3915 10.097 19.7916 11.9975 17.3816 13.452C15.3074 14.8464 13.4717 16.5478 11.9416 18.4942C10.9148 19.8205 10.0049 21.2282 9.22156 22.7024C8.66156 23.7497 8.39156 24.3508 8.35156 24.3315C8.37316 24.1733 8.42042 24.0195 8.49158 23.8757C8.59158 23.5751 8.76159 23.1485 9.00159 22.6055C9.6948 21.0608 10.5492 19.589 11.5516 18.213C13.0384 16.151 14.8743 14.3479 16.9816 12.8799C18.1916 12.0751 19.4316 11.28 20.8016 10.4752C22.2087 9.60339 23.7471 8.94913 25.3616 8.5359C27.0216 8.15774 28.6216 8.01229 30.1216 7.56626C31.6025 7.19215 33.1154 6.94875 34.6416 6.83902C36.0464 6.75421 37.456 6.89843 38.8116 7.26567C39.9754 7.60963 41.0856 8.10547 42.1116 8.73954C42.9916 9.22469 43.7551 9.88574 44.3516 10.6788C44.5821 10.984 44.7478 11.3307 44.8387 11.6986C44.9297 12.0665 44.9443 12.4483 44.8816 12.8217C44.8035 13.2838 44.6226 13.7238 44.3516 14.1114C44.2654 14.2789 44.1579 14.4352 44.0316 14.5768Z" fill="#DC0000"/>
<path d="M39.1229 14.2759C39.1229 14.208 39.2829 14.1789 39.4429 14.208C39.5622 14.2296 39.6748 14.2776 39.7719 14.3482C39.8691 14.4188 39.9481 14.5102 40.0029 14.6153C40.101 14.7836 40.159 14.9711 40.1729 15.164C40.1867 15.357 40.156 15.5504 40.0829 15.7304C39.9799 15.9951 39.8166 16.2338 39.6053 16.4289C39.3939 16.6239 39.1398 16.7702 38.8621 16.8569C38.5843 16.9436 38.29 16.9684 38.001 16.9295C37.712 16.8905 37.4358 16.7889 37.1929 16.6322C36.7629 16.254 36.7829 15.8952 36.8729 15.8176C36.9629 15.7401 37.2829 15.7595 37.5729 15.6916C37.8648 15.5985 38.141 15.4646 38.3929 15.294L38.7329 15.0807C38.8129 15.0225 38.9229 15.0031 38.9729 14.9062C39.0229 14.8092 39.0229 14.3825 39.1229 14.2759Z" fill="#DC0000"/>
<path d="M26.5518 14.4024C26.3718 14.4024 26.1619 14.0436 25.8919 14.0824C25.7486 14.1205 25.6108 14.1759 25.4818 14.2473C25.2378 14.3476 25.0063 14.4745 24.7918 14.6254C24.5821 14.7563 24.3905 14.9128 24.2218 15.0909C24.0941 15.2127 23.9982 15.3623 23.9418 15.5272C23.8518 15.8666 23.9918 16.2545 23.8618 16.3514C23.7318 16.4484 23.7018 16.3514 23.5318 16.3514C23.4227 16.3095 23.3214 16.2505 23.2318 16.1769C23.1171 16.0601 23.0133 15.9335 22.9218 15.7987C22.8316 15.5899 22.7852 15.3658 22.7852 15.1394C22.7852 14.913 22.8316 14.6888 22.9218 14.48C23.1046 14.005 23.437 13.5979 23.8718 13.3164C24.2798 13.0342 24.7616 12.8695 25.2618 12.8413C25.5055 12.8116 25.7529 12.8364 25.9851 12.9137C26.2174 12.991 26.4283 13.1188 26.6018 13.2873C26.7375 13.4209 26.8221 13.5953 26.8418 13.7818C26.8793 13.9053 26.8793 14.0366 26.8418 14.16C26.7218 14.3345 26.6418 14.4024 26.5518 14.4024Z" fill="#DC0000"/>
<path d="M15.2933 20.3461C15.2695 20.4041 15.2336 20.4568 15.1879 20.5009C15.1422 20.5449 15.0876 20.5794 15.0276 20.6021C14.9676 20.6248 14.9034 20.6354 14.839 20.633C14.7746 20.6307 14.7114 20.6155 14.6533 20.5885C14.5131 20.5204 14.3946 20.4169 14.3101 20.2889C14.2256 20.1609 14.1783 20.0131 14.1733 19.8612C14.1471 19.5973 14.218 19.3328 14.3733 19.1146C14.4468 19.0047 14.5425 18.9103 14.6546 18.8373C14.7667 18.7642 14.8929 18.7139 15.0256 18.6894C15.1583 18.665 15.2948 18.6668 15.4267 18.6949C15.5587 18.723 15.6834 18.7767 15.7933 18.8528C15.8725 19.0337 15.9134 19.2283 15.9134 19.4249C15.9134 19.6215 15.8725 19.816 15.7933 19.997C15.7933 19.997 15.7933 19.997 15.7433 19.997C15.6832 19.9689 15.6192 19.9493 15.5533 19.9388H15.4033C15.2333 19.9388 15.2933 19.9388 15.4033 19.8709C15.5133 19.803 15.4033 19.8709 15.4033 19.8709C15.3974 19.8932 15.3974 19.9165 15.4033 19.9388C15.3933 19.9868 15.3933 20.0363 15.4033 20.0843C15.38 20.1763 15.343 20.2645 15.2933 20.3461Z" fill="#DC0000"/>
<path d="M7.67206 29.0534C7.63106 29.1712 7.54816 29.271 7.43823 29.335C7.32831 29.3989 7.19855 29.4229 7.07208 29.4025C6.94995 29.3814 6.83187 29.3421 6.72205 29.2862C6.57087 29.1806 6.45315 29.0362 6.38208 28.8692C6.31552 28.7157 6.28125 28.5509 6.28125 28.3844C6.28125 28.2179 6.31552 28.0531 6.38208 27.8996C6.45412 27.7366 6.56519 27.5927 6.70605 27.4797C6.84692 27.3668 7.01353 27.288 7.19208 27.2499C7.39156 27.1752 7.6126 27.1752 7.81207 27.2499C8.07207 27.376 8.05205 28.2196 7.91205 28.5298C7.84205 28.5298 7.83204 28.5298 7.78204 28.5298C7.68982 28.5101 7.5943 28.5101 7.50208 28.5298C7.50208 28.5298 7.50207 28.5298 7.56207 28.5298C7.62207 28.5298 7.67208 28.4135 7.63208 28.4523C7.59208 28.491 7.63208 28.4523 7.63208 28.5104C7.60208 28.685 7.72206 28.8789 7.67206 29.0534Z" fill="#DC0000"/>
</svg>
