<svg width="51" height="44" viewBox="0 0 51 44" fill="none" xmlns="http://www.w3.org/2000/svg">
<path d="M50.2837 11.0868C50.3174 11.1368 50.338 11.1962 50.3434 11.2585C50.4772 11.3506 50.6238 11.4924 50.592 11.6767C50.5856 11.7547 50.541 11.7547 50.5027 11.7547C50.4855 11.9544 50.4358 12.149 50.3562 12.329C50.0439 13.1018 49.2792 13.8249 48.9159 14.5977C48.5886 15.334 48.3013 16.0916 48.0556 16.8663C46.8831 20.3332 45.2517 22.8074 43.0212 25.5653C40.9682 28.2501 38.6678 30.6881 36.1578 32.8392C33.4431 35.0441 30.3587 36.5542 27.3253 38.1139C22.2208 40.7229 16.3579 44.8703 10.5014 43.5587C8.22444 43.0802 6.10496 41.9295 4.36494 40.227C2.62491 38.5244 1.32836 36.3327 0.611052 33.8814C-0.0150974 31.6362 -0.162562 29.2596 0.18034 26.9399C0.523243 24.6203 1.34709 22.4214 2.58659 20.5175C2.58277 20.49 2.58418 20.4619 2.59077 20.435C2.59736 20.4081 2.60897 20.3831 2.62482 20.3615C5.17389 16.76 7.77394 13.279 11.2407 10.7197C14.6469 8.2857 18.1863 6.09073 21.8384 4.14758C25.4326 2.16958 29.3964 0.248304 33.4686 0.113602C35.2912 0.0497952 37.05 0.588604 38.8407 0.865098C40.7315 1.1084 42.6352 1.20316 44.5379 1.14868C44.8056 1.14868 44.7801 1.60242 44.5379 1.65204C43.4403 1.85029 42.3257 1.9055 41.2167 1.81657C41.2639 1.82437 41.2942 1.86228 41.2942 1.90018H43.3653C43.4546 1.90018 43.4546 2.07742 43.3653 2.07742H41.8295C41.8402 2.0874 41.8489 2.09988 41.8548 2.11396C41.8607 2.12805 41.8637 2.1434 41.8637 2.15895C41.8637 2.1745 41.8607 2.18985 41.8548 2.20394C41.8489 2.21803 41.8402 2.2305 41.8295 2.24048C41.8378 2.25276 41.8423 2.26768 41.8423 2.28302C41.8423 2.29836 41.8378 2.31328 41.8295 2.32556C41.9315 2.29011 42.1482 2.20503 42.1482 2.19794V2.24048L41.6702 2.46735C41.7148 2.5028 41.7403 2.60914 41.6702 2.60914L40.7143 3.06997C40.4843 3.18752 40.2481 3.28932 40.007 3.37482L38.3118 4.2043C38.2994 4.21115 38.2858 4.21493 38.272 4.21536C38.2581 4.21579 38.2444 4.21287 38.2317 4.2068C38.2189 4.20073 38.2075 4.19166 38.1983 4.18021C38.189 4.16876 38.1821 4.15521 38.178 4.1405C36.7505 5.03379 35.2975 5.89872 33.8191 6.67149L32.3597 7.7562L32.7357 7.52224C32.7867 7.48679 32.8377 7.61441 32.7867 7.61441C31.7791 8.43222 30.7302 9.18495 29.645 9.8689C30.0911 9.64912 30.5435 9.44352 30.9832 9.22374C31.0342 9.1883 31.1043 9.31591 31.0342 9.35845L28.7464 10.826C29.4602 10.4148 30.1739 9.99651 30.9004 9.62076C30.9149 9.61673 30.9303 9.61854 30.9438 9.62585C30.9572 9.63317 30.9679 9.64552 30.974 9.66076C30.9801 9.676 30.9812 9.69314 30.977 9.70916C30.9729 9.72518 30.9638 9.73907 30.9514 9.74837C26.6252 12.1985 22.4805 15.0267 18.5565 18.2063C18.5498 18.2119 18.5413 18.2143 18.5329 18.213C18.5245 18.2117 18.517 18.2067 18.5119 18.1992C18.5068 18.1917 18.5047 18.1822 18.5059 18.1729C18.507 18.1636 18.5115 18.1552 18.5183 18.1496C20.3078 16.5798 22.1712 15.1172 24.1007 13.7682C23.1257 14.3779 22.1571 15.0018 21.1757 15.5902C21.1311 15.6257 21.0737 15.5193 21.1311 15.4768C23.1576 14.1227 25.2223 12.8465 27.2807 11.5491C28.2345 10.9523 29.177 10.2624 30.1606 9.7232C29.4497 10.106 28.5879 10.5875 27.816 10.9749C27.8072 10.9791 27.7978 10.9813 27.7882 10.9814C27.7787 10.9815 27.7692 10.9796 27.7603 10.9756C27.7514 10.9717 27.7433 10.9658 27.7365 10.9584C27.7297 10.951 27.7242 10.9421 27.7204 10.9323C27.7166 10.9226 27.7147 10.9121 27.7145 10.9014C27.7144 10.8908 27.7162 10.8802 27.7197 10.8704C27.7233 10.8605 27.7286 10.8515 27.7352 10.8439C27.7419 10.8363 27.7499 10.8302 27.7587 10.826C28.8611 10.195 29.8999 9.40808 30.945 8.69911L30.6455 8.87636C30.3077 9.08904 29.97 9.34427 29.6259 9.5286L28.3131 10.4148C28.2239 10.4715 28.141 10.3085 28.2239 10.2517L28.5807 10.0036C28.192 10.2163 27.8224 10.4715 27.4273 10.6629C25.0248 12.251 22.5522 13.7398 20.1051 15.2641C23.2022 13.2365 26.2674 11.1521 29.4538 9.27337V9.31591C29.3917 9.35865 29.3286 9.40064 29.265 9.44221C29.8053 9.09834 30.3472 8.76757 30.8367 8.4368C31.5185 7.97597 32.2578 7.51515 32.895 7.08269C33.5323 6.65022 34.1696 6.23193 34.8068 5.78529C34.8642 5.74984 34.9088 5.82073 34.8642 5.86327C34.5583 6.09723 34.2269 6.29573 33.921 6.52969C35.1526 5.72697 36.4328 5.03232 37.7083 4.34025L37.802 4.28938H37.7383L37.3432 4.4808C37.3213 4.48684 37.2983 4.48414 37.2781 4.47317C37.2579 4.4622 37.2418 4.44365 37.2327 4.4208C37.2236 4.39795 37.222 4.37224 37.2282 4.34821C37.2344 4.32417 37.248 4.30334 37.2667 4.28938C37.3941 4.21848 37.5853 4.15467 37.6618 4.09796C37.7383 4.04124 37.8593 4.0058 37.9231 3.96326C38.1577 3.80982 38.4027 3.67707 38.6559 3.56624V3.48825C38.9426 3.30398 39.2357 3.15514 39.5287 3.00631L39.529 3.00616H39.5991C39.6375 2.98068 39.6781 2.95931 39.7202 2.94235C39.6247 2.9494 39.5289 2.9494 39.4334 2.94235C39.4079 2.93345 39.3848 2.91784 39.366 2.89686C39.3471 2.87588 39.3331 2.85014 39.3251 2.82183C37.8848 3.63714 36.3809 4.38864 34.8642 5.05506C34.5392 5.35991 34.2269 5.65058 33.9019 5.95544C35.5716 5.01252 37.2603 4.11923 38.9554 3.24012C37.2093 4.23266 35.4441 5.21811 33.6661 6.14685C32.7091 7.05002 31.6787 7.85224 30.5881 8.54314C30.5562 8.56441 30.5563 8.47933 30.5563 8.47933C31.8818 7.345 33.2583 6.28865 34.5902 5.15431C34.3225 5.26775 34.0612 5.40245 33.7999 5.50879C32.0301 7.04984 30.1357 8.40502 28.141 9.55696C28.1091 9.57823 28.0773 9.50024 28.1092 9.50024C30.3715 7.86254 32.6465 6.26738 34.8642 4.53751V4.57296C34.5902 4.79983 34.3034 5.04088 34.0166 5.28193C35.7328 4.33435 37.4943 3.4918 39.2932 2.75802C39.2871 2.74129 39.284 2.72337 39.2842 2.7053C39.2844 2.68724 39.2879 2.66941 39.2945 2.65287C39.301 2.63634 39.3105 2.62143 39.3223 2.60905C39.3341 2.59666 39.3481 2.58705 39.3633 2.58078C39.5826 2.49589 39.806 2.42488 40.0324 2.3681C39.6883 2.33265 39.3824 2.33265 39.051 2.33265H39.0128C37.2157 2.5028 35.425 2.68713 33.6088 2.91399C33.5387 2.92108 33.5004 2.77929 33.5705 2.77929C35.2531 2.15935 37.0176 1.85974 38.7898 1.89309H39.6246L41.0967 1.79383C38.7834 1.61659 36.5211 1.06361 34.1441 0.907634C30.1357 0.645319 25.9297 2.60205 22.3801 4.48789C18.656 6.4738 15.0653 8.75547 11.6358 11.3152C8.48767 13.6618 6.00871 16.682 3.61896 19.9007V19.9858C0.585562 25.4519 0.0120191 32.9243 3.83563 38.121C5.68646 40.6033 8.32372 42.1997 11.2024 42.5803C14.6947 43.0624 17.9129 41.6232 21.0227 40.0281C27.4145 36.7598 33.9784 33.8885 39.1658 28.4437C41.5619 25.8985 44.2958 23.1477 46.1757 20.0496C46.9399 18.6517 47.5904 17.1807 48.1194 15.654C48.3233 15.1507 49.8336 12.5559 49.9993 11.7476C48.6356 11.9249 47.2782 12.1518 45.9272 12.4566C45.9177 12.4832 45.9071 12.5092 45.8953 12.5346C45.8379 12.6338 45.7423 12.6055 45.6659 12.5346C44.2129 13.1585 42.658 13.4421 41.205 13.988C40.7844 14.1439 40.3765 14.3212 39.9687 14.4984C39.9623 14.5409 39.9623 14.6118 39.9241 14.6118L39.4079 14.8529C36.0177 16.6395 32.6274 17.866 29.5175 20.3048C27.5037 21.8787 25.5027 23.4951 23.4443 24.9981V25.0336C23.4461 25.0466 23.4456 25.0599 23.4427 25.0727C23.4398 25.0856 23.4347 25.0976 23.4275 25.1082C23.4204 25.1187 23.4115 25.1276 23.4012 25.1343C23.391 25.1409 23.3796 25.1453 23.3679 25.147C23.3296 25.1541 23.3042 25.1115 23.2723 25.1115C22.6733 25.544 22.1252 26.019 21.4879 26.416C19.1555 27.9332 16.6574 28.6351 14.1657 29.5213C13.0951 30.0412 12.0054 30.5138 10.8965 30.9392L10.8816 30.9477C9.9855 31.4568 8.8652 32.0932 7.99698 31.8112C7.9746 31.8301 7.94829 31.8423 7.92051 31.8467C7.88376 31.8741 7.8405 31.8888 7.79624 31.8888C7.75199 31.8888 7.70872 31.8741 7.67197 31.8467L7.55727 31.9459C7.4808 32.0026 7.37883 31.9034 7.43618 31.8183L7.4808 31.7616C7.34055 31.709 7.22113 31.6037 7.14305 31.4638C7.11894 31.424 7.10606 31.3771 7.10606 31.3291C7.10606 31.2811 7.11894 31.2342 7.14305 31.1944C8.59602 27.834 11.5593 25.1966 14.153 22.9421C17.3776 20.1417 20.7232 17.5328 24.1199 15.0089C27.6588 12.3952 31.2275 9.84999 34.826 7.37336C37.9868 5.18976 41.6001 4.21139 44.5761 1.70167C44.6972 1.60242 44.8183 1.85056 44.7737 1.91436C44.7291 1.97817 44.6208 2.0916 44.6208 2.0916C44.5497 2.25853 44.455 2.41172 44.3404 2.54534C44.3464 2.56849 44.3464 2.59307 44.3404 2.61623C44.0918 3.06997 43.8497 3.53079 43.5947 3.97743H43.5502L43.4227 4.19721V4.26102C43.6394 4.30356 43.8497 4.31064 44.06 4.37445C44.9075 4.62968 46.0992 5.11886 46.5708 5.99797C46.6027 6.02633 46.5326 6.07596 46.5708 6.06887C46.609 6.06178 46.6664 6.06178 46.6664 6.1185C47.0633 7.5959 47.0254 9.17578 46.5581 10.6275C46.8591 10.5636 47.1635 10.521 47.4693 10.4999H47.9664C47.9833 10.4964 48.0005 10.4964 48.0174 10.4999C48.7494 10.5089 49.4734 10.67 50.1522 10.9749C50.2045 10.998 50.2499 11.0368 50.2837 11.0868Z" fill="#DC0000"/>
<path d="M10.9544 21.5457C13.0572 19.8862 15.2352 18.3481 17.48 16.9375C15.202 18.2877 13.0014 19.7936 10.8907 21.4465C10.8832 21.4573 10.8791 21.4706 10.8789 21.4842C10.8787 21.4978 10.8825 21.5112 10.8896 21.5223C10.8967 21.5334 10.9069 21.5417 10.9185 21.5459C10.9302 21.5501 10.9428 21.5501 10.9544 21.5457Z" fill="#DC0000"/>
<path d="M19.456 15.6816L19.9977 15.3271C19.1501 15.8518 18.3153 16.3977 17.4805 16.9365C18.1432 16.5395 18.806 16.107 19.456 15.6816Z" fill="#DC0000"/>
<path d="M18.9283 20.7942C17.7182 21.9009 16.5888 23.1126 15.5508 24.4179C15.5508 24.4179 15.5508 24.4747 15.5826 24.4179C16.7361 23.2408 17.8194 21.9785 18.9474 20.7871C18.9601 20.7942 18.9474 20.7942 18.9283 20.7942Z" fill="#DC0000"/>
<path d="M19.2344 21.3041C18.0432 22.348 16.9169 23.4805 15.8633 24.6939C15.8633 24.7293 15.8633 24.779 15.9206 24.7506C17.1111 23.6955 18.2353 22.5511 19.2854 21.3254C19.2854 21.3254 19.2472 21.2899 19.2344 21.3041Z" fill="#DC0000"/>
<path d="M16.8555 24.2328C16.8555 24.2683 16.8555 24.325 16.8937 24.3037C17.9637 23.5891 18.9004 22.6527 19.6531 21.5451C19.6531 21.5451 19.6531 21.4884 19.6212 21.5097C18.729 22.4528 17.7731 23.2896 16.8555 24.2328Z" fill="#DC0000"/>
<path d="M39.6709 6.35938C39.6709 6.35938 39.6263 6.35937 39.639 6.40904C39.649 6.43947 39.6652 6.46685 39.6865 6.48896C39.7078 6.51106 39.7334 6.52727 39.7614 6.53626C39.7893 6.54525 39.8188 6.54676 39.8473 6.54069C39.8759 6.53461 39.9028 6.5211 39.9258 6.50128L40.0915 6.54385L40.3336 6.6148C40.5439 6.67866 40.7479 6.74962 40.9709 6.82766C41.3533 6.97666 41.7165 7.17533 42.0861 7.35981C42.1371 7.35981 42.1817 7.29595 42.1371 7.26756C41.3787 6.78209 40.5397 6.47312 39.6709 6.35938Z" fill="#DC0000"/>
<path d="M26.8573 15.0081C26.8063 15.0507 26.8254 15.1713 26.8892 15.1287C26.9274 15.0649 26.9593 15.0578 26.9911 15.1287L27.0995 15.2352L27.2652 15.3984C27.3704 15.5136 27.4881 15.6137 27.6157 15.6964C27.6157 15.6964 27.6603 15.6964 27.6475 15.6538C27.5081 15.4783 27.3472 15.3254 27.1696 15.1997C27.1186 15.1216 26.9465 14.9372 26.8573 15.0081Z" fill="#DC0000"/>
<path d="M21.4527 28.2247C19.858 28.7935 18.237 29.2668 16.5967 29.6426C13.9033 30.3591 11.2585 31.2854 8.68188 32.4147C8.61178 32.4501 8.68188 32.5706 8.73286 32.5423C11.9703 31.279 15.2627 30.1976 18.5978 29.3023C21.2376 28.5854 23.721 27.286 25.9009 25.481C25.971 25.4243 25.9008 25.3038 25.8116 25.3605C24.4895 26.5427 23.0216 27.5073 21.4527 28.2247Z" fill="#DC0000"/>
<path d="M25.9683 25.2743C30.4292 22.7504 34.8391 20.1627 39.2172 17.5324C39.3446 17.4615 39.2618 17.2347 39.1279 17.3055C34.5928 19.6437 30.1915 22.2908 25.9492 25.2317C25.9492 25.2317 25.9492 25.2884 25.9683 25.2743Z" fill="#DC0000"/>
<path d="M18.1091 18.3973C18.1473 18.3973 18.1091 18.3052 18.1091 18.3264C14.1134 20.5029 10.4619 23.0127 7.73438 26.9828C10.6849 23.0765 14.1835 20.907 18.1091 18.3973Z" fill="#DC0000"/>
<path d="M7.02897 31.9757L6.86328 31.9043L7.02897 31.9757Z" fill="#DC0000"/>
<path d="M7.27679 32.35C7.03737 32.2621 6.81933 32.114 6.63952 31.9172C6.7707 31.942 6.9005 31.9752 7.02826 32.0166C6.83957 31.9745 6.65718 31.9029 6.48658 31.8037C6.44835 31.8037 6.39098 31.8037 6.41647 31.8605C6.62431 32.2154 6.948 32.4664 7.31905 32.5604C7.6901 32.6544 8.07943 32.5841 8.40474 32.3642C8.40474 32.3642 8.40475 32.3075 8.37289 32.3146C8.01953 32.4518 7.63671 32.4642 7.27679 32.35Z" fill="#DC0000"/>
<path d="M6.17633 29.5635C5.86408 30.6272 5.75575 32.6199 7.18322 32.6908V32.6412C5.84497 32.3292 6.06164 30.691 6.22733 29.5848L6.17633 29.5635Z" fill="#DC0000"/>
<path d="M7.28972 33.1298C6.74335 33.0219 6.21884 32.8056 5.74117 32.4912C5.69019 32.4912 5.65832 32.548 5.69656 32.5835C6.15165 32.9808 6.69179 33.2394 7.26385 33.334C7.83592 33.4285 8.42023 33.3557 8.95937 33.1227C8.96782 33.1227 8.97591 33.119 8.98189 33.1123C8.98786 33.1056 8.99122 33.0966 8.99122 33.0872C8.99122 33.0778 8.98786 33.0688 8.98189 33.0621C8.97591 33.0555 8.96782 33.0517 8.95937 33.0517C8.4085 33.1612 7.84688 33.1874 7.28972 33.1298Z" fill="#DC0000"/>
<path d="M8.69254 33.8254C8.7244 33.8254 8.69254 33.7544 8.69254 33.7544C7.69212 33.8469 6.69001 33.5995 5.81846 33.0449C5.81846 33.0449 5.76111 33.0449 5.81846 33.0875C6.21666 33.4436 6.68198 33.6949 7.17965 33.8227C7.67732 33.9504 8.19449 33.9514 8.69254 33.8254Z" fill="#DC0000"/>
<path d="M8.71094 32.7609C10.387 32.7609 11.8017 32.1228 13.3184 31.3926C11.8528 32.1028 10.2997 32.564 8.71094 32.7609Z" fill="#DC0000"/>
<path d="M13.384 31.3864H13.3203C13.8429 31.1665 14.359 30.9394 14.8816 30.7266C14.3845 30.9394 13.8875 31.1452 13.384 31.3864Z" fill="#DC0000"/>
<path d="M15.0078 30.7198C16.6079 30.1527 18.2689 29.8258 19.9466 29.7477V29.691C18.2541 29.6484 16.5721 29.9987 15.0078 30.7198Z" fill="#DC0000"/>
<path d="M38.84 9.20996C38.7444 9.20996 38.7253 9.35896 38.84 9.38025C38.9547 9.40153 39.0631 9.50087 39.0185 9.57891C38.9738 9.65696 38.8783 9.57891 38.8528 9.57891C38.7932 9.55954 38.7402 9.52085 38.7005 9.46777C38.6607 9.41469 38.6361 9.34964 38.6297 9.28091C38.6264 9.27169 38.6207 9.26379 38.6133 9.25822C38.6059 9.25265 38.5972 9.24968 38.5883 9.24968C38.5794 9.24968 38.5707 9.25265 38.5633 9.25822C38.5559 9.26379 38.5502 9.27169 38.5469 9.28091C38.5462 9.35603 38.5626 9.43012 38.5944 9.49634C38.6263 9.56256 38.6726 9.61877 38.7292 9.65978C38.7857 9.7008 38.8506 9.72529 38.9178 9.731C38.9851 9.73671 39.0526 9.72344 39.114 9.69244C39.1248 9.68636 39.134 9.67729 39.1407 9.66611C39.1474 9.65492 39.1514 9.64199 39.1523 9.62858C39.1594 9.52727 39.1308 9.42685 39.0725 9.34868C39.0142 9.2705 38.9308 9.22073 38.84 9.20996Z" fill="#DC0000"/>
<path d="M24.7864 20.3898L24.5315 20.6097C24.0153 20.8011 23.3844 21.6379 22.9447 22.028C22.2322 22.6267 21.4873 23.1761 20.7143 23.6732C20.6923 23.6882 20.6766 23.7124 20.6706 23.7403C20.6646 23.7682 20.6689 23.7977 20.6824 23.8221C20.6959 23.8466 20.7176 23.864 20.7427 23.8707C20.7678 23.8773 20.7942 23.8726 20.8162 23.8576C22.2633 22.8996 23.6191 21.7805 24.8629 20.5175C24.9393 20.4395 24.8629 20.326 24.7864 20.3898Z" fill="#DC0000"/>
<path d="M3.75471 24.9766C3.75257 24.9907 3.75472 25.0051 3.7608 25.0176C3.76688 25.0302 3.77656 25.0401 3.78828 25.0458C3.8 25.0515 3.81309 25.0526 3.82548 25.0491C3.83788 25.0456 3.84886 25.0375 3.85668 25.0263C4.93837 22.2136 6.37615 19.5874 8.12635 17.2277C8.12635 17.2277 8.12636 17.1497 8.08175 17.1781C6.13036 19.3823 4.65127 22.048 3.75471 24.9766Z" fill="#DC0000"/>
<path d="M5.20207 23.927C6.12096 21.779 7.18616 19.7122 8.38838 17.7449C8.42024 17.6882 8.35653 17.6456 8.31829 17.6882C6.87074 19.4786 5.77276 21.5837 5.09375 23.8703C5.09504 23.8836 5.09937 23.8963 5.10635 23.9072C5.11333 23.9181 5.12272 23.9268 5.1336 23.9325C5.14448 23.9382 5.15649 23.9407 5.16849 23.9397C5.18048 23.9388 5.19204 23.9344 5.20207 23.927Z" fill="#DC0000"/>
<path d="M15.2734 35.449C17.2198 35.5445 19.1694 35.3754 21.0789 34.9452C21.1172 34.9452 21.1108 34.8743 21.0789 34.8814C19.1671 35.0445 17.2235 35.378 15.2798 35.4135L15.2734 35.449Z" fill="#DC0000"/>
<path d="M38.1661 1.75837C38.2107 1.75837 38.2043 1.65911 38.1661 1.6662C35.617 1.94979 32.9468 1.07068 30.436 1.76546C27.5874 2.55241 24.7006 4.261 22.2025 5.92705C22.1388 5.96959 22.2025 6.08302 22.2535 6.04758C24.9682 4.45242 27.9889 2.36808 31.0924 1.87889C33.4439 1.51023 35.8209 2.45315 38.1661 1.75837Z" fill="#DC0000"/>
<path d="M33.7695 6.76327C33.7695 6.76327 33.7695 6.81292 33.7695 6.79873C35.3117 6.08959 36.822 5.38044 38.326 4.5791C36.7965 5.25279 35.2735 5.98321 33.7695 6.76327Z" fill="#DC0000"/>
<path d="M39.1989 2.63094C37.6376 3.21244 36.0827 3.9145 34.5787 4.6662C34.5703 4.6662 34.5622 4.66994 34.5562 4.67659C34.5502 4.68324 34.5469 4.69225 34.5469 4.70166C34.5469 4.71106 34.5502 4.72008 34.5562 4.72673C34.5622 4.73338 34.5703 4.73711 34.5787 4.73711C36.1337 4.14143 37.7077 3.46774 39.2053 2.70186C39.269 2.68059 39.2435 2.61676 39.1989 2.63094Z" fill="#DC0000"/>
<path d="M42.8934 2.36134C42.9252 2.36134 42.8934 2.29043 42.8934 2.30461C40.9636 3.15207 39.0823 4.13016 37.2599 5.23339C37.2533 5.23781 37.2478 5.24404 37.2441 5.2515C37.2403 5.25895 37.2383 5.26737 37.2383 5.27594C37.2383 5.28451 37.2403 5.29293 37.2441 5.30039C37.2478 5.30784 37.2533 5.31408 37.2599 5.31849C39.1913 4.46456 41.0728 3.47691 42.8934 2.36134Z" fill="#DC0000"/>
<path d="M12.0374 14.8166C10.3112 16.0829 8.79008 17.665 7.53828 19.4957C7.53535 19.5004 7.53328 19.5057 7.53217 19.5112C7.53107 19.5168 7.53095 19.5225 7.53184 19.5281C7.53273 19.5337 7.5346 19.539 7.53734 19.5438C7.54009 19.5486 7.54364 19.5528 7.54783 19.556C7.55201 19.5593 7.55675 19.5616 7.56173 19.5628C7.56672 19.564 7.57187 19.5642 7.5769 19.5632C7.58193 19.5622 7.58673 19.5601 7.59104 19.5571C7.59535 19.554 7.59908 19.55 7.60201 19.5454C8.96329 17.8373 10.4559 16.2645 12.0629 14.845C12.0764 14.857 12.0933 14.8636 12.1107 14.8636C12.128 14.8636 12.1449 14.857 12.1585 14.845C13.9677 13.1781 15.8846 11.6616 17.8939 10.3076C15.8377 11.5853 13.8846 13.0583 12.0565 14.7103C12.0565 14.7103 12.0374 14.7883 12.0374 14.8166Z" fill="#DC0000"/>
<path d="M32.0813 3.01325C29.1754 3.72239 26.4288 5.22578 23.7969 6.78591C26.4949 5.36758 29.2654 4.1268 32.0941 3.06998C32.0941 3.06998 32.1068 3.00615 32.0813 3.01325Z" fill="#DC0000"/>
<path d="M21.5995 8.03305C22.3133 7.62174 23.0334 7.18916 23.7599 6.76367C21.7476 7.82725 19.7883 9.01089 17.8906 10.3094C19.1269 9.53644 20.3632 8.78474 21.5995 8.03305Z" fill="#DC0000"/>
<path d="M10.9544 18.1293L11.8657 17.3563C12.5794 16.7607 13.3059 16.1792 14.0005 15.5409C14.0005 15.5409 14.0005 15.47 13.9623 15.4913C13.0127 16.2004 12.1078 17.0089 11.1774 17.7676C10.8588 18.03 9.90288 18.4768 9.90288 18.9945C9.90179 19.0022 9.90236 19.0101 9.90454 19.0175C9.90671 19.025 9.91044 19.0317 9.91541 19.0373C9.92038 19.0428 9.92646 19.0469 9.93314 19.0494C9.93983 19.0518 9.94693 19.0524 9.95387 19.0512H10.0176C10.0176 19.0512 10.0495 19.0512 10.0495 19.0016V18.9519C10.0495 18.9425 10.0461 18.9335 10.0401 18.9268C10.0342 18.9202 10.026 18.9165 10.0176 18.9165C10.0091 18.9165 10.001 18.9202 9.99507 18.9268C9.98909 18.9335 9.98573 18.9425 9.98573 18.9519C9.98573 18.7817 10.8014 18.257 10.9544 18.1293Z" fill="#DC0000"/>
<path d="M14.4613 15.9873C12.9494 16.6824 11.5971 17.7462 10.5039 19.1005C10.5039 19.1005 10.5039 19.1714 10.5485 19.1501C11.7237 17.9111 13.0391 16.8479 14.4613 15.9873Z" fill="#DC0000"/>
<path d="M29.5705 8.52302L29.5195 8.39453C29.5338 8.43863 29.5509 8.48157 29.5705 8.52302Z" fill="#DC0000"/>
<path d="M10.9683 21.623C8.96728 23.2536 4.10493 26.9189 5.17554 30.3148C5.22015 30.4637 5.43044 30.3645 5.38583 30.2085C4.34709 26.8976 9.15845 23.4521 11.0002 21.6655C11.0256 21.6443 10.9938 21.6017 10.9683 21.623Z" fill="#DC0000"/>
<path d="M41.4609 17.7735C41.4609 17.7735 41.4609 17.8302 41.4609 17.816C42.9012 16.965 44.3286 16.1566 45.8326 15.4546C45.8326 15.4546 45.8326 15.3978 45.8326 15.4049C44.2835 15.9645 42.8121 16.7617 41.4609 17.7735Z" fill="#DC0000"/>
<path d="M45.7684 15.582C44.7679 16.1492 43.7801 16.7518 42.7924 17.3473C42.7286 17.3899 42.7923 17.5104 42.8433 17.4679C43.8247 16.8582 44.8125 16.2555 45.7875 15.6175L45.7684 15.582Z" fill="#DC0000"/>
<path d="M46.1257 15.4414C44.8511 16.2144 43.5766 17.0512 42.3467 17.8951C42.2638 17.9589 42.3467 18.0865 42.4359 18.0582L42.7609 17.9376C42.8119 17.9376 42.7609 17.8312 42.7609 17.8383C43.2737 17.5845 43.7572 17.2631 44.2011 16.881C44.8193 16.3988 45.4756 15.9236 46.1257 15.4414Z" fill="#DC0000"/>
<path d="M40.6188 15.6033C40.6188 15.6033 40.6188 15.5608 40.6188 15.5679C35.9476 17.9358 31.4103 20.6866 26.7837 23.1821C26.6945 23.2247 26.7837 23.3877 26.8474 23.3381C31.3465 20.9773 35.954 18.6306 40.2301 15.8515C40.237 15.8682 40.2496 15.8813 40.265 15.8879C40.2805 15.8945 40.2977 15.8942 40.3129 15.8869C42.5816 15.0007 44.8694 14.15 47.1253 13.2212C47.1699 13.2212 47.1253 13.122 47.1253 13.1362C44.9016 13.7674 42.7261 14.5923 40.6188 15.6033Z" fill="#DC0000"/>
<path d="M29.6597 26.2949C30.4477 25.9497 31.1572 25.4146 31.7372 24.7281C31.7372 24.6926 31.7372 24.6359 31.6926 24.6714C31.0369 25.2423 30.3517 25.7702 29.6406 26.2524C29.6406 26.2524 29.6406 26.302 29.6597 26.2949Z" fill="#DC0000"/>
<path d="M14.2031 34.718C20.0967 32.1952 25.7885 29.124 31.2182 25.537C31.2182 25.537 31.2182 25.4803 31.2182 25.4945C25.7092 28.9252 20.0282 32.0024 14.2031 34.7109V34.718Z" fill="#DC0000"/>
<path d="M29.7533 28.4078L29.4665 28.6205C29.3964 28.6772 29.4665 28.7836 29.5366 28.7552C32.8313 27.5571 36.0814 26.1108 38.5349 23.3033C38.5349 23.3033 38.5349 23.2537 38.5349 23.3033C37.2281 24.6942 35.72 25.8302 34.074 26.6638C33.3794 27.0183 32.6784 27.3727 31.971 27.6492C31.372 27.9045 30.3587 28.0675 29.8616 28.5284C29.8808 28.4504 29.8043 28.3724 29.7533 28.4078Z" fill="#DC0000"/>
<path d="M34.9805 24.111C34.9805 24.111 34.9805 24.189 35.0123 24.1677C37.0073 22.8283 38.7777 21.113 40.2443 19.0986C38.5994 20.907 36.8403 22.582 34.9805 24.111Z" fill="#DC0000"/>
<path d="M36.8944 23.4532C36.8876 23.4598 36.8835 23.4691 36.8829 23.479C36.8823 23.489 36.8853 23.4988 36.8912 23.5064C36.8971 23.5139 36.9055 23.5185 36.9144 23.5192C36.9234 23.5198 36.9322 23.5165 36.939 23.5099C38.2706 22.3359 39.5468 21.0861 40.7626 19.7656C40.7626 19.7656 40.7626 19.7656 40.7626 19.7656C39.4186 20.9221 38.1276 22.1528 36.8944 23.4532Z" fill="#DC0000"/>
<path d="M41.1049 20.0859C40.6043 20.9639 39.9804 21.7468 39.2569 22.4048C38.9255 22.7027 38.1417 22.9722 38.0588 23.4615C38.0577 23.4763 38.0608 23.4911 38.0677 23.5038C38.0745 23.5165 38.0848 23.5265 38.0971 23.5324C38.1799 23.5324 38.1863 23.5324 38.25 23.4898C38.2541 23.4858 38.2573 23.4809 38.2595 23.4754C38.2618 23.4699 38.2629 23.464 38.2629 23.4579C38.2629 23.4519 38.2618 23.4459 38.2595 23.4404C38.2573 23.4349 38.2541 23.43 38.25 23.426C38.25 23.3835 38.1799 23.426 38.1926 23.4686C38.2054 23.5111 39.8241 22.1212 39.9451 21.9864C40.4083 21.4152 40.7986 20.7757 41.1049 20.0859Z" fill="#DC0000"/>
</svg>
