<svg width="59" height="50" viewBox="0 0 59 50" fill="none" xmlns="http://www.w3.org/2000/svg">
<path d="M-0.00158691 20.8418C0.0597458 26.9804 3.065 33.2807 6.52258 37.8697C10.3381 43.0592 15.5417 46.7656 21.3802 48.4525C27.9456 50.4191 34.8519 50.5128 41.4586 48.725C47.0168 47.0818 53.7633 42.8929 55.5189 36.3202C55.5446 36.2283 55.5397 36.1291 55.5049 36.041C55.4702 35.9528 55.408 35.8815 55.3298 35.8402C55.2515 35.7988 55.1625 35.7901 55.0789 35.8157C54.9954 35.8413 54.923 35.8995 54.875 35.9796C52.943 38.7041 51.2487 41.3349 48.6728 43.3952C46.0046 45.5088 42.9799 47.003 39.7797 47.7884C33.5296 49.183 27.0746 48.9646 20.9125 47.1499C15.5158 45.5139 10.6848 42.1182 7.04389 37.4014C3.21066 32.4974 1.60839 27.0144 0.328087 20.8162C0.282089 20.6204 -0.00925446 20.6289 -0.00158691 20.8162V20.8418Z" fill="#DC0000"/>
<path d="M54.1875 38.9256C56.6408 36.6609 57.5071 32.7274 57.9057 29.3474C58.2507 26.3845 57.6911 23.3025 55.5214 21.3272C55.3758 21.191 55.2148 21.4209 55.2685 21.5741C55.7131 22.8597 56.4874 23.907 56.8631 25.2266C57.2657 26.9433 57.2657 28.746 56.8631 30.4627C56.3341 33.4681 55.1611 36.0564 54.0495 38.8234C54.0495 38.9171 54.1261 38.9767 54.1875 38.9256Z" fill="#DC0000"/>
<path d="M55.8355 21.4203C53.7313 18.1793 50.5601 15.9916 47.0114 15.3328C43.9448 14.7794 40.4336 16.2864 37.8117 18.0147C37.6737 18.1084 37.735 18.3723 37.9037 18.3212C41.0316 17.5379 43.5079 15.3073 46.8811 15.9203C50.4 16.5674 53.1983 18.781 55.5135 21.7013C55.6822 21.9141 55.9429 21.6417 55.8049 21.4203H55.8355Z" fill="#DC0000"/>
<path d="M37.8339 18.228C35.9557 19.5222 34.2691 22.0593 32.0305 22.485C31.6165 22.5616 31.7545 23.2513 32.1685 23.1917C33.0161 22.9718 33.7931 22.4976 34.4147 21.8209C35.668 20.7871 36.8637 19.6698 37.995 18.4749C38.0946 18.3557 37.995 18.1344 37.8493 18.228H37.8339Z" fill="#DC0000"/>
<path d="M31.6086 24.3416C32.181 24.101 32.7223 23.7775 33.2185 23.3795L33.9085 22.8772C34.1078 22.724 34.4758 22.2897 34.7135 22.2642L34.2995 21.864C34.2995 21.6171 34.2995 21.864 34.2612 21.9662C34.2541 21.9874 34.2511 22.01 34.2523 22.0326C34.2536 22.0551 34.2591 22.0771 34.2685 22.0972C34.2779 22.1172 34.2909 22.1349 34.3068 22.149C34.3228 22.1631 34.3411 22.1733 34.3608 22.1791C34.3148 22.1791 34.4912 22.2557 34.5372 22.2642C34.6085 22.2892 34.6852 22.2877 34.7557 22.2601C34.8262 22.2324 34.8867 22.1801 34.9282 22.111C34.96 22.0536 34.9779 21.988 34.9802 21.9207C34.9825 21.8534 34.9692 21.7865 34.9414 21.7266C34.9137 21.6666 34.8725 21.6157 34.8218 21.5786C34.7711 21.5415 34.7127 21.5196 34.6521 21.515C34.3762 21.515 34.2075 21.6597 33.9698 21.813C33.7322 21.9662 33.2798 22.2727 32.9425 22.5026C32.3475 22.8569 31.8089 23.3171 31.3479 23.8648C31.3188 23.9166 31.3039 23.9766 31.3049 24.0377C31.306 24.0987 31.323 24.158 31.3538 24.2085C31.3847 24.259 31.4281 24.2985 31.4787 24.3221C31.5294 24.3458 31.5852 24.3525 31.6392 24.3416H31.6086Z" fill="#DC0000"/>
<path d="M32.6058 23.4807H32.6824C32.7698 23.4857 32.8562 23.4587 32.9284 23.4037C33.0005 23.3488 33.0544 23.269 33.0817 23.1766C33.109 23.0843 33.1082 22.9846 33.0793 22.8928C33.0505 22.8011 32.9953 22.7224 32.9223 22.6689C32.8492 22.6155 32.7624 22.5902 32.6751 22.597C32.5878 22.6037 32.505 22.6422 32.4393 22.7065C32.3737 22.7707 32.3289 22.8571 32.3119 22.9524C32.2949 23.0478 32.3065 23.1466 32.3451 23.2338V23.319C32.3678 23.368 32.4018 23.4095 32.4435 23.4394C32.4852 23.4692 32.5332 23.4864 32.5828 23.4893L32.6058 23.4807Z" fill="#DC0000"/>
<path d="M54.6474 23.3537C54.4146 25.8696 53.715 28.3047 52.5928 30.5054C51.656 32.1213 50.8036 33.7956 50.0398 35.5201C50.0398 35.5883 50.1088 35.6308 50.1472 35.5712C52.3014 32.2508 55.046 27.6533 54.7471 23.3452C54.7471 23.3339 54.743 23.3231 54.7358 23.3151C54.7286 23.3071 54.7189 23.3026 54.7087 23.3026C54.6986 23.3026 54.6888 23.3071 54.6816 23.3151C54.6744 23.3231 54.6704 23.3339 54.6704 23.3452L54.6474 23.3537Z" fill="#DC0000"/>
<path d="M49.4393 36.2517C45.0268 40.4161 39.6458 43.1134 33.9147 44.0335C30.9514 44.4949 27.9418 44.449 24.991 43.8973C22.2694 43.3949 19.7318 41.9476 17.0485 41.5304C17.0138 41.5277 16.979 41.5365 16.9488 41.5556C16.9185 41.5748 16.894 41.6035 16.8784 41.6382C16.8628 41.6728 16.8568 41.7118 16.8612 41.7502C16.8655 41.7886 16.88 41.8247 16.9029 41.8539C18.8961 43.8717 22.2004 44.638 24.784 45.1318C27.7513 45.6978 30.7798 45.7495 33.7614 45.285C39.7482 44.2761 45.2918 41.1815 49.5926 36.4476C49.616 36.425 49.6304 36.393 49.6325 36.3587C49.6347 36.3244 49.6245 36.2905 49.6041 36.2645C49.5838 36.2386 49.555 36.2226 49.5241 36.2202C49.4932 36.2178 49.4627 36.2292 49.4393 36.2517Z" fill="#DC0000"/>
<path d="M33.2704 22.4087C32.2801 22.573 31.3014 22.8148 30.3418 23.1324C30.2618 23.1507 30.1906 23.2006 30.1412 23.2728C30.0919 23.345 30.0677 23.4346 30.0734 23.5251C30.079 23.6155 30.1139 23.7006 30.1718 23.7646C30.2296 23.8286 30.3063 23.8672 30.3878 23.8731C31.0036 23.8916 31.6196 23.846 32.2278 23.7369L31.9671 22.8855C31.4509 23.1373 30.8973 23.2816 30.3341 23.3112C30.3801 23.5751 30.4261 23.8305 30.4798 24.0859C31.0771 23.8275 31.7043 23.6641 32.3427 23.6006L32.1894 22.7492C31.6298 22.8514 31.0778 22.9536 30.5181 23.0387C30.07 23.0742 29.6361 23.2289 29.2531 23.49C29.1305 23.5836 29.2532 23.7539 29.3145 23.805C30.1731 24.2562 31.4764 23.805 32.3427 23.5751C32.4444 23.5525 32.5338 23.486 32.5914 23.3902C32.6489 23.2944 32.6698 23.1772 32.6494 23.0643C32.6291 22.9514 32.5692 22.8521 32.4829 22.7882C32.3967 22.7243 32.2911 22.7011 32.1894 22.7237C31.4962 22.8523 30.8139 23.046 30.1501 23.3027C30.0769 23.3427 30.0178 23.4087 29.9821 23.4902C29.9463 23.5716 29.936 23.664 29.9527 23.7527C29.9693 23.8414 30.0121 23.9215 30.0742 23.9803C30.1363 24.039 30.2143 24.0732 30.2958 24.0774C30.9888 24.0469 31.6737 23.9005 32.3274 23.6432C32.7874 23.4644 32.4884 22.7918 32.0668 22.7918C31.4853 22.8222 30.9078 22.9134 30.3418 23.0643L30.4798 23.7965C31.4777 23.5269 32.4374 23.1057 33.3317 22.5449C33.3508 22.5318 33.3653 22.5119 33.373 22.4885C33.3806 22.4651 33.3809 22.4395 33.3738 22.4158C33.3667 22.3922 33.3526 22.3719 33.3339 22.3582C33.3151 22.3446 33.2928 22.3384 33.2704 22.3406V22.4087Z" fill="#DC0000"/>
<path d="M29.5457 23.608C27.7513 23.6353 25.9679 23.2917 24.2865 22.5949C22.7532 21.9904 21.3426 20.8921 19.7633 20.4408C19.633 20.4408 19.472 20.5941 19.6023 20.7133C22.1092 23.1738 26.3028 24.3147 29.5687 23.8124C29.6684 23.8124 29.6607 23.608 29.5687 23.608H29.5457Z" fill="#DC0000"/>
<path d="M7.38353 0.000293732C1.13536 4.10402 -0.497582 13.878 0.330396 21.2426C0.330396 21.3873 0.552714 21.3618 0.56038 21.2426C0.736709 17.4454 0.437726 13.8525 1.48037 10.1745C2.63033 6.06222 4.89961 3.25262 7.42188 0.110973C7.42188 0.110973 7.42186 0.0173244 7.38353 0.0428658V0.000293732Z" fill="#DC0000"/>
<path d="M16.0153 41.5308C13.793 40.6102 11.9228 38.87 10.7177 36.6012C10.7177 36.6012 10.6794 36.6012 10.7177 36.6012C11.251 37.7944 11.9937 38.8573 12.9021 39.7272C13.8105 40.5972 14.8664 41.2567 16.0076 41.667C16.0919 41.667 16.1226 41.5563 16.0459 41.5223L16.0153 41.5308Z" fill="#DC0000"/>
<path d="M17.1268 42.2288C16.2473 41.6504 15.4069 41.0016 14.6122 40.2877C14.3055 40.0152 13.8992 40.5431 14.1675 40.8496C14.8182 41.5674 15.6035 42.1168 16.4675 42.4587C17.1268 42.7482 18.1924 43.3101 18.8364 42.7993C18.8634 42.7832 18.8868 42.7606 18.905 42.7332C18.9231 42.7058 18.9356 42.6743 18.9415 42.6409C18.9474 42.6075 18.9465 42.573 18.9389 42.5401C18.9313 42.5071 18.9173 42.4764 18.8977 42.4502C18.4224 41.8968 17.6558 41.9649 17.0194 41.7265C16.1707 41.3493 15.3632 40.8666 14.6122 40.2877L14.3132 40.9603C15.2331 41.42 16.1531 41.8713 17.0731 42.3055C17.1344 42.3055 17.1804 42.2288 17.1268 42.1948V42.2288Z" fill="#DC0000"/>
<path d="M15.0866 41.012C12.7483 38.6792 10.387 36.5593 8.40143 33.8263C6.41581 31.0933 3.99322 27.4238 3.4719 23.8224C3.46719 23.8074 3.45838 23.7943 3.4467 23.7851C3.43502 23.7759 3.42104 23.7709 3.40672 23.7709C3.39239 23.7709 3.37843 23.7759 3.36676 23.7851C3.35508 23.7943 3.34627 23.8074 3.34156 23.8224C3.57155 27.0917 5.37317 30.1482 7.05212 32.7365C9.14507 35.9377 11.8207 39.1986 14.9486 41.1823C15.0482 41.2419 15.1862 41.0972 15.0866 41.0035V41.012Z" fill="#DC0000"/>
<path d="M3.28165 23.0473C3.08999 16.0829 3.43498 8.85456 6.94624 2.8352C6.98028 2.7654 6.98933 2.68391 6.9716 2.60701C6.95387 2.53011 6.91065 2.46348 6.85059 2.42045C6.79053 2.37741 6.71805 2.36115 6.64765 2.37491C6.57726 2.38866 6.51412 2.43142 6.47089 2.49464C3.0593 8.29264 2.31565 16.3128 2.97497 23.0729C2.97497 23.2602 3.28165 23.2431 3.28165 23.0729V23.0473Z" fill="#DC0000"/>
<path d="M48.439 23.4639C49.3336 22.4718 50.04 21.2906 50.5166 19.9902C50.5626 19.854 50.3633 19.7348 50.2943 19.8795C49.7517 21.1186 49.1022 22.2962 48.3547 23.3958C48.3547 23.3958 48.393 23.5065 48.4237 23.4639H48.439Z" fill="#DC0000"/>
<path d="M48.4371 23.0216C48.7897 22.5363 49.1271 22.0339 49.4414 21.5146C49.7227 21.1563 49.9317 20.7354 50.0547 20.2801C50.0547 20.2801 50.0547 20.212 49.9934 20.2801C49.6706 20.585 49.4093 20.9622 49.2267 21.3869C48.9201 21.9147 48.6441 22.4596 48.3757 23.013C48.3757 23.0726 48.4141 23.1152 48.4447 23.0641L48.4371 23.0216Z" fill="#DC0000"/>
<path d="M47.9861 22.8937C48.6707 22.0184 49.2624 21.0585 49.7494 20.033C49.7954 19.9223 49.642 19.8116 49.5654 19.8968C48.9146 20.8014 48.3566 21.7837 47.9017 22.8255C47.8557 22.8937 47.9554 22.9618 48.0014 22.8937H47.9861Z" fill="#DC0000"/>
<path d="M48.1236 22.2374C47.2189 24.3999 45.3867 24.8597 43.7 25.9069C42.7402 26.5146 41.843 27.2369 41.0245 28.0609C38.8088 30.2235 36.9459 32.6585 34.4236 34.4038C34.2167 34.5401 34.3776 34.9062 34.5846 34.7699C37.3829 32.965 39.3148 30.0617 41.7834 27.8055C43.8227 25.9495 47.2956 25.2513 48.2539 22.2885C48.2539 22.1948 48.1619 22.1523 48.1236 22.2374Z" fill="#DC0000"/>
<path d="M48.7078 23.0473C47.9795 23.6943 47.3508 24.4521 46.6071 25.0651C45.4648 25.9931 44.3839 26.0527 43.0959 26.4529C42.5484 26.6627 42.0519 27.01 41.645 27.4678C41.2381 27.9256 40.9318 28.4815 40.75 29.0922C40.75 29.1773 40.8266 29.2199 40.865 29.1518C41.7083 27.9939 42.2296 27.1084 43.6095 26.6912C44.2901 26.5707 44.958 26.3739 45.6028 26.1038C46.8524 25.3925 47.9303 24.359 48.7461 23.0898C48.7461 23.0898 48.7461 23.0302 48.7078 23.0898V23.0473Z" fill="#DC0000"/>
<path d="M40.2497 29.7891C40.9627 29.2186 41.645 28.5971 42.358 28.0097C43.0709 27.4222 43.8376 26.9454 44.4969 26.3069C44.5203 26.2888 44.5362 26.2612 44.5413 26.23C44.5463 26.1989 44.54 26.1668 44.5237 26.1408C44.5075 26.1149 44.4826 26.0972 44.4545 26.0916C44.4265 26.086 44.3976 26.093 44.3742 26.111C42.7635 26.9668 41.3283 28.1811 40.1577 29.6784C40.1481 29.6927 40.1433 29.7103 40.1441 29.7282C40.145 29.746 40.1514 29.763 40.1623 29.7761C40.1733 29.7893 40.188 29.7977 40.2039 29.8001C40.2199 29.8025 40.236 29.7986 40.2497 29.7891Z" fill="#DC0000"/>
<path d="M41.5994 28.2914C42.2357 27.8402 42.8721 27.3889 43.5007 26.9121C43.6234 26.8185 43.5007 26.6227 43.3474 26.7163C41.2161 28.5213 39.3532 30.5902 37.3139 32.5143C34.6306 35.0685 31.6637 35.6475 28.2828 36.1838C28.2444 36.1838 28.2828 36.252 28.2828 36.252C31.1884 36.1328 33.9483 35.6304 36.3632 33.6978C37.7059 32.5502 38.9599 31.28 40.1121 29.9005C40.6334 29.3301 41.1548 28.7767 41.6991 28.1978C42.0858 27.9001 42.4385 27.5513 42.7494 27.159L41.5841 28.2063C41.5841 28.2063 41.5841 28.2488 41.5841 28.2063L41.5994 28.2914Z" fill="#DC0000"/>
<path d="M27.5705 36.1074C24.9259 35.4713 22.3913 34.3644 20.065 32.8295C17.6424 31.0671 16.1091 28.2916 14.1081 26.0184C14.0959 26.0026 14.0786 25.9928 14.0599 25.9912C14.0412 25.9896 14.0227 25.9963 14.0085 26.0099C13.9942 26.0234 13.9854 26.0427 13.984 26.0634C13.9826 26.0842 13.9886 26.1047 14.0008 26.1205C17.2897 31.2289 21.6673 35.4859 27.5551 36.167C27.5934 36.167 27.6088 36.1074 27.5551 36.0989L27.5705 36.1074Z" fill="#DC0000"/>
<path d="M7.09113 2.54572C8.81609 1.03024 12.7873 1.02173 14.106 3.1417C14.1596 3.22684 14.2593 3.1417 14.2286 3.04805C13.669 1.56662 12.2123 1.34526 10.9167 1.34526C9.62108 1.34526 8.04178 1.34526 6.98381 2.43504C6.97223 2.4414 6.9621 2.45063 6.95424 2.46201C6.94637 2.4734 6.94097 2.48665 6.93845 2.50072C6.93592 2.5148 6.93635 2.52932 6.93969 2.54319C6.94302 2.55705 6.94919 2.56988 6.9577 2.58068C6.96621 2.59148 6.97684 2.59997 6.98877 2.60548C7.0007 2.611 7.01361 2.61339 7.02651 2.61248C7.03941 2.61157 7.05194 2.60738 7.06315 2.60023C7.07436 2.59309 7.08392 2.58317 7.09113 2.57126V2.54572Z" fill="#DC0000"/>
<path d="M6.58752 2.98822C6.92464 2.63965 7.29778 2.33671 7.69914 2.08574C8.08247 1.87289 8.50412 1.82181 8.89512 1.6345C8.96411 1.6345 8.89512 1.49828 8.89512 1.48977C8.4252 1.48838 7.96217 1.61494 7.54651 1.85836C7.13085 2.10178 6.77525 2.45464 6.51085 2.88605C6.49865 2.90185 6.49259 2.92239 6.49403 2.94315C6.49546 2.96391 6.50427 2.98318 6.5185 2.99673C6.53273 3.01027 6.55123 3.01699 6.56992 3.01539C6.58861 3.0138 6.60597 3.00402 6.61817 2.98822H6.58752Z" fill="#DC0000"/>
<path d="M13.4883 25.2522C12.5149 22.6816 11.6878 20.0456 11.012 17.3598C10.7384 16.2662 10.5435 15.1502 10.4294 14.0223C10.2837 11.8938 11.0197 10.5061 12.0853 8.85436C12.1313 8.78625 12.0393 8.70111 11.9933 8.76071C11.2048 9.56852 10.6333 10.6033 10.3423 11.75C10.0513 12.8968 10.0523 14.1107 10.345 15.2569C10.9116 18.7522 11.967 22.1276 13.4729 25.2607L13.4883 25.2522Z" fill="#DC0000"/>
<path d="M12.529 8.13086C12.7604 7.94657 13.0238 7.8179 13.3025 7.75309C13.5811 7.68827 13.8689 7.68873 14.1474 7.75444C14.4259 7.82014 14.689 7.94964 14.9199 8.13466C15.1508 8.31969 15.3443 8.55618 15.4882 8.829C15.8855 9.59345 16.2117 10.4007 16.4619 11.2384C16.4692 11.2581 16.483 11.274 16.5003 11.283C16.5177 11.292 16.5375 11.2935 16.5558 11.2871C16.5741 11.2806 16.5896 11.2668 16.5991 11.2484C16.6087 11.2299 16.6117 11.2082 16.6075 11.1874C16.5397 10.5231 16.347 9.88198 16.0419 9.3056C15.7368 8.72922 15.3262 8.23039 14.8366 7.84138C14.4769 7.5768 14.0474 7.45473 13.6175 7.4949C13.1876 7.53507 12.7825 7.73514 12.4677 8.06275C12.4677 8.06275 12.4677 8.17343 12.529 8.13086Z" fill="#DC0000"/>
<path d="M16.4139 11.3408C16.9582 9.22936 13.3013 5.99406 12.1897 8.47162C12.1897 8.5227 12.1896 8.5823 12.2586 8.53973C13.8993 6.69221 16.5059 9.21234 16.3832 11.3408H16.4139Z" fill="#DC0000"/>
<path d="M17.1214 11.2635C17.0916 11.3088 17.0659 11.3573 17.0447 11.4082L17.1367 11.272C17.1367 11.272 17.1367 11.2209 17.0984 11.272L17.1214 11.2635Z" fill="#DC0000"/>
<path d="M17.0276 11.3995C16.9992 11.4487 16.9736 11.4999 16.951 11.5527C16.951 11.5527 16.951 11.5527 16.951 11.5527L17.043 11.4165H16.997L17.0276 11.3995Z" fill="#DC0000"/>
<path d="M28.8014 25.6517C30.3311 26.0803 31.9514 25.8202 33.3093 24.928C33.3553 24.928 33.3093 24.8088 33.2556 24.8174C32.5721 25.0813 31.8759 25.303 31.1703 25.4814C30.3899 25.5935 29.6013 25.6163 28.8167 25.5496C28.8045 25.5496 28.7928 25.5549 28.7842 25.5645C28.7756 25.5741 28.7707 25.5871 28.7707 25.6006C28.7707 25.6142 28.7756 25.6272 28.7842 25.6368C28.7928 25.6463 28.8045 25.6517 28.8167 25.6517H28.8014Z" fill="#DC0000"/>
<path d="M28.6119 26.3162C30.4289 26.3478 32.2101 25.7529 33.7101 24.6134C33.7791 24.5538 33.7101 24.4601 33.6258 24.4857C32.7594 24.8348 31.9698 25.3371 31.0728 25.6351C30.2634 25.8852 29.4382 26.0674 28.6042 26.18C28.5352 26.18 28.5429 26.3247 28.6042 26.3162H28.6119Z" fill="#DC0000"/>
<path d="M28.658 25.9502C30.4127 25.9021 32.1286 25.3665 33.6489 24.3921C33.6614 24.3849 33.6726 24.3749 33.6817 24.3629C33.6909 24.3508 33.6977 24.3369 33.702 24.3218C33.7063 24.3068 33.7079 24.291 33.7066 24.2753C33.7054 24.2596 33.7014 24.2443 33.6949 24.2304C33.6883 24.2164 33.6794 24.204 33.6685 24.1939C33.6576 24.1837 33.6451 24.1761 33.6315 24.1713C33.618 24.1666 33.6038 24.1648 33.5897 24.1662C33.5755 24.1676 33.5618 24.172 33.5492 24.1793C32.7135 24.5198 31.9086 24.937 31.0423 25.2095C30.176 25.4819 29.4476 25.5926 28.6427 25.7884C28.6273 25.794 28.614 25.8049 28.6045 25.8194C28.595 25.8339 28.5899 25.8514 28.5899 25.8693C28.5899 25.8872 28.595 25.9047 28.6045 25.9192C28.614 25.9338 28.6273 25.9446 28.6427 25.9502H28.658Z" fill="#DC0000"/>
<path d="M28.8624 25.3031C29.6404 25.3133 30.4154 25.1957 31.1624 24.954C31.878 24.8283 32.5532 24.5032 33.125 24.009C33.125 24.009 33.125 23.9153 33.125 23.9238C32.4148 24.1233 31.7201 24.3852 31.0474 24.7071C30.3324 24.9113 29.6082 25.0733 28.8778 25.1924C28.8241 25.1924 28.8318 25.3031 28.8778 25.3031H28.8624Z" fill="#DC0000"/>
<path d="M28.7138 24.9199C29.5783 24.7844 30.4337 24.5853 31.2744 24.3239C31.9856 24.209 32.6701 23.9431 33.2907 23.5407C33.302 23.5306 33.3101 23.5167 33.314 23.5012C33.3178 23.4857 33.3171 23.4692 33.312 23.4541C33.3069 23.439 33.2977 23.4261 33.2856 23.4172C33.2735 23.4083 33.2592 23.4038 33.2447 23.4044C32.5017 23.4998 31.7741 23.709 31.0828 24.026C30.3161 24.2729 29.4805 24.4942 28.6831 24.7496C28.6628 24.7496 28.6433 24.7586 28.6289 24.7746C28.6146 24.7905 28.6065 24.8122 28.6065 24.8348C28.6065 24.8574 28.6146 24.879 28.6289 24.895C28.6433 24.911 28.6628 24.9199 28.6831 24.9199H28.7138Z" fill="#DC0000"/>
<path d="M29.0008 24.1875C30.0777 24.1462 31.1352 23.8563 32.1057 23.3361C32.2437 23.2765 32.1593 23.0126 32.0137 23.0551C31.868 23.0977 31.753 23.1403 31.6227 23.1829C31.4923 23.2254 31.5537 23.3106 31.6227 23.3191H32.029C32.029 23.2254 32.029 23.1318 31.9753 23.0296C31.444 23.2641 30.9014 23.4659 30.3501 23.6341C29.8865 23.7471 29.4285 23.8864 28.9778 24.0513V24.1279L29.0008 24.1875Z" fill="#DC0000"/>
<path d="M18.7834 21.2837C20.0573 22.8547 21.6609 24.0522 23.4517 24.7695C25.2425 25.4869 27.1651 25.7021 29.0488 25.3959C29.0696 25.3893 29.088 25.3753 29.101 25.3561C29.114 25.3369 29.1211 25.3135 29.1211 25.2895C29.1211 25.2654 29.114 25.242 29.101 25.2228C29.088 25.2036 29.0696 25.1897 29.0488 25.1831C25.3371 25.3391 21.7163 23.8857 18.9521 21.1304C18.8677 21.0538 18.7681 21.1985 18.8294 21.2837H18.7834Z" fill="#DC0000"/>
<path d="M19.6045 22.085C21.3537 23.5112 23.294 24.6231 25.3543 25.3799C26.3893 25.7375 28.4899 26.4952 29.4405 25.729C29.5325 25.6523 29.4789 25.4991 29.3869 25.4565H29.3102C29.2875 25.4488 29.2632 25.4496 29.241 25.4589C29.2189 25.4681 29.2 25.4852 29.1875 25.5076V25.5757C29.175 25.5911 29.168 25.6111 29.1678 25.6319C29.1676 25.6527 29.1743 25.6728 29.1865 25.6885C29.1988 25.7042 29.2158 25.7144 29.2343 25.7171C29.2529 25.7199 29.2717 25.715 29.2872 25.7034C28.7199 25.9674 26.6193 25.3799 26.098 25.2352C25.4819 25.0601 24.8774 24.8382 24.2887 24.5711C22.7303 23.7945 21.2239 22.8954 19.7808 21.8807C19.6351 21.787 19.4971 22.0169 19.6351 22.1191L19.6045 22.085Z" fill="#DC0000"/>
<path d="M21.4276 23.6938C23.5972 25.5839 27.1928 26.7332 29.8607 25.5839C29.945 25.5839 29.9144 25.3965 29.8224 25.3965C28.5489 25.5476 27.2655 25.5647 25.9892 25.4476C24.4145 25.1325 22.9129 24.4695 21.5733 23.4979C21.5502 23.4877 21.5247 23.4866 21.501 23.4949C21.4773 23.5032 21.457 23.5204 21.4435 23.5435C21.4299 23.5666 21.424 23.5941 21.4267 23.6216C21.4294 23.649 21.4405 23.6745 21.4583 23.6938H21.4276Z" fill="#DC0000"/>
<path d="M31.5541 25.7369C33.5216 24.7099 35.4224 23.5322 37.2426 22.2121C37.3269 22.1525 37.2426 22.0248 37.1506 22.0588C35.1775 23.05 33.2667 24.1878 31.4314 25.4644C31.2781 25.5666 31.3931 25.839 31.5541 25.7454V25.7369Z" fill="#DC0000"/>
<path d="M37.7871 21.6169C39.7574 20.3143 41.099 18.5775 43.4832 18.1432C46.2355 17.6324 48.8498 17.7686 51.2417 19.4459C51.3107 19.497 51.3721 19.3863 51.3107 19.3267C49.3634 17.5217 46.8412 17.2663 44.4109 17.6239C41.4363 18.0155 40.0717 19.6417 37.7794 21.6169C37.7794 21.6169 37.7794 21.668 37.7794 21.6169H37.7871Z" fill="#DC0000"/>
<path d="M16.0166 7.57767C16.5226 4.50414 14.192 0.894228 11.2327 1.03897C11.2063 1.03897 11.181 1.05063 11.1623 1.07139C11.1436 1.09214 11.1331 1.12029 11.1331 1.14964C11.1331 1.179 11.1436 1.20715 11.1623 1.22791C11.181 1.24867 11.2063 1.26033 11.2327 1.26033C12.5744 1.74562 13.7627 2.11172 14.698 3.39733C15.5103 4.59751 15.932 6.0683 15.8939 7.56916C15.8939 7.59174 15.902 7.61339 15.9164 7.62936C15.9308 7.64533 15.9503 7.6543 15.9706 7.6543C15.9909 7.6543 16.0104 7.64533 16.0248 7.62936C16.0392 7.61339 16.0473 7.59174 16.0473 7.56916L16.0166 7.57767Z" fill="#DC0000"/>
<path d="M6.86039 2.19629C8.47035 1.94938 10.065 1.57477 11.6826 1.34489L11.5906 1.03839C10.4866 1.46409 8.75401 0.604179 8.01803 1.9579C8.01199 1.96573 8.00739 1.97479 8.00451 1.98459C8.00163 1.99439 8.0005 2.00472 8.00121 2.015C8.00192 2.02528 8.00445 2.0353 8.00865 2.04449C8.01285 2.05369 8.01864 2.06187 8.02568 2.06858C8.03273 2.07529 8.04091 2.08039 8.04973 2.08359C8.05856 2.08679 8.06785 2.08804 8.07711 2.08725C8.08636 2.08646 8.09539 2.08365 8.10366 2.07898C8.11194 2.07432 8.11931 2.06789 8.12535 2.06006C9.17566 1.08947 10.4866 1.73654 11.6826 1.34489C11.7212 1.33586 11.755 1.31015 11.7766 1.27343C11.7982 1.2367 11.8057 1.19197 11.7976 1.14907C11.7895 1.10617 11.7663 1.06861 11.7332 1.04466C11.7002 1.02071 11.6599 1.01233 11.6213 1.02136C9.99834 1.1761 8.39476 1.52142 6.83739 2.05155C6.82812 2.04772 6.81815 2.04645 6.80833 2.04783C6.79852 2.04921 6.78915 2.05321 6.78103 2.05948C6.77291 2.06576 6.76626 2.07412 6.76168 2.08386C6.7571 2.09359 6.75471 2.10442 6.75471 2.11541C6.75471 2.12639 6.7571 2.13721 6.76168 2.14695C6.76626 2.15669 6.77291 2.16505 6.78103 2.17132C6.78915 2.17759 6.79852 2.18159 6.80833 2.18297C6.81815 2.18436 6.82812 2.18308 6.83739 2.17926L6.86039 2.19629Z" fill="#DC0000"/>
<path d="M54.7547 36.0303C55.7296 33.9881 56.3019 31.7388 56.4336 29.432C56.43 29.4229 56.4241 29.4151 56.4166 29.4097C56.4091 29.4042 56.4004 29.4013 56.3914 29.4013C56.3825 29.4013 56.3737 29.4042 56.3662 29.4097C56.3587 29.4151 56.3528 29.4229 56.3493 29.432C55.8279 31.6712 55.3373 33.8082 54.6397 35.9792C54.6397 36.0558 54.7163 36.1154 54.7547 36.0473V36.0303Z" fill="#DC0000"/>
<path d="M54.1715 35.7917C55.0408 33.8111 55.655 31.7045 55.9961 29.534C55.9961 29.4829 55.9271 29.4659 55.9118 29.534C55.2678 31.6114 54.7695 33.7228 54.0948 35.7832C54.0948 35.8428 54.1485 35.8683 54.1715 35.7832V35.7917Z" fill="#DC0000"/>
<path d="M53.8508 35.1791C54.8584 33.028 55.6035 30.7375 56.0664 28.3679C56.0664 28.2742 55.9591 28.2657 55.9284 28.3679C55.1158 30.59 54.5025 32.9314 53.7665 35.1791C53.7665 35.2387 53.8278 35.2812 53.8508 35.2301V35.1791Z" fill="#DC0000"/>
<path d="M52.6546 38.4234C54.117 36.5606 55.1438 34.3266 55.6445 31.9187C55.6445 31.8165 55.5219 31.7144 55.4759 31.825C54.5176 34.0302 53.6283 36.1757 52.5396 38.3127C52.5013 38.3893 52.601 38.5 52.6546 38.4234Z" fill="#DC0000"/>
<path d="M52.3574 38.4238C54.3029 36.6239 55.5808 34.0889 55.9453 31.3062C55.9453 31.2125 55.8303 31.204 55.8073 31.3062C54.9558 33.837 53.7359 36.1955 52.1964 38.2876C52.1121 38.3983 52.2654 38.526 52.3574 38.4494V38.4238Z" fill="#DC0000"/>
<path d="M52.9168 37.393C54.6874 35.2368 55.8124 32.524 56.1367 29.6282C56.1367 29.5989 56.1262 29.5707 56.1075 29.55C56.0889 29.5292 56.0635 29.5175 56.0371 29.5175C56.0106 29.5175 55.9853 29.5292 55.9666 29.55C55.9479 29.5707 55.9374 29.5989 55.9374 29.6282C55.1863 32.3302 54.111 34.9075 52.7405 37.2908C52.6638 37.41 52.8248 37.5717 52.9168 37.4611V37.393Z" fill="#DC0000"/>
<path d="M47.2975 43.5396C49.655 41.2947 51.8517 38.8495 53.8676 36.2262C53.906 36.2262 53.8676 36.124 53.7986 36.1581C51.4437 38.4001 49.2496 40.8425 47.2362 43.463C47.1978 43.463 47.2362 43.5822 47.2975 43.5396Z" fill="#DC0000"/>
<path d="M47.1039 43.6934C49.6245 42.3454 51.6808 40.1216 52.961 37.359C52.9712 37.342 52.9749 37.3213 52.9713 37.3014C52.9677 37.2814 52.9571 37.2638 52.9419 37.2526C52.9266 37.2413 52.908 37.2372 52.89 37.2412C52.872 37.2451 52.8562 37.2569 52.8461 37.2738C51.9107 38.3636 51.1671 39.6322 50.1858 40.6794C49.2045 41.7266 48.0852 42.5951 47.0272 43.5486C47.0173 43.5624 47.0115 43.5793 47.0105 43.5969C47.0096 43.6145 47.0137 43.6319 47.0221 43.6469C47.0305 43.6618 47.0429 43.6735 47.0575 43.6803C47.0722 43.6871 47.0884 43.6887 47.1039 43.6848V43.6934Z" fill="#DC0000"/>
<path d="M49.8793 41.8026C45.5059 44.7575 40.6446 46.7114 35.5814 47.5496C29.7932 48.4009 24.2733 47.0557 18.5618 46.2554C18.5082 46.2554 18.4928 46.3491 18.5618 46.3576C29.0265 49.2949 40.8636 49.0991 49.9943 41.9218C50.0556 41.8707 49.9943 41.7601 49.9253 41.8026H49.8793Z" fill="#DC0000"/>
<path d="M20.3776 47.2944C18.6318 46.1219 16.7691 45.179 14.8271 44.4848C14.7734 44.4848 14.7351 44.5529 14.7887 44.5784C16.5322 45.7523 18.3922 46.698 20.3316 47.3966C20.343 47.3988 20.3547 47.3969 20.365 47.3911C20.3753 47.3853 20.3837 47.376 20.3889 47.3645C20.394 47.353 20.3957 47.34 20.3937 47.3274C20.3917 47.3147 20.386 47.3032 20.3776 47.2944Z" fill="#DC0000"/>
<path d="M13.9608 44.2122C16.8128 45.7021 19.8208 46.7918 22.9153 47.4561C22.9996 47.4561 23.0149 47.3283 22.9153 47.3028C20.0557 46.0002 16.9047 45.0551 13.9455 44.0505C13.8458 44.0505 13.8075 44.1612 13.8995 44.2122H13.9608Z" fill="#DC0000"/>
<path d="M55.2302 24.1112C53.787 21.5646 51.6567 19.5892 49.143 18.4664C49.097 18.6197 49.0587 18.7644 49.0127 18.9091C51.7496 20.1692 53.6969 22.5105 55.6135 24.9455L55.9201 24.639C53.6662 22.3147 51.8723 19.4796 49.074 17.913L48.8363 18.3132C51.5852 19.826 53.9355 22.1018 55.6595 24.92C55.7822 25.1158 56.0581 24.92 56.0198 24.7157C55.7285 23.2513 54.6169 22.2807 53.7199 21.3101C52.4499 19.8606 50.9863 18.6373 49.3807 17.6831L49.2043 18.1003C51.931 19.2392 54.1668 21.4848 55.4602 24.3836C55.4829 24.4269 55.5174 24.461 55.5586 24.4813C55.5999 24.5016 55.6458 24.5069 55.6899 24.4966C55.7341 24.4862 55.7741 24.4607 55.8045 24.4236C55.8348 24.3865 55.8538 24.3397 55.8588 24.29C55.8588 22.6893 54.5095 21.6677 53.5206 20.68C52.1055 19.0994 50.3426 17.9576 48.407 17.3681C48.3643 17.3523 48.3177 17.356 48.2775 17.3783C48.2372 17.4007 48.2066 17.4399 48.1924 17.4873C48.1781 17.5347 48.1815 17.5865 48.2016 17.6312C48.2217 17.6759 48.257 17.7099 48.2997 17.7257C49.8214 18.2683 51.2329 19.136 52.4549 20.2799C53.4516 21.1909 55.4065 22.6978 55.4372 24.2985L55.8358 24.2048C54.4917 21.1923 52.1682 18.8584 49.3347 17.6746C49.1123 17.581 48.936 17.9726 49.1507 18.1003C50.6192 18.9673 51.9671 20.0656 53.1526 21.3612C53.6739 21.9146 54.1645 22.5105 54.6859 23.0639C54.9389 23.3449 56.1502 24.9115 55.1842 23.396C53.5768 21.0783 51.4955 19.2192 49.1124 17.9726C48.867 17.8364 48.6293 18.2365 48.8747 18.3728C51.6346 19.9223 53.4286 22.7149 55.6518 25.0051C55.8358 25.2009 56.1348 24.9285 55.9585 24.6986C53.9882 22.1444 52.0026 19.8286 49.1813 18.526C48.936 18.4153 48.8133 18.8495 49.051 18.9687C51.4523 20.1101 53.5127 21.9848 54.9925 24.3751C55.0998 24.5454 55.3682 24.3751 55.2685 24.1708L55.2302 24.1112Z" fill="#DC0000"/>
<path d="M48.8369 18.3306L49.3813 18.4668C49.4127 18.4751 49.4459 18.4701 49.4743 18.4528C49.5026 18.4354 49.5241 18.407 49.5347 18.373C49.5452 18.339 49.5439 18.3019 49.5312 18.2689C49.5184 18.2358 49.495 18.2093 49.4656 18.1943C48.125 17.6927 46.751 17.3083 45.3564 17.0449C44.5233 16.7762 43.6429 16.744 42.7958 16.9513C42.751 16.9513 42.7082 16.971 42.6765 17.0062C42.6449 17.0413 42.6271 17.0889 42.6271 17.1386C42.6271 17.1883 42.6449 17.2359 42.6765 17.271C42.7082 17.3062 42.751 17.3259 42.7958 17.3259C45.0214 17.5213 47.2321 17.8882 49.4119 18.4242C49.4525 18.4394 49.4967 18.4376 49.5362 18.4193C49.5757 18.4009 49.6079 18.3672 49.6267 18.3245C49.6455 18.2817 49.6496 18.2328 49.6383 18.187C49.627 18.1411 49.601 18.1013 49.5653 18.0751C48.1877 17.1578 46.6099 16.6778 45.0037 16.6874C43.8997 16.6022 42.7728 16.5596 41.9371 17.411C41.8375 17.5132 41.9371 17.709 42.0675 17.6324C44.0071 16.3298 47.6563 17.062 49.4042 18.3987L49.5499 18.0581C47.3407 17.511 45.0988 17.1411 42.8418 16.9513V17.3259C43.9764 16.9257 45.318 17.4025 46.445 17.675C46.9357 17.7942 47.4186 17.9134 47.9016 18.0496L48.8676 18.3306C49.1973 18.2028 49.1819 18.1518 48.8139 18.1858C48.7219 18.1858 48.7219 18.3135 48.8139 18.3306H48.8369Z" fill="#DC0000"/>
<path d="M39.779 18.7308C41.5192 18.1073 43.3213 17.7213 45.1455 17.5814C45.3448 17.5814 45.3601 17.2238 45.1455 17.2409C42.9146 17.3686 40.4613 18.1434 38.8744 19.9909C38.813 20.059 38.8743 20.2037 38.9663 20.1441C40.8983 18.7308 42.7536 17.6581 45.0995 17.5899V17.2494C43.2278 17.2787 41.3811 17.7306 39.6716 18.5776C39.595 18.6201 39.6333 18.7649 39.7177 18.7393L39.779 18.7308Z" fill="#DC0000"/>
<path d="M56.1029 28.5723C56.4813 27.432 56.4813 26.1792 56.1029 25.039C56.1029 24.9623 55.9726 25.039 55.9802 25.0901C56.0786 25.6531 56.1502 26.2215 56.1949 26.7929C56.2023 27.3665 56.143 27.9388 56.0186 28.4956C56.0186 28.5552 56.0952 28.5893 56.1106 28.4956L56.1029 28.5723Z" fill="#DC0000"/>
<path d="M56.1586 28.0278C56.3656 27.3297 57.3929 27.5 57.3393 28.1726C57.3341 28.2755 57.3036 28.3749 57.251 28.4598C57.1985 28.5448 57.1258 28.6121 57.0411 28.6543C56.9565 28.6965 56.8629 28.712 56.7708 28.6991C56.6787 28.6862 56.5916 28.6454 56.5189 28.5812C56.174 28.3258 56.2583 27.6192 56.2276 27.1935C56.1935 26.3976 56.0646 25.6104 55.8443 24.8521C55.8443 24.7414 55.6833 24.8521 55.691 24.9032C55.737 25.5332 55.8367 26.1633 55.8903 26.7848C55.8781 27.3241 55.9166 27.8634 56.0053 28.3939C56.0418 28.5361 56.1084 28.6665 56.1994 28.7743C56.2905 28.8821 56.4035 28.9642 56.5289 29.0137C56.6543 29.0633 56.7886 29.0788 56.9205 29.0591C57.0524 29.0393 57.1782 28.9849 57.2873 28.9003C57.3964 28.8156 57.4858 28.7033 57.5479 28.5725C57.61 28.4418 57.6432 28.2965 57.6445 28.1487C57.6458 28.0009 57.6153 27.8548 57.5556 27.7227C57.4958 27.5906 57.4085 27.4763 57.3009 27.3893C57.1884 27.3157 57.0615 27.2733 56.9311 27.2657C56.8007 27.2581 56.6705 27.2856 56.5517 27.3457C56.4328 27.4059 56.3287 27.497 56.2483 27.6112C56.1679 27.7255 56.1135 27.8597 56.0896 28.0023H56.1586V28.0278Z" fill="#DC0000"/>
<path d="M26.2364 28.8281C26.1168 28.3892 26.0958 27.9244 26.1751 27.4744C26.2693 27.0741 26.395 26.6838 26.5508 26.308C26.5508 26.2484 26.4971 26.1973 26.4588 26.2399C26.1984 26.5925 26.0353 27.0211 25.989 27.4743C25.9428 27.9274 26.0154 28.3857 26.1981 28.7941C26.1981 28.7941 26.2441 28.7941 26.2364 28.7941V28.8281Z" fill="#DC0000"/>
<path d="M25.6506 28.9895C25.5854 28.5012 25.5854 28.0049 25.6506 27.5166C25.7505 27.0451 25.8785 26.5815 26.0339 26.1288C26.0441 26.1063 26.0458 26.0801 26.0386 26.0562C26.0314 26.0322 26.0159 26.0124 25.9956 26.0011C25.9752 25.9898 25.9517 25.988 25.9301 25.996C25.9086 26.004 25.8907 26.0211 25.8806 26.0437C25.6451 26.4846 25.4972 26.9763 25.447 27.4859C25.3967 27.9954 25.4452 28.511 25.5893 28.998H25.6506V28.9895Z" fill="#DC0000"/>
<path d="M24.0284 25.5683C23.4296 27.4152 23.2326 29.3932 23.4534 31.3408C23.4534 31.3919 23.5301 31.3834 23.5377 31.3408C23.5351 29.4119 23.7175 27.4883 24.082 25.6024H24.0284V25.5683Z" fill="#DC0000"/>
<path d="M22.9151 24.5119C21.779 25.9082 21.0122 27.6259 20.6995 29.4755C20.6995 29.5521 20.7838 29.5947 20.8068 29.4755C21.3077 27.719 22.036 26.0527 22.9688 24.5289C22.9687 24.4864 22.9687 24.4353 22.9151 24.4693V24.5119Z" fill="#DC0000"/>
<path d="M20.1567 27.806C20.732 26.3385 21.4908 24.9685 22.4106 23.7363C22.4489 23.6852 22.4106 23.6256 22.3416 23.6597C21.2368 24.7582 20.4387 26.1852 20.0417 27.7719C20.0417 27.8315 20.1106 27.8656 20.126 27.7719L20.1567 27.806Z" fill="#DC0000"/>
<path d="M19.4326 27.5162C20.3041 26.2382 21.1079 24.9049 21.8398 23.5231C21.8398 23.4805 21.8398 23.4209 21.7785 23.4635C20.789 24.6484 19.9694 25.9952 19.3482 27.4566C19.3482 27.5162 19.3942 27.5672 19.4326 27.5162Z" fill="#DC0000"/>
<path d="M18.832 27.262C19.5603 26.0275 20.4266 24.8441 21.0859 23.567C21.0859 23.5074 21.04 23.4137 20.9863 23.4733C20.1166 24.6205 19.3681 25.8746 18.7554 27.211C18.7554 27.262 18.8014 27.3131 18.832 27.262Z" fill="#DC0000"/>
<path d="M18.5127 26.6223C18.8653 25.9923 19.218 25.3708 19.609 24.7663C19.9893 24.279 20.3257 23.7514 20.6133 23.1912C20.6133 23.1316 20.5596 23.0891 20.5136 23.1231C19.5936 23.8723 18.919 25.4219 18.3976 26.5287C18.3516 26.6223 18.4743 26.716 18.528 26.6223H18.5127Z" fill="#DC0000"/>
<path d="M17.9251 25.8138C18.1424 25.1627 18.3985 24.5284 18.6918 23.9152C18.9679 23.4787 19.2238 23.0269 19.4584 22.5615C19.462 22.5481 19.4618 22.5339 19.4578 22.5207C19.4539 22.5075 19.4464 22.496 19.4364 22.4876C19.4264 22.4793 19.4143 22.4746 19.4018 22.4741C19.3893 22.4736 19.3769 22.4773 19.3664 22.4848C18.4883 23.3266 17.9386 24.5139 17.8331 25.7968C17.8331 25.8564 17.9021 25.8649 17.9251 25.7968V25.8138Z" fill="#DC0000"/>
<path d="M17.076 24.963C17.6739 23.9668 18.3946 23.0388 18.9619 22.0342C18.9691 22.0145 18.9707 21.9929 18.9663 21.9722C18.962 21.9515 18.952 21.9329 18.9376 21.9188C18.9233 21.9048 18.9054 21.896 18.8864 21.8938C18.8674 21.8916 18.8482 21.896 18.8316 21.9064C18.0364 22.7603 17.4029 23.7821 16.9686 24.9119C16.9686 24.98 17.0376 25.0311 17.076 24.963Z" fill="#DC0000"/>
<path d="M18.183 25.5674C18.8252 24.7356 19.3665 23.8139 19.793 22.8259C19.793 22.7578 19.7316 22.6982 19.6933 22.7493C19.0398 23.5719 18.4928 24.4918 18.068 25.4822C18.0579 25.4992 18.0542 25.5199 18.0578 25.5399C18.0614 25.5598 18.0719 25.5774 18.0872 25.5887C18.1024 25.6 18.1211 25.6041 18.1391 25.6001C18.1571 25.5961 18.1729 25.5843 18.183 25.5674Z" fill="#DC0000"/>
<path d="M18.3614 25.7291C19.0725 24.9683 19.6934 24.11 20.209 23.1749C20.2627 23.0472 20.1477 22.9109 20.0404 23.0046C19.3385 23.7921 18.7305 24.6762 18.2311 25.6354C18.1851 25.712 18.2924 25.8312 18.3614 25.7546V25.7291Z" fill="#DC0000"/>
<path d="M19.0208 25.7629C19.2968 25.3713 19.5421 24.9115 19.7875 24.5454L20.1324 23.975L20.3088 23.6855C20.3583 23.6442 20.3946 23.5864 20.4125 23.5206C20.4305 23.4547 20.429 23.3843 20.4085 23.3194C20.3972 23.3259 20.3877 23.3356 20.3811 23.3476C20.3746 23.3597 20.3711 23.3735 20.3711 23.3875C20.3711 23.4016 20.3746 23.4154 20.3811 23.4274C20.3877 23.4394 20.3972 23.4492 20.4085 23.4556C20.4236 23.4695 20.4425 23.477 20.4621 23.477C20.4817 23.477 20.5007 23.4695 20.5158 23.4556L20.5618 23.4046C20.575 23.3833 20.582 23.358 20.582 23.3322C20.582 23.3063 20.575 23.2811 20.5618 23.2598V23.1917C20.5472 23.1667 20.5264 23.1469 20.5019 23.1348C20.4774 23.1227 20.4503 23.1188 20.4238 23.1236C20.0788 23.1236 19.9178 23.6855 19.7491 23.975C19.4348 24.5199 19.1128 25.0648 18.8368 25.6778C18.8286 25.6889 18.8226 25.7018 18.8192 25.7156C18.8158 25.7295 18.815 25.744 18.817 25.7582C18.819 25.7724 18.8237 25.786 18.8307 25.798C18.8377 25.8101 18.8469 25.8204 18.8578 25.8282C18.8686 25.8361 18.8809 25.8413 18.8936 25.8435C18.9064 25.8457 18.9195 25.8449 18.932 25.8412C18.9444 25.8374 18.9561 25.8308 18.9661 25.8217C18.9761 25.8126 18.9843 25.8013 18.9901 25.7885L19.0208 25.7629Z" fill="#DC0000"/>
<path d="M19.0804 25.6176C19.5665 24.7902 19.9677 23.9049 20.2763 22.9783C20.2794 22.9543 20.2754 22.9298 20.2647 22.9086C20.2541 22.8874 20.2375 22.8707 20.2174 22.861C20.1974 22.8513 20.175 22.8492 20.1538 22.8551C20.1326 22.8609 20.1137 22.8743 20.1 22.8932C19.6323 23.7322 19.2492 24.6259 18.9577 25.558C18.9551 25.5749 18.9577 25.5922 18.965 25.6072C18.9723 25.6223 18.984 25.6342 18.9981 25.641C19.0122 25.6479 19.0279 25.6493 19.0428 25.6451C19.0577 25.6408 19.071 25.6312 19.0804 25.6176Z" fill="#DC0000"/>
<path d="M17.2728 24.8946C17.8419 24.0879 18.3545 23.234 18.8061 22.3404C18.8127 22.3287 18.8171 22.3156 18.8191 22.302C18.8211 22.2884 18.8206 22.2744 18.8178 22.261C18.8149 22.2475 18.8097 22.2349 18.8025 22.2237C18.7952 22.2124 18.786 22.2029 18.7755 22.1957C18.7649 22.1884 18.7531 22.1835 18.7409 22.1813C18.7286 22.1791 18.716 22.1796 18.7039 22.1827C18.6918 22.1859 18.6804 22.1917 18.6703 22.1997C18.6602 22.2078 18.6517 22.218 18.6451 22.2297C18.089 23.0538 17.5918 23.9249 17.1578 24.835C17.1578 24.9031 17.2038 24.9542 17.2498 24.8946H17.2728Z" fill="#DC0000"/>
<path d="M16.4469 24.92C17.2331 23.7148 17.9575 22.4612 18.6165 21.1654C18.6549 21.0717 18.5552 20.944 18.4785 21.0291C17.5775 22.1662 16.8428 23.4533 16.3012 24.8434C16.2629 24.937 16.3932 24.9966 16.4469 24.92Z" fill="#DC0000"/>
<path d="M15.5245 24.2476C16.0776 23.6247 16.5899 22.959 17.0578 22.2553C17.6904 21.5169 18.2577 20.713 18.7521 19.8544C18.7548 19.8432 18.7545 19.8314 18.7512 19.8204C18.7479 19.8095 18.7419 19.7998 18.7338 19.7926C18.7256 19.7854 18.7158 19.7809 18.7054 19.7798C18.6951 19.7787 18.6847 19.7809 18.6754 19.7862C18.1044 20.3935 17.5906 21.0639 17.1422 21.787C16.5359 22.5514 15.9824 23.3653 15.4862 24.222C15.4862 24.222 15.4862 24.3242 15.5475 24.2816L15.5245 24.2476Z" fill="#DC0000"/>
<path d="M18.5998 22.1096C21.2371 24.7745 25.2927 28.0694 28.9879 25.9579C29.0154 25.9477 29.038 25.9259 29.051 25.8972C29.0639 25.8684 29.0661 25.8351 29.0569 25.8047C29.0478 25.7742 29.0281 25.749 29.0022 25.7346C28.9763 25.7202 28.9463 25.7179 28.9189 25.728C24.7867 26.8944 21.9271 24.502 18.7915 21.8627C18.6612 21.752 18.4772 21.9819 18.5998 22.1096Z" fill="#DC0000"/>
<path d="M32.5144 31.8584C32.3749 30.4112 32.562 28.9483 33.0587 27.6014C33.1967 27.1417 33.741 26.4265 33.718 25.8986C33.719 25.8765 33.714 25.8545 33.7036 25.8356C33.6932 25.8167 33.6779 25.8016 33.6597 25.7925C33.6416 25.7833 33.6213 25.7804 33.6016 25.7841C33.582 25.7879 33.5638 25.7981 33.5494 25.8135C33.4957 25.8135 33.488 25.8901 33.4344 25.9753C33.3807 26.0604 33.4344 26.12 33.5187 26.0774C33.603 26.0348 33.4344 25.9327 33.3884 26.0774L33.304 26.2392C33.2075 26.3942 33.1253 26.5596 33.0587 26.733C32.8323 27.3113 32.6576 27.9131 32.5374 28.5294C32.1891 29.5836 32.1436 30.7317 32.4071 31.8158C32.4071 31.8839 32.5297 31.8158 32.5144 31.7733V31.8584Z" fill="#DC0000"/>
<path d="M31.7769 31.7743C31.7396 30.6003 31.8453 29.4261 32.0912 28.2836C32.3832 27.2891 32.7499 26.3236 33.1875 25.3974C33.1875 25.3122 33.1108 25.2782 33.0725 25.3293C32.461 26.2441 32.0211 27.2859 31.7788 28.393C31.5365 29.5 31.4967 30.6499 31.6619 31.7743C31.6619 31.8424 31.7769 31.8339 31.7769 31.7743Z" fill="#DC0000"/>
<path d="M30.4901 32.455C30.8128 29.9843 31.3258 27.5489 32.0234 25.1756C32.0234 25.0819 31.9238 25.0138 31.8778 25.0989C30.8747 27.3889 30.3705 29.9087 30.4058 32.455C30.4058 32.5146 30.4902 32.5231 30.4978 32.455H30.4901Z" fill="#DC0000"/>
<path d="M29.5719 31.5864C29.8019 30.5818 30.0089 29.5686 30.3386 28.5895C30.6682 27.6104 31.1052 26.6824 31.3889 25.7118C31.3928 25.6895 31.39 25.6664 31.3808 25.6461C31.3717 25.6258 31.3567 25.6095 31.3382 25.5997C31.3197 25.59 31.2989 25.5873 31.2789 25.5922C31.2589 25.5971 31.241 25.6092 31.2279 25.6267C30.235 27.4361 29.6316 29.4756 29.4646 31.5864C29.4646 31.6801 29.5873 31.7141 29.6026 31.5864H29.5719Z" fill="#DC0000"/>
<path d="M28.9489 31.5098C29.2785 29.6027 29.8842 27.8488 30.3672 25.9928C30.3672 25.8481 30.2062 25.7204 30.1372 25.8736C29.3789 27.6328 28.9041 29.526 28.7342 31.4673C28.7342 31.6035 28.9259 31.6461 28.9489 31.4673V31.5098Z" fill="#DC0000"/>
<path d="M28.4426 30.8037C28.9355 29.8492 29.307 28.8234 29.5466 27.7557C29.6692 27.3896 30.1676 26.5552 29.7919 26.2402C29.772 26.2237 29.7478 26.2147 29.7229 26.2147C29.698 26.2147 29.6738 26.2237 29.6539 26.2402L29.6002 26.2998C29.5919 26.3086 29.5852 26.3191 29.5807 26.3309C29.5761 26.3426 29.5738 26.3552 29.5738 26.3679C29.5738 26.3807 29.5761 26.3933 29.5807 26.405C29.5852 26.4167 29.5919 26.4273 29.6002 26.4361V26.4786C29.6089 26.4906 29.6207 26.4995 29.6339 26.504C29.6472 26.5085 29.6614 26.5084 29.6747 26.5038C29.6879 26.4992 29.6996 26.4903 29.7082 26.4782C29.7168 26.4661 29.7219 26.4514 29.7229 26.4361C29.5313 26.4361 29.4392 26.5723 29.4546 26.8192L29.2552 27.4662C29.1326 27.8494 29.0253 28.224 28.9103 28.6071C28.6384 29.299 28.4552 30.0298 28.3659 30.7782H28.4196L28.4426 30.8037Z" fill="#DC0000"/>
<path d="M28.2809 30.2666C28.7409 29.2279 28.9632 28.0019 29.3465 26.861L28.9939 26.7929C29.0015 27.2412 28.9121 27.685 28.7332 28.087C28.6949 28.1636 28.8022 28.2062 28.8405 28.1466C29.1038 27.7721 29.2778 27.33 29.3465 26.861C29.3513 26.8138 29.341 26.7663 29.3176 26.7266C29.2942 26.6869 29.2591 26.6574 29.2183 26.6433C29.1775 26.6292 29.1336 26.6314 29.094 26.6493C29.0544 26.6673 29.0217 26.7 29.0015 26.7418C28.5374 27.8116 28.2492 28.9649 28.1505 30.1474C28.1505 30.2155 28.2502 30.2666 28.2809 30.1474V30.2666Z" fill="#DC0000"/>
<path d="M28.2819 29.8156C28.4839 28.8425 28.7399 27.8843 29.0486 26.9464C29.0581 26.8993 29.053 26.8501 29.034 26.8066C29.0151 26.7632 28.9834 26.7283 28.9442 26.7075C28.905 26.6867 28.8606 26.6814 28.8182 26.6923C28.7759 26.7032 28.7382 26.7298 28.7113 26.7676C28.4506 27.3125 28.1593 28.1213 27.9446 28.564C28.0289 28.8195 28.0826 28.7513 28.0979 28.3427C28.1958 27.9864 28.2676 27.622 28.3126 27.2529C28.3126 27.04 28.1056 26.8613 27.9829 27.0741C27.6226 27.602 27.6226 27.6701 27.9829 27.2614C27.9999 27.2136 28.0001 27.1604 27.9834 27.1124C27.9666 27.0645 27.9342 27.0253 27.8926 27.0027C27.8509 26.9801 27.8032 26.9758 27.7588 26.9906C27.7145 27.0054 27.6768 27.0383 27.6533 27.0826C27.1166 27.8489 27.5383 27.5679 27.6993 26.6484C27.7088 26.609 27.7079 26.5675 27.6968 26.5286C27.6857 26.4898 27.6647 26.4553 27.6365 26.4293C27.6082 26.4033 27.5738 26.3869 27.5374 26.382C27.5009 26.377 27.464 26.3838 27.431 26.4015L27.2393 26.4781C27.2091 26.4919 27.1834 26.5156 27.1656 26.546C27.1478 26.5764 27.1387 26.6121 27.1396 26.6484V26.9208C27.1375 26.9673 27.149 27.0132 27.1725 27.0516C27.1961 27.0901 27.2303 27.1189 27.27 27.1337C28.0366 27.4572 29.0562 26.9038 29.8152 26.708C29.8586 26.6982 29.8975 26.6721 29.9255 26.6341C29.9535 26.5961 29.9688 26.5485 29.9688 26.4994C29.9688 26.4503 29.9535 26.4027 29.9255 26.3647C29.8975 26.3267 29.8586 26.3006 29.8152 26.2908C29.1719 26.2136 28.5213 26.2743 27.8986 26.4696C27.4399 26.5469 26.9934 26.696 26.5723 26.9123C25.9667 27.3295 26.074 27.1592 26.8636 27.2955C27.3732 27.3575 27.8874 27.3575 28.3969 27.2955C29.4856 27.1848 27.5306 27.1763 27.3083 27.1592C26.005 27.0315 24.717 26.8783 23.4291 26.6484C23.2144 26.6484 23.1454 27.0145 23.3601 27.0741C24.0498 27.3423 24.7648 27.5223 25.4913 27.6105C24.7247 27.6871 23.6974 26.7591 23.0458 26.393C22.3941 26.0269 18.4919 23.4982 18.9979 22.4766C19.011 22.4536 19.0198 22.4281 19.024 22.4013C19.0282 22.3746 19.0276 22.3472 19.0223 22.3207C19.017 22.2942 19.007 22.2692 18.9929 22.247C18.9788 22.2248 18.961 22.2059 18.9404 22.1914C18.9197 22.1768 18.8967 22.1669 18.8726 22.1623C18.8485 22.1576 18.8239 22.1583 18.8 22.1642C18.7762 22.1701 18.7536 22.1812 18.7336 22.1968C18.7136 22.2124 18.6966 22.2323 18.6835 22.2552L18.4075 22.7064C18.3796 22.7467 18.3644 22.7961 18.3644 22.8469C18.3644 22.8978 18.3796 22.9472 18.4075 22.9874C19.7954 24.6134 21.4173 25.9715 23.2067 27.006C24.211 27.5679 25.246 28.2916 26.3423 27.7808C26.3764 27.7628 26.4053 27.7345 26.4254 27.6991C26.4456 27.6637 26.4564 27.6226 26.4564 27.5807C26.4564 27.5388 26.4456 27.4977 26.4254 27.4623C26.4053 27.4269 26.3764 27.3985 26.3423 27.3806C25.9743 27.2869 23.9811 26.4611 24.1957 27.2188C24.2724 27.4657 26.6106 27.5339 26.9173 27.5594C27.8066 27.636 28.9259 27.9851 29.6772 27.321C29.7058 27.2916 29.7259 27.2535 29.7352 27.2115C29.7445 27.1695 29.7425 27.1254 29.7294 27.0846C29.7164 27.0439 29.6929 27.0082 29.6618 26.9822C29.6307 26.9561 29.5934 26.9407 29.5546 26.9379C28.0424 26.8115 26.5229 26.8428 25.016 27.0315C24.7937 27.0315 24.832 27.4232 25.016 27.4487C26.0343 27.4454 27.045 27.2526 28.006 26.8783C28.5043 26.7506 29.9302 26.3504 28.8186 26.5377C28.3973 26.537 27.9876 26.6911 27.6534 26.976C27.3192 27.261 27.0793 27.6606 26.971 28.1128C26.8943 28.3512 27.178 28.4704 27.3083 28.2916C27.7146 27.7382 27.7683 27.6445 27.4693 28.0191C27.4156 28.232 27.6839 28.4023 27.7989 28.1979C28.4813 27.006 27.5536 29.0493 27.4846 29.2877C27.4156 29.5261 27.707 29.6538 27.8066 29.458L28.6116 27.8148C28.4736 27.3976 28.3816 27.4147 28.3509 27.8744C28.1749 28.4843 28.0517 29.1115 27.9829 29.7475C27.9853 29.7829 27.998 29.8165 28.0193 29.8431C28.0405 29.8696 28.069 29.8877 28.1004 29.8945C28.1318 29.9013 28.1644 29.8964 28.193 29.8806C28.2217 29.8648 28.2448 29.839 28.2589 29.8071L28.2819 29.8156Z" fill="#DC0000"/>
<path d="M52.5438 28.2743C53.6208 26.7002 54.4028 24.9024 54.8438 22.9871C54.8398 22.976 54.8329 22.9666 54.824 22.9599C54.8151 22.9532 54.8046 22.9496 54.7939 22.9496C54.7832 22.9496 54.7727 22.9532 54.7638 22.9599C54.7549 22.9666 54.7481 22.976 54.7441 22.9871C54.1148 24.8078 53.3613 26.5725 52.4901 28.2657C52.4901 28.2657 52.4901 28.3424 52.5438 28.2657V28.2743Z" fill="#DC0000"/>
<path d="M56.3953 30.0702C56.8762 29.097 57.1955 28.0357 57.3383 26.937H57.001C57.0113 28.0636 56.8586 29.1847 56.5486 30.2575L56.8936 30.3256C57.2355 28.7306 57.2643 27.0726 56.978 25.4641C56.9696 25.4202 56.9479 25.3808 56.9165 25.3526C56.8851 25.3243 56.8459 25.3089 56.8055 25.3089C56.765 25.3089 56.7259 25.3243 56.6945 25.3526C56.6631 25.3808 56.6414 25.4202 56.633 25.4641C56.2267 28.1801 55.253 30.5725 54.471 33.1863C54.4639 33.2085 54.4645 33.2328 54.4728 33.2545C54.4811 33.2762 54.4964 33.2936 54.5158 33.3033C54.5351 33.3129 54.5571 33.3142 54.5772 33.3067C54.5973 33.2992 54.6141 33.2836 54.6243 33.2629C55.8586 30.9386 56.426 28.1545 56.9703 25.5322H56.633C56.9092 27.1049 56.8779 28.7251 56.541 30.283C56.541 30.5044 56.8246 30.5555 56.886 30.3511C57.2043 29.2513 57.3571 28.1006 57.3383 26.9456C57.3383 26.8959 57.3205 26.8482 57.2889 26.8131C57.2573 26.778 57.2144 26.7583 57.1696 26.7583C57.1249 26.7583 57.082 26.778 57.0504 26.8131C57.0187 26.8482 57.001 26.8959 57.001 26.9456C56.8696 27.9924 56.6117 29.0148 56.2343 29.985C56.1806 30.1127 56.3646 30.2064 56.426 30.0957L56.3953 30.0702Z" fill="#DC0000"/>
<path d="M49.6571 29.0322C51.1051 27.2841 52.265 25.2668 53.084 23.0725C53.087 23.0663 53.0889 23.0596 53.0896 23.0526C53.0902 23.0456 53.0897 23.0386 53.0879 23.0319C53.0861 23.0251 53.0831 23.0189 53.0792 23.0134C53.0752 23.008 53.0704 23.0034 53.0648 23.0001C53.0593 22.9967 53.0532 22.9946 53.0469 22.9939C53.0406 22.9931 53.0343 22.9938 53.0283 22.9957C53.0222 22.9977 53.0166 23.001 53.0117 23.0054C53.0068 23.0098 53.0027 23.0152 52.9996 23.0214C52.016 25.1039 50.8855 27.0967 49.6187 28.9811C49.6187 28.9811 49.6187 29.0407 49.6571 28.9811V29.0322Z" fill="#DC0000"/>
<path d="M48.9824 28.5296C50.5485 26.6863 51.8306 24.5692 52.7773 22.2633C52.7773 22.2633 52.7237 22.1782 52.7007 22.2633C51.5492 24.4233 50.3006 26.5176 48.9594 28.5381C48.9594 28.5381 48.9594 28.5381 48.9594 28.5381L48.9824 28.5296Z" fill="#DC0000"/>
<path d="M48.8764 27.6445C50.2577 25.7228 51.5253 23.7036 52.6712 21.5996C52.6748 21.594 52.6772 21.5877 52.6786 21.5811C52.6799 21.5744 52.68 21.5675 52.679 21.5608C52.6779 21.5541 52.6757 21.5477 52.6724 21.5419C52.6691 21.5362 52.6648 21.5312 52.6597 21.5273C52.6547 21.5233 52.649 21.5206 52.643 21.5191C52.637 21.5176 52.6308 21.5175 52.6248 21.5187C52.6187 21.5198 52.6129 21.5223 52.6078 21.526C52.6026 21.5297 52.5981 21.5344 52.5946 21.54C51.2231 23.47 49.9633 25.4947 48.8227 27.602L48.8764 27.6445Z" fill="#DC0000"/>
<path d="M50.8983 28.5039C52.221 26.8674 53.2606 24.974 53.9648 22.9187C53.9648 22.8591 53.9112 22.825 53.8805 22.9187C52.7766 24.7066 51.9409 26.6904 50.8139 28.4783C50.8094 28.4907 50.8087 28.5044 50.812 28.5172C50.8152 28.53 50.8223 28.5413 50.832 28.5492C50.8417 28.557 50.8535 28.561 50.8656 28.5605C50.8776 28.56 50.8891 28.5551 50.8983 28.5464V28.5039Z" fill="#DC0000"/>
<path d="M51.819 28.5554C52.9384 27.1609 53.7564 25.5011 54.2109 23.7024C54.2115 23.6802 54.2056 23.6584 54.194 23.6402C54.1825 23.6221 54.1659 23.6086 54.1468 23.6019C54.1278 23.5951 54.1072 23.5955 54.0883 23.6029C54.0695 23.6103 54.0533 23.6243 54.0422 23.6428C53.4036 25.3313 52.6206 26.9479 51.7039 28.4702C51.6503 28.5554 51.7653 28.632 51.819 28.5554Z" fill="#DC0000"/>
<path d="M38.7028 37.4189C41.9987 35.5028 44.9464 32.9249 47.3966 29.816C47.4579 29.7394 47.3429 29.6627 47.2816 29.7308C44.8283 32.9406 41.7771 35.035 38.6875 37.3934L38.7028 37.4189Z" fill="#DC0000"/>
<path d="M38.3562 38.0152C36.6466 39.0028 34.8986 40.8248 32.913 40.9355C30.9274 41.0462 29.0798 40.4417 27.1938 40.2884C27.1402 40.2884 27.1402 40.3736 27.1938 40.3906C29.0951 40.7567 31.4794 41.4293 33.396 41.0802C35.1746 40.7567 36.9609 39.1986 38.3945 38.0748V38.0152H38.3562Z" fill="#DC0000"/>
<path d="M8.81732 7.2627L9.07031 6.82849L8.80967 7.2627H8.81732Z" fill="#DC0000"/>
<path d="M15.0126 6.89626C15.8943 3.03093 12.176 0.749198 9.22444 0.527836C9.16311 0.527836 9.14011 0.638512 9.22444 0.65554C12.015 1.50693 15.4803 2.86917 14.9283 6.87072C14.9323 6.88179 14.9391 6.89127 14.948 6.89795C14.9569 6.90463 14.9674 6.9082 14.9781 6.9082C14.9888 6.9082 14.9993 6.90463 15.0082 6.89795C15.0171 6.89127 15.024 6.88179 15.0279 6.87072L15.0126 6.89626Z" fill="#DC0000"/>
<path d="M6.5275 2.72461C6.68083 2.45216 6.98749 2.39257 7.22516 2.25634C7.26349 2.25634 7.26349 2.15417 7.22516 2.14566C7.15062 2.1293 7.07381 2.13071 6.9998 2.14979C6.92579 2.16887 6.85626 2.20519 6.79583 2.25634C6.66112 2.36834 6.55966 2.52252 6.5045 2.69907L6.5275 2.72461Z" fill="#DC0000"/>
<path d="M2.15756 10.7871C2.56788 9.28727 3.08047 7.82432 3.69087 6.41094C4.31368 5.2172 5.01854 4.07862 5.79916 3.00536C5.80621 2.99697 5.81168 2.98713 5.81531 2.97639C5.81893 2.96565 5.82062 2.95422 5.82027 2.94276C5.81991 2.93129 5.81753 2.92002 5.81325 2.90958C5.80897 2.89914 5.80288 2.88974 5.79533 2.88191C5.78777 2.87408 5.77891 2.86798 5.76924 2.86396C5.75957 2.85994 5.74926 2.85807 5.73894 2.85847C5.72862 2.85886 5.71846 2.86152 5.70906 2.86627C5.69966 2.87102 5.69119 2.87778 5.68415 2.88617C3.70399 4.97256 2.45667 7.77313 2.16522 10.7871C2.16522 10.7871 2.16522 10.7871 2.16522 10.7871H2.15756Z" fill="#DC0000"/>
<path d="M2.07974 10.7789C0.032804 14.9252 0.485128 19.8463 1.41277 24.2991C1.41277 24.3586 1.52008 24.3586 1.52008 24.2991C1.41275 22.0684 0.906773 19.8803 0.853108 17.6411C0.837101 15.2917 1.28456 12.9669 2.16406 10.83C2.16406 10.7789 2.10274 10.7363 2.07974 10.83V10.7789Z" fill="#DC0000"/>
<path d="M46.7341 43.1491C48.7315 42.024 50.4523 40.376 51.748 38.3472C51.8323 38.211 51.6483 38.0748 51.5563 38.2025C50.2452 40.1535 48.5852 41.7825 46.6804 42.9873C46.6658 43.0011 46.6559 43.02 46.6522 43.0409C46.6486 43.0618 46.6515 43.0835 46.6604 43.1023C46.6693 43.1211 46.6838 43.1361 46.7014 43.1446C46.7189 43.1531 46.7386 43.1547 46.7571 43.1491H46.7341Z" fill="#DC0000"/>
<path d="M46.1777 43.3103C48.1593 41.9681 49.965 40.3294 51.5443 38.4403C51.6286 38.3382 51.5443 38.1764 51.4139 38.2701C49.7344 40.0292 47.9574 41.6699 46.0934 43.1826C46.0321 43.2337 46.0934 43.3529 46.17 43.3103H46.1777Z" fill="#DC0000"/>
<path d="M44.9189 43.0298C47.2651 41.4095 49.4362 39.4955 51.3894 37.3254C51.4036 37.3119 51.4124 37.2926 51.4139 37.2718C51.4153 37.2511 51.4092 37.2305 51.397 37.2147C51.3848 37.1989 51.3675 37.1892 51.3488 37.1876C51.3301 37.186 51.3116 37.1927 51.2974 37.2062C49.1354 39.0878 47.0195 41.0545 44.8805 42.9617C44.8805 42.9617 44.8806 43.0553 44.9189 43.0298Z" fill="#DC0000"/>
<path d="M45.8057 42.9017C47.8222 41.7561 49.6188 40.1859 51.0956 38.2787C51.1723 38.1765 51.0266 38.0403 50.9423 38.1254C49.3011 39.8112 47.5705 41.3862 45.7597 42.8421C45.7214 42.8421 45.7597 42.9443 45.8057 42.9188V42.9017Z" fill="#DC0000"/>
<path d="M45.1493 42.3813C47.0252 41.2388 48.7066 39.7404 50.1172 37.954C50.1172 37.954 50.1172 37.8603 50.0635 37.8859C49.255 38.5099 48.4865 39.1955 47.7636 39.9377C46.8896 40.7295 45.9773 41.4703 45.1033 42.2791C45.0573 42.2791 45.1033 42.4153 45.1646 42.3813H45.1493Z" fill="#DC0000"/>
<path d="M44.7109 41.8723C46.6768 40.6375 48.515 39.1672 50.1924 37.4876C50.2767 37.4024 50.1924 37.2151 50.0774 37.2917C48.2144 38.671 46.4128 40.2461 44.6112 41.7105C44.5269 41.7786 44.6112 41.9319 44.7109 41.8723Z" fill="#DC0000"/>
<path d="M43.2092 42.2119C45.4095 40.6368 47.5255 38.9 49.6261 37.1631L49.4037 36.8822L47.4488 38.5339C47.2035 38.7467 45.6932 39.7173 46.1838 40.0153C46.4368 40.1771 49.5111 37.0439 49.8867 36.7119L49.6567 36.4224C48.2154 38.0656 46.5901 39.5045 45.1182 41.0625C45.0415 41.1392 45.1182 41.2924 45.2179 41.2328C46.9094 39.9073 48.4739 38.3924 49.8867 36.7119C49.9128 36.6759 49.9267 36.6308 49.9257 36.5846C49.9248 36.5384 49.9092 36.4941 49.8817 36.4594C49.8541 36.4248 49.8164 36.402 49.7753 36.3953C49.7341 36.3885 49.6921 36.3981 49.6567 36.4224C48.2691 37.6655 46.8815 38.9085 45.5169 40.1771C45.3635 40.3133 45.5629 40.5517 45.7085 40.424C46.9965 39.3172 48.3074 38.2529 49.6031 37.1631C49.7794 37.0184 49.5571 36.7374 49.3807 36.8822C47.2878 38.585 45.1565 40.2878 43.0789 41.9905C42.9869 42.0672 43.0789 42.2375 43.1863 42.1693L43.2092 42.2119Z" fill="#DC0000"/>
<path d="M38.7532 36.8818C40.771 35.5261 42.6885 33.9945 44.4877 32.3013L44.227 32.114L44.135 32.6078C44.135 32.693 44.2194 32.7611 44.273 32.6759C44.3267 32.5908 44.434 32.4035 44.5184 32.2673C44.6027 32.1311 44.411 31.9097 44.273 32.0289C42.4331 33.6636 40.5395 35.162 38.6305 36.686C38.5385 36.7626 38.6305 36.95 38.7532 36.8818Z" fill="#DC0000"/>
<path d="M38.1598 37.1299C40.3138 36.2879 42.2891 34.9636 43.9633 33.239L43.741 32.958C43.442 33.2731 43.1583 33.5966 42.8823 33.9372C42.8727 33.9515 42.8679 33.9691 42.8688 33.9869C42.8696 34.0048 42.876 34.0218 42.887 34.0349C42.8979 34.048 42.9126 34.0565 42.9285 34.0589C42.9445 34.0612 42.9607 34.0573 42.9743 34.0478C43.3116 33.7839 43.6336 33.52 43.9633 33.1964C44.132 33.0432 43.9096 32.7793 43.741 32.9155C41.9424 34.3925 40.0372 35.7024 38.0448 36.8319C37.8915 36.917 38.0065 37.1469 38.1598 37.0873V37.1299Z" fill="#DC0000"/>
<path d="M37.9506 38.4141C39.6979 37.3871 41.3536 36.1784 42.8954 34.8041C43.6621 34.0464 41.8528 35.315 42.0751 35.1617C41.8145 35.3405 41.5385 35.4938 41.3085 35.6981C40.823 36.0801 40.3981 36.5491 40.0512 37.0859C39.9745 37.1966 40.1048 37.3498 40.2122 37.2902C42.1743 36.2013 43.943 34.7273 45.433 32.9396C45.4544 32.9181 45.4672 32.8881 45.4686 32.8562C45.4701 32.8243 45.46 32.793 45.4407 32.7693C45.4214 32.7456 45.3944 32.7314 45.3656 32.7298C45.3369 32.7282 45.3087 32.7393 45.2874 32.7608C44.5897 33.3653 43.9381 34.0379 43.2404 34.6509C42.5428 35.2639 41.0862 35.9195 40.6032 36.6857C41.2778 35.6045 42.8494 35.2298 43.6698 34.2167C43.7847 34.0805 43.6697 33.7995 43.4857 33.9187C41.5691 35.2639 39.6525 36.6772 37.8356 38.1757C37.7282 38.2693 37.8356 38.4651 37.9659 38.397L37.9506 38.4141Z" fill="#DC0000"/>
<path d="M38.7625 36.7967C37.0988 37.6481 35.5732 38.7975 33.9479 39.7596C32.1003 40.8494 30.1147 40.5258 28.0677 40.4322C28.0433 40.4322 28.0199 40.443 28.0027 40.4621C27.9854 40.4813 27.9757 40.5073 27.9757 40.5344C27.9757 40.5615 27.9854 40.5874 28.0027 40.6066C28.0199 40.6258 28.0433 40.6365 28.0677 40.6365C29.8157 40.7132 31.74 41.0963 33.4343 40.3556C35.3365 39.4149 37.1368 38.2382 38.8008 36.8478C38.8008 36.8478 38.8008 36.7797 38.8008 36.7967H38.7625Z" fill="#DC0000"/>
<path d="M26.6094 40.4834C22.0095 40.6367 14.4043 38.5422 12.365 33.6126C12.319 33.4935 12.1581 33.6126 12.2041 33.7063C13.3694 36.5755 15.0406 37.4184 17.6319 38.5252C20.5298 39.7597 23.4738 40.7133 26.6094 40.5004V40.4834Z" fill="#DC0000"/>
<path d="M45.8531 22.1606C46.2364 21.5476 46.6197 20.9176 47.0031 20.3216C47.3864 19.7257 47.877 19.1893 48.268 18.6189C48.314 18.5507 48.2297 18.4826 48.176 18.5252C47.133 19.5154 46.2982 20.7477 45.7304 22.1351C45.7304 22.2117 45.8071 22.2628 45.8531 22.1947V22.1606Z" fill="#DC0000"/>
<path d="M45.0266 21.5572C45.9318 20.5956 46.7438 19.5312 47.4492 18.3815C47.4952 18.3049 47.3955 18.2027 47.3342 18.2708C46.4409 19.2456 45.6418 20.3213 44.9499 21.4806C44.9115 21.5402 44.9882 21.6083 45.0266 21.5572Z" fill="#DC0000"/>
<path d="M44.4416 21.5566C45.3474 20.5207 46.1213 19.352 46.7416 18.083C46.7432 18.0702 46.7416 18.0573 46.7368 18.0456C46.7321 18.0339 46.7245 18.0239 46.7149 18.0168C46.7053 18.0096 46.694 18.0057 46.6825 18.0053C46.6709 18.005 46.6595 18.0083 46.6496 18.0148C45.7439 19.0509 44.9701 20.2196 44.3496 21.4885C44.3415 21.5021 44.3385 21.5187 44.3414 21.5346C44.3443 21.5506 44.3528 21.5646 44.365 21.5737C44.3772 21.5827 44.3921 21.586 44.4065 21.5828C44.4209 21.5796 44.4335 21.5702 44.4416 21.5566Z" fill="#DC0000"/>
<path d="M43.8931 21.139C44.2457 20.6112 44.5831 20.0663 44.9511 19.5469C45.3557 19.0618 45.7273 18.5439 46.0627 17.9974C46.1317 17.8782 46.0014 17.7675 45.9017 17.8441C44.9809 18.7181 44.2431 19.8048 43.7398 21.0284C43.7316 21.0395 43.7256 21.0524 43.7222 21.0662C43.7187 21.0801 43.718 21.0946 43.72 21.1088C43.722 21.123 43.7266 21.1366 43.7337 21.1486C43.7407 21.1607 43.7499 21.171 43.7608 21.1788C43.7716 21.1866 43.7838 21.1918 43.7966 21.1941C43.8094 21.1963 43.8224 21.1955 43.8349 21.1918C43.8474 21.188 43.8591 21.1814 43.8691 21.1723C43.8791 21.1632 43.8873 21.1519 43.8931 21.139Z" fill="#DC0000"/>
<path d="M42.6783 19.2929C45.8699 19.436 48.9371 20.7066 51.4334 22.9198C51.5177 22.9964 51.6251 22.8517 51.5561 22.758C50.4553 21.3873 49.0699 20.3358 47.52 19.6948C45.9702 19.0539 44.3029 18.8428 42.663 19.08C42.6421 19.0866 42.6238 19.1006 42.6108 19.1198C42.5977 19.139 42.5907 19.1624 42.5907 19.1864C42.5907 19.2105 42.5977 19.2339 42.6108 19.2531C42.6238 19.2723 42.6421 19.2863 42.663 19.2929H42.6783Z" fill="#DC0000"/>
<path d="M54.3488 27.1853C55.0771 27.1257 54.9391 26.5808 54.6938 25.9593C53.7508 23.5413 50.9755 21.515 48.9592 20.3656C48.9356 20.3483 48.9091 20.3363 48.8812 20.3303C48.8534 20.3244 48.8248 20.3246 48.797 20.3309C48.7693 20.3372 48.7429 20.3496 48.7194 20.3672C48.6959 20.3849 48.6758 20.4075 48.6602 20.4337C48.6446 20.46 48.6338 20.4894 48.6285 20.5203C48.6231 20.5513 48.6233 20.583 48.629 20.6139C48.6347 20.6447 48.6458 20.674 48.6617 20.7C48.6776 20.7261 48.6979 20.7484 48.7216 20.7658C50.5559 22.1518 52.3099 23.6646 53.9731 25.2952C53.9912 25.3181 54.0132 25.3369 54.0379 25.3503C54.0625 25.3638 54.0893 25.3718 54.1167 25.3737C54.1441 25.3757 54.1716 25.3717 54.1976 25.3618C54.2236 25.352 54.2476 25.3366 54.2683 25.3165C54.2889 25.2964 54.3058 25.2719 54.3179 25.2446C54.33 25.2172 54.3372 25.1874 54.339 25.157C54.3408 25.1266 54.3371 25.096 54.3283 25.0672C54.3194 25.0383 54.3056 25.0116 54.2874 24.9887C52.9558 22.8915 51.1782 21.1923 49.1126 20.0421L48.9362 20.4593C51.0349 21.3198 52.9154 22.7306 54.4178 24.5715C54.5788 24.7588 54.9007 24.5715 54.7704 24.3076C53.3674 21.6683 51.1442 20.1017 48.7906 18.6032C48.7438 18.5694 48.6868 18.5575 48.6322 18.5703C48.5776 18.5831 48.5297 18.6194 48.4992 18.6713C48.4687 18.7233 48.4581 18.7865 48.4696 18.8472C48.4811 18.9079 48.5138 18.961 48.5606 18.9949C49.4658 19.7376 50.3263 20.5453 51.1365 21.4128C51.3512 21.6597 51.7575 22.443 52.0258 22.5537C52.5165 22.7666 51.6195 21.7023 51.8648 22.0344C50.7532 20.6296 48.6526 19.659 47.0733 19.1396C47.0366 19.1349 46.9995 19.1443 46.9683 19.1664C46.9371 19.1884 46.9137 19.2217 46.902 19.2607C46.8903 19.2996 46.891 19.3419 46.9041 19.3803C46.9171 19.4187 46.9417 19.451 46.9736 19.4717C48.9709 20.3391 50.8138 21.5931 52.4168 23.1752C52.4528 23.2128 52.5002 23.2341 52.5496 23.2351C52.599 23.2362 52.647 23.2167 52.6842 23.1807C52.7215 23.1446 52.7453 23.0945 52.7511 23.04C52.757 22.9855 52.7444 22.9305 52.7158 22.8858C51.6149 21.2485 50.2906 19.8122 48.7906 18.6288L48.5606 19.0204C50.8145 20.4848 53.0225 21.9833 54.3871 24.546L54.7398 24.2906C53.1801 22.3911 51.2353 20.9318 49.0665 20.0336C48.8442 19.9399 48.6679 20.3316 48.8826 20.4508C50.9087 21.5898 52.6556 23.2581 53.9731 25.3122L54.2874 25.0057C52.6103 23.3345 50.8382 21.7846 48.9822 20.3656L48.7446 20.7658C49.9784 21.446 51.1256 22.3049 52.1562 23.32C52.4245 23.5924 55.0388 26.7255 54.3564 26.9384C54.2491 26.981 54.2338 27.1938 54.3564 27.1853H54.3488Z" fill="#DC0000"/>
<path d="M39.4807 21.0464C41.1103 20.2514 42.8681 19.8314 44.648 19.8118C44.717 19.8118 44.7553 19.6841 44.648 19.6671C42.8206 19.3649 40.9569 19.8194 39.4118 20.9442C39.4035 20.9458 39.3957 20.9495 39.389 20.9551C39.3823 20.9606 39.3769 20.9678 39.3731 20.9761C39.3694 20.9844 39.3674 20.9935 39.3674 21.0028C39.3674 21.0121 39.3693 21.0213 39.3731 21.0296C39.3768 21.0379 39.3822 21.0451 39.3889 21.0506C39.3956 21.0562 39.4034 21.0599 39.4116 21.0616C39.4198 21.0632 39.4283 21.0627 39.4363 21.06C39.4443 21.0574 39.4517 21.0527 39.4577 21.0464H39.4807Z" fill="#DC0000"/>
<path d="M15.042 16.108C15.7728 15.2117 16.4417 14.2554 17.043 13.2474C17.043 13.1963 17.043 13.1197 16.9663 13.1707C16.2402 14.0761 15.5764 15.0409 14.9807 16.057C14.9807 16.057 14.9807 16.1506 15.042 16.108Z" fill="#DC0000"/>
<path d="M15.1038 14.9248C15.6941 13.9713 16.2998 13.0773 16.9361 12.1663C16.9483 12.1505 16.9544 12.13 16.9529 12.1092C16.9515 12.0885 16.9427 12.0692 16.9284 12.0556C16.9142 12.0421 16.8957 12.0354 16.877 12.037C16.8583 12.0386 16.841 12.0483 16.8288 12.0642C16.0286 12.8278 15.4143 13.8028 15.0425 14.8993C15.0425 14.8993 15.0425 14.9589 15.1038 14.8993V14.9248Z" fill="#DC0000"/>
<path d="M14.8432 13.8937C15.4458 13.1843 15.985 12.4116 16.4531 11.5864C16.4531 11.5864 16.4531 11.4843 16.3841 11.5268C15.7871 12.2587 15.2532 13.0511 14.7895 13.8937C14.7895 13.9363 14.7895 13.9704 14.8432 13.9363V13.8937Z" fill="#DC0000"/>
<path d="M14.7526 13.222C15.2557 12.4925 15.7117 11.7243 16.1172 10.9232C16.1172 10.8722 16.0635 10.8211 16.0328 10.8636C15.5261 11.5915 15.0723 12.363 14.6759 13.1709C14.6759 13.222 14.7142 13.2731 14.7526 13.222Z" fill="#DC0000"/>
<path d="M15.6172 45.822C15.7858 45.5836 15.9468 45.3281 16.1001 45.0727C16.2581 44.8638 16.385 44.6281 16.4758 44.3746C16.4778 44.3587 16.4758 44.3425 16.4698 44.3279C16.4639 44.3132 16.4544 44.3007 16.4424 44.2919C16.4304 44.283 16.4164 44.278 16.4019 44.2776C16.3875 44.2772 16.3732 44.2813 16.3608 44.2894C16.1899 44.485 16.0476 44.709 15.9391 44.9535C15.7858 45.2175 15.6402 45.4729 15.5098 45.7453C15.5007 45.7611 15.4976 45.7803 15.5011 45.7987C15.5047 45.8171 15.5148 45.8331 15.529 45.8432C15.5432 45.8534 15.5605 45.8569 15.577 45.8529C15.5936 45.8489 15.608 45.8378 15.6172 45.822Z" fill="#DC0000"/>
<path d="M14.9954 45.1662C15.1138 44.8712 15.2522 44.5866 15.4093 44.3148C15.5435 44.1104 15.6664 43.8972 15.7773 43.6762C15.7773 43.6762 15.739 43.5826 15.7083 43.6081C15.2879 44.001 15.0011 44.5418 14.8957 45.1406C14.8957 45.2172 14.9647 45.2428 14.9954 45.1406V45.1662Z" fill="#DC0000"/>
<path d="M14.1814 44.7656C14.2737 44.4725 14.3865 44.1878 14.5187 43.9142C14.6414 43.6758 14.8024 43.48 14.9251 43.2501C14.9711 43.1735 14.8791 43.0799 14.8177 43.1395C14.4238 43.5622 14.1562 44.109 14.0511 44.706C14.0551 44.7171 14.062 44.7266 14.0708 44.7333C14.0797 44.7399 14.0902 44.7435 14.1009 44.7435C14.1117 44.7435 14.1221 44.7399 14.131 44.7333C14.1399 44.7266 14.1468 44.7171 14.1508 44.706L14.1814 44.7656Z" fill="#DC0000"/>
<path d="M13.431 44.2298C13.8682 43.6579 14.2367 43.0254 14.5273 42.3482C14.5273 42.2886 14.4737 42.2376 14.4353 42.2801C13.9846 42.8414 13.6054 43.4688 13.3084 44.1447C13.2982 44.1628 13.2949 44.1846 13.2992 44.2053C13.3035 44.2261 13.3151 44.2441 13.3314 44.2554C13.3476 44.2667 13.3673 44.2703 13.386 44.2655C13.4047 44.2607 13.4209 44.2479 13.431 44.2298Z" fill="#DC0000"/>
<path d="M5.6377 18.2529C5.64028 15.5501 6.22656 12.8874 7.34733 10.4882C7.38566 10.4116 7.27832 10.335 7.23998 10.4116C6.11483 12.8324 5.55843 15.5296 5.62237 18.2529C5.62237 18.2529 5.62237 18.2529 5.62237 18.2529H5.6377Z" fill="#DC0000"/>
<path d="M7.96849 9.26278C8.44198 7.9576 9.32787 6.88902 10.4601 6.25736C11.1731 5.87423 13.4193 5.01432 13.4806 6.40209C13.4806 6.4179 13.4863 6.43306 13.4964 6.44424C13.5064 6.45541 13.5201 6.46169 13.5343 6.46169C13.5486 6.46169 13.5622 6.45541 13.5723 6.44424C13.5823 6.43306 13.588 6.4179 13.588 6.40209C13.634 6.13816 13.6723 5.87423 13.6953 5.6103C13.6955 5.57693 13.6847 5.54464 13.665 5.51953C13.6452 5.49442 13.6178 5.47825 13.588 5.47408C11.127 5.27826 8.65847 6.38507 7.86882 9.22021C7.86882 9.28833 7.93783 9.31387 7.96849 9.22021V9.26278Z" fill="#DC0000"/>
<path d="M5.39952 18.6873C5.48322 21.2873 5.97352 23.8513 6.84849 26.2647C7.61513 28.1633 7.84511 31.058 9.5394 32.284C9.65439 32.3692 9.75407 32.1819 9.65441 32.0882C8.12112 30.6919 7.67646 27.7887 6.91748 25.7879C6.05117 23.4806 5.92084 21.0967 5.43019 18.6873H5.39952Z" fill="#DC0000"/>
</svg>
