<svg width="76" height="54" viewBox="0 0 76 54" fill="none" xmlns="http://www.w3.org/2000/svg">
<path d="M39.9595 15.8826C40.7412 15.0291 41.5759 14.2258 42.4585 13.4774C44.0878 11.9569 46.2555 9.57941 49.1412 6.75957C50.7402 5.17733 52.4828 3.74743 54.3464 2.48833C56.5504 0.935856 59.1636 0.0702209 61.8575 0.000228882C64.8863 0.170753 67.7679 1.36464 70.0313 3.38681C71.2787 4.38442 72.3438 5.59105 73.1793 6.95309C74.0122 8.37979 74.5696 9.95066 74.8223 11.5837C75.2853 14.7056 75.0303 17.892 74.0767 20.9003C73.6494 22.3355 73.0805 23.7246 72.3785 25.0471C71.6605 26.2773 70.9978 27.4246 70.266 28.5719C68.9412 30.7628 67.4356 32.8389 65.7649 34.7783C64.9333 35.6091 64.0326 36.3674 63.0725 37.0453C62.1888 37.7226 61.3328 38.3308 60.5182 38.9113C58.8752 40.0725 57.3564 41.0677 56.0171 41.9385C54.8902 42.7146 53.7142 43.4164 52.4963 44.0396C51.4879 44.6082 50.4238 45.0714 49.3207 45.4219C50.1776 44.662 51.1019 43.9819 52.0821 43.3899C53.2126 42.6488 54.3048 41.8507 55.3543 40.9986L59.5931 37.6949C60.3801 37.0729 61.1809 36.4232 62.0094 35.7183C62.8673 35.0708 63.675 34.3592 64.4256 33.5896C65.9582 31.6654 67.3429 29.6276 68.5677 27.4937L70.4731 23.9966C71.046 22.7972 71.5081 21.548 71.8538 20.2644C72.6635 17.5783 72.871 14.7464 72.4613 11.9708C72.2398 10.6117 71.7718 9.3047 71.0806 8.1142C70.3833 6.976 69.4959 5.96609 68.4573 5.12848C66.6016 3.38306 64.2142 2.31213 61.678 2.08747C59.3521 2.08979 57.0775 2.77199 55.1334 4.0503C53.3228 5.17701 51.6094 6.45314 50.011 7.86539C47.0287 10.4641 44.6263 12.6895 42.8175 14.0442C41.9714 14.8089 41.0059 15.4299 39.9595 15.8826Z" fill="#DC0000"/>
<path d="M48.0078 46.1965C48.0078 46.1965 47.7455 46.4592 47.1794 46.8047C46.6133 47.1503 45.7987 47.7032 44.7493 48.2976C41.6567 50.0717 38.3478 51.4377 34.9049 52.3615C29.7261 53.7914 24.2874 54.0043 19.013 52.9835C15.9242 52.3162 12.9221 51.2959 10.066 49.9425C6.83542 48.5377 3.99292 46.3702 1.78175 43.6255C0.607933 42.081 -0.0187378 40.1891 0.000637054 38.2485C0.121643 36.394 0.77354 34.6136 1.8784 33.1202C3.80025 30.4704 6.34749 28.3382 9.29279 26.9138C10.6235 26.2579 12.0096 25.7213 13.4349 25.3103L17.2733 24.0663L24.1768 21.7994C28.3189 20.4171 31.7569 19.1868 34.1041 18.3298C35.2895 17.8187 36.5188 17.4162 37.7768 17.1273C36.6957 17.8384 35.5546 18.4536 34.3664 18.9657C32.1159 20.0439 28.8436 21.5091 24.7015 23.1125C22.6304 23.9419 20.3384 24.8127 17.8946 25.7112L14.07 27.0935C12.7195 27.5252 11.4115 28.0804 10.1626 28.7522C7.58445 30.0913 5.35682 32.0184 3.65951 34.3781C2.83707 35.5344 2.35839 36.9003 2.2788 38.3176C2.28853 39.7564 2.77405 41.1514 3.65951 42.2847C5.63847 44.7032 8.14713 46.6329 10.9911 47.9244C13.6783 49.2448 16.5028 50.2647 19.4134 50.9654C22.0446 51.5873 24.7474 51.8523 27.4491 51.7533C29.8216 51.6987 32.1838 51.421 34.5045 50.9239C37.8947 50.1817 41.1986 49.0885 44.3627 47.6618C45.5087 47.178 46.3372 46.7356 46.9861 46.5006C47.3037 46.3338 47.6507 46.2305 48.0078 46.1965Z" fill="#DC0000"/>
<path d="M63.8601 5.37695C63.6253 5.37695 63.2802 5.2249 62.8936 4.98992C62.507 4.75493 62.0928 4.49229 61.5957 4.10526C60.5878 3.35883 59.7456 2.10096 59.9665 1.75539C60.4663 1.52893 61.0221 1.45662 61.5631 1.54771C62.1041 1.6388 62.6057 1.88915 63.004 2.26683C63.6597 2.75825 64.0961 3.48807 64.219 4.29878C64.2743 4.94845 64.0119 5.33548 63.8601 5.37695Z" fill="#DC0000"/>
<path d="M67.0478 7.79586C66.8269 7.68528 66.7717 7.18766 66.5922 6.67622C66.3557 6.05197 66.0302 5.46532 65.6257 4.93455C64.6592 3.55227 63.5132 2.25293 63.6651 1.89354C63.817 1.53414 64.2588 1.6309 65.0458 1.89354C66.0448 2.1808 66.9195 2.79376 67.5311 3.63521C67.8496 4.12448 68.0613 4.6756 68.1524 5.25247C68.2462 5.77615 68.1985 6.3154 68.0143 6.81445C67.7382 7.64381 67.1997 7.8788 67.0478 7.79586Z" fill="#DC0000"/>
<path d="M68.0875 11.5702C67.9356 11.3629 68.1842 10.8653 68.3637 10.188C68.5597 9.3693 68.6387 8.52693 68.5984 7.68604C68.5752 6.68294 68.6352 5.67964 68.7779 4.68649C68.9159 3.8433 69.1921 3.30421 69.3854 3.30421C69.5787 3.30421 69.8686 3.77419 70.2 4.5068C70.6641 5.51746 70.9088 6.61519 70.918 7.72751C70.9182 8.39817 70.7966 9.06327 70.559 9.69034C70.3447 10.2215 70.0089 10.6949 69.5787 11.0726C68.8055 11.7361 68.1566 11.7223 68.0875 11.5702Z" fill="#DC0000"/>
<path d="M67.0044 15.5377C67.0044 15.2889 67.4462 14.971 67.9018 14.4872C68.4837 13.8462 68.9846 13.1359 69.393 12.3723C70.4285 10.5062 71.464 8.68164 71.8645 8.76458C72.2649 8.84752 72.7481 11.0453 71.4088 13.5196C71.118 14.0749 70.7169 14.5649 70.2302 14.9595C69.7435 15.354 69.1814 15.6449 68.5784 15.8142C67.5843 16.0354 67.0182 15.7174 67.0044 15.5377Z" fill="#DC0000"/>
<path d="M66.7711 19.0065C66.5364 18.5366 68.2623 17.2234 69.643 15.6614C71.0237 14.0994 72.1835 12.1643 72.5977 12.3716C72.7634 12.3716 72.9152 12.9936 72.8462 13.8921C72.7362 15.1092 72.254 16.2628 71.4655 17.1957C70.6422 18.1206 69.5596 18.7757 68.3589 19.0756C67.4891 19.2415 66.8954 19.1862 66.7711 19.0065Z" fill="#DC0000"/>
<path d="M65.4871 24.8266C65.4871 24.564 65.9841 24.2322 66.6607 23.7484C67.4855 23.1413 68.22 22.4199 68.8422 21.6059C69.6016 20.6521 70.3472 19.6292 71.0099 18.9519C71.6727 18.2746 72.1973 17.9014 72.3906 17.9982C72.5839 18.0949 72.5287 18.7308 72.294 19.6431C71.9997 20.8817 71.4494 22.0447 70.6785 23.0573C69.8276 24.1791 68.5756 24.9272 67.1854 25.1445C66.1222 25.2551 65.5147 24.9925 65.4871 24.8266Z" fill="#DC0000"/>
<path d="M60.7009 30.4384C60.7009 29.8993 63.269 29.1943 65.6438 27.5909C68.0186 25.9874 69.8826 23.914 70.2416 24.149C70.6006 24.384 70.3106 24.9784 69.8412 26.0289C69.2166 27.4371 68.2126 28.6433 66.9417 29.5123C65.6544 30.3918 64.137 30.8725 62.5787 30.8945C61.4189 30.8669 60.7285 30.6181 60.7009 30.4384Z" fill="#DC0000"/>
<path d="M56.8758 34.0193C56.8758 33.5078 59.6373 33.2314 62.3987 32.3329C63.6388 31.9786 64.8307 31.4726 65.9471 30.8262C66.8031 30.3148 67.3278 29.8586 67.5349 29.9692C67.742 30.0798 67.6315 30.8262 66.955 31.8629C66.0198 33.1519 64.6847 34.0948 63.1581 34.5445C61.6977 35.003 60.1468 35.0932 58.6431 34.8072C57.4972 34.586 56.8482 34.2128 56.8758 34.0193Z" fill="#DC0000"/>
<path d="M54.2491 36.5069C54.3458 35.9677 56.4997 35.9124 58.6122 35.5667C59.6321 35.3587 60.6657 35.2247 61.705 35.1658C62.5748 35.1658 63.1547 35.2626 63.2099 35.4561C63.2652 35.6497 62.8509 36.0507 62.1468 36.5346C61.2033 37.207 60.1318 37.6776 58.9988 37.9172C57.8128 38.1064 56.5976 37.9578 55.4918 37.4886C54.6634 37.0462 54.2215 36.6867 54.2491 36.5069Z" fill="#DC0000"/>
<path d="M49.4594 37.9436C49.6389 37.4597 51.6962 37.6118 53.8501 38.0819C56.004 38.552 57.8817 39.0221 57.9922 39.4646C57.9922 39.6443 57.5504 40.0038 56.7357 40.2803C55.6595 40.5993 54.5211 40.6468 53.422 40.4186C50.8401 39.8102 49.3351 38.2893 49.4594 37.9436Z" fill="#DC0000"/>
<path d="M46.1836 41.1924C46.2527 40.9573 46.8464 40.8329 47.7162 40.7223C48.5861 40.6117 49.7459 40.4596 51.0713 40.349C52.264 40.2443 53.4649 40.286 54.6474 40.4734C55.5863 40.6532 56.1523 40.9435 56.1523 41.1371C56.1523 41.3307 55.6139 41.6072 54.7716 41.9114C53.6442 42.3099 52.4701 42.5609 51.2784 42.658C50.022 42.778 48.7546 42.6223 47.5643 42.2017C46.5978 41.8837 46.0594 41.4274 46.1836 41.1924Z" fill="#DC0000"/>
<path d="M41.0502 43.2788C41.1882 43.0576 41.8234 43.1544 42.6932 43.2788C43.8211 43.3074 44.9491 43.2287 46.0621 43.0438C47.3727 42.8289 48.7139 42.8949 49.9971 43.2374C51.0189 43.5692 51.5159 44.0808 51.4607 44.2329C51.4055 44.385 50.7565 44.5094 49.8729 44.6753C48.9892 44.8412 47.8294 45.1592 46.3245 45.3528C44.9023 45.5811 43.4448 45.3281 42.1824 44.6338C41.2849 44.0393 40.9535 43.4171 41.0502 43.2788Z" fill="#DC0000"/>
<path d="M37.5176 45.6285C37.78 45.1999 39.8234 45.6285 42.212 45.8359C44.6007 46.0433 46.865 46.5825 46.8788 46.9973C46.8926 47.4121 44.8216 48.3938 41.9221 48.1034C40.6949 47.9814 39.5177 47.5536 38.498 46.859C37.78 46.3198 37.4348 45.8082 37.5176 45.6285Z" fill="#DC0000"/>
<path d="M32.6429 45.8218C32.9467 45.4209 34.8244 45.9601 37.0197 46.3887C39.2151 46.8173 41.1619 47.3704 41.2585 47.7714C41.3552 48.1723 39.2565 49.154 36.5503 48.6563C35.4045 48.4281 34.3383 47.9038 33.4575 47.1353C32.7948 46.527 32.5324 45.9878 32.6429 45.8218Z" fill="#DC0000"/>
<path d="M27.2133 47.3024C27.4894 46.8739 30.1404 47.7724 33.3436 48.5326C36.5469 49.2929 39.3497 50.0393 39.3359 50.454C39.3221 50.8687 36.4088 51.6428 32.7913 50.7857C29.1739 49.9287 26.9924 47.6065 27.2133 47.3024Z" fill="#DC0000"/>
<path d="M22.0262 46.3208C22.2471 46.1964 22.758 46.5696 23.5173 46.9704C24.5295 47.4921 25.5714 47.9537 26.6377 48.3527C27.8004 48.7664 28.9271 49.2749 30.0067 49.8732C30.8627 50.3985 31.3874 50.8823 31.2631 51.062C31.1389 51.2417 30.559 51.297 29.5787 51.2555C28.2905 51.2096 27.0179 50.9576 25.8093 50.5091C24.4909 50.0542 23.3374 49.217 22.4956 48.1039C21.8743 47.1363 21.8605 46.4037 22.0262 46.3208Z" fill="#DC0000"/>
<path d="M19.3592 46.7208C19.5801 46.5964 20.0495 46.8729 20.6432 47.3014C21.2369 47.7299 21.9549 48.2275 22.7971 48.6837C23.622 49.1365 24.4154 49.6445 25.172 50.2042C25.7933 50.688 26.1384 51.1303 26.0694 51.31C26.0004 51.4897 25.4619 51.5865 24.6887 51.5588C23.6214 51.5033 22.5816 51.2004 21.6512 50.6742C20.6616 50.0993 19.8934 49.2085 19.4696 48.1446C19.1521 47.4534 19.1935 46.8867 19.3592 46.7208Z" fill="#DC0000"/>
<path d="M12.9266 45.27C13.1475 45.1594 13.617 45.4773 14.3073 45.892L16.9583 47.5093C19.0155 48.8086 20.7828 49.8315 20.7966 50.2047C20.8105 50.5779 20.1891 50.6194 19.2226 50.5917C17.9707 50.5242 16.7556 50.1441 15.688 49.4859C14.617 48.8523 13.7276 47.9524 13.1061 46.8734C12.7057 46.0164 12.7057 45.3391 12.9266 45.27Z" fill="#DC0000"/>
<path d="M9.36679 43.0722C9.61532 43.0031 10.0157 43.4593 10.568 44.1228C11.1203 44.7863 11.8245 45.6295 12.6805 46.5556C14.3097 48.3664 15.9113 50.108 15.6904 50.4536C15.4695 50.7992 13.0671 50.3154 10.9822 48.1175C10.0873 47.1751 9.47082 46.0029 9.20111 44.731C9.02161 43.7496 9.1873 43.1137 9.36679 43.0722Z" fill="#DC0000"/>
<path d="M6.71401 39.3533C7.18345 39.4501 7.68051 41.3714 8.77127 43.5001C9.28213 44.5783 9.77919 45.5321 10.152 46.2647C10.5248 46.9973 10.8285 47.5087 10.7319 47.647C10.6352 47.7852 9.98629 47.7576 9.14406 47.2599C8.0635 46.6055 7.20287 45.6428 6.67259 44.4954C6.11513 43.3651 5.89007 42.0996 6.02366 40.8462C6.16173 39.8095 6.52071 39.3395 6.71401 39.3533Z" fill="#DC0000"/>
<path d="M5.59372 37.1287C5.96651 37.4467 5.59372 39.2021 5.96651 41.1235C6.10225 41.9555 6.33871 42.7678 6.67067 43.5425C6.96062 44.1645 7.27818 44.6207 7.18153 44.8004C7.08488 44.9801 6.49118 45.0492 5.64895 44.5516C5.12442 44.2172 4.67787 43.7739 4.33958 43.2516C4.00129 42.7293 3.77919 42.1402 3.68835 41.5244C3.47278 40.3239 3.71414 39.0861 4.36489 38.0549C4.87575 37.267 5.44184 37.0458 5.59372 37.1287Z" fill="#DC0000"/>
<path d="M6.32756 33.7702C6.61751 34.1572 5.38868 36.0095 4.72594 38.387C4.41033 39.3442 4.27913 40.3527 4.33934 41.3589C4.33934 42.133 4.65691 42.7412 4.50503 42.8794C4.35315 43.0176 3.69041 42.8794 3.01386 41.9118C2.63512 41.3645 2.3936 40.7339 2.30971 40.0734C2.22438 39.2941 2.29001 38.5056 2.503 37.7512C2.86323 36.4456 3.60922 35.2796 4.6431 34.406C5.54056 33.7564 6.2171 33.6182 6.32756 33.7702Z" fill="#DC0000"/>
<path d="M10.6328 30.0649C10.55 30.3137 9.79057 30.2999 8.82407 30.5349C7.60092 30.8593 6.47682 31.4813 5.5518 32.3457C3.25983 34.3638 2.14145 36.9763 1.74105 36.921C1.57537 36.921 1.36826 36.1193 1.58917 34.8752C1.91131 33.231 2.75948 31.7366 4.00541 30.6178C4.72319 29.9959 5.55916 29.5258 6.46307 29.2356C7.21777 29.0013 8.01627 28.9445 8.79646 29.0697C10.1634 29.2908 10.688 29.9129 10.6328 30.0649Z" fill="#DC0000"/>
<path d="M57.8114 15.1774C57.7286 14.9424 58.2394 14.5277 58.626 13.7951C58.8377 13.4699 58.9526 13.0912 58.9574 12.7031C58.9472 12.5368 58.9041 12.3742 58.8306 12.2247C58.7572 12.0752 58.6548 11.9418 58.5294 11.8323C57.662 11.2497 56.6994 10.824 55.6851 10.5744C54.7048 10.2565 54.1249 9.81413 54.1939 9.63443C54.263 9.45474 54.8429 9.30268 55.8232 9.15063C56.4349 9.05336 57.0561 9.03015 57.6733 9.08152C58.5729 9.16953 59.4225 9.53683 60.1034 10.1321C60.4599 10.4397 60.7378 10.8282 60.9141 11.2652C61.0903 11.7022 61.1596 12.175 61.1164 12.6442C61.0732 13.1135 60.9186 13.5656 60.6656 13.9629C60.4125 14.3603 60.0683 14.6913 59.6615 14.9286C58.5984 15.5506 57.839 15.3432 57.8114 15.1774Z" fill="#DC0000"/>
<path d="M14.2093 32.8982C14.2093 32.8982 14.2093 33.1608 14.0436 33.5755C13.806 34.1374 13.6659 34.7357 13.6294 35.3448C13.5905 36.2592 13.9017 37.1541 14.4992 37.8467C15.3362 38.7898 16.3494 39.5599 17.4816 40.1136C18.8478 40.8745 20.3044 41.4596 21.817 41.8553C23.5527 42.2646 25.3431 42.3906 27.1189 42.2285C29.1242 42.012 31.1094 41.6376 33.056 41.1089C35.196 40.4869 37.5156 40.2519 39.6281 39.7266C43.7702 38.7314 47.3877 36.0636 50.6738 34.0316C53.5135 32.1231 56.0462 29.7925 58.1848 27.1202C59.6241 25.2675 60.921 23.3083 62.0646 21.2594C62.4372 20.4579 62.9005 19.702 63.4453 19.0063C63.3285 19.8873 63.0771 20.7452 62.6997 21.5497C61.8189 23.8014 60.6987 25.9517 59.3584 27.9634C57.3291 30.9407 54.8022 33.5453 51.8888 35.6627C50.2043 36.8515 48.5199 37.9849 46.6145 39.1599C44.6176 40.4033 42.4434 41.3355 40.1666 41.9244C37.778 42.5741 35.6379 42.74 33.6358 43.2929C31.555 43.8276 29.4286 44.1654 27.2846 44.302C25.2901 44.4039 23.2925 44.1702 21.3752 43.6108C19.7386 43.0852 18.1822 42.3363 16.7498 41.3853C15.4993 40.6336 14.4217 39.6255 13.588 38.4273C13.2618 37.9622 13.0325 37.4361 12.9139 36.8804C12.7953 36.3246 12.7898 35.7507 12.8976 35.1927C13.0321 34.5169 13.3151 33.8795 13.7261 33.3267C14.0022 32.9811 14.1679 32.8152 14.2093 32.8982Z" fill="#DC0000"/>
<path d="M20.9887 33.272C20.9299 33.3252 20.8582 33.3621 20.7807 33.3791C20.7032 33.3961 20.6226 33.3925 20.5469 33.3687C20.3832 33.3351 20.229 33.2656 20.0953 33.1652C19.9617 33.0648 19.8518 32.9361 19.7737 32.7882C19.6383 32.5481 19.5581 32.2809 19.539 32.0059C19.5199 31.7309 19.5624 31.4551 19.6633 31.1986C19.8055 30.8212 20.0309 30.4809 20.3228 30.2028C20.6146 29.9248 20.9653 29.7162 21.3488 29.5927C21.7323 29.4691 22.1387 29.4338 22.5377 29.4892C22.9368 29.5447 23.3182 29.6896 23.6535 29.913C24.2472 30.4383 24.2196 30.9636 24.0953 31.0603C23.9711 31.1571 23.5155 31.1571 23.115 31.2538C22.7181 31.3845 22.3416 31.5706 21.9967 31.8068L21.5272 32.1247C21.4168 32.1938 21.2649 32.2353 21.1959 32.3597C21.1268 32.4841 21.1268 33.1199 20.9887 33.272Z" fill="#DC0000"/>
<path d="M38.3154 33.0923C38.564 33.0923 38.8539 33.5899 39.2267 33.5346C39.4225 33.4804 39.6122 33.4063 39.7928 33.3134C40.4422 33.0241 41.0321 32.6163 41.5325 32.1108C41.7052 31.945 41.8375 31.7416 41.9191 31.5165C42.0434 31.0188 41.8501 30.4659 42.0296 30.3277C42.209 30.1895 42.2367 30.3277 42.4852 30.3277C42.6342 30.3908 42.7737 30.4745 42.8994 30.5765C43.053 30.7437 43.1916 30.9241 43.3136 31.1156C43.4417 31.4099 43.5078 31.7276 43.5078 32.0486C43.5078 32.3697 43.4417 32.6873 43.3136 32.9817C43.0752 33.6626 42.619 34.2457 42.0157 34.6404C41.4566 35.0524 40.7897 35.2926 40.0966 35.3315C39.7591 35.371 39.4172 35.333 39.0966 35.2205C38.776 35.1079 38.4853 34.9237 38.2464 34.6819C38.0572 34.4928 37.94 34.2434 37.915 33.9769C37.8572 33.8066 37.8572 33.6219 37.915 33.4516C38.1083 33.2028 38.2188 33.0923 38.3154 33.0923Z" fill="#DC0000"/>
<path d="M53.877 24.6047C53.9097 24.5202 53.9597 24.4434 54.0238 24.3793C54.0879 24.3152 54.1647 24.2653 54.2492 24.2328C54.3338 24.2002 54.4242 24.1857 54.5146 24.1902C54.6051 24.1948 54.6936 24.2182 54.7745 24.2591C54.9669 24.3538 55.1301 24.4989 55.2468 24.6791C55.3635 24.8592 55.4293 25.0677 55.4372 25.2822C55.4755 25.6631 55.3776 26.0452 55.1611 26.3607C55.0596 26.5174 54.9275 26.6519 54.7727 26.7561C54.6179 26.8603 54.4436 26.932 54.2604 26.9669C54.0772 27.0018 53.8888 26.9991 53.7066 26.9591C53.5245 26.9191 53.3523 26.8425 53.2005 26.734C53.0915 26.4735 53.0353 26.1938 53.0353 25.9113C53.0353 25.6289 53.0915 25.3492 53.2005 25.0887C53.223 25.0821 53.2469 25.0821 53.2695 25.0887C53.4178 25.159 53.5762 25.2056 53.7389 25.2269C53.9736 25.2269 53.8908 25.2269 53.7389 25.3237C53.587 25.4205 53.7389 25.3237 53.7389 25.3237V25.2408C53.7527 25.1723 53.7527 25.1018 53.7389 25.0334C53.7699 24.886 53.8162 24.7424 53.877 24.6047Z" fill="#DC0000"/>
<path d="M64.4132 12.1636C64.4746 11.9999 64.5906 11.8623 64.7415 11.7741C64.8924 11.686 65.069 11.6526 65.2416 11.6797C65.4089 11.6975 65.5697 11.7544 65.7111 11.8456C65.9249 11.9942 66.0924 12.2003 66.1943 12.4402C66.2878 12.6586 66.3359 12.8938 66.3359 13.1315C66.3359 13.3692 66.2878 13.6043 66.1943 13.8228C66.0947 14.0565 65.9416 14.2633 65.7473 14.4267C65.553 14.59 65.323 14.7052 65.0759 14.763C64.7921 14.8491 64.4863 14.8244 64.2199 14.6939C63.8609 14.5141 63.8747 13.3112 64.0818 12.8826H64.0128H64.1923C64.3204 12.9028 64.4508 12.9028 64.5789 12.8826C64.5789 12.8826 64.5789 12.8826 64.4961 12.9517L64.3994 13.0485C64.4102 13.0219 64.4102 12.9922 64.3994 12.9656C64.5099 12.7305 64.3442 12.3987 64.4132 12.1636Z" fill="#DC0000"/>
</svg>
