<svg width="91" height="68" viewBox="0 0 91 68" fill="none" xmlns="http://www.w3.org/2000/svg">
<path d="M74.7513 4.4931C71.5386 2.17499 68.7791 2.96784 65.5024 4.15445C55.09 7.9522 45.5084 13.542 36.3875 19.9666C28.5687 25.477 19.3972 32.3961 13.6599 40.5507C11.1249 44.1367 11.1344 47.6558 10.4784 52.0798C10.1099 54.5133 9.80848 56.5239 11.1277 58.2321C11.1047 58.3167 11.1076 58.4089 11.1361 58.4953C11.1645 58.5817 11.2169 58.6576 11.2857 58.7119C14.541 61.9331 18.6336 60.8633 22.5785 60.6821C26.9197 60.4243 31.2295 59.911 35.4895 59.1447C44.9487 57.5721 55.6478 54.52 63.5031 48.6816C69.4929 44.2203 75.7661 37.3382 79.2841 30.3843C81.5603 25.8662 82.4787 19.3133 80.6138 13.962C80.6691 13.825 80.6735 13.6666 80.6261 13.5186C79.5234 10.0435 77.5995 6.56123 74.7513 4.4931ZM38.0019 20.8995C43.7705 16.4256 49.9854 12.6467 56.5481 9.62248C53.8545 11.1104 51.1824 12.6426 48.5317 14.2191C46.5185 15.1054 44.39 16.1221 43.1771 17.454L40.9555 18.7942C40.9203 18.8136 40.8899 18.8412 40.8662 18.8754C40.8425 18.9095 40.826 18.9493 40.818 18.992C40.8099 19.0348 40.8104 19.0796 40.8194 19.1234C40.8285 19.1673 40.8458 19.2091 40.8704 19.2461C40.165 19.7789 39.4535 20.3137 38.7697 20.8702C35.9803 22.6786 33.3162 24.6962 30.7949 26.9098C30.106 27.4295 29.4385 27.9729 28.7649 28.5184C31.8092 25.9362 34.8774 23.3847 38.0019 20.8995ZM56.8549 11.7874C55.8438 12.2453 54.8745 12.7963 53.957 13.435C53.957 13.435 53.957 13.435 53.9073 13.4514C53.3712 13.7666 52.8504 14.1076 52.3258 14.4576C52.2885 14.4698 52.2836 14.5177 52.2657 14.5467C51.5629 14.8783 50.8677 15.2536 50.1633 15.6011C50.4697 15.3615 50.7415 15.0793 51.0326 14.8139C52.4678 13.9484 53.9075 13.0968 55.3552 12.2271L56.4248 11.6515L57.2458 11.2194C57.2497 11.2317 57.256 11.243 57.2641 11.2527C57.2723 11.2624 57.2822 11.2701 57.2931 11.2753C57.304 11.2806 57.3157 11.2832 57.3273 11.283C57.3389 11.2828 57.3501 11.2798 57.3602 11.2742C59.116 10.4419 60.8583 9.50605 62.5745 8.53259C63.2119 8.25339 63.8448 7.96028 64.4707 7.6463C64.3626 7.73585 64.2267 7.80371 64.1186 7.89326C63.5825 8.3549 63.0908 8.76338 62.5907 9.16695C62.5701 9.10437 62.5145 9.06101 62.4547 9.0884C60.5156 9.86549 58.6508 10.8262 56.8549 11.7874ZM61.9657 9.58851L61.7285 9.76678C61.0411 10.1241 60.3491 10.4675 59.6663 10.8387L61.9657 9.58851ZM57.4493 13.1331C57.4152 13.0974 57.373 13.0725 57.3279 13.0614C57.2827 13.0503 57.2365 13.0534 57.1947 13.0705C56.8072 13.252 56.3772 13.409 55.9966 13.6114C55.9806 13.5627 55.9737 13.5418 55.8885 13.5545L56.3018 13.3259L58.6178 12.0009C58.6407 12.0704 58.6498 12.0982 58.7256 12.1195C58.2532 12.3842 57.8233 12.7257 57.4493 13.1331ZM58.7356 12.6095L58.4063 13.0724C58.3184 13.0647 58.2304 13.0627 58.1429 13.0666C58.3279 12.8932 58.5236 12.7335 58.7287 12.5886L58.7356 12.6095ZM57.0272 12.3318L58.0838 11.7374C57.7466 11.9254 57.414 12.1274 57.0792 12.3224L57.0272 12.3318ZM55.4938 13.7769L55.1106 14.0341C55.1106 14.0341 55.1106 14.0341 55.1416 14.0238L55.4938 13.7769ZM48.9601 19.0107L48.0084 19.4011L49.2694 18.6545C49.299 18.6583 49.3285 18.6556 49.3562 18.6465C49.384 18.6374 49.4094 18.622 49.4308 18.6014L50.1414 18.1054L50.9013 17.6549C50.9748 17.6421 51.0457 17.6188 51.1124 17.5854C50.3688 18.0228 49.6383 18.4791 48.9441 18.962L48.9601 19.0107ZM49.8303 19.125C49.7984 19.1501 49.7685 19.178 49.7407 19.2084C49.6992 19.2193 49.6606 19.2394 49.6273 19.2676C49.594 19.2958 49.5667 19.3314 49.547 19.3724C49.547 19.3724 49.547 19.3724 49.5098 19.3846C49.3701 19.5408 49.2529 19.7195 49.1616 19.9154C49.1244 19.9277 49.1139 20.0005 49.0796 20.0426L48.7134 20.1632L48.6327 20.1897C48.619 20.148 48.5634 20.1047 48.5013 20.1251L48.5944 20.0944C48.6503 20.076 48.6212 20.0086 48.6136 19.9648L49.8303 19.125ZM47.5733 21.34C47.6261 21.3265 47.678 21.3094 47.7285 21.2889C47.7341 21.3153 47.7425 21.341 47.7537 21.3654L47.5825 21.5143C47.5919 21.4782 47.5928 21.4395 47.5852 21.4017C47.5775 21.3638 47.5615 21.3281 47.5387 21.2975L47.5733 21.34ZM47.3879 20.9232C47.2262 21.0381 47.3298 21.2275 47.507 21.2848C47.507 21.2848 47.4932 21.2431 47.4573 21.3012C47.4153 21.2647 47.3647 21.2431 47.3128 21.2394C47.2608 21.2357 47.2103 21.2501 47.1684 21.2806L47.125 21.2949C47.1047 21.246 47.0781 21.2003 47.0459 21.1591L47.6117 20.7879L47.8352 20.7143L47.3879 20.9232ZM46.3302 20.678C46.036 20.7921 45.7484 20.9228 45.4683 21.0696L47.4714 20.048L46.3511 20.8252L46.3945 20.8109C46.4125 20.7989 46.4249 20.7792 46.4289 20.7562C46.4329 20.7332 46.4283 20.7087 46.4161 20.6882C46.4039 20.6677 46.385 20.6528 46.3637 20.6469C46.3424 20.6409 46.3203 20.6443 46.3024 20.6563L46.3302 20.678ZM46.5333 22.6535C46.296 22.9424 46.0313 23.2026 45.7431 23.43C45.7866 23.3785 45.8116 23.3109 45.8141 23.2386C45.8166 23.1663 45.7963 23.0936 45.7567 23.0325C45.9161 22.9107 46.084 22.7937 46.2349 22.667C46.3284 22.6862 46.4227 22.6662 46.4986 22.611L46.5333 22.6535ZM44.9235 20.7942C43.9094 21.2668 42.9015 21.7374 41.9096 22.2566C43.309 21.3797 44.7148 20.5085 46.127 19.6428C46.159 19.7401 46.1934 19.8444 46.309 19.7986C47.3598 19.3605 48.3581 18.7993 49.2876 18.1244L49.1772 18.207C49.1521 18.2235 49.1313 18.2465 49.1164 18.2741C49.1016 18.3017 49.0932 18.3333 49.0919 18.3661C47.6668 19.123 46.2658 19.9182 44.8889 20.7517L44.9235 20.7942ZM42.6437 23.0862C40.2549 24.5663 37.8906 26.0793 35.5511 27.6254C38.4373 25.6219 41.3442 23.6604 44.2719 21.7409C43.6895 22.1382 43.1369 22.5829 42.6182 23.0715L42.6437 23.0862ZM44.4919 23.1406L43.5522 23.5887L44.3408 22.9745C44.3725 23.0338 44.4154 23.0855 44.4663 23.1259L44.4919 23.1406ZM41.5168 25.8079L41.3306 25.8692C41.2924 25.8255 41.2425 25.7967 41.1894 25.7875C41.1362 25.7783 41.083 25.7894 41.0387 25.8188C40.8894 25.9296 40.7294 26.0286 40.5716 26.1344L41.0191 25.7174C41.3775 25.4684 41.728 25.2374 42.0685 25.0174C42.0757 25.0395 42.0906 25.0582 42.1097 25.0692C42.1288 25.0803 42.1507 25.0828 42.1704 25.0763C42.1902 25.0698 42.2063 25.0548 42.2151 25.0345C42.2239 25.0143 42.2247 24.9905 42.2174 24.9683L42.1991 24.9127L42.3507 24.8089C42.3723 24.7973 42.3908 24.7802 42.4048 24.7589C42.4187 24.7376 42.4277 24.7127 42.431 24.6862C42.4343 24.6597 42.4318 24.6323 42.4237 24.6061C42.4157 24.58 42.4023 24.5559 42.3846 24.5357C42.7756 24.3299 43.162 24.1102 43.5438 23.8766L43.5065 23.8889C43.477 23.91 43.452 23.9378 43.4332 23.9706C43.4144 24.0033 43.402 24.0404 43.3969 24.0795C43.3918 24.1186 43.394 24.1589 43.4034 24.1981C43.4128 24.2373 43.4293 24.2746 43.4518 24.3077C42.7876 24.8192 42.1437 25.3086 41.4913 25.7931L41.5168 25.8079ZM42.5206 25.7009L41.2693 26.4982C41.6424 26.2521 42.1275 25.9074 42.4784 25.6146C42.4818 25.6389 42.4874 25.6628 42.495 25.6862L42.5206 25.7009ZM41.3502 24.7375C41.3763 24.7952 41.4143 24.8461 41.461 24.886C40.8837 25.2224 40.3839 25.5643 39.8644 25.9511C39.5714 26.1477 39.3077 26.3501 39.0068 26.5648C38.8827 26.6057 38.7723 26.6882 38.6573 26.7569C38.6413 26.7083 38.5886 26.6948 38.5422 26.6792C39.4086 26.0086 40.3639 25.3782 41.3247 24.7227L41.3502 24.7375ZM37.8956 26.7842C37.736 26.8124 37.5788 26.8513 37.4248 26.9006L39.7225 25.3735C39.092 25.82 38.4961 26.309 37.8825 26.7654L37.8956 26.7842ZM27.2354 38.2936L27.3036 38.2711C27.3359 38.2929 27.3723 38.3052 27.4091 38.3066C27.4459 38.3081 27.4817 38.2986 27.5128 38.2793L26.5532 38.6877C26.7741 38.5225 26.9818 38.3385 27.1958 38.1525L27.1514 38.2056C27.1503 38.2217 27.1543 38.2381 27.1627 38.2522C27.171 38.2662 27.1833 38.277 27.1975 38.2829L27.2354 38.2936ZM26.4292 37.9347L25.6049 38.3987C25.6954 38.2765 25.7643 38.1305 25.844 37.9963L25.8874 37.982C26.3428 37.6934 26.7983 37.4047 27.219 37.0735C26.9215 37.3248 26.6485 37.6083 26.4037 37.92L26.4292 37.9347ZM21.8827 41.5971L21.8667 41.5485L21.9859 41.409L22.3645 40.9915C22.4204 40.9731 22.4252 40.9253 22.4301 40.8774C22.4628 40.9067 22.5022 40.9249 22.5431 40.9294C22.584 40.9338 22.6243 40.9244 22.6585 40.9024L22.9983 40.6596C22.5971 40.9364 22.2158 41.2448 21.8572 41.5824L21.8827 41.5971ZM22.578 41.3683C22.3649 41.516 22.161 41.6784 21.9674 41.8544C22.1502 41.6703 22.3449 41.5007 22.5502 41.3466L22.578 41.3683ZM21.4307 41.2064C21.4135 41.2098 21.3968 41.2152 21.381 41.2228C21.3586 41.2587 21.3478 41.3024 21.3502 41.3474C21.3526 41.3924 21.3682 41.4363 21.3945 41.4727L20.9302 41.6718C20.931 41.61 20.9127 41.5483 20.8782 41.4967C20.8437 41.4452 20.7952 41.4066 20.7403 41.3875C21.0676 41.0023 21.4459 40.6465 21.7902 40.2711C21.8415 40.3185 21.9021 40.3516 21.9663 40.3673L21.3303 40.9852C21.25 41.0964 21.3346 41.2072 21.4029 41.1848L21.4307 41.2064ZM18.8162 42.1057C18.4056 42.4258 18.0165 42.7697 17.6405 43.1324L17.484 43.2841C17.4211 43.2086 17.3363 43.1596 17.2461 43.1467C17.4365 42.8682 17.6208 42.5917 17.8243 42.332C17.8403 42.3807 17.9122 42.411 17.9651 42.3627C18.347 42.0598 18.7282 41.7339 19.1078 41.4239C19.0252 41.5282 18.9295 41.6137 18.8491 41.7249C18.8112 41.7719 18.7857 41.8296 18.7751 41.8925C18.7644 41.9554 18.769 42.0214 18.7884 42.084L18.8162 42.1057ZM19.0627 42.3945C18.8618 42.5994 18.654 42.7834 18.4701 42.998C18.4441 43.0022 18.419 43.0104 18.3956 43.0226C18.1424 43.2341 17.9034 43.4647 17.6802 43.7128L17.8344 43.5541C18.2091 43.1456 18.5792 42.7232 18.9153 42.2812C18.9498 42.3196 18.9904 42.3507 19.0349 42.3728L19.0627 42.3945ZM16.2459 41.7804C16.1866 41.7484 16.1217 41.7335 16.0577 41.737C15.9937 41.7405 15.9328 41.7623 15.8809 41.8003C16.086 41.5247 16.3314 41.2667 16.5597 40.9988C16.4248 41.247 16.3134 41.5109 16.2273 41.7865L16.2459 41.7804ZM17.0533 41.8922L17.103 41.8758L17.0533 41.8922ZM18.1856 40.8798L18.4463 40.6475L18.2111 40.8945L18.1856 40.8798ZM18.7072 41.2938L19.3429 40.5913C19.3789 40.6135 19.4186 40.6268 19.4589 40.6301L18.7072 41.2938ZM19.9549 41.8233C20.0911 41.6937 20.2443 41.5739 20.3867 41.4422C20.3554 41.5142 20.3093 41.5833 20.2842 41.6532C20.2591 41.7232 20.2979 41.695 20.3048 41.7158C20.1085 41.8795 19.9238 42.0587 19.7521 42.2523L19.5845 42.3075C19.6805 42.1603 19.8161 42.0077 19.9363 41.8294L19.9549 41.8233ZM19.9009 40.238L20.2938 39.7387C20.3324 39.7434 20.371 39.7396 20.4072 39.7277C20.4434 39.7158 20.4766 39.6959 20.5049 39.6692L19.9009 40.238ZM21.0354 39.2325C22.2719 38.1395 23.4482 36.9893 24.5762 35.7547C24.5736 35.7981 24.5793 35.8421 24.5931 35.884C24.6069 35.926 24.6285 35.9648 24.6563 35.9981C23.4267 37.112 22.237 38.1587 21.0168 39.2386L21.0354 39.2325ZM25.3164 36.143C25.1751 36.3865 25.0498 36.6415 24.9415 36.9062L24.3247 37.3944C24.2875 37.4066 24.245 37.3821 24.2129 37.4312C23.6471 37.8024 23.1509 38.197 22.6252 38.5858L22.6115 38.5441C23.4808 37.757 24.3912 36.9486 25.2978 36.1492L25.3164 36.143ZM24.8328 37.2656C24.8005 37.3765 24.7619 37.4894 24.7358 37.5981C24.7043 37.5441 24.663 37.4973 24.6149 37.4607L24.8328 37.2656ZM26.0914 38.3927C26.08 38.4343 26.0785 38.479 26.0868 38.5228C26.0952 38.5666 26.1132 38.6083 26.1392 38.6439C26.1653 38.6796 26.1986 38.7083 26.2362 38.7273C26.2737 38.7464 26.3144 38.7552 26.3546 38.7531C25.3218 39.2035 24.3295 39.7467 23.3871 40.3774C24.2648 39.7134 25.157 39.0446 26.0636 38.371L26.0914 38.3927ZM28.8245 36.2444C28.9052 36.2179 28.8607 36.1246 28.7741 36.0915C29.0507 35.8537 29.3066 35.589 29.5388 35.3002L29.5594 35.3628C29.2945 35.6658 29.0234 35.9708 28.7738 36.2996C28.5426 36.5376 28.3283 36.7854 28.1032 37.0214C27.8461 37.209 27.5783 37.3795 27.3011 37.532C27.7361 37.0098 28.2443 36.5672 28.8091 36.2187L28.8245 36.2444ZM28.9745 33.9831C28.9376 34.017 28.9078 34.0591 28.8869 34.107C28.866 34.155 28.8545 34.2077 28.853 34.262C27.8647 35.0498 26.8938 35.8627 25.9403 36.7006C26.0707 36.4327 26.2152 36.1741 26.3734 35.9261C27.7121 34.7815 29.06 33.6646 30.4171 32.5756C29.9686 33.0811 29.4811 33.5431 28.9592 33.9573L28.9745 33.9831ZM26.7494 35.417C26.8601 35.2726 26.9685 35.1213 27.094 34.9798C27.119 34.9466 27.1348 34.906 27.1397 34.8623C27.1447 34.8186 27.1387 34.7734 27.1223 34.7316C27.1223 34.7316 27.1223 34.7316 27.172 34.7152C27.839 34.301 28.458 33.8052 29.0178 33.2367C29.5527 32.918 30.0559 32.5434 30.5209 32.1176C30.5209 32.1176 30.5209 32.1176 30.5392 32.1732C29.2612 33.2028 27.9891 34.2921 26.734 35.3912L26.7494 35.417ZM28.641 30.8173C30.1545 29.479 31.7197 28.1931 33.3116 26.9676L34.0509 26.4545C34.0892 26.484 34.1298 26.5094 34.1722 26.5302C32.2607 27.83 30.4244 29.2746 28.6257 30.7916L28.641 30.8173ZM31.0272 33.8854C31.0272 33.8854 31.0066 33.8228 30.9974 33.795L31.7537 33.1453L31.3721 33.5329L31.0869 33.858L31.02 33.9263C31.02 33.9263 31.02 33.9263 31.0085 33.8915L31.0272 33.8854ZM30.437 30.0026C30.9776 29.5549 31.4431 29.1088 31.9613 28.6761C32.416 28.3646 32.8816 28.0649 33.3448 27.7582C32.3554 28.459 31.3759 29.19 30.4062 29.9511L30.437 30.0026ZM34.9454 26.977C33.8327 27.9444 32.7354 28.9377 31.6273 29.919C31.5569 29.9071 31.486 29.9145 31.4212 29.9406L34.9454 26.977ZM35.3227 26.6601L35.3538 26.6499L35.8696 26.3567C35.3616 26.7783 34.869 27.2256 34.3542 27.6263C34.6812 27.3029 35.0104 26.9864 35.3289 26.658C35.3309 26.5803 35.3184 26.5844 35.3122 26.5865L35.3227 26.6601ZM32.1568 30.3151C32.1257 30.3253 32.0895 30.2987 32.0584 30.3089L31.9777 30.3355C31.9699 30.2996 31.9583 30.2646 31.9434 30.2311L31.9868 30.2169C32.0077 30.2177 32.0571 30.2631 32.1486 30.2484L32.1568 30.3151ZM34.7971 29.5152C34.7971 29.5152 34.8579 29.5954 34.9115 29.57L35.3035 29.4024C35.3065 29.4318 35.3159 29.4605 35.331 29.4859C35.1343 29.62 34.9546 29.7639 34.7812 29.9058C34.7233 29.8555 34.653 29.8093 34.5815 29.8636C34.3816 30.0297 34.2009 30.2124 34.0072 30.3764C33.4437 30.7546 32.7975 31.2371 32.4054 31.5511C33.1577 30.7639 33.9682 30.1118 34.7889 29.4486L34.7971 29.5152ZM34.861 29.1242L34.6993 29.2391L35.334 28.7219L35.3128 28.7828L34.861 29.1242ZM32.4473 30.466C32.3893 30.3969 32.3153 30.3463 32.2342 30.3204C33.3192 29.6241 34.3934 28.9159 35.476 28.2127C34.4509 28.8816 33.4407 29.638 32.4391 30.3994L32.4473 30.466ZM34.8335 27.5148C35.2304 27.1529 35.6273 26.791 36.0196 26.4152C36.0928 26.3449 35.9888 26.2173 35.9065 26.2598L37.2117 25.5218C37.2502 25.5615 37.2986 25.5873 37.3496 25.5955C37.4007 25.6037 37.4517 25.5938 37.495 25.5673C36.5968 26.197 35.7097 26.8461 34.8335 27.5148ZM37.708 25.4201L38.4019 24.8526L39.0948 24.4703L37.708 25.4201ZM39.4565 21.8695C39.6176 21.7317 39.7763 21.587 39.9397 21.4562C40.3069 21.1503 40.6786 20.8584 41.0233 20.5676C41.0652 20.6046 41.1158 20.6271 41.168 20.6321C41.2202 20.637 41.2713 20.6241 41.3144 20.5951L41.3455 20.5849C40.7169 20.9537 40.1204 21.4198 39.4542 21.8626L39.4565 21.8695ZM44.4602 19.7213C44.4465 19.6796 44.518 19.6252 44.5144 19.5725L45.6023 18.906C45.5423 18.9767 45.4866 19.0517 45.4354 19.1305L44.4602 19.7213ZM47.8971 17.4955L52.3053 14.8343C52.3229 14.8533 52.3423 14.8702 52.3631 14.8846C51.6869 15.3384 51.0544 15.8626 50.3958 16.3492C49.4101 16.8664 48.4238 17.3606 47.4704 17.9134L47.8971 17.4955ZM47.2781 17.0365L48.1631 16.5062L47.9103 16.7204C47.6982 16.8288 47.4855 16.9142 47.2758 17.0295L47.2781 17.0365ZM51.5382 17.6456C51.4461 17.7838 51.3765 17.9069 51.2968 18.041L51.1043 18.1044C51.1099 18.099 51.1138 18.0917 51.1156 18.0836C51.1173 18.0755 51.1168 18.0669 51.1141 18.0588C51.1114 18.0507 51.1067 18.0434 51.1005 18.0379C51.0943 18.0324 51.0869 18.029 51.0792 18.0279L51.5382 17.6456ZM50.9449 16.8467C51.4924 16.4198 52.0445 16.0068 52.5401 15.5893L52.8377 15.4066C52.8377 15.4066 52.8263 15.3718 52.8217 15.3579C53.1281 15.1183 53.4362 14.8627 53.7449 14.6301C53.7705 14.6416 53.7978 14.6465 53.8246 14.6443C53.8514 14.6422 53.877 14.6331 53.8992 14.6178L54.4143 14.3018C54.3418 14.395 54.2863 14.4981 54.2177 14.5823C53.1341 15.3244 52.0226 16.0449 50.9357 16.8189L50.9449 16.8467ZM33.4512 26.0122C33.4885 26 33.5407 26.0752 33.5835 26.038C33.6263 26.0008 33.7694 25.8921 33.8589 25.8086L33.8727 25.8504C32.9465 26.5483 32.0034 27.2365 31.119 27.9361C31.0933 27.9557 31.0737 27.9833 31.0625 28.0156C31.0512 28.048 31.0487 28.0838 31.0554 28.1189C30.4689 28.574 29.8802 29.0221 29.2915 29.4702C28.3953 30.2174 27.5166 30.9897 26.6552 31.7871C26.5004 31.9228 24.9652 33.8849 25.4728 33.0858C25.48 33.0763 25.4854 33.0652 25.4886 33.0532C25.4919 33.0411 25.4928 33.0283 25.4915 33.0155C25.4901 33.0027 25.4865 32.9902 25.4808 32.9786C25.4752 32.967 25.4675 32.9566 25.4583 32.948C25.4492 32.9393 25.4387 32.9327 25.4274 32.9283C25.4162 32.924 25.4044 32.9221 25.3928 32.9227C25.3812 32.9233 25.3699 32.9264 25.3597 32.9319C25.3495 32.9373 25.3405 32.945 25.3332 32.9545C25.0532 33.3023 24.7552 33.632 24.4404 33.942C23.0881 34.9741 21.9004 36.2356 20.9177 37.6836L20.8008 37.83L20.7002 37.9633C20.6136 38.0766 20.5146 38.194 20.4303 38.3142C19.3933 39.3441 18.3466 40.3797 17.2904 41.4211C17.6938 40.7026 18.1311 40.0037 18.5894 39.3056C18.7524 39.0901 18.9154 38.8746 19.0728 38.684C20.2563 37.3464 21.543 36.1136 22.8366 34.9016C22.8454 34.8885 22.8499 34.8724 22.8496 34.8557C22.8493 34.839 22.8442 34.8224 22.835 34.8084C22.8258 34.7943 22.813 34.7835 22.7984 34.7775C22.7838 34.7715 22.7681 34.7705 22.7536 34.7748L22.7039 34.7911C23.1593 34.3561 23.5954 33.9042 24.0446 33.4712C25.3092 32.3381 26.5692 31.1911 27.8831 30.1035C29.6534 28.6883 31.5466 27.3329 33.4489 26.0053L33.4512 26.0122ZM79.7565 21.6199C79.6031 26.0866 77.9442 29.7002 75.5558 33.0837C71.5905 38.7205 66.7966 44.5993 61.1218 48.1784C54.5525 52.3218 47.0629 53.2306 39.7065 55.0666C36.2804 55.9248 32.8396 56.7801 29.3761 57.504C24.91 58.4425 16.1818 61.3159 11.9831 58.0507C10.1061 54.9615 11.9036 46.732 12.9594 44.2958C14.4299 40.883 17.2302 38.4583 19.839 36.2044L23.9931 32.6249C22.8311 33.6934 21.7116 34.7864 20.6114 35.8962C18.5605 37.6675 16.6825 39.6613 15.0029 41.8504C13.0989 44.4271 12.384 47.9612 12.1598 51.4184C12.1149 51.5282 12.0763 51.6413 12.0442 51.757C12.0442 51.757 12.0007 51.7713 11.9759 51.7795C11.6767 52.3515 11.5209 53.0075 11.5232 53.6858C11.4765 53.8847 11.4447 54.0885 11.4279 54.2952C11.3806 54.739 11.4525 55.1971 11.6351 55.6142C11.491 55.6154 11.362 55.7042 11.4702 55.9075C11.6107 56.228 11.7726 56.538 11.9544 56.8348C12.0911 57.0063 12.2457 57.16 12.4146 57.2921C12.4209 57.3593 12.4463 57.4239 12.4872 57.4769C12.5281 57.5299 12.5824 57.5684 12.6424 57.5871C12.7522 57.628 12.8613 57.646 12.9688 57.68C13.5474 58.1259 14.2358 58.3486 14.9171 58.3103C14.9763 58.2921 15.0287 58.2562 15.0687 58.2064C19.1491 58.9595 23.2242 58.1497 27.1829 57.2164C33.8826 55.6428 40.6771 54.3155 47.3297 52.557C56.519 50.1022 64.3282 46.5063 69.8764 38.9688C71.6318 37.759 72.9327 35.7122 74.1517 33.939C74.733 33.0925 75.3076 32.2252 75.8481 31.3382C75.8481 31.3382 75.8978 31.3218 75.9226 31.3136C77.9009 29.2134 79.0037 25.4361 79.2636 22.4219C79.2629 22.4072 79.2578 22.393 79.249 22.3813C79.2403 22.3697 79.2283 22.3613 79.2152 22.3577C79.2021 22.354 79.1886 22.3551 79.1767 22.361C79.1649 22.3669 79.1554 22.377 79.1499 22.3899C78.7323 24.0038 78.2332 25.5858 77.655 27.1287C77.6181 27.2256 77.5619 27.3058 77.525 27.4027C77.5877 27.2587 77.3824 27.0951 77.2942 27.2243L77.2178 27.3266C77.2184 27.2817 77.2038 27.2371 77.1766 27.2014C77.2235 27.1794 77.2641 27.1449 77.2949 27.1008C77.5945 26.4939 77.8092 25.8365 77.9322 25.1492C77.9138 25.0936 77.9514 25.0196 77.9704 24.9517C78.2584 24.3793 78.4394 23.7441 78.5034 23.0806C78.6659 22.1381 78.7285 21.1712 78.6899 20.1984C78.6899 20.1984 78.6785 20.1636 78.6716 20.1428L78.6579 20.1011C78.6579 20.1011 78.6418 20.0524 78.6579 20.1011C78.7353 19.2404 78.7199 18.3661 78.6121 17.4957C78.6061 17.4656 78.5912 17.4378 78.5698 17.4168C78.5485 17.3957 78.5218 17.3826 78.494 17.3794C78.4662 17.3762 78.4388 17.3832 78.4162 17.3992C78.3936 17.4152 78.377 17.4393 78.3689 17.4678C78.3285 17.6584 78.3112 17.8568 78.2832 18.0433C78.2688 17.8322 78.2605 17.6191 78.2399 17.4101C78.235 17.3581 78.2172 17.3076 78.1884 17.2642C78.1597 17.2208 78.121 17.1862 78.0767 17.1641C78.0325 17.142 77.9843 17.1333 77.9375 17.1391C77.8908 17.1448 77.8473 17.1647 77.8118 17.1965C77.5958 15.2097 77.1083 13.2499 76.3659 11.3835L76.3163 11.3998C77.3549 15.6206 77.3655 18.8926 76.2032 22.4891C75.6605 23.7858 75.0222 25.0268 74.2944 26.2003C73.4145 27.4109 72.4555 28.5481 71.4241 29.6038C68.5492 32.2537 65.4952 34.6678 62.2844 36.8285C62.2161 36.851 62.2812 37.0068 62.3347 36.9814C65.4953 35.4289 68.3708 33.3085 70.8499 30.7023C71.7624 30.0976 72.5902 29.3587 73.3121 28.5045L72.7536 29.4205C72.733 29.3579 72.717 29.3092 72.633 29.3677C71.5092 30.385 70.4087 31.4102 69.3035 32.4214C68.1996 33.2164 67.1401 34.0798 66.1298 35.0076C65.3686 35.5588 64.6051 36.103 63.8707 36.7147C63.8707 36.7147 63.8707 36.7147 63.841 36.7707C55.1039 42.3442 45.7959 46.8601 36.0688 50.2449C36.0881 50.2019 36.0991 50.1546 36.1012 50.1056C36.1032 50.0566 36.0963 50.007 36.0807 49.9597C36.0651 49.9124 36.0413 49.8683 36.0105 49.8302C35.9798 49.792 35.9428 49.7604 35.9017 49.7373C39.8641 48.4017 43.6469 46.5721 47.1792 44.2829C52.0543 41.9823 56.7108 39.2116 61.097 36.0016C61.1245 36.0851 61.1588 36.1894 61.2428 36.1309C66.8066 32.3705 71.5681 27.399 75.2577 21.4979C75.2427 21.5568 75.2129 21.6128 75.1979 21.6717C75.1829 21.7306 75.2908 21.8492 75.3539 21.7899C75.9411 21.0845 76.3412 20.212 76.5154 19.2572C76.804 18.1638 76.8898 17.0044 76.7681 15.8446C76.7475 15.782 76.6655 15.7627 76.6612 15.8335C76.5917 16.8639 76.4377 17.8792 76.2013 18.8674C75.9659 19.7618 75.5025 20.5695 75.258 21.4361C75.2443 21.3944 75.2259 21.3388 75.1792 21.385C71.1032 26.5663 66.5652 31.2831 61.625 35.4733C57.6987 37.9682 53.7822 40.3673 49.745 42.5673C50.7908 41.8145 51.8195 41.052 52.8074 40.2489C52.8204 40.2366 52.8285 40.2192 52.8302 40.1999C52.8318 40.1807 52.8269 40.161 52.8164 40.1445C52.8059 40.1281 52.7905 40.116 52.7732 40.1106C52.7558 40.1052 52.7376 40.1068 52.7221 40.1152C46.3322 44.4692 39.6774 47.4539 32.599 50.2388C32.5245 50.2634 32.45 50.2879 32.3817 50.3104C31.7686 50.3592 31.1501 50.3593 30.5309 50.3108C30.1731 50.2898 29.8255 50.2579 29.4716 50.2279L29.5464 50.1416C29.5707 50.107 29.5827 50.0635 29.5804 50.0183C29.5781 49.9732 29.5617 49.9292 29.5339 49.8939C29.5061 49.8586 29.4686 49.8341 29.4278 49.8246C29.387 49.8152 29.3454 49.8212 29.3101 49.8418L29.2104 49.9363C29.1981 49.9165 29.1805 49.9012 29.1603 49.8926C29.1402 49.884 29.1184 49.8825 29.0983 49.8884C28.968 49.9313 28.8376 49.9742 28.7134 50.0151C28.7157 49.998 28.7142 49.9802 28.7089 49.9634C28.7037 49.9465 28.6948 49.931 28.6832 49.9182C28.6715 49.9054 28.6574 49.8956 28.642 49.8898C28.6267 49.8839 28.6104 49.8821 28.5948 49.8846C28.5582 49.7733 28.4781 49.6764 28.3739 49.7569C28.2697 49.8375 28.205 49.9127 28.1171 49.9802C28.0176 49.9542 27.9217 49.9102 27.8334 49.8501C27.9644 49.6836 28.1232 49.5389 28.2457 49.3675L28.2251 49.3049C28.0447 49.426 27.8844 49.5867 27.7086 49.7216C27.6812 49.7102 27.6564 49.692 27.6361 49.6684C27.6017 49.6373 27.5585 49.6213 27.5156 49.6239C27.4728 49.6265 27.4337 49.6474 27.4067 49.6823C27.2655 49.9139 27.0808 50.1084 26.8638 50.254C26.6468 50.3996 26.402 50.4933 26.1443 50.5294C26.1443 50.5294 26.1443 50.5294 26.1123 50.5785C25.9513 50.7163 25.797 50.875 25.636 51.0128C25.4239 51.0754 25.2039 51.109 24.9809 51.1128L25.043 51.0924C25.1567 50.9779 24.9749 50.7603 24.8481 50.856L24.5401 51.1115L23.7581 51.0144C23.7261 50.9171 23.6964 50.8267 23.5712 50.9064L23.4657 50.9411C23.1733 50.9055 22.8804 50.9063 22.5926 50.9434C22.4074 50.9641 22.2309 51.0281 22.0751 51.1312C21.9192 51.2344 21.7875 51.3743 21.6886 51.5416C21.1205 51.9059 20.504 52.3323 19.9209 52.7555C19.8957 52.699 19.8532 52.6531 19.8013 52.6263C19.7495 52.5994 19.6918 52.5934 19.6388 52.6094C20.0268 52.1941 20.4485 51.8181 20.8995 51.4854C21.355 51.198 21.8335 50.9528 22.3301 50.7523C22.4978 50.6972 22.4591 50.3708 22.2592 50.3903C21.2593 50.4883 19.2298 51.3876 19.1386 52.7201C19.1386 52.7201 19.1386 52.7202 19.1547 52.7688C18.7015 52.918 18.2545 53.0652 17.7951 53.2164C17.7417 53.2368 17.6957 53.274 17.6626 53.3236C17.6295 53.3731 17.6107 53.4329 17.6083 53.496C17.606 53.5591 17.6202 53.6229 17.6493 53.6798C17.6784 53.7367 17.7213 53.7843 17.7728 53.8172C17.9341 53.9004 18.0987 53.9749 18.2659 54.0402C18.0924 54.1821 17.9104 54.3191 17.7206 54.474C17.1434 54.8105 16.5056 55.1515 15.8888 55.4933C15.262 55.3558 14.6621 55.0671 14.1336 54.6487C13.6051 54.2302 13.1617 53.6928 12.8363 53.0762C12.8363 53.0762 12.8363 53.0762 12.8797 53.0619C13.1346 52.3455 13.2997 51.5889 13.3705 50.8117C13.5203 49.9917 13.6432 49.1112 13.7165 48.2469C13.7051 48.2122 13.7005 48.1983 13.6936 48.1774C13.8674 47.8273 14.0173 47.4466 14.1747 47.1096C14.4559 46.5007 14.7364 45.8688 14.9355 45.2406C14.9666 45.2304 15.0051 45.264 15.0287 45.21L15.3586 44.77C15.2154 45.0181 15.0923 45.2803 14.9905 45.5539C14.9716 45.6218 15.0432 45.7139 15.0938 45.6587C15.1981 45.5592 15.2961 45.4522 15.3874 45.3385C15.4233 45.4428 15.4929 45.5312 15.5823 45.586C15.6718 45.6408 15.7745 45.6581 15.8701 45.6343C16.7194 45.4885 17.5183 45.144 18.214 44.6238L19.0004 44.0027C19.0453 44.0551 19.1038 44.0911 19.1669 44.1052C19.2299 44.1192 19.294 44.1106 19.3493 44.0805C19.6849 43.8856 20.0046 43.6618 20.3056 43.4111C20.3306 43.4386 20.3601 43.4606 20.3922 43.476C20.4244 43.4914 20.4586 43.4998 20.4929 43.5007C20.5271 43.5016 20.5607 43.495 20.5918 43.4814C20.6228 43.4677 20.6506 43.4472 20.6735 43.421C20.8754 43.1773 21.0495 42.9119 21.2321 42.6514C21.271 42.7696 21.3798 42.8494 21.4925 42.7738C22.3431 42.2285 23.1566 41.6209 23.928 40.9546C24.0087 40.9281 23.9423 40.7264 23.8662 40.7669C23.5882 40.9047 23.317 41.0633 23.0481 41.2289C23.5137 40.9292 24.0256 40.6451 24.4683 40.4223C26.4201 39.4329 28.3948 38.5131 30.3357 37.5118C30.4351 37.4791 30.3438 37.2857 30.2716 37.3171C29.3882 37.6851 28.4482 38.0484 27.5648 38.4164C28.1554 38.041 28.6768 37.554 29.1067 36.9762C29.122 36.9553 29.1296 36.9285 29.128 36.9007C29.1264 36.8729 29.1158 36.846 29.0981 36.8249C29.9053 36.0243 30.6674 35.1713 31.3808 34.2699L32.3935 33.1658L33.2111 32.3263C33.4687 32.1879 33.7473 32.0962 34.0367 32.0545C34.1361 32.0218 34.1687 31.8493 34.0471 31.8353C33.9324 31.8255 33.8178 31.8271 33.7047 31.8402C34.2934 31.2456 34.8496 30.6154 35.4036 29.9783L35.6392 29.816C35.9447 29.9081 36.2943 29.716 36.173 29.3474C36.163 29.3213 36.1462 29.2986 36.1249 29.2823C36.1035 29.266 36.0786 29.2567 36.0534 29.2558L36.1951 29.1012C36.2373 29.0411 36.1448 28.9482 36.1043 28.9924C36.0638 29.0366 35.9844 29.1089 35.9213 29.1682C35.9049 29.1301 35.8918 29.0905 35.8824 29.05L35.9383 29.0316C35.9383 29.0316 35.9223 28.9829 35.9109 28.9482C35.9384 28.8693 35.9846 28.8009 36.0451 28.7498C36.5008 28.3994 36.9977 28.0278 37.5256 27.6459L37.6933 27.5907C37.1515 27.9861 36.6555 28.4493 36.2144 28.9715C36.1895 28.995 36.172 29.0264 36.1641 29.0619C36.1562 29.0974 36.1583 29.1354 36.17 29.1711C36.1818 29.2068 36.2027 29.2386 36.2301 29.2625C36.2576 29.2864 36.2904 29.3013 36.3243 29.3053C36.2956 29.3278 36.2717 29.3567 36.2541 29.3902C36.2364 29.4238 36.2254 29.4614 36.2217 29.5008C36.2179 29.5401 36.2215 29.5804 36.2323 29.6193C36.243 29.6582 36.2607 29.6948 36.2842 29.727L36.13 29.8857C35.8299 30.1073 35.5732 30.3904 35.3728 30.7207C35.3728 30.7207 35.3728 30.7207 35.3888 30.7693C34.9484 31.1293 34.553 31.5493 34.2112 32.0202C33.0643 33.5031 31.8429 34.9137 30.552 36.246C30.5024 36.2624 30.5978 36.3851 30.6266 36.3679C32.9929 35.1959 33.8593 32.059 35.8763 30.4316C36.0746 30.3155 36.259 30.1746 36.4261 30.0117C36.764 29.808 37.1275 29.6547 37.5075 29.5555C37.5572 29.5391 37.5274 29.4487 37.4755 29.4581C37.2238 29.5218 36.977 29.603 36.7367 29.7013C36.937 29.4736 37.1232 29.2658 37.2845 29.0663L38.3643 28.3332C38.4107 28.4067 38.4782 28.4617 38.555 28.4886C38.6318 28.5154 38.7129 28.5124 38.7842 28.4801C39.1834 28.2716 39.5719 28.0512 39.9502 27.8419L39.8509 27.8746C39.795 27.893 39.8411 27.9703 39.8852 27.9789C38.5356 28.77 37.2504 29.6941 35.9776 30.614C35.9462 30.6421 35.9252 30.6818 35.918 30.7264C35.9108 30.771 35.9178 30.8181 35.9379 30.8598C35.9581 30.9015 35.9901 30.9354 36.0288 30.956C36.0675 30.9766 36.1105 30.9827 36.1509 30.9732C36.5482 30.8424 36.9203 30.6351 37.3062 30.4696C37.321 30.4647 37.333 30.4534 37.3396 30.4382C37.3462 30.423 37.3469 30.4052 37.3414 30.3886C37.3359 30.372 37.3248 30.358 37.3105 30.3497C37.2961 30.3414 37.2798 30.3395 37.265 30.3444L36.9284 30.4089C37.964 29.6672 38.999 28.9026 39.9607 28.0619C39.9706 28.0587 39.9786 28.0512 39.9831 28.041C39.9875 28.0309 39.9879 28.019 39.9843 28.008C39.9806 27.9969 39.9732 27.9876 39.9636 27.982C39.9541 27.9765 39.9431 27.9752 39.9333 27.9785L40.2681 27.7835L40.0999 27.9622C39.9434 28.1139 40.0856 28.3368 40.2441 28.4002C39.7422 28.9011 39.2005 29.3527 38.6244 29.7504C38.5881 29.7761 38.5624 29.8159 38.5521 29.8626C38.5417 29.9093 38.5473 29.9596 38.5679 30.0044C38.5885 30.0492 38.6227 30.0854 38.6642 30.1063C38.7057 30.1273 38.7517 30.1317 38.7938 30.1186C39.1988 29.9754 39.5807 29.7718 39.9294 29.5135C39.9391 29.5291 39.9516 29.5425 39.9661 29.5529C39.9805 29.5632 39.9966 29.5702 40.0133 29.5735C40.0299 29.5767 40.0468 29.5761 40.0628 29.5717C40.0787 29.5673 40.0934 29.5592 40.1059 29.5479L40.1369 29.5377C40.4584 29.1994 40.8352 28.9294 41.2503 28.7395C41.2835 28.8427 41.3443 28.9342 41.4244 29.0017C41.5045 29.0692 41.6 29.1094 41.6979 29.1167C41.7958 29.1241 41.8914 29.0983 41.9717 29.0428C42.0519 28.9874 42.1128 28.905 42.1462 28.8068C42.1573 28.7878 42.1608 28.7643 42.1558 28.7413C42.1508 28.7184 42.1379 28.698 42.1198 28.6845C42.1016 28.6711 42.0799 28.6657 42.0592 28.6696C42.0386 28.6735 42.0207 28.6864 42.0097 28.7053C41.9822 28.6219 41.957 28.5454 41.9295 28.462L41.973 28.4477C41.9955 28.4506 42.0177 28.4444 42.0354 28.4303C42.0531 28.4163 42.065 28.3953 42.0689 28.3712C42.0728 28.3472 42.0685 28.3219 42.0567 28.2999C42.045 28.278 42.0265 28.261 42.0049 28.2522C41.9281 28.201 41.8421 28.1709 41.7547 28.1647C41.6673 28.1584 41.5813 28.1762 41.5047 28.2165C41.8699 27.8419 42.2266 27.4624 42.5794 27.092C42.6415 27.0715 42.529 26.939 42.4947 26.9811C41.8201 27.5654 41.1394 28.1518 40.4909 28.7737C40.2745 28.9597 40.0439 29.1258 39.8013 29.2705C40.6152 28.5754 41.3226 27.7452 41.9007 26.8067L41.9817 26.7184C42.0008 26.6879 42.0138 26.653 42.0199 26.6159C42.026 26.5788 42.025 26.5402 42.0171 26.5025C42.0092 26.4647 41.9945 26.4286 41.9738 26.3964C41.9532 26.3641 41.927 26.3363 41.8969 26.3147C42.8953 25.6829 43.8845 25.0438 44.8643 24.3976L45.5716 23.9335C45.5907 23.9222 45.607 23.9063 45.6194 23.8869C45.6317 23.8675 45.6398 23.8451 45.6431 23.8212C45.6464 23.7973 45.6448 23.7726 45.6385 23.7487C45.6321 23.7249 45.6211 23.7025 45.6062 23.6832C46.5288 23.2297 47.3261 22.5369 47.9335 21.6608L48.0266 21.6301C48.0266 21.6301 48.0638 21.6179 48.0949 21.6076L48.1818 21.579C48.4971 21.4409 48.7935 21.2605 49.0645 21.0418C49.1418 21.061 49.2209 21.0495 49.2873 21.0092C49.3537 20.9689 49.4029 20.9027 49.4259 20.8227C49.4809 20.694 49.5466 20.5718 49.6222 20.4575C49.7685 20.245 49.8962 20.0173 50.0036 19.777C50.1565 19.5725 50.3179 19.3729 50.4825 19.1415C50.4985 19.1241 50.5094 19.1018 50.5141 19.0771C50.5187 19.0524 50.5169 19.0263 50.5088 19.0018C50.5007 18.9772 50.4867 18.9552 50.4683 18.9381C50.4499 18.921 50.4279 18.9096 50.4047 18.905C50.2042 18.9136 50.0123 18.9768 49.8459 19.089C50.1289 18.9034 50.4095 18.7108 50.6947 18.5321C50.6947 18.5321 50.6833 18.4973 50.6787 18.4834L51.1834 18.2402L51.0639 18.4414C50.9983 18.5555 51.1463 18.6917 51.2476 18.5813C51.6558 18.0479 52.1141 17.564 52.616 17.1366C53.0585 16.8438 53.4718 16.5038 53.8505 16.1213C53.8643 16.1088 53.874 16.0918 53.8784 16.0724C53.8829 16.0531 53.8818 16.0324 53.8754 16.0129C53.869 15.9935 53.8575 15.9762 53.8425 15.9633C53.8274 15.9504 53.8095 15.9425 53.791 15.9405C53.791 15.9405 53.7476 15.9548 53.7289 15.961C54.0742 15.6118 54.3842 15.2232 54.6543 14.8008L55.2018 14.374C55.2135 14.4108 55.2354 14.4435 55.2642 14.4672C55.293 14.491 55.3274 14.5046 55.3623 14.5061C55.9556 14.4362 56.5203 14.2293 57.0201 13.8987C57.0201 13.8987 57.0315 13.9335 57.0384 13.9543C57.1187 14.0612 57.2302 14.1343 57.3516 14.1598C57.473 14.1853 57.5958 14.1612 57.6962 14.0923C57.0275 14.958 56.3004 15.7665 55.5203 16.5119C54.9395 17.0623 54.3152 17.5565 53.6537 17.9896L53.979 17.5357C53.9949 17.5114 54.0034 17.4818 54.0032 17.451C54.0031 17.4201 53.9943 17.3894 53.9781 17.3629C53.9619 17.3364 53.9391 17.3154 53.9126 17.3028C53.8861 17.2901 53.8573 17.2863 53.8299 17.2919C53.0334 17.4723 52.355 17.9947 51.9417 18.7459C51.9417 18.7459 51.9302 18.7111 51.9044 18.7581C48.8481 21.5755 45.6466 24.2865 42.7765 27.3354C42.7615 27.3505 42.7529 27.3721 42.7528 27.3952C42.7527 27.4184 42.761 27.4413 42.7759 27.4589C42.7908 27.4765 42.8111 27.4873 42.8323 27.489C42.8535 27.4907 42.8739 27.4831 42.889 27.4679C45.9833 24.954 48.841 22.0557 51.7506 19.2943C51.754 19.3269 51.7647 19.3586 51.7817 19.3865C51.7988 19.4144 51.8217 19.4377 51.8483 19.4542C51.8749 19.4707 51.9045 19.4799 51.9342 19.481C51.964 19.4821 51.993 19.475 52.0186 19.4604C52.331 19.2805 52.6335 19.0499 52.9474 18.8541C52.9577 18.8619 52.9693 18.8671 52.9814 18.8694C52.9935 18.8717 53.0057 18.8709 53.0171 18.8671C53.0285 18.8634 53.0388 18.8567 53.0472 18.8478C53.0555 18.8388 53.0618 18.8276 53.0654 18.8153L53.1738 18.664C53.9306 18.1717 54.6571 17.6288 55.3496 17.0382C55.3725 17.1078 55.4022 17.1982 55.48 17.1417C57.283 15.7004 59.0271 14.1012 60.7235 12.4406C61.4288 11.8411 62.1636 11.2829 62.925 10.7679C62.9386 10.7855 62.9575 10.7972 62.9778 10.8006C62.9981 10.8039 63.0183 10.7987 63.0342 10.7859C63.2037 10.653 63.3625 10.5082 63.5298 10.3684C64.2365 9.91877 64.9724 9.52205 65.7328 9.18073C65.8818 9.13169 65.801 8.8654 65.6481 8.92344C65.4952 8.98149 65.1838 9.12253 64.9525 9.2141C65.2738 8.93921 65.6111 8.68663 65.9626 8.45767C67.1841 7.71642 68.5293 7.35066 69.7898 6.72762L69.7692 6.66503C67.675 6.69933 65.1858 8.10454 63.6286 9.81178C63.3529 9.9565 63.0879 10.1131 62.8168 10.2717C63.1999 9.86812 63.6171 9.48415 63.9833 9.07074C64.0392 9.05234 63.9398 8.93861 63.9094 8.97174C62.9487 9.77358 62.0209 10.6339 61.0709 11.4476C60.7893 11.6791 60.5348 11.9093 60.2663 12.1595C59.4258 12.9295 58.6192 13.7191 57.8065 14.5107C58.0567 14.2049 58.2945 13.9031 58.5254 13.5804C58.5254 13.5804 58.5254 13.5804 58.5688 13.5661C58.6218 13.5489 58.6656 13.5101 58.6916 13.4573C58.7175 13.4045 58.7237 13.3416 58.7089 13.2811C58.9353 12.9445 59.1672 12.583 59.3409 12.2329C59.6105 12.0902 59.8885 11.9525 60.1875 11.8155C60.2806 11.7849 60.2629 11.6057 60.1256 11.6278C59.9523 11.6554 59.7812 11.6937 59.613 11.7426C60.9542 11.1297 62.1987 10.3102 63.3112 9.3074C63.4677 9.15569 63.6363 9.06166 63.7996 8.93081L64.0048 8.80161C64.0048 8.80161 64.0048 8.80162 63.9933 8.76686C65.4513 7.73201 67.0117 6.86969 68.6505 6.19321L69.5687 6.1607C69.5705 6.21474 69.5895 6.26765 69.6224 6.3103C69.6553 6.35295 69.7 6.38265 69.7488 6.39427C70.0324 6.46392 70.3197 6.50357 70.6066 6.51266C69.7661 6.87104 68.9487 7.28425 68.1585 7.75017L68.1471 7.7154C67.6238 7.81037 67.1307 8.02231 66.6978 8.33838C66.2649 8.65444 65.9012 9.06805 65.6286 9.55414C65.494 9.66781 65.3526 9.76062 65.2203 9.88125C65.196 9.89637 65.179 9.92185 65.1728 9.95207C65.1666 9.98229 65.1718 10.0148 65.1873 10.0424C65.2028 10.07 65.2272 10.0905 65.2553 10.0993C65.2834 10.1081 65.3128 10.1046 65.337 10.0894C65.3262 10.1485 65.33 10.2108 65.3481 10.2699C65.3662 10.329 65.3979 10.3828 65.4401 10.426C65.4822 10.4692 65.5332 10.5002 65.5881 10.5159C65.6429 10.5316 65.6996 10.5314 65.7524 10.5153C66.5293 10.221 67.3047 9.94264 68.0731 9.64341C68.1191 9.62857 68.1607 9.60229 68.1948 9.56652C68.2289 9.53074 68.2546 9.48641 68.2701 9.43684C68.2855 9.38728 68.2903 9.33376 68.284 9.28029C68.2777 9.22683 68.2605 9.17481 68.2337 9.12812C68.6442 8.79352 69.0741 8.48728 69.5212 8.21101C70.3547 7.76837 71.2208 7.39564 72.1127 7.09582C72.181 7.07334 72.1607 6.94901 72.0692 6.96371C70.4515 7.12043 68.948 7.81418 67.7566 8.95377L66.538 9.43204C66.6424 9.3088 66.7534 9.19249 66.8705 9.08364C68.3392 8.09577 69.8607 7.19869 71.4283 6.39627C71.5029 6.37928 71.5755 6.35536 71.6456 6.32475C71.6456 6.32475 71.6829 6.31248 71.7015 6.30635C72.319 6.64898 72.8697 7.13055 73.315 7.71736C73.3334 7.77299 73.4458 7.75911 73.433 7.67853C73.3372 6.96173 73.0187 6.28693 72.5321 5.76951C72.0455 5.2521 71.4209 4.92421 70.7652 4.84193C70.6874 4.78518 70.5999 4.74805 70.5094 4.73347C70.4483 4.74178 70.3896 4.76112 70.3356 4.7907C66.9193 4.46643 61.8165 7.52587 60.2664 8.75294C60.2664 8.75294 60.2778 8.7877 60.2824 8.80161L60.2265 8.82001C59.8926 8.97617 59.5541 9.11843 59.2287 9.2795C58.7657 9.23155 57.1511 10.0328 55.2555 11.0885C56.0899 10.6134 56.9113 10.1195 57.748 9.65138C57.9803 9.52096 57.8478 9.20231 57.6328 9.13437C58.0017 8.95899 58.3597 8.77175 58.7309 8.60332C61.7684 7.23342 65.514 5.06776 68.8776 4.64641C73.0047 4.12012 75.1684 6.42901 76.9716 9.4192C76.983 9.45397 76.9549 9.49404 76.9687 9.53576C78.2843 13.6576 79.9125 17.0984 79.7542 21.613L79.7565 21.6199ZM13.9533 45.3713C13.9367 45.4461 13.9076 45.5251 13.8933 45.6069C13.8957 45.6638 13.914 45.7196 13.9459 45.7668C13.8316 46.0048 13.7042 46.224 13.5938 46.453C13.6614 46.1148 13.7904 45.7332 13.9324 45.3705L13.9533 45.3713ZM13.2536 48.4918C13.0822 49.1417 12.9256 49.7944 12.7921 50.4549C12.6414 51.0872 12.5371 51.7349 12.4802 52.3919C12.4665 52.3502 12.4505 52.3015 12.3854 52.2921C12.5289 51.0348 12.7086 49.8042 12.9586 48.6198C12.9915 48.638 13.0275 48.647 13.0633 48.6461C13.0991 48.6451 13.1334 48.6341 13.1631 48.6141C13.2043 48.5928 13.2101 48.5061 13.2536 48.4918ZM13.0809 54.9687L12.9766 54.9029C12.7279 54.6071 12.4745 54.2974 12.2483 53.9865L12.2466 53.7097C12.2587 53.6209 12.2646 53.5342 12.2704 53.4475C12.4581 54.0003 12.7334 54.5181 13.0831 54.9757L13.0809 54.9687ZM14.856 57.0587C14.9119 57.0403 14.9553 57.026 15.005 57.0097C15.0264 56.9919 15.0449 56.9702 15.0596 56.9455C15.3929 57.0592 15.7301 57.164 16.0589 57.2639C15.9968 57.2843 15.9226 57.2471 15.8514 57.2397C15.7801 57.2323 15.8376 57.198 15.7958 57.1963C15.4824 57.1753 15.1692 57.1316 14.8583 57.0657L14.856 57.0587ZM18.5473 54.4562C18.5908 54.4419 18.628 54.4297 18.6715 54.4154C18.3196 54.747 17.9678 55.0786 17.6313 55.436C17.6313 55.436 17.6474 55.4847 17.6542 55.5055C17.6104 55.5296 17.5752 55.5681 17.553 55.6159C17.128 55.5847 16.7034 55.5237 16.2819 55.4333L17.1254 54.986C17.1392 55.0277 17.2133 55.065 17.2747 55.0216C17.5841 54.8119 17.8906 54.5723 18.2016 54.3466L18.3633 54.2317C18.3622 54.2588 18.3662 54.2862 18.375 54.3123C18.3837 54.3384 18.3971 54.3627 18.4143 54.3836C18.4315 54.4046 18.4521 54.4218 18.4749 54.4343C18.4978 54.4468 18.5224 54.4542 18.5473 54.4562ZM20.1617 54.0095C20.4761 53.9258 20.7577 53.7478 20.9762 53.4948C21.032 53.4764 20.9859 53.3991 20.9823 53.3463C21.8918 52.5768 22.7667 51.7647 23.5948 50.9988L24.1559 51.1147C22.5037 52.3853 20.9308 53.7705 19.4458 55.2626C19.4023 55.2769 19.471 55.3391 19.4498 55.4C19.0197 55.4105 18.5904 55.444 18.162 55.4386C18.8561 55.0086 19.5245 54.5338 20.164 54.0165L20.1617 54.0095ZM18.732 53.3242L18.8934 53.271L18.8003 53.3017L18.732 53.3242ZM20.8909 52.2743L20.5482 52.4873C20.8314 52.24 21.1254 52.0044 21.4002 51.7521C21.4002 51.7521 21.4002 51.7521 21.4374 51.7399C21.5596 51.6303 21.6987 51.5305 21.8186 51.414C21.8306 51.4019 21.8381 51.3853 21.8398 51.3671C21.8415 51.3489 21.8373 51.3302 21.828 51.3141C21.8187 51.2981 21.8047 51.2857 21.7886 51.2792C21.7724 51.2726 21.7551 51.2723 21.7395 51.2782C21.9287 51.1201 22.1492 51.0103 22.3865 50.9561C22.6237 50.9019 22.8722 50.9046 23.1154 50.964C22.0713 51.7007 20.9867 52.4817 19.9475 53.3171C19.8419 53.3518 19.7312 53.3497 19.6211 53.3706C20.0628 53.0402 20.4937 52.698 20.9099 52.3528C20.9419 52.3038 20.9219 52.2641 20.8932 52.2813L20.8909 52.2743ZM27.5917 49.868C27.653 49.9271 27.7189 49.9803 27.7884 50.0267C26.9284 50.7734 26.1206 51.5878 25.3708 52.4643C24.9928 52.9047 24.3192 53.4501 24.1704 54.0849C24.1663 54.11 24.1669 54.136 24.1721 54.1615C24.1773 54.187 24.187 54.2115 24.2007 54.2335C24.2143 54.2555 24.2316 54.2747 24.2516 54.2898C24.2716 54.3049 24.2939 54.3158 24.3171 54.3217C24.3432 54.3248 24.3693 54.3222 24.3938 54.3141C24.4183 54.3061 24.4408 54.2927 24.4599 54.2747C24.5295 54.298 24.6559 54.1177 24.7072 54.0854C24.9379 53.9037 25.1388 53.6816 25.3024 53.427C25.3218 53.4557 25.3461 53.4801 25.3738 53.4988C25.4016 53.5174 25.4321 53.5299 25.4636 53.5354C25.4951 53.5409 25.5268 53.5394 25.5569 53.5309C25.5869 53.5224 25.6146 53.5071 25.6383 53.486L25.7932 53.3503C25.7925 53.3646 25.7947 53.3791 25.7999 53.3927C25.8051 53.4063 25.813 53.4186 25.823 53.4288C25.8329 53.4389 25.8447 53.4465 25.8575 53.451C25.8702 53.4556 25.8835 53.4569 25.8964 53.455C39.4106 51.252 52.1532 45.9067 63.289 37.7694C63.2627 38.0864 63.6173 38.4321 63.9035 38.2145L64.3631 37.8551C64.4203 37.9021 64.4879 37.9304 64.5572 37.9364C64.6265 37.9424 64.6945 37.9258 64.7526 37.8888L65.0868 37.6708C60.7229 41.2148 55.9696 44.1734 50.9191 46.489L50.5466 46.6117C50.5238 46.5421 50.5032 46.4796 50.3999 46.5212C49.1136 47.0449 47.8479 47.6311 46.5868 48.2313C42.1761 49.8606 37.6031 51.0809 33.0576 52.2381C30.9384 52.7817 26.7456 54.3623 22.6613 55.1443C22.6613 55.1443 22.6924 55.1341 22.6764 55.0854L22.6351 54.9602C22.5962 54.842 22.4535 54.889 22.4613 55.0174C22.4711 54.7753 23.425 54.099 23.5675 53.9674L25.0679 52.4638C25.9816 51.6235 26.81 50.7959 27.5939 49.875L27.5917 49.868ZM26.312 50.6207C26.3248 50.5982 26.3318 50.5721 26.3325 50.5449C26.3332 50.5177 26.3275 50.4903 26.3158 50.4653C26.3842 50.4504 26.4507 50.4285 26.5145 50.3999L26.312 50.6207ZM28.6094 52.0609L28.3119 52.3901C28.2873 52.4138 28.268 52.4434 28.2553 52.4768C28.2425 52.5102 28.2367 52.5468 28.2381 52.5839L27.6793 52.7678L28.6094 52.0609ZM27.0639 52.2151C26.9663 52.3783 26.847 52.5178 26.7602 52.6928C26.7362 52.7363 26.7264 52.7882 26.7325 52.8405C26.7385 52.8928 26.76 52.9426 26.7936 52.9824C26.5205 53.0723 26.2597 53.1581 25.9813 53.2112C26.3524 52.8964 26.7098 52.5398 27.0662 52.2221L27.0639 52.2151ZM28.1803 50.653C28.2803 50.4968 28.3933 50.3594 28.4786 50.2003C28.5572 50.1998 28.6352 50.1921 28.7118 50.1775C28.5367 50.3233 28.3704 50.481 28.2137 50.6497L28.1803 50.653ZM29.1165 50.445L29.2739 50.2545C29.4543 50.2799 29.6131 50.2815 29.7765 50.2971C29.5415 50.3359 29.3266 50.4144 29.1187 50.452L29.1165 50.445ZM30.4632 51.2965L30.5005 51.2842L31.3307 51.1727C31.0377 51.223 30.7462 51.2573 30.4655 51.3034L30.4632 51.2965ZM31.4178 50.3502C31.5952 50.3458 31.7726 50.3413 31.9579 50.3189L31.8461 50.3556C31.7021 50.3568 31.5625 50.3719 31.4201 50.3572L31.4178 50.3502ZM32.5409 50.5431L32.4726 50.5656C33.4584 50.3413 34.4405 50.0642 35.4135 49.7593C35.7288 49.7557 35.9654 49.8473 35.9593 50.1422C34.8791 50.4978 33.8388 50.9328 32.7417 51.2786C32.8043 51.2482 32.8634 51.2107 32.9181 51.1665C32.9535 51.1422 32.9837 51.1102 33.0069 51.0723C33.0302 51.0343 33.0461 50.9912 33.0537 50.9454C33.0613 50.8996 33.0605 50.852 33.0513 50.8053C33.042 50.7586 33.0246 50.7138 33 50.6733C32.9754 50.6328 32.944 50.5975 32.9077 50.5694C32.8715 50.5413 32.831 50.521 32.7885 50.5095C32.7461 50.4981 32.7026 50.4958 32.6605 50.5027C32.6184 50.5097 32.5785 50.5258 32.5432 50.5501L32.5409 50.5431ZM68.1682 38.984C68.3704 38.8249 68.5795 38.6867 68.7755 38.5297C68.8376 38.5093 68.8 38.4369 68.7941 38.3772C68.7882 38.3174 68.9342 38.2385 69.0012 38.1702C69.0024 38.2411 69.0169 38.3119 69.044 38.3782C69.071 38.4446 69.1099 38.5049 69.1582 38.5556C69.2066 38.6063 69.2633 38.6461 69.3249 38.6727C69.3864 38.6992 69.4515 38.7119 69.516 38.7098C67.096 41.813 64.2373 44.4663 61.0361 46.5804C58.9826 47.8858 56.7828 48.9177 54.48 49.6559C54.907 49.4691 55.3102 49.2516 55.7202 49.0549C59.2593 47.9509 62.446 45.9105 65.0115 43.106C65.0247 43.0935 65.0325 43.0754 65.0331 43.0557C65.0337 43.036 65.0271 43.0163 65.0147 43.0009C65.0024 42.9856 64.9853 42.9758 64.9672 42.9738C64.9491 42.9718 64.9315 42.9777 64.9183 42.9903C64.2832 43.4228 63.6527 43.8693 63.0307 44.3207C63.0747 44.2832 63.1071 44.232 63.1242 44.1732C63.1414 44.1143 63.1426 44.0502 63.1277 43.9882C64.6404 42.9634 66.0808 41.8223 67.4389 40.5728C67.5134 40.5483 67.4337 40.3896 67.3931 40.4337C66.5542 41.0413 65.7162 41.6101 64.872 42.1808C64.9547 42.0766 64.7805 41.9027 64.7119 41.9869C64.3921 42.2695 64.0615 42.5402 63.7332 42.8178C63.9847 42.5577 64.2532 42.3075 64.4855 42.0306C65.7962 41.1213 67.0699 40.1625 68.2898 39.1443C68.3179 39.1043 68.2502 39.0032 68.1704 38.9909L68.1682 38.984ZM67.203 39.1245C67.7632 38.6017 68.2804 38.0267 68.7494 37.4054L68.3897 37.9014C68.3541 37.9647 68.3384 38.0401 68.3452 38.1169C68.3519 38.1936 68.3806 38.2677 68.4271 38.3284C68.0236 38.6077 67.6133 38.8661 67.2053 39.1314L67.203 39.1245ZM46.1021 51.4197C46.0123 51.445 45.9374 51.5083 45.8931 51.5962C45.8489 51.6841 45.8388 51.7898 45.865 51.8908L45.3834 51.9954C40.1436 53.1963 34.6676 54.9759 29.0892 56.1727C29.4928 56.0398 29.8949 55.8612 30.3125 55.7083C30.73 55.5554 30.9333 55.5039 31.2437 55.4018C35.2335 54.5124 39.1662 53.4003 43.0272 52.0698C46.7347 51.1622 50.3262 49.8482 53.7493 48.1469C54.6389 47.777 55.5544 47.36 56.4342 46.9393C53.1011 48.6913 49.6502 50.1904 46.1044 51.4267L46.1021 51.4197ZM54.1696 49.7581L53.5922 49.9482L54.0209 49.7454C54.07 49.764 54.1216 49.7708 54.1719 49.7651L54.1696 49.7581ZM49.1374 49.1026C50.2446 48.5993 51.3313 48.0335 52.4048 47.4489C52.4613 47.494 52.5297 47.5155 52.5966 47.5091L52.696 47.4764C51.5319 48.0368 50.3515 48.6104 49.139 49.0866L49.1374 49.1026ZM21.7013 54.8823C21.9039 54.7893 22.0965 54.6743 22.2763 54.5389C22.2204 54.646 22.1904 54.7684 22.1889 54.8952C22.1875 55.022 22.2146 55.1494 22.268 55.2661C21.4495 55.3505 20.6273 55.3823 19.8114 55.4119C20.0097 55.2619 20.2051 55.082 20.4073 54.9229C20.3737 54.9879 20.4205 55.0881 20.4949 55.0636C21.2096 54.7062 21.8647 54.2308 22.4388 53.653C22.0991 53.952 21.8059 54.3083 21.5689 54.7101C21.5511 54.7282 21.5412 54.7538 21.5412 54.7812C21.5412 54.8087 21.5511 54.8358 21.5689 54.8565C21.5867 54.8772 21.6108 54.8899 21.6359 54.8917C21.661 54.8936 21.6851 54.8845 21.7029 54.8664L21.7013 54.8823ZM23.7564 51.9707L24.6025 51.1757C24.7473 51.1974 24.892 51.2192 25.026 51.229C24.5711 51.4118 24.1443 51.6612 23.7564 51.9707ZM18.3016 56.9495C17.8187 57.0083 17.3341 57.083 16.8404 57.1299L16.246 56.8709C16.9368 56.9209 17.619 56.9661 18.3085 56.9703L18.3016 56.9495ZM70.9866 32.0369L71.1557 31.8193L71.0424 32.0185L70.9989 32.0328C70.9989 32.0328 70.998 32.0717 70.9934 32.0577L70.9866 32.0369ZM76.7328 27.0238C75.5879 29.4816 73.8063 31.4477 72.0309 33.4118C74.103 30.8682 75.8478 28.0194 77.2221 24.936C77.2176 24.986 77.2205 25.0371 77.2306 25.0873C77.0264 25.621 76.8559 26.1714 76.7204 26.735C76.7021 26.7833 76.6943 26.8363 76.6977 26.8899C76.701 26.9435 76.7154 26.9964 76.7397 27.0446L76.7328 27.0238ZM77.4917 27.406C77.3937 27.6309 77.2849 27.844 77.1785 28.064L76.9887 28.3654C77.1576 28.0632 77.345 27.7548 77.4985 27.4268L77.4917 27.406ZM76.9648 23.1093L77.015 22.9694L77.0334 23.0251L76.9648 23.1093ZM41.1947 28.5497L41.292 28.4483C41.292 28.4483 41.3058 28.49 41.3104 28.504L41.1947 28.5497ZM52.9977 18.4214C52.6416 18.6773 52.2436 18.9316 52.4268 18.5476C52.6101 18.1636 53.6982 17.289 53.013 18.4471L52.9977 18.4214ZM65.6897 6.81342L65.7579 6.79095L65.6897 6.81342Z" fill="#DC0000"/>
<path d="M68.6731 9.85744C68.6891 9.90612 68.7097 9.96869 68.7685 9.98016C69.4201 10.1202 70.4505 9.48809 70.4019 8.67171C70.3859 8.62304 70.3722 8.58131 70.3212 8.55186L70.3708 8.53552C71.1859 8.05534 72.0797 7.73763 73.0134 7.5962C73.0362 7.59317 73.0565 7.58081 73.0704 7.56156C73.0842 7.54231 73.0906 7.51757 73.0883 7.49221C73.086 7.46684 73.0752 7.44271 73.0579 7.42456C73.0407 7.40641 73.0182 7.39555 72.9951 7.39415C71.4172 7.3664 69.0964 8.09188 68.4479 9.80054C68.4385 9.82186 68.436 9.84653 68.441 9.87059C68.446 9.89466 68.4582 9.91672 68.4756 9.93324C68.4929 9.94975 68.5144 9.95978 68.5367 9.96168C68.5589 9.96358 68.5806 9.95726 68.5982 9.94373C68.5727 9.929 68.6009 9.88892 68.6731 9.85744Z" fill="#DC0000"/>
<path d="M75.2556 13.2268C75.4173 15.1185 75.2322 17.0009 74.7111 18.7625C74.2378 20.4598 73.3392 21.6805 72.5479 23.1433C72.5064 23.2263 72.612 23.338 72.6812 23.2766C73.0179 22.9571 73.3218 22.5989 73.5883 22.2073C73.6044 22.256 73.6204 22.3047 73.6779 22.2703C75.6681 20.7288 76.3547 17.4431 75.7844 14.8331C75.757 14.7496 75.6406 14.7725 75.6541 14.876C75.8184 16.9403 75.3934 18.966 74.4381 20.6713C75.3723 18.3717 75.687 15.7896 75.3471 13.2121C75.3458 13.2055 75.3434 13.199 75.3399 13.1933C75.3364 13.1875 75.332 13.1824 75.3268 13.1784C75.3216 13.1744 75.3159 13.1715 75.3098 13.1698C75.3038 13.1681 75.2976 13.1678 75.2916 13.1687C75.2856 13.1697 75.2799 13.172 75.2748 13.1754C75.2697 13.1789 75.2654 13.1834 75.2621 13.1888C75.2588 13.1942 75.2565 13.2003 75.2554 13.2068C75.2543 13.2134 75.2544 13.2202 75.2556 13.2268Z" fill="#DC0000"/>
<path d="M73.8588 7.91359C73.8375 7.91634 73.8179 7.92624 73.8027 7.94196C73.7876 7.95768 73.7775 7.97845 73.7738 8.00148C73.7701 8.02452 73.7731 8.04871 73.7823 8.0708C73.7915 8.09289 73.8064 8.11182 73.8252 8.12503C74.3295 8.44457 74.7991 8.57513 75.1923 9.10078C75.5358 9.58997 75.7297 10.179 75.744 10.7766C75.776 10.8739 75.9044 10.9087 75.9159 10.7971C75.9467 10.461 75.9131 10.1169 75.8173 9.78636C75.7215 9.45581 75.5655 9.14595 75.3592 8.87628C75.0284 8.41485 74.4129 7.86217 73.8588 7.91359Z" fill="#DC0000"/>
<path d="M56.3889 17.2662C56.3889 17.2662 56.3729 17.2175 56.3751 17.2245C54.8941 18.8787 53.138 20.211 51.1889 21.1592C51.1455 21.1735 51.2164 21.2426 51.2141 21.2356C53.2083 20.3614 54.9744 19.0067 56.3889 17.2662Z" fill="#DC0000"/>
<path d="M52.1022 21.8244C54.4338 20.2316 56.6411 18.4409 58.7055 16.4676C58.7489 16.4533 58.6711 16.3633 58.6757 16.3772C56.4536 18.1338 54.2285 19.8605 51.9757 21.5655C51.9511 21.585 51.9342 21.6139 51.9281 21.647C51.922 21.6801 51.9269 21.7154 51.9421 21.7465C51.9573 21.7775 51.9818 21.8024 52.0111 21.8167C52.0404 21.831 52.0727 21.8337 52.1022 21.8244Z" fill="#DC0000"/>
<path d="M58.9143 17.0993C56.9241 18.6408 54.9268 20.2232 53.0282 21.8964C52.8998 22.008 53.0426 22.2539 53.1772 22.1402C55.169 20.5828 57.101 18.9063 58.9973 17.2261C59.0604 17.1668 58.9898 17.0359 58.9143 17.0993Z" fill="#DC0000"/>
<path d="M59.4305 18.3379C59.4812 18.2827 59.3779 18.1779 59.3289 18.2172C57.3888 19.5868 55.5725 21.1466 53.9004 22.879C53.8907 22.896 53.8866 22.9164 53.8887 22.937C53.8908 22.9576 53.899 22.9774 53.912 22.9933C53.925 23.0091 53.9422 23.0202 53.9608 23.0247C53.9795 23.0293 53.9985 23.0271 54.0151 23.0185C55.9549 21.6476 57.7672 20.0812 59.4305 18.3379Z" fill="#DC0000"/>
<path d="M60.6912 18.4566C60.6988 18.4395 60.7007 18.4198 60.6967 18.4005C60.6927 18.3813 60.683 18.3636 60.6691 18.3504C60.6552 18.3372 60.638 18.3292 60.6202 18.3277C60.6024 18.3262 60.5851 18.3312 60.5709 18.342C56.6611 22.416 52.252 25.8829 47.4531 28.6566C47.3911 28.6771 47.447 28.8051 47.4943 28.7818C52.5566 26.4194 57.0489 22.9046 60.6912 18.4566Z" fill="#DC0000"/>
<path d="M54.9599 26.5852C57.4414 24.3695 59.787 21.981 61.9836 19.4328C61.9836 19.4328 61.9699 19.3911 61.9722 19.3981C59.4588 21.5601 57.0809 23.9001 54.8524 26.4048C54.7465 26.5013 54.8681 26.6616 54.9599 26.5852Z" fill="#DC0000"/>
<path d="M63.4747 19.2563C61.8281 21.3398 59.9657 23.0396 58.1384 24.8666C58.0815 24.9239 58.1887 25.0196 58.2253 24.9845C60.3133 23.474 62.1089 21.5435 63.5257 19.2858C63.5221 19.2747 63.5146 19.2654 63.5051 19.2599C63.4955 19.2543 63.4846 19.2531 63.4747 19.2563Z" fill="#DC0000"/>
<path d="M64.3378 19.9609C63.7962 20.6537 63.2136 21.3063 62.5934 21.9147C61.9229 22.4453 61.2859 23.0231 60.686 23.6448C60.6719 23.6579 60.6631 23.6766 60.661 23.6972C60.6589 23.7179 60.6638 23.7392 60.6748 23.7572C60.6857 23.7752 60.702 23.7886 60.7206 23.7951C60.7391 23.8016 60.7588 23.8006 60.7759 23.7924C62.2782 23.2979 63.5746 21.3836 64.398 20.0181C64.4017 20.0096 64.4027 19.9997 64.4007 19.9901C64.3987 19.9805 64.3938 19.9717 64.3869 19.965C64.38 19.9584 64.3714 19.9544 64.3625 19.9537C64.3536 19.9529 64.3449 19.9555 64.3378 19.9609Z" fill="#DC0000"/>
</svg>
