<svg width="67" height="78" viewBox="0 0 67 78" fill="none" xmlns="http://www.w3.org/2000/svg">
<path d="M53.241 11.0834C53.241 11.0834 53.3822 11.1337 53.6645 11.2344C53.8412 11.3002 54.0103 11.3845 54.1687 11.4858C54.4001 11.6033 54.6209 11.7402 54.8283 11.8949C56.1922 12.9523 57.2501 14.3357 57.8946 15.9044C58.9381 18.3404 59.6628 20.8885 60.0514 23.4881C60.5018 26.9553 60.3141 30.4605 59.4972 33.8399C59.0491 35.8053 58.442 37.7306 57.6815 39.5979C56.8373 41.6126 55.8446 43.5633 54.7109 45.4353C52.1156 49.5045 48.9859 53.2236 45.3985 56.5015C41.5118 60.248 36.9576 63.2837 31.9471 65.4677C29.2528 66.6082 26.3825 67.3283 23.4407 67.602C20.3573 67.9305 17.2231 67.5158 14.3148 66.3945C11.3903 65.1956 8.91356 63.1378 7.23874 60.5154C5.65728 58.0113 4.65982 55.2097 4.31792 52.3114L4.27033 51.1791C4.27534 50.8125 4.35277 50.4513 4.38601 50.0948C4.47967 49.3901 4.63151 48.6949 4.84001 48.0158C5.23463 46.7062 5.73479 45.4306 6.33595 44.2005C7.49513 41.8534 8.82711 39.5928 10.3217 37.4358C13.0749 33.4984 16.1333 29.773 19.4713 26.2911C21.0133 24.641 22.5914 23.1265 24.1399 21.6936C24.9381 20.955 25.76 20.3272 26.5505 19.6983C27.3409 19.0695 28.2184 18.5229 29.0698 18.0488C32.1132 16.296 35.3593 14.889 38.7455 13.8552C41.2802 13.0613 43.8651 12.4179 46.4861 11.9288C48.6385 11.5297 50.3312 11.3147 51.4804 11.1924C52.0517 11.1403 52.4904 11.1023 52.79 11.0965C53.0896 11.0908 53.241 11.0834 53.2439 11.1049L52.8076 11.1949L51.5151 11.4196C50.3839 11.6097 48.7215 11.9174 46.5932 12.3967C44.0204 12.9807 41.4857 13.7029 39.0007 14.5601C35.7176 15.6651 32.5785 17.1231 29.6413 18.9074C28.8088 19.3882 28.0597 19.9909 27.2419 20.5485C26.4241 21.1062 25.7208 21.8173 24.9578 22.5173C23.4596 23.9579 21.9319 25.4801 20.4307 27.1346C17.2018 30.6194 14.2412 34.3308 11.5718 38.2397C10.149 40.3448 8.87813 42.5446 7.76816 44.8237C6.69943 47.1337 5.75344 49.6922 5.94066 52.143C6.26207 54.8041 7.18278 57.3752 8.63732 59.6736C10.1334 62.0043 12.3369 63.835 14.9372 64.9077C17.5921 65.9172 20.4479 66.2892 23.2578 65.9917C26.0306 65.7418 28.738 65.0744 31.2829 64.0132C36.132 61.9195 40.551 59.0145 44.3413 55.4287C47.8887 52.2796 51.003 48.7006 53.6102 44.7768C54.7478 42.9771 55.747 41.0968 56.6 39.1509C57.374 37.3531 58.0022 35.4971 58.479 33.5997C59.3309 30.3272 59.5864 26.9248 59.2342 23.5446C58.9288 20.9966 58.3089 18.4876 57.3879 16.0716C56.8375 14.5345 55.9042 13.1468 54.6719 12.0335C53.7922 11.3515 53.2152 11.1253 53.241 11.0834Z" fill="#DC0000"/>
<path d="M21.1816 65.8562C21.2012 65.8018 21.9604 65.6121 23.3172 65.0624C25.2246 64.2603 27.0756 63.3414 28.8591 62.3111C31.5119 60.7981 34.0769 59.1475 36.5432 57.3665C37.9998 56.3301 39.3812 55.1989 40.6783 53.9805C41.9539 52.6856 43.2352 51.1984 44.5382 49.7393C47.019 46.9892 49.333 44.1007 51.4689 41.0881C53.1889 38.6188 54.7013 36.0171 55.9919 33.3076C56.8632 31.4793 57.6174 29.5988 58.2503 27.6767C58.4927 27.006 58.6357 26.4635 58.7573 26.0976C58.8001 25.9089 58.8661 25.7264 58.9539 25.5537C58.9439 25.7467 58.9106 25.9375 58.8548 26.1221L58.4794 27.7482C57.947 29.7167 57.2718 31.6437 56.4588 33.515C55.2483 36.2987 53.7823 38.9674 52.0782 41.4895C49.9793 44.5674 47.6719 47.5045 45.1707 50.282C43.8391 51.7616 42.5995 53.1921 41.2474 54.5518C39.9129 55.7847 38.4867 56.921 36.9797 57.9519C34.468 59.7259 31.8399 61.3418 29.1111 62.7898C27.2802 63.7766 25.3716 64.6251 23.4019 65.3279C22.8637 65.5057 22.3143 65.6515 21.7566 65.7645C21.5689 65.8133 21.3763 65.844 21.1816 65.8562Z" fill="#DC0000"/>
<path d="M15.2712 62.8693C15.4251 62.7167 15.6009 62.5865 15.7935 62.4825C16.1623 62.2559 16.6932 61.9336 17.3673 61.5088C18.0415 61.0841 18.881 60.5546 19.8383 59.9342L21.359 58.9313L23.0364 57.7592C25.3916 56.1227 28.0903 54.0358 31.0076 51.6379C33.9249 49.24 36.9648 46.4152 40.0206 43.3402C43.0764 40.2653 45.777 37.1148 48.1276 34.1977C49.2453 32.693 50.3834 31.3081 51.2976 29.9253C51.7704 29.2344 52.2302 28.5798 52.6739 27.9399C53.1177 27.3 53.467 26.6571 53.8441 26.0548C54.6232 24.8694 55.2311 23.7458 55.7679 22.7604L56.5307 21.385C56.7383 20.9577 56.9525 20.5122 57.1048 20.2084L57.9123 18.5624C57.9995 18.3694 58.1021 18.1837 58.2193 18.0068C58.1703 18.2137 58.0978 18.4143 58.0031 18.605L57.3241 20.307C57.1898 20.6786 57.0391 21.0956 56.8094 21.5253C56.5797 21.955 56.3688 22.3915 56.0998 22.93C55.6068 23.9411 55.0299 25.0963 54.2913 26.3166C53.933 26.9256 53.5523 27.5675 53.1584 28.2456L51.8225 30.266C50.9361 31.6894 49.8198 33.1025 48.7144 34.632C46.203 37.8712 43.502 40.9666 40.6245 43.9034C37.7285 46.8196 34.6783 49.5878 31.4855 52.1971C28.5056 54.5624 25.7663 56.6145 23.3395 58.1845L21.6249 59.3126L20.0515 60.2557C19.0724 60.848 18.2207 61.3527 17.4999 61.7301L15.8487 62.5943C15.6656 62.703 15.4723 62.795 15.2712 62.8693Z" fill="#DC0000"/>
<path d="M10.9706 62.3372C10.9706 62.3372 11.7626 61.8215 13.1661 60.8485C14.5697 59.8755 16.541 58.4194 18.8439 56.4574C21.1468 54.4953 23.772 52.024 26.6288 49.2055C29.4857 46.387 32.6422 43.3275 35.8151 39.9874C41.2975 34.3179 46.3121 28.2378 50.8142 21.8012C52.5124 19.337 53.78 17.2412 54.607 15.7761C55.0111 15.0402 55.3309 14.4789 55.554 14.0673C55.6453 13.8609 55.759 13.6647 55.893 13.4822C55.8375 13.7006 55.7607 13.913 55.6637 14.1166C55.513 14.5336 55.2149 15.1231 54.8485 15.8724C53.7681 17.9941 52.5751 20.0584 51.2741 22.0573C46.9325 28.6335 41.9754 34.8014 36.4641 40.4848C33.2719 43.8488 30.0716 46.8824 27.1898 49.6818C24.308 52.4811 21.6022 54.8521 19.2301 56.7997C17.3632 58.3253 15.396 59.7325 13.3404 61.013C12.6155 61.4606 12.0028 61.7742 11.6279 61.9884C11.4245 62.1301 11.2038 62.2472 10.9706 62.3372Z" fill="#DC0000"/>
<path d="M8.64473 56.5142C8.6883 56.3023 8.76219 56.0979 8.86424 55.9069C9.05546 55.5249 9.34044 54.9717 9.74414 54.2663C10.5389 52.8614 11.7323 50.8823 13.3323 48.4547C17.4821 42.1627 22.2922 36.311 27.6879 30.9907C33.0075 25.592 38.8213 20.6726 45.0605 16.2908C46.955 14.9701 48.934 13.7654 50.9861 12.6837C51.7007 12.2939 52.2779 12.0495 52.6933 11.8702C52.8849 11.7654 53.0892 11.6837 53.3019 11.6267C53.1255 11.7556 52.9384 11.8703 52.7424 11.9695C52.3769 12.1871 51.7993 12.4621 51.1125 12.8925C49.132 14.0656 47.2154 15.3357 45.3702 16.6979C39.2973 21.221 33.5945 26.1894 28.3106 31.5606C22.9437 36.8447 18.0876 42.5959 13.8012 48.7447C12.1329 51.0967 10.8548 53.0456 9.98518 54.3932C9.5598 55.0703 9.21832 55.6034 8.98332 55.9596C8.89395 56.1574 8.78027 56.3436 8.64473 56.5142Z" fill="#DC0000"/>
<path d="M10.3968 58.8695C10.4639 58.6632 10.5566 58.4661 10.6728 58.2823C10.8702 57.9127 11.1613 57.3718 11.5961 56.6981C12.8209 54.8044 14.1834 52.9993 15.6736 51.2963C17.5223 49.1211 19.917 46.67 22.6327 44.0365C25.3483 41.403 28.4036 38.5939 31.3449 35.3655C37.3547 29.0565 42.8483 23.382 46.8509 19.3042C48.8584 17.2777 50.4856 15.6273 51.617 14.4958L52.9335 13.2053C53.0829 13.0493 53.2451 12.9052 53.4185 12.7745C53.309 12.9579 53.1765 13.1271 53.0239 13.2784C52.739 13.5964 52.3292 14.054 51.804 14.6546C50.7192 15.8333 49.1669 17.5412 47.2372 19.6465C43.3621 23.8415 37.9614 29.6412 31.9582 35.9321C29.0202 39.1514 25.8924 41.9551 23.1678 44.5547C20.4432 47.1543 17.999 49.5367 16.0913 51.6397C14.562 53.2867 13.1391 55.0244 11.8306 56.8431C10.8955 58.1366 10.45 58.8987 10.3968 58.8695Z" fill="#DC0000"/>
<path d="M6.19245 54.6175C6.20073 54.4348 6.24047 54.2553 6.31003 54.0864C6.44116 53.5854 6.59837 53.0916 6.78105 52.6069C7.43433 50.813 8.18333 49.0548 9.02507 47.3393C11.7698 41.6612 15.0705 36.2598 18.8826 31.2082C21.0811 28.4877 23.5226 25.962 26.1798 23.6597C28.3208 21.7612 30.5789 19.99 32.9419 18.3556C34.5294 17.2492 36.1765 16.2245 37.8766 15.2855C38.4738 14.9561 38.9625 14.7211 39.2862 14.5602C39.447 14.4675 39.6196 14.3949 39.7999 14.3443C39.659 14.4642 39.5066 14.5709 39.3447 14.6629C39.0333 14.8486 38.5818 15.1276 37.9842 15.4875C36.8393 16.2151 35.2009 17.309 33.2328 18.7561C30.9499 20.4541 28.7597 22.2653 26.6708 24.1826C24.0943 26.5032 21.7087 29.0152 19.5348 31.6966C15.7752 36.719 12.435 42.0286 9.54511 47.5759C8.422 49.7131 7.58468 51.4712 7.0634 52.7076C6.54211 53.944 6.23951 54.6343 6.19245 54.6175Z" fill="#DC0000"/>
<path d="M18.0393 66.6176C17.9411 66.4033 17.8762 66.1767 17.8467 65.9452C17.7391 65.5078 17.6378 64.8475 17.4592 64.0778C17.1444 62.0332 17.1313 59.9613 17.4203 57.9246C17.7569 55.8773 18.4478 53.9063 19.4639 52.0944C19.861 51.4072 20.1963 50.8616 20.4567 50.494C20.5737 50.2961 20.7148 50.1128 20.8771 49.9481C20.9242 49.9649 20.4272 50.8109 19.7458 52.2256C18.8691 54.0562 18.253 55.998 17.9142 57.9984C17.6304 60.0109 17.5803 62.0523 17.7649 64.0845C17.8363 64.8569 17.8939 65.4913 17.9412 65.9482C17.9942 66.1685 18.027 66.3925 18.0393 66.6176Z" fill="#DC0000"/>
<path d="M20.3377 66.7215C20.2019 66.0243 20.1407 65.3167 20.1553 64.61C20.1229 62.8946 20.2645 61.1835 20.5781 59.5014C20.9089 57.8243 21.3794 56.1784 21.9851 54.58C22.2079 53.9636 22.3881 53.4651 22.5658 53.1499C22.6252 52.9674 22.7126 52.7951 22.825 52.6386C22.8118 52.8306 22.7721 53.0195 22.707 53.2002C22.5792 53.5537 22.4587 54.0633 22.2801 54.675C21.932 55.9322 21.4355 57.6584 21.0749 59.5967C20.7674 61.2564 20.5687 62.9353 20.4798 64.6234C20.4811 65.326 20.4337 66.027 20.3377 66.7215Z" fill="#DC0000"/>
<path d="M24.5671 65.139C24.4916 64.5954 24.4621 64.0476 24.4791 63.5011C24.4585 62.4706 24.3573 61.1043 24.388 59.5497C24.3991 58.216 24.605 56.8942 24.9996 55.6237C25.1082 55.2367 25.2451 54.8581 25.4091 54.4907C25.466 54.3503 25.5454 54.2198 25.6445 54.104C25.6445 54.104 25.4283 54.7022 25.2635 55.6872C25.0016 56.9578 24.8646 58.252 24.8545 59.5524C24.821 61.0855 24.8554 62.4893 24.7565 63.4977C24.7722 64.0522 24.7084 64.6045 24.5671 65.139Z" fill="#DC0000"/>
<path d="M28.6864 65.2973C28.337 64.0106 28.2355 62.6768 28.387 61.3637C28.4007 60.0512 28.6564 58.7562 29.1422 57.54C29.1605 57.9264 29.1383 58.3127 29.076 58.6932C29.0034 59.3938 28.9303 60.3602 28.8715 61.4341C28.7482 63.5389 28.7654 65.2845 28.6864 65.2973Z" fill="#DC0000"/>
<path d="M32.0358 63.5241C31.7247 62.3652 31.6364 61.1645 31.7751 59.983C31.7576 58.7928 31.954 57.6129 32.3555 56.4961C32.3946 56.8379 32.3984 57.1821 32.3667 57.5233C32.3416 58.2101 32.3078 59.0678 32.2794 59.999C32.1991 61.9555 32.1336 63.5181 32.0358 63.5241Z" fill="#DC0000"/>
<path d="M35.0228 62.9224C35.1583 61.8354 35.3529 60.7572 35.6059 59.6923C35.7478 58.6042 35.9829 57.5312 36.3086 56.4844C36.4053 57.5924 36.3359 58.7051 36.1027 59.7876C35.9586 60.8949 35.5917 61.9599 35.0228 62.9224Z" fill="#DC0000"/>
<path d="M37.4829 61.1797C37.7887 59.6755 38.2093 58.1975 38.7413 56.7578C39.4867 54.3427 40.0434 52.3618 40.1441 52.3772C40.1416 52.8341 40.0878 53.2884 39.9837 53.732C39.8016 54.8074 39.5492 55.8691 39.2278 56.9108C38.8424 58.1241 38.4022 59.195 38.1204 59.9745C37.9556 60.399 37.7418 60.8033 37.4829 61.1797Z" fill="#DC0000"/>
<path d="M40.9379 58.8203C41.0102 58.2739 41.1369 57.7365 41.316 57.2157C41.588 56.228 41.9689 54.8802 42.4682 53.4108C42.8864 52.1435 43.4158 50.9151 44.0504 49.7389C44.2944 49.2398 44.6084 48.7768 44.9835 48.3628C44.9835 48.3628 44.7673 48.961 44.3291 49.8791C43.891 50.7973 43.438 52.1092 42.9891 53.5863C42.5402 55.0634 42.0431 56.3801 41.6393 57.3207C41.4634 57.8451 41.2283 58.348 40.9379 58.8203Z" fill="#DC0000"/>
<path d="M45.2986 54.6963C45.1951 54.6594 45.9197 52.3903 46.5105 49.5211C46.8043 48.091 47.0334 46.7811 47.1851 45.8324C47.2443 45.3119 47.3483 44.7979 47.4961 44.2959C47.5544 44.8211 47.5556 45.3497 47.4998 45.873C47.4255 47.1352 47.2598 48.3891 47.004 49.6254C46.745 50.8622 46.3944 52.0777 45.955 53.2625C45.7953 53.7647 45.575 54.246 45.2986 54.6963Z" fill="#DC0000"/>
<path d="M47.8675 52.9926C47.955 52.4171 48.1086 51.8541 48.3254 51.3141C48.6891 50.308 49.1904 48.9212 49.5305 47.3336C49.9104 46.019 50.0297 44.6417 49.8822 43.2741C49.7836 42.7193 49.624 42.1753 49.4062 41.6514C49.5242 41.765 49.6284 41.8914 49.7164 42.028C49.8191 42.1858 49.9086 42.3511 49.9839 42.5225C50.0951 42.7491 50.1765 42.9878 50.2264 43.2331C50.5156 44.6451 50.4569 46.0969 50.0551 47.4695C49.6902 48.8275 49.2113 50.1522 48.6233 51.4305C48.4243 51.9746 48.1712 52.4977 47.8675 52.9926Z" fill="#DC0000"/>
<path d="M51.0186 49.7154C51.1502 49.1071 51.3142 48.5064 51.5098 47.9157C51.8812 46.471 52.1696 45.0059 52.3736 43.5271C52.6368 41.7996 52.7624 40.2175 52.8253 39.0734C52.8275 38.4461 52.8624 37.8199 52.9297 37.1973C52.9823 37.3613 53.0138 37.5307 53.0236 37.7014C53.0855 38.1562 53.1224 38.6134 53.1342 39.0711C53.1851 40.5891 53.099 42.106 52.877 43.6043C52.6678 45.1062 52.3119 46.5827 51.8143 48.014C51.6611 48.4481 51.4826 48.873 51.2799 49.2867C51.212 49.44 51.1242 49.5841 51.0186 49.7154Z" fill="#DC0000"/>
<path d="M54.2656 45.4101C54.3175 44.8175 54.4194 44.231 54.5701 43.6564C54.7898 42.5784 55.0717 41.0929 55.296 39.4437C55.5203 37.7944 55.6639 36.28 55.7702 35.1924C55.7943 34.5958 55.8699 34.0033 55.9961 33.4209C55.9961 33.4209 56.0317 33.5871 56.0463 33.8993C56.061 34.2115 56.0801 34.6583 56.082 35.2115C56.0752 36.6529 55.9776 38.0909 55.7899 39.5174C55.5987 40.9431 55.296 42.3505 54.8844 43.7275C54.7422 44.3097 54.5347 44.8739 54.2656 45.4101Z" fill="#DC0000"/>
<path d="M57.4693 37.63C57.2542 36.2402 57.1605 34.8376 57.1893 33.4372C57.1355 32.2924 57.074 31.2575 56.9834 30.5089C56.8927 29.7603 56.7885 29.3138 56.8265 29.2967C57.0609 29.6582 57.2154 30.0619 57.2801 30.4817C57.522 31.4565 57.6574 32.4515 57.684 33.4498C57.732 34.4415 57.7279 35.4339 57.6718 36.4231C57.6552 36.8328 57.5873 37.2381 57.4693 37.63Z" fill="#DC0000"/>
<path d="M43.5731 16.1702C43.5731 16.1702 43.6158 16.0524 43.597 15.8103C43.6139 15.7457 43.6169 15.6782 43.6059 15.6119C43.595 15.5456 43.5703 15.4819 43.5333 15.4247C43.4963 15.3674 43.4479 15.3179 43.3909 15.279C43.3339 15.2402 43.2696 15.2129 43.2018 15.1987C42.7445 15.1209 42.2768 15.1468 41.8357 15.2744C41.2665 15.3923 40.7323 15.6274 40.2689 15.9641C39.3107 16.6457 38.4879 17.57 37.738 17.9984C37.3736 18.2904 36.9371 18.4867 36.4692 18.5692C36.4692 18.5692 36.9235 18.3117 37.558 17.7909C38.1925 17.2702 38.9105 16.4007 39.9809 15.5851C40.2488 15.3857 40.5436 15.2224 40.8577 15.0996C41.1458 15.0015 41.4407 14.9221 41.7405 14.8619C42.2613 14.7411 42.8089 14.7596 43.3255 14.9154C43.4376 14.9549 43.5389 15.0196 43.6211 15.104C43.7033 15.1885 43.7639 15.2903 43.798 15.4011C43.8316 15.5551 43.8218 15.7142 43.7697 15.8617C43.6628 16.0691 43.5887 16.1859 43.5731 16.1702Z" fill="#DC0000"/>
<path d="M24.5793 49.223C24.6593 48.9285 24.7888 48.6497 24.9626 48.3976C25.1122 48.1117 25.2406 47.8154 25.3468 47.5111C25.4708 47.1874 25.4801 46.8309 25.3733 46.4971C25.2269 46.1379 24.9802 45.9681 24.699 46.0111C24.4112 46.0823 24.1514 46.2307 23.9491 46.4396C23.5782 46.8191 23.4287 47.1445 23.3816 47.1277C23.3792 46.7959 23.4949 46.4756 23.7093 46.2211C23.9143 45.9071 24.2276 45.6748 24.5948 45.5645C24.8506 45.5084 25.1209 45.5533 25.3466 45.6893C25.5652 45.8368 25.7347 46.0433 25.8334 46.2825C25.9966 46.7261 25.9741 47.2109 25.7708 47.6316C25.6369 47.9323 25.4635 48.2145 25.2548 48.4711C25.0926 48.7695 24.8615 49.0266 24.5793 49.223Z" fill="#DC0000"/>
<path d="M27.7433 52.7337C27.727 52.779 27.5727 52.7649 27.3857 52.6061C27.268 52.4908 27.1813 52.3495 27.1333 52.1948C27.0853 52.0401 27.0776 51.877 27.1109 51.7203C27.326 50.9784 28.0054 50.8625 28.0107 50.936C27.8605 51.2219 27.726 51.5155 27.6077 51.8155C27.4627 52.2755 27.7917 52.6588 27.7433 52.7337Z" fill="#DC0000"/>
<path d="M39.2146 51.6785C38.953 52.3078 38.585 52.8889 38.1255 53.398C37.6497 53.9788 37.1039 54.502 36.4996 54.9568C36.1418 55.2422 35.7426 55.4755 35.3142 55.6495C34.8306 55.8614 34.2826 55.9013 33.7648 55.7621C33.4918 55.6958 33.2389 55.5647 33.0289 55.3809C32.8189 55.197 32.6586 54.9662 32.5623 54.7092C32.4622 54.2233 32.5631 53.7224 32.8429 53.3154C33.2404 52.6696 33.7742 52.1141 34.41 51.6844C34.9317 51.2189 35.6048 50.9428 36.3185 50.9017C36.3185 50.9017 36.1286 50.9568 35.8176 51.1119C35.3794 51.3307 34.9712 51.601 34.6023 51.9167C34.0615 52.3578 33.6043 52.887 33.2505 53.4811C33.0458 53.7985 32.9721 54.1808 33.0436 54.5534C33.1189 54.7395 33.2403 54.9055 33.397 55.0364C33.5537 55.1673 33.7408 55.259 33.9413 55.3032C34.3672 55.3713 34.8015 55.3455 35.212 55.2279C35.6224 55.1103 35.9984 54.9038 36.3119 54.6239C36.8969 54.188 37.432 53.6929 37.9083 53.1466C38.7303 52.2835 39.1708 51.6526 39.2146 51.6785Z" fill="#DC0000"/>
<path d="M56.5455 27.5489C56.5625 27.1154 56.6084 26.684 56.6829 26.2574L56.5417 26.2071C56.4532 26.1975 56.3644 26.2161 56.2888 26.2601C56.1079 26.3491 55.9655 26.3904 55.9471 26.3532C55.9286 26.3159 55.9929 26.2263 56.0617 26.0359C56.1592 25.917 56.2941 25.8324 56.4465 25.7945C56.5404 25.773 56.6386 25.773 56.7334 25.7945C56.8793 25.8304 57.0213 25.881 57.1569 25.9455L57.1228 26.3631C57.1124 27.1268 56.6228 27.6583 56.5455 27.5489Z" fill="#DC0000"/>
<path d="M52.5109 25.0151C52.3979 24.9749 53.486 23.7871 54.2243 22.1267C54.4099 21.8077 54.5154 21.4496 54.5325 21.0809C54.5496 20.7122 54.4777 20.3431 54.3227 20.0028C54.0507 19.3737 53.8528 20.0092 53.8189 19.9562C53.7849 19.9031 53.7886 19.8635 53.9237 19.6661C53.9519 19.6113 53.9911 19.5626 54.0392 19.5231L54.1284 19.4526C54.1284 19.4526 54.1943 19.4761 54.2319 19.4895C54.3094 19.5455 54.3833 19.606 54.4533 19.6707C54.5224 19.7161 54.5808 19.7753 54.6243 19.8443C54.8846 20.1604 55.0282 20.5507 55.0317 20.9513C55.0385 21.4282 54.9408 21.8991 54.7448 22.3327C54.4035 23.0867 53.9314 23.7765 53.3488 24.3726C53.1196 24.6417 52.8342 24.8605 52.5109 25.0151Z" fill="#DC0000"/>
<path d="M48.2654 21.2408C48.2205 20.9237 48.2535 20.6023 48.3617 20.3029C48.47 20.0034 48.6503 19.7345 48.888 19.5182C49.0702 19.3149 49.3113 19.1695 49.5811 19.1001C49.6987 19.0687 49.8224 19.0629 49.9437 19.0832C50.0649 19.1034 50.1805 19.1491 50.2825 19.2171C50.6008 19.4534 50.6356 19.6808 50.6196 19.6955C50.6036 19.7103 50.4101 19.5697 50.1301 19.521C49.8502 19.4724 49.5526 19.5607 49.2423 19.8902C48.6474 20.5071 48.3722 21.2687 48.2654 21.2408Z" fill="#DC0000"/>
<path d="M35.6415 26.9107C35.7657 26.4673 35.9607 26.0466 36.2197 25.6639C36.7786 24.6967 37.4588 23.8018 38.2453 22.9993C38.9977 22.1136 40.0585 21.5259 41.2345 21.3433C41.4417 21.3198 41.6524 21.3358 41.8548 21.3906C42.0098 21.4051 42.159 21.4583 42.2878 21.545C42.5231 21.6289 42.6352 21.7302 42.6193 21.745C42.1771 21.6404 41.7212 21.6093 41.2712 21.6532C40.2249 21.9436 39.298 22.5325 38.6095 23.344C36.8255 25.1637 35.7352 26.9748 35.6415 26.9107Z" fill="#DC0000"/>
<path d="M47.3585 42.1486C47.2851 43.1278 46.946 44.0658 46.3756 44.8679C46.1508 45.2045 45.8586 45.4933 45.5159 45.7176C45.2141 45.9026 44.8523 45.9766 44.4948 45.9265C44.2661 45.8922 44.0503 45.7975 43.8712 45.653C43.7464 45.5573 43.6842 45.4943 43.7002 45.4795C43.7161 45.4647 44.039 45.6003 44.5084 45.6244C44.8169 45.5755 45.1077 45.4565 45.3572 45.277C45.6067 45.0974 45.8079 44.8625 45.9443 44.5913C46.775 43.3219 47.2206 42.0892 47.3585 42.1486Z" fill="#DC0000"/>
<path d="M17.5735 63.5573C17.5735 63.5573 17.3029 63.7474 16.7639 63.7395C16.076 63.6988 15.4225 63.4148 14.9274 62.9414C14.6713 62.712 14.4647 62.4357 14.3199 62.1291C14.1751 61.8224 14.0951 61.4918 14.0848 61.1569C14.0919 60.6375 14.2721 60.3742 14.3003 60.3843C14.3286 60.3944 14.2962 60.6899 14.391 61.1331C14.5284 61.6931 14.8368 62.2027 15.2757 62.5948C15.7022 63.0027 16.2338 63.2913 16.8123 63.4292C17.2523 63.5349 17.5584 63.511 17.5735 63.5573Z" fill="#DC0000"/>
<path d="M22.6377 63.9807C22.6017 64.0805 22.2153 63.9734 21.9834 63.645C21.7515 63.3166 21.7688 62.9746 21.8417 62.9494C21.9145 62.9242 22.1993 63.0769 22.3813 63.3671C22.5634 63.6572 22.6828 63.9148 22.6377 63.9807Z" fill="#DC0000"/>
</svg>
