<svg width="59" height="66" viewBox="0 0 59 66" fill="none" xmlns="http://www.w3.org/2000/svg">
<path d="M2.55947 33.8894C2.58663 33.8348 2.626 33.789 2.67371 33.7566C2.72143 33.7242 2.77585 33.7063 2.83163 33.7046L3.39247 32.6329C3.55742 32.3096 3.76363 32.0047 3.94508 31.7091C3.91042 31.6366 3.89229 31.5557 3.89229 31.4735C3.89229 31.3913 3.91042 31.3104 3.94508 31.2379C5.37914 28.3258 7.13608 25.6283 9.17412 23.2097C9.18954 23.1346 9.20882 23.0606 9.23186 22.988C9.05041 23.1912 8.85244 23.3668 8.67099 23.5792C8.48954 23.7917 8.43183 23.5792 8.50605 23.4407C9.56783 21.8438 10.7881 20.3871 12.1433 19.0986C13.3588 17.4344 14.7427 15.9339 16.2671 14.6272C16.3744 14.5348 16.5146 14.6826 16.4073 14.7842C15.9125 15.3108 15.4836 15.9021 15.03 16.4656L16.861 14.8951C17.3064 14.5255 17.7682 14.1837 18.2218 13.8234L18.2961 13.7495C21.5108 11.0786 24.8563 8.61119 28.317 6.35876C28.383 6.31256 28.4325 6.35876 28.4737 6.35876C29.569 5.74749 30.6985 5.21669 31.8553 4.76974C31.913 4.76974 31.9378 4.76974 31.9625 4.82517C34.3205 3.3772 36.8087 2.21282 39.3854 1.3515C41.3814 0.704804 46.4372 -1.10592 48.3177 0.963496C48.4002 0.88035 48.5239 0.843396 48.5981 0.963496C48.8213 1.35959 48.9439 1.81631 48.9528 2.28459C48.9528 2.36774 49.0187 2.41391 49.0352 2.49706C49.045 2.60414 49.0217 2.71174 48.9693 2.80194C48.8868 3.36918 48.7045 3.91245 48.4332 4.40021C49.1748 4.49677 49.8834 4.79835 50.4951 5.27784C51.2948 5.68533 51.9259 6.41869 52.2601 7.32878C52.5995 7.93484 52.8293 8.60972 52.9364 9.31505C54.2313 8.90856 56.054 8.94551 56.9365 9.80468C57.6211 9.80468 58.3139 10.8671 58.5861 11.4029C58.7927 11.8081 58.9254 12.2553 58.9764 12.7184C59.0274 13.1815 58.9956 13.6513 58.883 14.1006C58.883 14.1006 58.883 14.1006 58.9325 14.156C58.992 15.37 58.7941 16.5824 58.3552 17.6943C58.0906 19.0427 57.6516 20.3406 57.052 21.5468C55.6087 29.6027 51.4766 37.7326 47.0558 44.2272C44.5658 47.8552 41.7374 51.1752 38.6184 54.1308C36.1441 56.5144 33.109 59.5076 29.9583 60.8564C27.9834 62.2814 25.8128 63.3332 23.5334 63.9698C23.4756 63.9698 23.4591 63.9698 23.4591 63.8867C21.8774 64.9297 20.0738 65.4755 18.2383 65.4664C15.4424 65.2724 11.6402 62.2238 11.8464 58.7039C11.7897 57.5537 11.9211 56.4015 12.234 55.3041C12.3082 55.0177 12.399 54.759 12.4815 54.4911C12.1315 54.4035 11.8027 54.2317 11.5179 53.9876C11.233 53.7436 10.999 53.4331 10.8319 53.0776C10.578 52.635 10.4095 52.1378 10.337 51.618C10.2846 51.502 10.2405 51.3815 10.2051 51.2577C7.94521 52.3293 5.52037 52.5049 3.46669 50.8974C-1.70461 46.9526 -0.294235 39.4786 2.55947 33.8894ZM9.41331 22.8032C9.41331 22.8864 9.35556 22.9695 9.32257 23.0526C9.89991 22.3598 10.5102 21.7223 11.1288 21.0849C11.1227 21.0688 11.1195 21.0515 11.1195 21.034C11.1195 21.0166 11.1227 20.9993 11.1288 20.9832C10.535 21.556 9.95766 22.138 9.41331 22.7662V22.8032ZM12.3247 19.8469C13.3378 18.8557 14.4007 17.9303 15.5083 17.0754C15.8053 16.8536 16.1269 16.6596 16.4239 16.4471C16.4239 16.4471 16.3826 16.3917 16.4239 16.3548C16.4936 16.1214 16.5877 15.8982 16.7043 15.6896C15.5084 16.6966 14.3124 17.6944 13.1743 18.7753C12.8856 19.1171 12.5969 19.4589 12.3165 19.81L12.3247 19.8469ZM48.4579 3.21766C48.3972 3.19692 48.3424 3.15873 48.299 3.10685C48.2555 3.05498 48.225 2.99126 48.2105 2.92205C47.2125 -1.77109 35.443 4.18772 33.2492 5.4072C31.903 6.16898 30.6051 7.03325 29.3645 7.99395C28.7495 8.84539 28.0737 9.63944 27.3438 10.3682C26.8324 10.4976 26.3376 10.6824 25.8345 10.8671C25.0654 11.1483 24.3133 11.4846 23.5828 11.8741L22.6014 12.373L22.6921 12.3175C23.3024 11.9111 23.8633 11.4768 24.4159 11.0426C24.7293 10.7193 25.0509 10.4052 25.3726 10.1188C24.6055 10.6177 23.8385 11.0981 23.088 11.5046C22.9313 11.5877 22.7498 11.366 22.8983 11.2274C23.5498 10.6269 24.2509 10.0264 24.9767 9.4444C24.8447 9.51831 24.7293 9.60144 24.5973 9.66611C24.4654 9.73078 24.5973 9.66611 24.5478 9.66611C22.3374 11.2736 20.1436 12.9088 18.0074 14.6364C17.5868 15.2184 17.1826 15.8097 16.7208 16.3455C17.2404 15.9852 17.7517 15.6157 18.2713 15.2646C17.9727 15.5804 17.7146 15.9411 17.5043 16.3363C17.4476 16.4631 17.414 16.6013 17.4053 16.7428C16.2013 17.9331 15.097 19.2442 14.1063 20.6599C13.5564 21.1526 13.0066 21.67 12.4567 22.212C11.908 22.6458 11.382 23.1146 10.8814 23.6162C10.7766 23.7201 10.6912 23.8463 10.6304 23.9874C10.5695 24.1286 10.5342 24.2819 10.5267 24.4384C10.5106 24.7614 10.5795 25.0826 10.7247 25.3623C8.29942 27.5847 6.14733 30.1569 4.32446 33.0117C3.74712 34.1111 3.26876 35.3121 2.67492 36.4299C2.1253 38.5392 1.77153 40.7063 1.61922 42.8969C1.61922 42.8045 1.61922 42.7213 1.61922 42.6197C1.61922 42.5181 1.97386 42.398 1.9986 42.6197C2.05461 43.6578 2.31158 44.6698 2.75167 45.5855C3.19175 46.5012 3.80439 47.2986 4.54714 47.9226C3.49129 46.933 2.72152 45.6145 2.33535 44.1343C1.94919 42.654 1.96404 41.0787 2.37802 39.608C2.56166 36.8592 3.48472 34.2372 5.02552 32.0879C5.12449 31.9493 5.29769 32.0879 5.22346 32.2634C4.60332 33.4956 4.05241 34.7699 3.57392 36.0789C3.25226 37.0027 3.03782 37.982 2.74915 38.9428C2.85637 38.9428 2.97184 38.9428 2.9636 39.1276C2.83988 41.4926 2.74089 43.562 3.90382 45.5945C4.43537 46.5656 5.17541 47.3723 6.05648 47.9411C6.14721 47.8856 6.21318 47.9411 6.19668 48.0519L6.28742 48.1258C7.805 48.9203 8.91019 48.4215 10.4113 48.0057C10.4773 48.0057 10.502 48.0519 10.5515 48.0797C13.2498 46.0518 15.4732 43.3268 17.0342 40.1346C18.4528 37.1413 19.5085 33.9725 21.3395 31.2195C24.7458 26.1014 29.9336 21.9348 34.4781 18.1747C34.4781 18.1747 34.5523 18.1747 34.5275 18.2394C29.6861 23.4684 23.6571 27.8382 20.3168 34.5176C18.3456 38.4624 16.8445 42.6474 14.0897 45.7608C14.7791 44.9901 15.5031 44.2593 16.2589 43.5713C16.4156 43.3034 16.597 43.0539 16.7702 42.7768C17.0893 42.2892 17.3813 41.7802 17.6445 41.2524C17.6445 41.1693 17.7517 41.1878 17.793 41.2524C19.8961 34.4622 26.0819 28.6327 30.3789 23.8194C33.4718 20.3458 36.5647 16.9922 39.8803 13.805C40.8123 12.8811 41.6948 11.9573 42.569 10.9133C42.569 10.9133 42.569 10.9133 42.569 10.8579C42.8742 10.5068 43.3938 9.8324 44.0619 9.13951C44.0526 9.10004 44.0515 9.05873 44.0586 9.0187C44.0658 8.97868 44.081 8.94099 44.1031 8.90855L44.1691 8.82541L46.5609 5.65662C46.5919 5.6173 46.63 5.5858 46.6726 5.56423C46.7153 5.54266 46.7616 5.5315 46.8084 5.5315C46.8552 5.5315 46.9015 5.54266 46.9441 5.56423C46.9868 5.5858 47.0248 5.6173 47.0558 5.65662C47.1513 5.55027 47.2532 5.45148 47.361 5.36099C47.5507 5.10231 47.7074 4.84364 47.8641 4.58496C47.8641 4.50181 47.8641 4.40943 47.9383 4.40943C48.1678 4.02615 48.3431 3.60545 48.4579 3.16223V3.21766ZM4.62139 49.9366C5.16402 50.3792 5.78136 50.6935 6.43587 50.8604C6.74997 50.4147 7.10677 50.0088 7.49984 49.6502C6.74121 49.7271 5.97664 49.6232 5.25646 49.3453C5.06691 49.5547 4.85336 49.7349 4.62139 49.8811V49.9366ZM13.7598 46.2412C13.8258 46.1303 13.9 46.0379 13.966 45.9455C13.8506 46.0749 13.7186 46.1858 13.5949 46.3059C13.6061 46.2685 13.6289 46.2368 13.6592 46.2165C13.6894 46.1962 13.7251 46.1885 13.7598 46.195V46.2412ZM10.7907 50.0844C11.3009 49.8144 11.7942 49.5057 12.267 49.1605C12.267 49.1144 12.1845 49.0774 12.2093 48.9943C12.2835 48.7725 12.3825 48.5878 12.4649 48.3753C12.366 48.4399 12.2752 48.5323 12.1763 48.597C12.0773 48.6617 12.1763 48.597 12.1763 48.597C11.7433 49.0997 11.2804 49.5689 10.7907 50.0013V50.0844ZM13.5536 52.3478C13.5536 52.3478 13.5536 52.3478 13.5042 52.3478H13.5536ZM21.7354 43.2664C24.3334 40.0145 27.0964 36.9011 29.8923 33.8524C29.8923 33.8524 29.8923 33.7785 29.8923 33.7415C29.414 34.2497 28.9356 34.7578 28.449 35.229C28.35 35.3306 28.2263 35.2289 28.3088 35.0719C28.8531 34.3051 29.4222 33.5475 30.016 32.79C30.016 32.79 30.016 32.7438 30.016 32.7161C30.3542 32.2911 30.7336 31.8846 31.0883 31.4689C31.8086 30.6005 32.5426 29.7505 33.2904 28.9191C34.0327 27.9952 34.7667 27.0714 35.5173 26.1013C35.6327 25.9628 35.7977 26.1568 35.6905 26.2953L35.4265 26.6372C35.6492 26.4062 35.8719 26.166 36.0864 25.9535C36.1606 25.8796 36.2348 25.9535 36.1771 26.0551C35.6657 26.7665 35.1296 27.4964 34.577 28.217C34.643 28.1338 34.7172 28.1708 34.7832 28.217L36.1193 26.7757L36.1688 26.8219L35.2698 27.8567C35.3055 27.8247 35.3506 27.809 35.3961 27.8127C35.4417 27.8164 35.4843 27.8391 35.5155 27.8764C35.5467 27.9137 35.5642 27.9628 35.5646 28.0139C35.5649 28.0651 35.548 28.1145 35.5173 28.1523C34.6925 29.1223 33.8017 30.0924 32.9275 31.0532L30.2635 34.0372C30.1893 34.1203 30.115 34.0834 30.049 34.0372C27.4923 37.1044 24.8942 40.1253 22.1807 42.9985L22.4859 42.7768C24.4159 40.4856 26.486 38.3054 28.6057 36.199C30.2552 34.3513 31.9295 32.5036 33.6285 30.6559C33.6285 30.6005 33.5873 30.545 33.6285 30.4896C34.5193 29.4087 35.41 28.3093 36.309 27.2377C38.338 24.5677 40.4329 21.9256 42.6103 19.3757C42.5691 19.3757 42.5361 19.3295 42.5608 19.2834C43.3873 17.6355 44.3929 16.1088 45.5547 14.738C46.2898 12.9762 47.407 11.4485 48.8043 10.2943C48.8868 10.2297 48.9693 10.2943 49.0352 10.3498C49.0352 10.2481 49.1342 10.1465 49.1755 10.0356C49.1862 10.0147 49.2019 9.99762 49.2208 9.98619C49.2398 9.97477 49.2612 9.96952 49.2827 9.971C49.1692 9.68874 49.0033 9.43677 48.7961 9.2319C47.6661 10.6546 46.5114 12.0958 45.3568 13.4816C45.3305 13.5208 45.2914 13.5467 45.2481 13.5537C45.2048 13.5606 45.1608 13.548 45.1258 13.5186C45.0908 13.4892 45.0677 13.4454 45.0615 13.3969C45.0553 13.3484 45.0666 13.2991 45.0928 13.2599C46.05 11.6436 47.2434 10.2195 48.6229 9.04715L48.095 8.52977C47.6084 9.10256 47.1135 9.67535 46.6434 10.2759C46.1077 11.0797 45.5147 11.8336 44.8702 12.53C44.8548 12.5545 44.8315 12.5712 44.8052 12.5764C44.7789 12.5816 44.7518 12.5749 44.7299 12.5578C44.7081 12.5406 44.6932 12.5144 44.6885 12.485C44.6839 12.4555 44.6899 12.4252 44.7052 12.4007C45.0701 11.5746 45.5551 10.8222 46.1403 10.1742C45.4228 10.8579 44.7217 11.5323 43.9876 12.1974C44.0155 12.2315 44.0309 12.276 44.0309 12.3222C44.0309 12.3683 44.0155 12.4128 43.9876 12.4469L41.8845 14.8489C42.7093 14.1653 43.534 13.4539 44.4413 12.8349C44.598 12.724 44.7877 12.992 44.631 13.1305C44.381 13.3259 44.1537 13.5556 43.9547 13.8142H43.9052L43.9712 13.7033C42.7835 14.581 41.6123 15.4863 40.4906 16.4749C40.3669 16.5857 40.2597 16.4749 40.2267 16.364C39.6081 17.0661 38.9731 17.7498 38.3545 18.4519C35.8224 21.4359 33.3481 24.4846 30.7006 27.3208C30.7006 27.3208 30.7006 27.3208 30.6594 27.3208C30.4202 27.5887 30.181 27.8566 29.9501 28.1338C30.049 28.0599 30.1398 27.9767 30.2387 27.9121C30.3377 27.8474 30.3377 27.9121 30.3459 27.986C31.3109 26.8866 32.2759 25.7965 33.2656 24.7433C33.2875 24.7188 33.3172 24.705 33.3481 24.705C33.3791 24.705 33.4087 24.7188 33.4306 24.7433C33.4525 24.7678 33.4648 24.801 33.4648 24.8357C33.4648 24.8703 33.4525 24.9035 33.4306 24.928C32.1605 26.4247 30.8656 27.8936 29.5542 29.3625C29.1006 29.8706 28.3913 31.0162 27.682 31.2102C25.8891 33.9278 23.8794 36.4572 21.6776 38.7673C21.5457 38.9243 21.4384 39.0906 21.3065 39.2477C21.1745 39.4047 21.224 39.2477 21.1828 39.2477C20.9683 39.4601 20.7539 39.7096 20.5312 39.9128C20.5312 39.9128 20.457 39.9128 20.424 39.9128L20.0611 40.5318C20.8116 39.8759 21.5704 39.2477 22.2632 38.6841C22.3787 38.5917 22.4859 38.7858 22.3952 38.8874C21.3121 40.1943 20.161 41.4283 18.9476 42.5828L18.4858 43.4327C19.8631 42.1024 21.3065 40.8367 22.6756 39.571C22.7168 39.5248 22.7828 39.571 22.7416 39.6357C20.8941 41.585 19.0466 43.6914 17.0424 45.4929C16.6698 46.0243 16.2038 46.4645 15.6733 46.7863L15.3681 47.1927C15.1524 47.5456 14.9125 47.8792 14.6506 48.1905C15.0512 47.7061 15.4753 47.2465 15.9207 46.814C15.9629 46.7724 16.0171 46.7495 16.0733 46.7495C16.1295 46.7495 16.1837 46.7724 16.2259 46.814L16.4651 46.5645C16.3998 46.6251 16.3309 46.6807 16.2589 46.7308C16.2012 46.777 16.1434 46.7308 16.1929 46.6292C18.4627 44.1035 20.9243 41.8037 23.5499 39.7558C23.5499 39.7558 23.5911 39.7558 23.5499 39.7558C22.6591 40.6796 21.7271 41.6959 20.7786 42.6474C21.6034 42.0562 22.4282 41.4649 23.2529 40.9568C23.3107 40.9568 23.3602 41.0215 23.3024 41.0676L20.6137 43.211C20.8941 43.0447 21.1663 42.8507 21.4384 42.7121C21.4481 42.7045 21.4596 42.7005 21.4714 42.7005C21.4832 42.7005 21.4948 42.7045 21.5044 42.7121C21.8261 42.4627 22.1477 42.204 22.4694 41.973C22.4902 41.9617 22.5139 41.9589 22.5364 41.9651C22.5588 41.9713 22.5786 41.9861 22.5924 42.007C22.6061 42.0278 22.6128 42.0534 22.6115 42.0793C22.6101 42.1051 22.6007 42.1297 22.5849 42.1486C21.8508 42.8507 21.1168 43.5713 20.3827 44.3011C20.7951 43.9778 21.257 43.5805 21.7354 43.2202V43.2664ZM50.1569 11.1997C50.3119 10.9369 50.4799 10.684 50.66 10.4421C50.66 10.4421 50.6106 10.4421 50.6023 10.4421C50.5941 10.4421 50.6023 10.3405 50.6023 10.2943L50.4621 10.4421C50.4621 10.5253 50.4621 10.6084 50.4621 10.7008C50.4392 10.8028 50.3834 10.8917 50.3054 10.9503C50.3054 11.0242 50.2559 11.0888 50.2394 11.1627C50.2098 11.1679 50.1816 11.1805 50.1569 11.1997ZM39.7071 23.4222C40.2844 22.8309 40.8618 22.2582 41.4309 21.7223C42.6564 20.1103 43.7264 18.3575 44.6227 16.4934V16.4379C43.9959 17.3618 43.3608 18.2302 42.701 19.1078C42.701 19.1078 42.7752 19.1078 42.7587 19.1078C41.8068 20.5994 40.7883 22.0363 39.7071 23.413V23.4222ZM51.2951 8.42816C51.2951 8.29882 51.2044 8.17873 51.1549 8.05863C51.1549 8.05863 51.1549 8.14178 51.0972 8.17873C51.1245 8.33441 51.1438 8.49171 51.1549 8.64988L51.2951 8.42816ZM46.5939 8.42816C46.8097 8.17818 47.0109 7.9128 47.196 7.63367C46.8121 7.74418 46.4527 7.94231 46.1403 8.21567C46.0413 8.38196 45.9506 8.56673 45.8434 8.73302C45.8174 8.78749 45.7796 8.83381 45.7335 8.8677C45.6874 8.90159 45.6344 8.922 45.5794 8.92705L45.2495 9.37048C45.2009 9.43775 45.1313 9.48185 45.0547 9.49385C44.9782 9.50585 44.9004 9.48487 44.8372 9.43515C44.4083 9.92479 43.9629 10.359 43.534 10.8948C44.5485 9.99871 45.5795 9.17648 46.5939 8.42816ZM37.1833 28.6696L37.3483 28.4756L37.2988 28.5311H37.2575C37.2383 28.5836 37.2134 28.6332 37.1833 28.6789V28.6696ZM42.0082 23.8379L42.2144 23.6716C42.2556 23.5515 42.3299 23.4407 42.3794 23.3298L42.0082 23.8379ZM34.4368 31.7738C34.4081 31.7414 34.3864 31.7021 34.3736 31.6588C34.3607 31.6155 34.357 31.5695 34.3626 31.5243C33.81 32.1987 33.2492 32.8731 32.7131 33.5291C32.7336 33.5624 32.7477 33.6001 32.7543 33.6399L34.4368 31.7738ZM48.6476 11.9573C48.4002 12.4561 48.0538 13.186 47.5424 13.3615L47.4352 13.5278L47.2785 13.7957C46.8744 14.4886 46.4537 15.163 46.0331 15.8374C45.9183 16.2844 45.7778 16.7226 45.6124 17.1493L47.3032 14.4701C47.7734 13.6109 48.2517 12.7702 48.7548 11.9388L48.961 11.5415C48.961 11.5415 48.961 11.5415 49.0105 11.5415C49.1177 11.366 49.225 11.1812 49.3404 11.0057C49.3595 10.6947 49.3316 10.3824 49.2579 10.0819C49.16 10.7426 48.956 11.378 48.6559 11.9573H48.6476ZM48.6476 8.08634C48.5431 7.95695 48.4301 7.8365 48.3095 7.72603C48.2682 7.72603 48.26 7.65213 48.2435 7.61517L48.1362 7.55974L48.7301 8.18795L48.6476 8.08634ZM48.128 5.82291L47.7816 6.14626H47.9383C47.9577 6.08062 47.9911 6.02127 48.0356 5.97335C48.0801 5.92543 48.1343 5.89038 48.1936 5.87126C48.2529 5.85215 48.3155 5.84953 48.376 5.86365C48.4364 5.87776 48.4928 5.90818 48.5404 5.95226L49.9507 7.51356C50.0259 7.55829 50.0952 7.61422 50.1569 7.67985C50.0791 7.26663 49.9032 6.8846 49.6477 6.57404C49.3922 6.26348 49.0667 6.03589 48.7053 5.9153C48.5267 5.86658 48.3445 5.83566 48.161 5.82291H48.128ZM51.4271 8.82541C51.3611 8.97322 51.2786 9.11182 51.2044 9.2504C51.1881 9.4354 51.155 9.61805 51.1054 9.79547L51.526 9.29658C51.5055 9.13739 51.4751 8.97996 51.4353 8.82541H51.4271ZM43.6413 20.5583C43.3271 20.9129 42.9753 21.2232 42.5938 21.4821C41.2392 23.2771 39.7788 24.9684 38.2225 26.5448C37.7524 27.2007 37.241 27.8382 36.7462 28.4941C36.8861 28.4074 37.0406 28.3539 37.1998 28.337L37.2658 28.2539C37.1915 28.2539 37.1421 28.1615 37.208 28.0876C37.446 27.8057 37.6965 27.5374 37.9586 27.2839C39.2452 25.547 40.7793 23.958 42.1649 22.3598C42.2226 22.2858 42.2886 22.3598 42.2639 22.4429L42.9072 21.6669C42.9484 21.6114 42.9979 21.6669 43.0309 21.6669C43.1134 21.5652 43.1959 21.4636 43.2866 21.3713C43.4021 21.168 43.5423 20.9648 43.666 20.7615C43.646 20.7328 43.6344 20.6978 43.6329 20.6614C43.6314 20.625 43.6401 20.5889 43.6577 20.5583H43.6413ZM13.8093 47.8117C14.1557 47.4976 14.4774 47.165 14.7908 46.8232C14.8833 46.6595 14.9881 46.5049 15.1042 46.3613C14.964 46.4537 14.8403 46.5923 14.6918 46.6754C14.5434 46.7585 14.3454 47.0172 14.1722 47.1927C14.065 47.4329 13.966 47.6085 13.8176 47.8117H13.8093ZM16.663 47.8117C16.7043 47.8117 16.7455 47.8117 16.7702 47.8672L17.4878 47.1004C17.2239 47.3036 16.9517 47.5438 16.6713 47.7748L16.663 47.8117ZM12.6134 51.8951C12.7114 51.7251 12.8218 51.5645 12.9433 51.4147C12.9433 51.4147 12.9433 51.3593 12.9433 51.3316C12.8743 51.36 12.7992 51.3642 12.728 51.3438C12.6568 51.3233 12.5928 51.2791 12.5445 51.217C12.4962 51.1549 12.4659 51.0779 12.4576 50.996C12.4493 50.9142 12.4634 50.8315 12.4979 50.7588V50.7034C12.2831 50.9068 12.0511 51.0863 11.8051 51.2392C11.9437 51.4344 12.1045 51.6083 12.2835 51.7566C12.3939 51.7971 12.507 51.828 12.6217 51.8489L12.6134 51.8951ZM11.5742 50.9713C11.7686 50.7506 11.9752 50.5439 12.1928 50.3523C12.1914 50.3215 12.1914 50.2907 12.1928 50.2599C11.9371 50.4447 11.6814 50.611 11.4175 50.768C11.4505 50.768 11.4917 50.8235 11.5824 50.9251L11.5742 50.9713ZM12.9516 48.1997L12.8278 48.2644C12.7289 48.4399 12.7124 48.5046 12.7701 48.4399L12.9516 48.1997ZM22.2962 36.5685C22.7003 35.968 23.121 35.386 23.5334 34.8225C23.5283 34.7851 23.53 34.747 23.5385 34.7105C23.547 34.6739 23.5621 34.6397 23.5828 34.61C24.4076 33.3443 25.3644 32.1433 26.3211 30.9608C26.3211 30.9608 26.3211 30.9608 26.3211 30.9146C24.78 32.7595 23.3733 34.7397 22.1148 36.8364L22.2962 36.5685ZM32.111 24.4292L32.1769 24.3738C32.2123 24.3471 32.2539 24.3329 32.2965 24.3329C32.3391 24.3329 32.3808 24.3471 32.4161 24.3738C32.911 23.7086 33.4388 23.0804 33.9667 22.4429C34.2141 22.1011 34.4616 21.75 34.7172 21.4082C33.6175 22.6769 32.4931 23.9395 31.3439 25.196C31.6161 24.9003 31.847 24.6509 32.111 24.4292ZM38.305 17.1216L38.3792 17.0199L38.272 17.1585C38.2836 17.1495 38.2922 17.1365 38.2967 17.1216H38.305ZM51.0477 10.6546C51.2558 10.4597 51.4733 10.2778 51.6993 10.1096C51.6993 9.99871 51.658 9.88783 51.6415 9.77697C51.4436 10.0911 51.2456 10.3683 51.0394 10.6639L51.0477 10.6546ZM50.1487 11.2367C50.1343 11.391 50.1038 11.5429 50.058 11.6893C50.058 11.7817 49.9095 11.8002 49.8848 11.6893C49.8087 11.817 49.7202 11.9348 49.6208 12.0404C49.6044 12.0723 49.5774 12.0955 49.5457 12.105C49.514 12.1146 49.4802 12.1096 49.4517 12.0912C49.4233 12.0728 49.4026 12.0426 49.3941 12.0071C49.3856 11.9715 49.39 11.9337 49.4064 11.9018L48.7713 13.0289C48.7713 13.4447 48.1445 14.2114 47.9466 14.4978L47.8311 14.7103C47.7713 14.8117 47.7162 14.9166 47.6661 15.0244C47.7028 14.9793 47.7413 14.9361 47.7816 14.8951C48.5495 13.7113 49.3755 12.5763 50.2559 11.4953C50.1734 11.4584 50.0992 11.3752 50.1404 11.2459L50.1487 11.2367ZM22.7333 43.9593C23.0909 43.4732 23.5139 43.0524 23.987 42.7121C24.3499 42.3518 24.688 42.01 25.0592 41.7051C25.0183 41.7138 24.9763 41.7138 24.9355 41.7051L24.3004 42.2964C24.0282 42.5366 23.6653 42.167 23.9292 41.8714C24.7952 40.9476 25.7025 40.0237 26.6015 39.0444C25.587 40.0792 24.5643 41.0676 23.5251 42.0285C23.5663 42.0285 23.5911 42.1393 23.5251 42.1947C21.5539 44.0424 19.5415 45.8901 17.6198 47.7378L19.1373 46.7031C20.4075 45.8809 21.5787 44.9386 22.7251 43.9685L22.7333 43.9593ZM12.8361 52.819C12.7701 52.819 12.7289 52.9206 12.6546 52.9391C12.6408 52.9465 12.6252 52.9489 12.6101 52.946C12.595 52.9431 12.581 52.935 12.5702 52.9228C12.5593 52.9107 12.5521 52.8951 12.5495 52.8781C12.5469 52.8612 12.5491 52.8437 12.5557 52.8282C12.5557 52.8282 12.5557 52.7728 12.6052 52.7358C12.0335 52.5128 11.5359 52.1004 11.1783 51.5533C11.2225 51.7103 11.2805 51.8619 11.3515 52.006C11.7414 52.6364 12.2856 53.1272 12.9186 53.4195C13.0011 53.244 13.0835 53.0684 13.1743 52.9021C13.0601 52.8863 12.9471 52.8616 12.8361 52.8282V52.819ZM48.0868 5.11156C48.3925 5.05919 48.7048 5.08125 49.0023 5.17623L48.26 4.84363L48.0868 5.11156ZM52.3508 9.01944C52.3079 9.06385 52.257 9.09752 52.2015 9.11823C52.1461 9.13893 52.0873 9.14618 52.0292 9.13951C52.058 9.36625 52.058 9.59645 52.0292 9.82318H52.0869C52.2235 9.74654 52.364 9.67868 52.5075 9.61993C52.4663 9.39821 52.4085 9.21343 52.3508 9.02866V9.01944ZM57.3984 11.3752C57.3984 11.4307 57.3984 11.4768 57.3984 11.5323C57.5411 11.622 57.6716 11.734 57.7861 11.8649C57.6684 11.6935 57.5388 11.5328 57.3984 11.3845V11.3752ZM57.4561 16.8536C57.0399 19.2006 56.4889 21.515 55.8066 23.7825C56.098 22.9141 56.3949 22.0456 56.6974 21.1772C56.7386 21.0387 56.7881 20.9001 56.8376 20.7615C56.8871 20.6229 56.9778 20.3365 57.0603 20.1241C57.4839 19.0825 57.794 17.9875 57.984 16.8629C58.1076 15.9641 58.0683 15.0466 57.8685 14.1652C57.8685 14.1652 57.8685 14.2114 57.8685 14.2392C57.9472 15.1395 57.8046 16.0468 57.4561 16.8629V16.8536ZM15.6156 62.852C17.7435 64.5149 20.1435 64.0437 22.4611 62.7965C24.2839 61.8172 27.1706 59.4614 29.4387 59.7201C31.9708 57.3181 35.0636 55.5074 37.6039 53.0869C40.5482 50.2525 43.2639 47.1333 45.7197 43.7653C48.2509 40.3627 50.4775 36.6897 52.3673 32.7992C53.1642 31.0873 53.88 29.3296 54.5117 27.5333C54.4375 27.598 54.322 27.5333 54.355 27.4502C55.254 24.2998 56.054 21.1495 56.8293 17.9992C56.8293 17.9992 56.7716 18.0916 56.7304 18.1378C56.7266 18.1427 56.7219 18.1466 56.7168 18.1495C56.7116 18.1523 56.706 18.154 56.7003 18.1545C56.6945 18.1549 56.6888 18.154 56.6833 18.152C56.6779 18.1499 56.6728 18.1467 56.6685 18.1424C56.6642 18.1382 56.6606 18.133 56.6581 18.1272C56.6555 18.1214 56.654 18.1152 56.6536 18.1087C56.6532 18.1023 56.654 18.0958 56.6558 18.0897C56.6577 18.0836 56.6606 18.078 56.6644 18.0731C56.8046 17.8329 56.8788 17.5743 56.9943 17.3341C57.2747 16.1608 57.5634 14.9967 57.819 13.8234C57.6293 13.1952 57.3242 12.6039 57.1262 11.9757C55.7901 10.5992 54.7509 9.72154 53.0024 10.6454C53.001 10.6618 52.9957 10.6774 52.9871 10.6907C52.9784 10.704 52.9668 10.7145 52.9534 10.7211C52.9399 10.7277 52.9251 10.7302 52.9105 10.7282C52.896 10.7263 52.8821 10.72 52.8704 10.7101C52.7055 10.8024 52.557 10.8764 52.3838 10.9965C51.1674 12.0301 50.1089 13.2781 49.2497 14.6918C47.3032 17.4634 45.5217 20.6784 43.3361 23.2374C43.3928 23.2735 43.4423 23.3222 43.4816 23.3804C43.5208 23.4387 43.549 23.5054 43.5645 23.5763C43.5799 23.6473 43.5823 23.721 43.5714 23.793C43.5604 23.865 43.5365 23.9337 43.501 23.995C42.0701 26.1253 40.4326 28.0711 38.6184 29.7967C38.6387 29.8221 38.6499 29.855 38.6499 29.8891C38.6499 29.9232 38.6387 29.9561 38.6184 29.9815C37.2905 31.5243 35.9297 33.0302 34.5688 34.5453C34.2855 34.9636 33.9525 35.3366 33.5791 35.6539C33.3069 35.9495 33.0512 36.2637 32.7543 36.5778C32.7401 36.5989 32.722 36.6165 32.7013 36.6291C32.6805 36.6418 32.6576 36.6493 32.634 36.6512C32.6105 36.6531 32.5868 36.6493 32.5647 36.64C32.5425 36.6308 32.5224 36.6163 32.5057 36.5976C32.489 36.5788 32.476 36.5563 32.4678 36.5315C32.4595 36.5067 32.4561 36.4802 32.4578 36.4538C32.4595 36.4274 32.4662 36.4017 32.4775 36.3785C32.4888 36.3552 32.5044 36.335 32.5234 36.3191L32.6636 36.1436C31.5171 37.3815 30.379 38.6287 29.2243 39.8389C27.1541 42.0377 25.0344 44.5875 22.5189 46.1396C19.3683 48.0797 16.4073 48.5508 14.2712 52.1908C14.2712 52.2462 14.1887 52.1908 14.1475 52.237L14.0238 52.4864H14.0897C14.1144 52.5055 14.1336 52.5321 14.1452 52.5631C14.1567 52.5941 14.1601 52.6281 14.1549 52.6612C14.1496 52.6943 14.1361 52.725 14.1158 52.7497C14.0955 52.7744 14.0692 52.792 14.0403 52.8005C13.9754 52.8212 13.9092 52.8367 13.8423 52.8467C13.4404 53.7072 13.1171 54.611 12.8773 55.5443C12.7411 56.1706 12.6692 56.8122 12.6629 57.4567C12.6629 57.4567 12.7289 57.4567 12.7454 57.5029C13.5701 59.5538 13.8423 61.4847 15.6156 62.852ZM10.1968 50.3431C10.1968 50.2414 10.1968 50.1398 10.2546 50.0382C10.2731 49.9852 10.3091 49.9422 10.3552 49.9181C10.4013 49.894 10.4538 49.8907 10.502 49.9089C10.9321 49.3221 11.4067 48.7781 11.9206 48.2829C11.9206 48.2275 11.9206 48.1813 11.9206 48.1443C12.2258 47.7932 12.5722 47.4607 12.8938 47.1189L13.3557 46.6292L13.5536 46.3151C12.7218 47.1699 11.7961 47.9026 10.7989 48.4954C10.7678 48.5112 10.7341 48.5194 10.6999 48.5194C10.6658 48.5194 10.6321 48.5112 10.601 48.4954L10.337 48.6339C10.0264 49.1389 9.65444 49.5929 9.23186 49.9828C8.88988 50.3761 8.46412 50.6655 7.9947 50.8235C7.97186 50.8295 7.9479 50.8269 7.92649 50.8162C7.90508 50.8054 7.88738 50.7871 7.87615 50.764C7.86492 50.741 7.86076 50.7144 7.8643 50.6884C7.86783 50.6625 7.87888 50.6385 7.89573 50.6202C8.25021 50.2413 8.63383 49.8981 9.04215 49.5948C9.24189 49.4003 9.43188 49.1937 9.61124 48.9758C9.41095 49.0473 9.20718 49.1058 9.00092 49.1513C8.65018 49.3307 8.28207 49.464 7.90396 49.5486L6.69981 50.842C7.87619 51.0331 9.07684 50.8606 10.1721 50.3431H10.1968ZM3.59866 48.8926C3.84877 49.2047 4.12495 49.4894 4.42343 49.7426C4.53565 49.5092 4.68361 49.2996 4.86056 49.1236C3.73949 48.5737 2.8138 47.6213 2.22954 46.4167C2.55114 47.3286 3.01784 48.1675 3.60692 48.8926H3.59866Z" fill="#DC0000"/>
<path d="M17.0063 50.8418C16.9542 50.8461 16.9018 50.8461 16.8496 50.8418C16.8389 50.837 16.8297 50.8287 16.8232 50.818C16.8168 50.8073 16.8133 50.7947 16.8133 50.7818C16.8133 50.7688 16.8168 50.7562 16.8232 50.7455C16.8297 50.7348 16.8389 50.7265 16.8496 50.7217C18.2352 50.0196 19.6786 49.5392 21.0229 48.7354C22.3292 47.857 23.5853 46.8881 24.7839 45.8345C24.8746 45.7606 24.9653 45.9085 24.8911 45.9916C22.7979 48.4585 20.0709 50.1343 17.0888 50.7864C17.13 50.7864 17.1713 50.7864 17.1383 50.8603C15.5712 52.7819 14.7135 54.7127 15.3073 57.2533C15.8681 59.6461 17.4517 60.7732 19.2662 61.8725C19.3239 61.8725 19.3157 61.9742 19.3239 62.0388C22.0111 61.6105 24.5616 60.4424 26.7469 58.6391C26.7469 58.6391 26.7469 58.6391 26.7469 58.5836C25.1986 59.423 23.5867 60.1063 21.9302 60.6253C21.9302 60.6253 21.8889 60.6254 21.8642 60.5792C21.3855 60.6996 20.8932 60.737 20.4044 60.69C20.1239 60.69 19.8353 60.7916 19.5796 60.8101C19.4641 60.8101 19.4476 60.6253 19.5796 60.5884H19.6621C19.4064 60.5686 19.1526 60.5253 18.9033 60.4591C18.8126 60.4591 18.8455 60.302 18.9033 60.2835H18.9115C18.9115 60.2835 18.9115 60.2835 18.8538 60.2835C18.8484 60.2716 18.8457 60.2583 18.8458 60.2449C18.846 60.2315 18.849 60.2184 18.8547 60.2066C18.8604 60.1948 18.8685 60.1847 18.8784 60.1772C18.8883 60.1697 18.8997 60.165 18.9115 60.1634L19.3817 60.2835L21.3528 60.0248C22.1776 59.7015 23.0436 59.3597 23.8272 59.0179C25.8167 57.8161 27.7442 56.4898 29.6005 55.0453C29.5346 55.0453 29.4933 54.9529 29.5511 54.8883C30.3099 54.0291 31.1594 53.2068 31.9594 52.3661C31.1346 53.0036 30.3593 53.6133 29.5346 54.2138C29.4521 54.2693 29.3861 54.1677 29.4109 54.0753C27.5358 55.6019 25.5834 57.0054 23.5632 58.2788C23.4808 58.3342 23.4148 58.2049 23.4973 58.1402C26.5489 55.6643 29.7243 53.3362 32.8419 50.9711C35.1018 48.9571 37.3534 46.9432 39.5143 44.7629C39.6298 44.652 39.7865 44.8276 39.6792 44.9477L39.3246 45.3357C39.5803 45.1047 39.8359 44.846 40.0999 44.6243C40.1741 44.5596 40.2483 44.689 40.1906 44.7537C39.4071 45.6313 38.541 46.472 37.7163 47.3404L40.5535 44.8091C40.6772 44.6982 40.8422 44.8737 40.7185 44.9938L37.1802 48.3289L37.4936 48.2828C38.3184 47.516 39.0854 46.7492 39.8359 45.9269C39.9102 45.8438 40.0257 45.9269 39.9514 46.047C39.2916 46.8138 38.6153 47.5344 37.9307 48.2458C37.9307 48.2458 37.9307 48.2458 37.9307 48.3012C39.1844 47.1279 40.4545 45.9639 41.6587 44.7814C41.6156 44.7376 41.5866 44.6792 41.5762 44.6151C41.0236 45.2341 40.4793 45.853 39.9267 46.4628C39.9202 46.4701 39.9125 46.4758 39.904 46.4798C39.8955 46.4837 39.8864 46.4857 39.8772 46.4857C39.868 46.4857 39.8589 46.4837 39.8504 46.4798C39.8419 46.4758 39.8342 46.4701 39.8277 46.4628C39.8212 46.4555 39.8161 46.4469 39.8125 46.4374C39.809 46.4278 39.8072 46.4176 39.8072 46.4073C39.8072 46.397 39.809 46.3868 39.8125 46.3773C39.8161 46.3678 39.8212 46.3592 39.8277 46.3519C40.3555 45.6867 40.8916 45.0216 41.436 44.3656C41.4244 44.3519 41.4179 44.3337 41.4179 44.3148C41.4179 44.2959 41.4244 44.2777 41.436 44.264C43.2835 41.7881 45.065 39.2753 46.8547 36.7624L46.9125 36.6977C47.9187 35.2842 48.9167 33.8707 49.9394 32.4757C49.9394 32.4203 50.0384 32.4757 50.0136 32.5312C49.0845 34.2057 48.0741 35.8218 46.9867 37.3721C47.7208 36.5499 48.463 35.6907 49.1641 34.7853C49.8658 33.7411 50.513 32.6522 51.1023 31.5242C50.9742 31.7381 50.8365 31.9447 50.6899 32.1432C50.6404 32.1432 50.5662 32.1431 50.5992 32.0692C51.0923 31.2701 51.5201 30.4229 51.8776 29.5379C51.9134 29.0041 51.9935 28.4753 52.1168 27.9581C52.1348 27.893 52.1679 27.8344 52.2126 27.7882C52.2573 27.7419 52.3121 27.7097 52.3714 27.6947C52.4308 27.6797 52.4926 27.6825 52.5507 27.7028C52.6088 27.7231 52.6611 27.7602 52.7024 27.8103L52.8013 27.5516C52.8426 27.4408 52.9828 27.4685 52.958 27.5516C52.1901 31.0393 50.4825 34.1777 48.0672 36.5406C47.9847 36.6146 47.9104 36.5407 47.9517 36.439C47.4733 37.0118 46.9537 37.5476 46.4424 38.0927C46.2692 38.3421 46.0959 38.6008 45.9145 38.8503C45.8485 38.9519 45.766 39.0535 45.7001 39.1644C45.9557 39.0535 46.2197 39.0628 46.1125 39.4877H46.0052C45.9557 39.4877 45.931 39.4138 46.0052 39.4046C45.3949 39.6078 44.4712 41.3539 44.0753 41.8897C43.9433 42.0653 43.8196 42.25 43.6876 42.4348C43.234 43.0815 42.7556 43.7189 42.2938 44.3749L42.0711 44.6982C42.0711 44.6982 42.0711 44.7721 42.0711 44.8091C41.6092 45.4188 41.0978 46.0378 40.5782 46.6568C41.337 45.8161 42.0958 44.9661 42.8876 44.1809C42.9116 44.1614 42.9404 44.1508 42.9701 44.1508C42.9997 44.1508 43.0286 44.1614 43.0525 44.1809C43.5886 43.5619 44.1165 42.9337 44.6114 42.2685C45.5763 40.9566 46.3764 39.497 47.3166 38.2036C47.3661 38.1297 47.4815 38.2036 47.4568 38.296C47.2168 38.9306 46.9413 39.5478 46.632 40.1436C47.3413 39.1459 48.0672 38.1574 48.7352 37.1319C48.7847 37.0488 48.8919 37.1319 48.8424 37.1966C47.1246 40.3221 45.1563 43.266 42.9618 45.9916C42.983 45.9939 43.003 46.0031 43.0195 46.0182C43.0359 46.0332 43.048 46.0534 43.0542 46.0762C43.0604 46.099 43.0604 46.1233 43.0542 46.1461C43.0481 46.1688 43.036 46.189 43.0196 46.2041C42.6319 46.7584 42.1948 47.3127 41.7329 47.8763C41.7981 47.8127 41.867 47.754 41.9391 47.7007C44.9729 44.0755 47.6725 40.1168 49.9971 35.8847C50.0014 35.8722 50.0081 35.8608 50.0167 35.8515C50.0253 35.8421 50.0356 35.8349 50.0469 35.8305C50.0582 35.8261 50.0702 35.8245 50.0822 35.8258C50.0941 35.8271 50.1056 35.8313 50.116 35.8381C50.1263 35.8449 50.1352 35.8541 50.142 35.8652C50.1488 35.8762 50.1534 35.8888 50.1554 35.902C50.1575 35.9153 50.1569 35.9289 50.1538 35.9418C50.1506 35.9548 50.145 35.9668 50.1373 35.9771C47.8554 40.8324 44.8227 45.1958 41.1803 48.8648C41.1635 48.8823 41.1414 48.8921 41.1185 48.8921C41.0955 48.8921 41.0734 48.8823 41.0566 48.8648C40.2965 49.7931 39.4689 50.6491 38.5823 51.4238C36.9159 53.1126 35.0843 54.5848 33.1223 55.8121C33.0563 55.8121 32.9986 55.8121 32.9409 55.7659C32.7594 55.8768 32.578 56.0153 32.3965 56.117C32.3669 56.1344 32.3327 56.1394 32.3001 56.1311C32.2674 56.1227 32.2385 56.1016 32.2186 56.0714C32.1987 56.0413 32.189 56.0042 32.1914 55.9668C32.1938 55.9294 32.208 55.8942 32.2316 55.8675C32.314 55.7659 32.413 55.6827 32.4955 55.5904C32.0171 55.9414 31.5223 56.274 31.0109 56.5881C29.3264 57.9187 27.5144 59.0343 25.6087 59.914C23.6874 61.2349 21.5308 62.0675 19.2909 62.3529C19.2497 62.3529 19.2497 62.3529 19.2332 62.2883C19.2167 62.2236 19.192 62.3622 19.1425 62.3622C13.8227 62.4823 13.0722 53.8997 17.0063 50.8418ZM35.5801 50.5277C36.0338 50.0843 36.5039 49.6039 36.974 49.1974C36.5534 49.6039 36.0832 49.9549 35.6296 50.3245C35.6873 50.3245 35.7451 50.3245 35.7038 50.4168L35.5801 50.5277ZM28.982 56.2278C28.8088 56.3017 28.6438 56.4126 28.4706 56.4865C28.2974 56.5604 28.3552 56.4126 28.3964 56.3479C27.3708 57.1089 26.2987 57.7881 25.188 58.3804C26.4932 57.7628 27.7583 57.0435 28.9737 56.2278H28.982ZM30.813 54.0106L30.3016 54.4725L30.8707 54.0198C30.8707 54.0198 30.8295 54.0106 30.8047 54.0106H30.813ZM30.9532 53.9552L31.3243 53.6226L30.9532 53.9552ZM37.2049 48.2735C35.9513 49.4468 34.6894 50.5924 33.4192 51.7287C31.9576 53.3229 30.3826 54.7812 28.7098 56.0893C29.3614 55.7105 30.0129 55.3317 30.6563 54.9344C30.8872 54.7497 31.1264 54.6111 31.3656 54.4078C31.3656 54.4078 31.4068 54.4078 31.4233 54.4078C31.8274 54.1399 32.2481 53.8535 32.611 53.5579L33.5182 52.7172C33.5182 52.7172 33.5182 52.671 33.5182 52.6433C33.8729 52.246 34.2605 51.858 34.6399 51.47C35.0193 51.082 35.2172 50.7587 35.4647 50.3614C35.0935 50.657 34.7636 51.0081 34.3677 51.2853C34.3677 51.2853 34.277 51.2852 34.3182 51.2113C35.2997 50.2875 36.3059 49.3636 37.2957 48.3844C37.2957 48.3382 37.2462 48.3012 37.1637 48.3012C37.0812 48.3012 37.1802 48.3012 37.1967 48.2735H37.2049ZM36.174 51.0451L36.0667 51.1836C36.6276 50.6755 37.1967 50.1766 37.7163 49.6408C37.7339 49.6304 37.7482 49.6143 37.7575 49.5946C37.2462 50.1212 36.7101 50.6108 36.1657 51.0635L36.174 51.0451Z" fill="#DC0000"/>
<path d="M26.2463 18.36C25.4731 19.2994 24.6466 20.1819 23.772 21.0022C23.7353 21.045 23.6895 21.0767 23.6389 21.0943C23.5883 21.1119 23.5345 21.1148 23.4826 21.1028C23.4307 21.0909 23.3823 21.0643 23.3421 21.0257C23.3018 20.9871 23.271 20.9377 23.2524 20.8821C22.708 21.5288 22.1637 22.1939 21.6029 22.8037C21.543 22.8569 21.4689 22.8859 21.3925 22.8859C21.3162 22.8859 21.242 22.8569 21.1822 22.8037C20.9018 23.1917 20.6131 23.5705 20.3574 23.9585C20.3223 24 20.2787 24.0313 20.2304 24.0496C20.182 24.068 20.1304 24.0728 20.08 24.0637C20.0296 24.0546 19.9819 24.0318 19.9412 23.9974C19.9004 23.963 19.8678 23.9179 19.8461 23.8661C19.7471 23.9492 19.6646 24.0416 19.5657 24.1156C19.4667 24.1895 19.31 24.1156 19.3595 23.94C19.409 23.7645 19.4089 23.8753 19.4172 23.8384C19.079 24.2449 18.7326 24.6421 18.3945 25.0579C18.3763 25.076 18.3529 25.0861 18.3285 25.0861C18.3042 25.0861 18.2807 25.076 18.2625 25.0579C17.9653 25.9278 17.4315 26.671 16.7367 27.1827C16.5635 27.3028 16.3243 27.0626 16.4563 26.8686C16.9716 26.1311 17.5458 25.4477 18.1718 24.8269C18.1886 24.8094 18.2107 24.7996 18.2336 24.7996C18.2566 24.7996 18.2787 24.8094 18.2955 24.8269C19.1278 23.4758 20.1665 22.2999 21.3637 21.3532C21.5039 21.1685 21.6441 20.9745 21.776 20.7805C21.908 20.5864 22.3369 20.7805 22.1637 21.0207L22.04 21.2147C22.04 21.2147 22.04 21.2147 22.04 21.2793C22.6421 20.6326 23.2606 20.0044 23.9039 19.4316C23.64 19.6072 23.3843 19.8012 23.0792 19.9582C23.0049 20.0044 22.9225 19.8936 22.9885 19.8289C23.0544 19.7642 23.2606 19.6072 23.3926 19.4963C23.706 19.2654 23.9864 19.0159 24.2916 18.7757C24.7617 18.4247 25.2483 18.0921 25.7349 17.7687C26.0566 17.4361 26.3618 17.0851 26.7164 16.7617C26.7466 16.7271 26.7837 16.701 26.8246 16.6856C26.8656 16.6702 26.9092 16.6659 26.9519 16.6731C26.9946 16.6804 27.0352 16.6988 27.0702 16.7271C27.1053 16.7554 27.1338 16.7926 27.1535 16.8356L27.5989 16.54C27.7556 16.4384 27.9371 16.6786 27.7886 16.8171C27.2773 17.3345 26.7577 17.8519 26.2463 18.36Z" fill="#DC0000"/>
<path d="M17.266 56.0428C18.5939 55.2853 19.9382 54.5462 21.2744 53.7886C22.2768 53.1398 23.3317 52.5984 24.425 52.1719C25.4257 51.3158 26.4512 50.4936 27.5014 49.7052L27.7736 49.4373C28.6245 48.2842 29.6157 47.2704 30.718 46.4256L30.9242 46.2131C30.9501 46.1865 30.9839 46.1717 31.019 46.1717C31.0542 46.1717 31.088 46.1865 31.1139 46.2131H31.1881C31.2569 46.1068 31.3372 46.0106 31.4273 45.9267C31.4768 45.8805 31.5345 45.9267 31.5923 45.9267L32.9366 44.3746C33.2418 44.042 33.8109 44.467 33.5305 44.8827L33.4727 44.9751C33.5096 44.9761 33.5455 44.989 33.5759 45.0124C33.6063 45.0358 33.63 45.0687 33.644 45.1069C33.658 45.1451 33.6617 45.1871 33.6548 45.2277C33.6478 45.2683 33.6304 45.3058 33.6047 45.3354C33.3655 45.6126 33.1016 45.862 32.8624 46.1392C32.8624 46.1392 32.8624 46.1392 32.8624 46.1946C33.176 45.9008 33.5036 45.6263 33.8439 45.3724C34.4751 44.5005 35.1886 43.7076 35.9718 43.0073C36.4568 42.2435 36.9916 41.521 37.5718 40.8455C37.5306 40.7624 37.4729 40.6885 37.4894 40.5869C37.5078 40.4985 37.5216 40.4091 37.5306 40.3189C37.176 40.6053 36.7058 40.088 37.0687 39.7369L37.8193 38.9794L38.042 38.7576C38.0941 38.6979 38.1624 38.6591 38.2362 38.6473C38.3101 38.6356 38.3853 38.6515 38.4503 38.6926C38.5152 38.7337 38.5661 38.7977 38.5952 38.8746C38.6243 38.9516 38.6299 39.0371 38.6111 39.1179C38.5621 39.3707 38.5016 39.6205 38.4296 39.8663L38.7265 39.6815C38.7884 39.636 38.8623 39.6159 38.9358 39.6244C39.0094 39.6328 39.0781 39.6694 39.1304 39.728C39.1827 39.7866 39.2153 39.8635 39.2229 39.9459C39.2305 40.0283 39.2125 40.1111 39.1719 40.1804C39.0647 40.3651 38.9657 40.5499 38.8667 40.7347C39.3121 40.282 39.7492 39.8108 40.1864 39.3304C40.3843 39.0995 40.7802 39.3766 40.5905 39.6538C39.7738 40.8166 38.8161 41.8458 37.745 42.7117C37.7127 42.7398 37.6752 42.7594 37.6352 42.7689C37.5952 42.7785 37.5538 42.7779 37.5141 42.7671L37.1595 43.1644C36.2507 45.4306 34.7306 47.3207 32.8129 48.5689C32.7832 48.5779 32.7519 48.5779 32.7222 48.5689C32.7318 48.5854 32.7369 48.6047 32.7369 48.6243C32.7369 48.644 32.7318 48.6633 32.7222 48.6798C31.5675 49.7607 30.3551 50.7861 29.1345 51.7931C28.6916 52.3615 28.2119 52.8926 27.6993 53.3821C27.639 53.4419 27.5613 53.4749 27.4808 53.4749C27.4003 53.4749 27.3225 53.4419 27.2622 53.3821C27.0643 53.493 26.8663 53.6223 26.6602 53.7147C25.8354 54.3244 25.0683 54.9527 24.2601 55.5624C24.0951 55.6825 23.9714 55.4146 24.1116 55.2853C23.9585 55.3963 23.7987 55.4951 23.6332 55.5809C23.5755 55.5809 23.5425 55.5809 23.5425 55.507C22.6121 56.4013 21.5971 57.1789 20.5156 57.8258C20.3671 57.9182 20.2022 57.6965 20.3424 57.5672L20.895 57.0313C20.7878 57.0867 20.6888 57.1514 20.5816 57.1976C20.4744 57.2438 20.4496 57.0868 20.5239 57.0406L20.7383 56.8743C20.587 56.939 20.4291 56.9825 20.2682 57.0036C20.2376 57.0001 20.2087 56.9862 20.1856 56.9635C20.1624 56.9409 20.1461 56.9108 20.1388 56.8773C20.1316 56.8439 20.1338 56.8087 20.1452 56.7768C20.1565 56.7448 20.1764 56.7175 20.2022 56.6987C20.697 56.3477 21.2826 56.1999 21.7858 55.8303C22.3443 55.4352 22.8427 54.9424 23.2621 54.3707C23.3528 54.2506 23.5343 54.3707 23.4518 54.5369L23.3116 54.7309L23.7652 54.2875C23.8724 54.1951 23.9961 54.3337 23.9054 54.4446C23.3352 55.1778 22.6839 55.8267 21.9672 56.3754L21.695 56.6526C22.4277 56.1458 23.1328 55.5905 23.8064 54.9896C23.819 54.9729 23.8364 54.9617 23.8556 54.958C23.8748 54.9543 23.8946 54.9583 23.9114 54.9694C23.9282 54.9805 23.941 54.9979 23.9475 55.0185C23.9539 55.0391 23.9536 55.0616 23.9466 55.082C24.5735 54.5739 25.1838 54.0565 25.7941 53.5392C26.0828 53.1989 26.4201 52.9148 26.7921 52.6985C26.75 52.6917 26.7105 52.6716 26.6782 52.6404C26.646 52.6093 26.6224 52.5685 26.6103 52.5228C26.5981 52.4771 26.5979 52.4285 26.6097 52.3826C26.6214 52.3368 26.6447 52.2958 26.6766 52.2643L26.8168 52.1165C26.7059 52.1485 26.5896 52.1485 26.4787 52.1165C26.1488 52.4213 25.8436 52.7724 25.4972 53.0403C25.3653 53.1512 25.2003 52.9017 25.3323 52.7816C25.6622 52.486 25.9756 52.1719 26.2972 51.8578C26.2972 51.8116 26.2477 51.7839 26.256 51.7377V51.6268C25.5055 52.2181 24.7467 52.8186 23.9879 53.3544C23.9405 53.3949 23.8825 53.4168 23.8229 53.4168C23.7633 53.4168 23.7054 53.3949 23.658 53.3544C23.5343 53.4376 23.427 53.5484 23.2951 53.6223C23.3239 53.6049 23.3572 53.5994 23.3893 53.6066C23.4213 53.6138 23.4502 53.6334 23.4707 53.6619C23.4913 53.6904 23.5023 53.726 23.5018 53.7627C23.5014 53.7993 23.4895 53.8347 23.4683 53.8625C22.6566 55.077 21.552 56.0065 20.2847 56.5417C20.1692 56.5417 20.1197 56.477 20.1444 56.3477C20.0846 56.3616 20.0228 56.3616 19.963 56.3477C19.9118 56.3366 19.8638 56.3114 19.8235 56.2743C19.7831 56.2372 19.7517 56.1894 19.7321 56.1352C19.7321 56.1906 19.7321 56.2461 19.7321 56.2922C19.4129 56.8437 18.9531 57.275 18.4124 57.5302C18.3639 57.5603 18.3087 57.5745 18.2533 57.5713C18.1978 57.5681 18.1443 57.5475 18.0988 57.5119C18.0533 57.4763 18.0176 57.4271 17.9957 57.3699C17.9739 57.3127 17.9668 57.2498 17.9753 57.1884C17.9202 57.1497 17.8757 57.0947 17.8466 57.0295C17.8175 56.9643 17.805 56.8915 17.8104 56.8188L17.6124 56.939C17.5599 56.9644 17.5034 56.9781 17.4461 56.9791C17.3889 56.9801 17.332 56.9685 17.2788 56.9449C17.2256 56.9213 17.177 56.8862 17.1359 56.8416C17.0948 56.797 17.0619 56.7437 17.0392 56.6849C17.0165 56.626 17.0043 56.5628 17.0034 56.4987C17.0024 56.4345 17.0128 56.3708 17.0339 56.3112C17.055 56.2516 17.0863 56.1972 17.1261 56.1512C17.1659 56.1051 17.2135 56.0683 17.266 56.0428ZM21.4641 54.6201C21.3981 54.694 21.3486 54.7771 21.2826 54.851C21.3677 54.7916 21.4478 54.7236 21.5218 54.6478L21.761 54.4538L21.6125 54.5369L21.4641 54.6201ZM27.6169 51.904C28.054 51.516 28.4416 51.1187 28.8953 50.7307C28.9045 50.6817 28.9212 50.6348 28.9448 50.5921C29.5876 49.724 30.2969 48.9202 31.0644 48.1901C31.1304 48.107 31.1964 48.0146 31.2706 47.9314H31.1716C30.8582 48.2548 30.5366 48.5597 30.2149 48.8553C29.3901 49.9331 28.5241 50.9555 27.6169 51.9224V51.904ZM32.4335 48.2086V48.1532L32.2191 48.4026L32.4583 48.2178L32.4335 48.2086ZM31.5345 48.6613L31.4685 48.7352C31.4826 48.7549 31.4903 48.7793 31.4903 48.8045C31.4903 48.8296 31.4826 48.8541 31.4685 48.8738L31.2211 49.1786L31.7407 48.7629C31.6673 48.7691 31.5943 48.7462 31.5345 48.6982V48.6613ZM37.4646 41.9172C37.4869 41.8823 37.5062 41.8452 37.5224 41.8063L37.4481 41.9172C37.4481 41.9172 37.4564 41.9542 37.4646 41.9542V41.9172ZM32.516 48.4673L31.7572 49.1786L32.582 48.5227C32.5563 48.5235 32.5308 48.5171 32.5078 48.5042L32.516 48.4673ZM36.6399 43.7649L36.1202 44.3562C35.7573 44.7904 35.2955 45.28 34.9243 45.705L34.3882 46.3055C34.3388 46.444 34.2645 46.5641 34.2068 46.7027C34.4766 46.4619 34.7354 46.206 34.9821 45.9359C35.578 45.2814 36.1191 44.567 36.5986 43.8018L36.6399 43.7649ZM23.2868 53.5946L22.8085 53.8625L21.2661 55.4146C21.4476 55.3037 21.6208 55.1929 21.794 55.0635C22.3154 54.6362 22.8012 54.1569 23.2456 53.6316L23.2868 53.5946ZM19.7981 55.8858C19.8022 55.9133 19.8022 55.9414 19.7981 55.9689C19.7981 55.9689 19.7403 55.9597 19.7403 55.9227L19.7981 55.8858Z" fill="#DC0000"/>
<path d="M34.5189 26.1937C34.5238 26.1889 34.5295 26.1851 34.5356 26.1827C34.5418 26.1804 34.5483 26.1794 34.5548 26.1798C34.5613 26.1802 34.5677 26.1821 34.5736 26.1853C34.5794 26.1884 34.5847 26.1929 34.589 26.1983C34.5934 26.2038 34.5967 26.2102 34.5988 26.2171C34.6009 26.224 34.6019 26.2313 34.6015 26.2386C34.6011 26.2459 34.5994 26.253 34.5966 26.2596C34.5937 26.2661 34.5898 26.272 34.5849 26.2769C32.556 28.6234 30.5435 31.0809 28.3331 33.2242C28.3331 33.2242 28.2506 33.2242 28.2836 33.1687C30.2054 30.7021 32.4075 28.4572 34.5189 26.1937Z" fill="#DC0000"/>
<path d="M28.8076 31.4238C28.7582 31.4885 28.6592 31.4238 28.7087 31.3406C30.2014 29.265 31.8727 27.3589 33.6985 25.6498C33.7727 25.5851 33.8635 25.6498 33.7975 25.7606C32.1067 27.636 30.4572 29.6038 28.8076 31.4238Z" fill="#DC0000"/>
<path d="M26.9388 23.127C26.9388 23.127 27.0213 23.127 26.9883 23.1916C24.6813 25.2533 22.6314 27.652 20.8932 30.3237C20.8932 30.3237 20.8108 30.3237 20.8355 30.3237C22.3732 27.4517 24.4571 24.9945 26.9388 23.127Z" fill="#DC0000"/>
<path d="M21.3002 28.4301C21.259 28.4301 21.2012 28.4301 21.226 28.3747C22.8626 25.9375 24.8269 23.7996 27.0488 22.0371C27.0983 22.0371 27.1561 22.0371 27.1148 22.1295C25.0364 24.1342 23.2137 26.2683 21.3002 28.4301Z" fill="#DC0000"/>
<path d="M15.4276 40.5861C17.3576 37.2695 18.1411 32.835 20.8711 30.1836C18.3968 33.2877 17.9514 37.5744 15.5183 40.6508C15.5086 40.6552 15.498 40.657 15.4876 40.6559C15.4771 40.6548 15.467 40.651 15.4581 40.6447C15.4492 40.6383 15.4418 40.6297 15.4365 40.6195C15.4312 40.6093 15.4281 40.5979 15.4276 40.5861Z" fill="#DC0000"/>
<path d="M19.8291 29.8522C18.0016 32.8377 16.5656 36.1013 15.565 39.5433C15.565 39.5988 15.4908 39.5433 15.499 39.5433C16.1752 35.9564 17.6506 32.6194 19.7878 29.8429C19.7878 29.8429 19.8456 29.8245 19.8291 29.8522Z" fill="#DC0000"/>
<path d="M18.7059 30.12C17.378 32.7899 16.3388 35.5152 15.1759 38.2683C15.1678 38.2775 15.1574 38.2838 15.1461 38.2864C15.1348 38.289 15.1231 38.2877 15.1124 38.2828C15.1018 38.2778 15.0927 38.2693 15.0864 38.2585C15.0801 38.2477 15.0768 38.235 15.0769 38.2221C15.8718 35.3112 17.0804 32.5629 18.6564 30.083C18.6564 30.083 18.7306 30.083 18.7059 30.12Z" fill="#DC0000"/>
<path d="M18.0898 29.391C16.902 31.7738 15.8577 34.2429 14.964 36.7818C14.964 36.8834 14.799 36.8465 14.8238 36.7818C15.4248 34.108 16.4958 31.5954 17.9744 29.391C17.9991 29.2432 18.0898 29.2987 18.0898 29.391Z" fill="#DC0000"/>
<path d="M14.3043 35.0346C14.854 32.9674 15.7496 31.0361 16.9436 29.3438C17.0013 29.2606 17.1333 29.3438 17.0755 29.4361C16.1188 31.2838 15.36 33.1869 14.5188 35.127C14.5059 35.1556 14.4839 35.1778 14.4572 35.1893C14.4305 35.2008 14.401 35.2009 14.3743 35.1894C14.3476 35.1778 14.3257 35.1557 14.3127 35.1271C14.2998 35.0985 14.2968 35.0655 14.3043 35.0346Z" fill="#DC0000"/>
<path d="M14.7919 27.1629C13.8187 28.4655 12.8537 29.7958 11.93 31.1446C11.5506 31.7728 11.1629 32.4011 10.8 33.0477C10.8277 33.0024 10.858 32.9592 10.8907 32.9184L11.7815 31.7082C11.7815 31.7082 11.699 31.7082 11.7238 31.662C13.6421 28.5502 15.9695 25.7812 18.6271 23.449C18.6848 23.4028 18.7673 23.449 18.7096 23.5506C17.2085 25.1489 15.7981 26.8118 14.4125 28.4932C14.5115 28.4193 14.6022 28.3361 14.7094 28.2715C14.7357 28.2529 14.7655 28.2411 14.7964 28.2372C14.8273 28.2333 14.8586 28.2372 14.888 28.2488C14.9173 28.2603 14.944 28.2792 14.9659 28.3039C14.9878 28.3286 15.0045 28.3586 15.0146 28.3916C15.361 28.059 15.7651 28.5671 15.4847 28.9644C15.3198 29.1861 15.1878 29.4263 15.0393 29.6572L15.8229 28.8443C15.9796 28.678 16.1198 28.8443 16.1033 29.0198C16.3177 28.7981 16.5239 28.5579 16.7549 28.3454H16.7961L16.9528 28.1791C17.06 28.0775 17.2085 28.2345 17.1013 28.3454C17.0699 28.3928 17.034 28.4362 16.9941 28.4747C17.0061 28.4936 17.0126 28.5162 17.0126 28.5394C17.0126 28.5626 17.0061 28.5852 16.9941 28.604C16.8703 28.7703 16.7714 28.9459 16.6477 29.1214C16.8703 28.9274 17.093 28.7149 17.3157 28.5579C17.333 28.5506 17.3519 28.55 17.3695 28.5562C17.3871 28.5624 17.4023 28.575 17.4127 28.592C17.4232 28.609 17.4282 28.6294 17.4271 28.65C17.4259 28.6706 17.4187 28.6903 17.4065 28.7057C16.8813 29.1923 16.3905 29.7235 15.9384 30.2947C15.3033 31.468 14.6929 32.669 14.1239 33.9069C14.1816 33.8607 14.2228 33.9531 14.1898 34.0086L13.8022 34.5629C13.7032 34.7292 13.563 34.6275 13.5548 34.4797C13.546 34.5055 13.5285 34.5262 13.5061 34.5375C13.4836 34.5488 13.4581 34.5496 13.4352 34.5398C13.4122 34.53 13.3937 34.5103 13.3836 34.4852C13.3735 34.4601 13.3728 34.4315 13.3816 34.4058C13.3816 34.258 13.4805 34.1102 13.5218 33.9531C13.4684 34.0125 13.4072 34.0624 13.3403 34.1009C13.3172 34.1106 13.2918 34.1103 13.2689 34.1C13.246 34.0898 13.2274 34.0703 13.2166 34.0455L13.1671 33.9531C13.1568 33.9352 13.1513 33.9144 13.1513 33.8931C13.1513 33.8718 13.1568 33.8509 13.1671 33.833L13.2331 33.7314C13.2452 33.7082 13.2644 33.6907 13.2872 33.6822C13.31 33.6737 13.3347 33.6748 13.3568 33.6852C13.4579 33.3693 13.5763 33.0608 13.7115 32.7614C13.7424 32.6923 13.7699 32.6213 13.7939 32.5489C13.7681 32.5901 13.7376 32.6273 13.7032 32.6597C12.8042 33.8423 12.0537 35.1911 11.0804 36.2905C11.0804 36.2905 11.0062 36.2905 10.965 36.2905C10.2887 37.5931 9.57935 38.8865 8.82881 40.1521C8.57313 40.5956 8.35045 41.076 8.06178 41.4917C7.99819 41.5828 7.90741 41.6451 7.8061 41.6672H7.71539C7.64941 41.7873 7.59992 41.9167 7.53394 42.0368C7.56821 42.0764 7.58735 42.1294 7.58735 42.1846C7.58735 42.2398 7.56821 42.2928 7.53394 42.3324C7.44322 42.4248 7.37722 42.5356 7.2865 42.628C7.19577 42.7204 7.36898 42.6927 7.34423 42.7574C7.17235 43.1979 6.95357 43.6136 6.69266 43.9953L6.91536 43.7644C7.24213 43.398 7.60138 43.0699 7.98756 42.7851C8.01064 42.7727 8.03657 42.7687 8.06178 42.7736C8.087 42.7784 8.11027 42.7919 8.12836 42.8122C8.14645 42.8324 8.15849 42.8585 8.16281 42.8867C8.16714 42.9149 8.16354 42.944 8.15252 42.9699C7.95967 43.2676 7.75031 43.5515 7.52569 43.8198C7.88859 43.441 8.26798 43.0807 8.60613 42.7574C8.63566 42.7243 8.67572 42.7057 8.71749 42.7057C8.75925 42.7057 8.79928 42.7243 8.82881 42.7574C8.85834 42.7905 8.87495 42.8353 8.87495 42.8821C8.87495 42.9289 8.85834 42.9737 8.82881 43.0068C8.1693 43.9642 7.40131 44.8214 6.54421 45.5566C6.51306 45.5749 6.47751 45.5816 6.44275 45.5756C6.40798 45.5697 6.37584 45.5515 6.35098 45.5236C6.32611 45.4958 6.30984 45.4598 6.30454 45.4208C6.29924 45.3819 6.3052 45.3421 6.32153 45.3072C6.42875 45.1317 6.59369 44.9746 6.72566 44.7991C6.5793 44.9648 6.41597 45.1105 6.23905 45.2333C6.19866 45.2565 6.15274 45.2647 6.10791 45.2568C6.06308 45.249 6.02162 45.2254 5.98953 45.1894C5.95744 45.1535 5.93637 45.107 5.92933 45.0568C5.92229 45.0066 5.92966 44.9552 5.95037 44.9099C5.99986 44.8268 6.07409 44.7529 6.13182 44.6697C6.05258 44.7551 5.95652 44.8184 5.8514 44.8545C5.82274 44.8644 5.79221 44.8653 5.76311 44.8572C5.734 44.8491 5.70742 44.8323 5.68621 44.8086C5.66501 44.7848 5.64999 44.755 5.64277 44.7224C5.63554 44.6898 5.63638 44.6556 5.64521 44.6235C5.68365 44.4491 5.76343 44.2895 5.87614 44.1616C5.87614 44.1616 5.82665 44.1616 5.8184 44.1616C5.81016 44.1616 5.76891 44.2355 5.73592 44.2633C5.71517 44.2757 5.69196 44.2821 5.66842 44.2819C5.64487 44.2816 5.62176 44.2747 5.60121 44.2618C5.58067 44.249 5.56334 44.2305 5.55085 44.2081C5.53836 44.1857 5.53109 44.1602 5.52973 44.1339C5.56132 43.7426 5.71976 43.3778 5.97511 43.1084C5.92563 43.1084 5.86789 43.053 5.86789 42.9883C5.86789 42.6465 6.14832 42.434 6.36276 42.2215C6.59281 41.9725 6.83512 41.7381 7.08856 41.5194C7.13804 41.3716 7.18752 41.2238 7.22875 41.076C6.90399 41.5761 6.48429 41.9895 5.99985 42.2862C5.95396 42.3186 5.89961 42.3326 5.84569 42.3259C5.79177 42.3191 5.74149 42.292 5.70312 42.249C5.66476 42.2061 5.64056 42.1498 5.63454 42.0894C5.62851 42.029 5.641 41.9681 5.66995 41.9167C6.07884 41.215 6.56364 40.5727 7.1133 40.0043L7.68239 39.256C7.72363 39.025 7.7731 38.7941 7.82259 38.5539C7.809 38.5571 7.79496 38.5571 7.78136 38.5539C7.31949 39.1174 6.85762 39.6717 6.4205 40.263C6.37589 40.2984 6.32258 40.3174 6.26791 40.3174C6.21325 40.3174 6.15994 40.2984 6.11533 40.263C6.05527 40.3321 5.98892 40.3941 5.91737 40.4478C5.87814 40.4999 5.82871 40.5411 5.77292 40.5684C5.71714 40.5956 5.65651 40.6081 5.59572 40.6048C5.4983 40.6326 5.39621 40.6326 5.29879 40.6048C5.25016 40.6615 5.18762 40.7008 5.11905 40.7176C5.05049 40.7344 4.97902 40.7281 4.91367 40.6994C4.84832 40.6708 4.79204 40.621 4.75195 40.5564C4.71186 40.4919 4.68976 40.4155 4.68847 40.3369C4.67002 39.8293 4.52736 39.3371 4.27609 38.9142C4.27609 38.8587 4.27609 38.8125 4.27609 38.7571C4.20186 39.062 4.11113 39.3484 4.04515 39.681C4.03816 39.7105 4.02263 39.7367 4.001 39.7553C3.97937 39.7739 3.95286 39.7841 3.92557 39.7841C3.89827 39.7841 3.87174 39.7739 3.85011 39.7553C3.82848 39.7367 3.81295 39.7105 3.80596 39.681C3.96529 36.9727 4.80283 34.3696 6.22253 32.1701C6.1648 32.2625 6.09882 32.3456 6.04934 32.438C5.56272 33.2325 5.18334 34.1009 4.64724 34.8493C4.58951 34.9324 4.46579 34.8493 4.49053 34.7569C5.156 32.8049 6.25111 31.0729 7.67414 29.7219C7.73187 29.6757 7.81435 29.7219 7.77311 29.8051C7.45145 30.3686 7.0803 30.9044 6.7174 31.4403C7.1177 30.8337 7.55887 30.2623 8.03704 29.7311C8.11127 29.648 8.202 29.7311 8.14426 29.8512C8.08653 29.9713 8.00404 30.0822 7.92982 30.1931C7.85559 30.3039 7.97932 30.1931 7.99581 30.1931C8.35871 30.9506 7.6659 31.5142 7.17104 32.0408C7.11331 32.1054 7.07207 32.1886 7.01433 32.2533C6.42656 33.6282 5.91962 35.0447 5.49676 36.4937C5.49296 36.5107 5.48623 36.5267 5.47692 36.5407C5.46762 36.5548 5.45592 36.5667 5.44251 36.5757C5.42911 36.5847 5.41425 36.5906 5.39879 36.5932C5.38333 36.5958 5.36757 36.5949 5.35241 36.5907C5.33724 36.5864 5.32298 36.5789 5.31042 36.5685C5.29786 36.558 5.28725 36.545 5.27921 36.53C5.27117 36.5149 5.26586 36.4983 5.26356 36.481C5.26126 36.4637 5.26203 36.446 5.26582 36.429C5.42391 35.5202 5.66433 34.6318 5.98337 33.7776C5.78606 34.1212 5.60438 34.4758 5.43902 34.84C5.37303 35.0155 5.32355 35.2003 5.25757 35.3851C4.9265 36.2712 4.70454 37.2035 4.59776 38.1566C4.59776 38.2582 4.45754 38.2582 4.45754 38.1566C4.45754 38.055 4.49878 37.861 4.51528 37.7132C4.4493 37.9719 4.37507 38.249 4.30908 38.5169C4.34593 38.4615 4.39382 38.4165 4.44895 38.3855C4.50409 38.3545 4.56491 38.3383 4.6266 38.3383C4.6883 38.3383 4.74915 38.3545 4.80428 38.3855C4.85941 38.4165 4.9073 38.4615 4.94415 38.5169C5.14538 38.8631 5.27761 39.2539 5.33179 39.6625L5.58747 39.4685C5.61681 39.4446 5.65024 39.4277 5.68566 39.419C5.72108 39.4102 5.75773 39.4097 5.79333 39.4175C5.82894 39.4253 5.86272 39.4412 5.89258 39.4643C5.92244 39.4874 5.94772 39.5171 5.96686 39.5516C6.27459 38.9593 6.70802 38.4611 7.22875 38.1012C7.25541 38.0764 7.28898 38.0628 7.32362 38.0628C7.35826 38.0628 7.39181 38.0764 7.41846 38.1012C7.72537 37.7636 8.05639 37.4546 8.4082 37.1773C8.43162 37.1572 8.45123 37.1321 8.46591 37.1034C8.7187 36.6522 8.99406 36.2173 9.29068 35.8008C9.29068 35.8008 9.18348 35.8008 9.20823 35.7546C9.45566 35.071 9.78555 34.4058 10.0907 33.7406C10.0247 33.7406 9.97525 33.676 10.0247 33.5928C10.0742 33.5097 10.132 33.408 10.1814 33.3064C10.569 31.9564 11.2725 30.7473 12.2186 29.8051C13.6109 27.6429 15.1972 25.6462 16.9528 23.8462C16.9582 23.8402 16.9647 23.8354 16.9717 23.8321C16.9788 23.8288 16.9864 23.8271 16.9941 23.8271C17.0017 23.8271 17.0093 23.8288 17.0164 23.8321C17.0234 23.8354 17.0299 23.8402 17.0353 23.8462C17.0407 23.8523 17.045 23.8595 17.0479 23.8674C17.0509 23.8754 17.0524 23.8839 17.0524 23.8924C17.0524 23.901 17.0509 23.9095 17.0479 23.9174C17.045 23.9254 17.0407 23.9326 17.0353 23.9386C16.9033 24.0865 16.7961 24.2527 16.6724 24.4098C16.8044 24.262 16.9281 24.1049 17.06 23.9664C17.0671 23.9558 17.0762 23.947 17.0865 23.9407C17.0969 23.9343 17.1084 23.9306 17.1202 23.9296C17.132 23.9287 17.1438 23.9306 17.1549 23.9352C17.1659 23.9399 17.176 23.9471 17.1843 23.9565C17.1927 23.9658 17.1991 23.9771 17.2033 23.9895C17.2074 24.0019 17.2091 24.0151 17.2083 24.0283C17.2074 24.0415 17.2041 24.0544 17.1984 24.066C17.1928 24.0776 17.185 24.0877 17.1755 24.0957C17.0106 24.2897 16.8786 24.5022 16.7136 24.6962C17.258 24.0864 17.7776 23.4582 18.3632 22.8485L19.0312 22.4697C18.0085 23.5968 16.9941 24.7331 16.0043 25.8879C15.6167 26.276 15.2043 26.7009 14.7919 27.1629ZM7.69065 31.0061C7.69476 30.9476 7.69476 30.8889 7.69065 30.8305L7.51743 31.1723C7.5685 31.1122 7.62366 31.0566 7.68239 31.0061H7.69065ZM12.0949 33.5559C12.0875 33.4915 12.0875 33.4263 12.0949 33.3619C12.0289 33.4727 11.9547 33.5743 11.8805 33.6852C11.8062 33.7961 11.9465 33.6852 11.9794 33.6852L12.0949 33.5559ZM11.2042 34.5352C11.1622 34.6157 11.1154 34.6928 11.064 34.7661C11.1217 34.6922 11.1547 34.5998 11.2124 34.5167C11.2076 34.5235 11.2021 34.5297 11.1959 34.5352H11.2042ZM10.5361 35.5699L10.3712 35.7639L10.5031 35.6253L10.5361 35.5699ZM9.99174 36.1888L10.099 36.0595L9.98351 36.1981L9.99174 36.1888ZM8.42468 38.286C8.40178 38.2531 8.38496 38.2154 8.3752 38.1751C8.26154 38.311 8.12755 38.4235 7.9793 38.5077C8.02054 38.5077 8.07002 38.5077 8.07827 38.5908C8.08652 38.674 8.07827 38.6832 8.07827 38.7294C8.19374 38.5908 8.30921 38.4338 8.42468 38.2952V38.286ZM9.76081 35.0894C9.90102 34.8862 10.033 34.6737 10.165 34.4705C10.2077 34.356 10.2573 34.2449 10.3134 34.1379C10.31 33.9927 10.3413 33.8492 10.4041 33.7222C10.066 34.3319 9.71958 34.9416 9.38142 35.5699C9.49689 35.4128 9.63709 35.265 9.76081 35.0987V35.0894Z" fill="#DC0000"/>
<path d="M33.1883 49.5851C30.4705 52.4775 27.3646 54.8748 23.9838 56.6894C23.9762 56.6963 23.9672 56.7011 23.9576 56.7036C23.9481 56.7061 23.9381 56.7062 23.9285 56.7038C23.9189 56.7014 23.9099 56.6967 23.9022 56.6899C23.8944 56.6832 23.8881 56.6745 23.8837 56.6647C23.8793 56.6548 23.877 56.644 23.8768 56.633C23.8766 56.622 23.8786 56.6111 23.8827 56.6011C23.8867 56.5911 23.8927 56.5822 23.9003 56.5751C23.9078 56.568 23.9166 56.5629 23.9261 56.5601C27.0437 54.2228 30.1284 52.0517 33.1223 49.4834C33.18 49.4373 33.2378 49.5389 33.1883 49.5851Z" fill="#DC0000"/>
<path d="M40.2 31.0439C37.3331 34.8253 34.0962 38.2341 30.5501 41.2062C30.4512 41.2802 30.3522 41.1231 30.4347 41.0307L31.0863 40.3748C30.2615 41.1138 29.4367 41.8345 28.612 42.5273C28.3563 42.7398 28.1336 42.2779 28.3893 42.0654C30.3669 40.3675 32.2611 38.551 34.0637 36.6239C34.0637 36.6239 34.0637 36.624 34.0637 36.5501C34.6575 35.774 35.2761 35.0072 35.8947 34.2404C34.7032 35.6567 33.4274 36.9809 32.076 38.2037C31.9688 38.2961 31.8368 38.1575 31.9275 38.0467C34.5173 34.8779 37.3298 31.9493 39.9031 28.762C40.0185 28.6235 40.167 28.8082 40.068 28.9468C39.6061 29.575 39.1195 30.2125 38.6412 30.7945L40.4639 28.568C40.5216 28.4941 40.6288 28.568 40.5794 28.6604C40.2165 29.2978 39.8123 29.9261 39.3834 30.5635C41.033 28.6234 42.6 26.6649 44.2248 24.6509C44.2391 24.6288 44.2605 24.614 44.2845 24.6097C44.3085 24.6054 44.333 24.6119 44.3527 24.6278C44.3724 24.6437 44.3856 24.6678 44.3895 24.6946C44.3933 24.7215 44.3875 24.749 44.3733 24.771C43.1258 26.9132 41.7305 28.9427 40.2 30.8407C40.2165 30.9423 40.2412 30.9885 40.2 31.0439Z" fill="#DC0000"/>
</svg>
